<svg id="jumping" xmlns="http://www.w3.org/2000/svg" xmlns:xlink="http://www.w3.org/1999/xlink" viewBox="0 0 159.073 440" shape-rendering="geometricPrecision" text-rendering="geometricPrecision"><g id="jumping-u-group-421" transform="translate(-.00293 89.320923)"><path id="jumping-u-shadow" d="M1900.03,2380.588486c0,3.451822,29.102179,6.250514,65.000493,6.250514s64.999507-2.798692,64.999507-6.250514-29.101193-6.249486-64.999507-6.249486-65.000493,2.797663-65.000493,6.249486Z" transform="translate(-1892.932305-2038.159923)" opacity="0.1"/><g id="jumping-u-group-424" transform="translate(0-2)"><path id="jumping-u-path-208" d="M4823.6,954.166c1.205276,5.953528,2.934335,11.788894,5.167,17.438c2.5,6.61,5.669,13.757,9.115,20.812c6.189897,12.588685,13.022229,24.851169,20.47,36.739l-8.876,5.032c-4.758-9.446-11.457-24.149-17.344-39.064-2.95-7.454-5.709-14.956-8-21.847s-4.087-13.171-5.268-18.163c-.326142-1.115509-.29114-2.305588.1-3.4.244364-.662895.845117-1.128594,1.548-1.2c1.251-.067,2.634,1.142,3.088,3.653Z" transform="translate(-4806.42-925.591)" fill="#ffb888"/><path id="jumping-u-path-209" d="M4811.885,1048.6c0,0,1.1,2.2,2.82,5.5s4.073,7.691,6.545,12.083s5.055,8.784,7.122,12.149s3.6,5.717,3.872,6.153c1.119443,1.706151,1.753115,3.684951,1.833,5.724.140681,1.597015-.52524,3.158835-1.775,4.163-1.318189.88289-2.984653,1.065853-4.463.49-2.133667-.885566-3.907685-2.462706-5.037-4.478-.16-.255-1.591-2.693-3.528-6.247s-4.382-8.225-6.695-12.911-4.518-9.374-6.124-12.9-2.627-5.886-2.627-5.886Z" transform="translate(-4774.26-971.482)" fill="#e4b363"/><path id="jumping-u-path-210" d="M4839.475,1048.468q1.6,3.408,3.251,6.783l10.38-5.082q-1.613-3.292-3.167-6.608Z" transform="translate(-4812.26-969.123)" fill="#bf9247"/><path id="jumping-u-path-327" d="M4893.1,907.791c-.287-1.756-2.894,1.477-9.376,3.251-4.118,1.127-8.936-.348-8.819.9.348,3.715.535,8.261,1.264,10.677c1.174,3.894,8.935,11.058,11.03,11.709c5.25,1.632,9.39-7.746,9.643-11.1.303-4.04-2.069-5.181-3.742-15.437Z" transform="translate(-4874.87-905.369)" fill="#ffb888"/><path id="jumping-u-path-328" d="M4897.537,918.4c.935,4.909-5.152,8.249-5.84,10.471-2.383-1.907-10.052.475-11.82-8.935-.684-3.638,6.076-5.437,10.365-5.781c2.45-.2,4.564-1.556,5.265-1.742c2.193-.588,1.706,4.287,2.03,5.987Z" transform="translate(-4878.26-907.744)" fill="#eda87a"/><path id="jumping-u-path-329" d="M4893.453,907.347c.7,3.366,1.241,5.708,1.458,6.666.331,1.46.748,3.521-1.508,4.2-1.386.418-2.433-.424-3.106-2.339-.968913-2.704594-1.645109-5.50526-2.017-8.354-.249-2.613,4.161-4.53,5.173-.173Z" transform="translate(-4880.29-904.19)" fill="#ffb888"/><path id="jumping-u-path-330" d="M4885.219,906.151c.378,3.083.7,5.234.825,6.112.192,1.339.545,3.247-1.744,3.71-1.406.285-2.494-.564-2.982-2.337-.759494-2.525101-1.236413-5.126691-1.422-7.757-.005-2.379,4.679-3.53,5.323.272Z" transform="translate(-4866.85-903.686)" fill="#ffb888"/><path id="jumping-u-path-331" d="M4901.771,910.218c.387416,2.083584.880046,4.146223,1.476,6.18.358,1.352.719,3.359-1.407,3.923-1.207.321-2.047-.438-2.676-2.228-.936959-2.537664-1.609522-5.165249-2.007-7.841-.234-2.441,3.669-4.103,4.614-.034Z" transform="translate(-4893.36-905.589)" fill="#ffb888"/><path id="jumping-u-path-332" d="M4909.393,913.52c.567,2.741,1.175,4.558,1.352,5.337.269,1.189.868,2.589-.954,3.247-1.108.4-2.375-.663-2.923-2.223-.78905-2.004744-1.354798-4.090329-1.687-6.219-.204-2.129,3.388-3.69,4.212-.142Z" transform="translate(-4905.17-907.303)" fill="#ffb888"/><path id="jumping-u-path-333" d="M4887.1,912.409c-.7.186-1.423.654-2.057.82-.374.1-1.121.4-1.658-.792.134,1.311-.529,1.4-.853,1.461-1.626.285-2.683.415-2.705,2.016-.035,2.477,2.342,3.485,3.329,4.037c1.875,1.048,4.038.392,6.058-.157.032854-.468335.004617-.938954-.084-1.4-.32-1.694.162-6.569-2.03-5.985Z" transform="translate(-4869.86-907.744)" fill="#eda87a"/><path id="jumping-u-path-334" d="M4879.746,929.25c1.686-4.17,4-8.031,3.864-9.421s-1.377-2.734-2.37-3.8c-.74-.791-2.321-3.114-3.792-3.833-1.354-.661-2.993,1.527-6.191,1.981-2.549.362-1.892,2.9.386,3.458c1.545865.264733,3.132823-.112684,4.394-1.045.211338.607555.46979,1.197682.773,1.765-.726.682-4.667,3.375-4.866,7-.383,7.032,5.898,8.603,7.802,3.895Z" transform="translate(-4858.81-907.611)" fill="#ffb888"/><g id="jumping-u-group-145" transform="translate(72.229 86.109)"><path id="jumping-u-path-511" d="M4754.932,1082.682c1.026-2.627,1.752-5.362,2.29-7.081c2.2-7.026,2.139-8.387,4.812-9.742c2.2-1.117,7.966.082,6.164,6.723-1.656,6.1-2.862,12.068-2.882,15.892-3.245-2.406-6.545-5.148-10.384-5.792Z" transform="translate(-4754.93-1065.49)" fill="#eaa475"/></g><g id="jumping-u-group-146" transform="translate(36.904 103.3)"><path id="jumping-u-path-512" d="M4740.952,1178.987c3.453-14.5,3.348-16.152,3.708-20.163c1.3-14.477-2.018-29.782,2.176-41.717c3.317-9.44,7.226-9.665,12.514-10.855c5.063-1.139,6.485-.33,8.8-2.569c1.537083-1.708972,2.711439-3.712046,3.452-5.888c3.839.644,7.14,3.386,10.384,5.792c0,.269,0,.528.014.776.26,6.055,8.4,8.5,11.667,13.245c2.406,3.49,2.8,9.392-6.193,23.322-3.393,5.257-7.556,10.542-10.214,16.206-4.635,9.874-5.09,14.327-3.878,25.747.372,3.5.741,6.282.992,8.664.371957,2.885583.341331,5.808844-.091,8.686-1.3,8.183-7.816,11.636-14.327,12.071-13.471.9-25.378-14.186-23.478-19.88.521-1.56,1.049-3.137,1.765-4.947c1.113406-2.758503,2.018931-5.596418,2.709-8.49Z" transform="translate(-4736.28-1097.8)" fill="#ffb888"/></g><g id="jumping-u-group-255" transform="translate(37.01 110.185)"><path id="jumping-u-path-701" d="M4745.086,1124.468c-1.663,5.245-2.05,13.57-2.1,17.441s.086,15.958.116,20.58-1.982,14.371-2.6,16.845c-.958871,3.506675-2.168657,6.939862-3.62,10.273-.329.7-1.164,2.422-1.333,2.772.746,1.208,2.78,3.363,9.233,5.017c7.4,1.9,14.76.02,19.163-.366c3.489536-.419745,7.028579.046968,10.29,1.357c1.152.479,1.042-1.165.477-2.268-.024-.047-.045-.091-.065-.133-.438-.948.247-.734.956-1.987.74-1.308-.265.665-1.8-9.824s5.56-24.213,7.037-26.618s6.808-10.884,10.01-16.648s3.847-10.3,3.837-12.893c-.013-2.75-1.617-5.4-4-7.582-1.3-1.194-3.661-2.7-5.514-4.213-1.537-1.262-2.684-2.677-2.948-2.617-3.119,2.91-10.726,6.954-17.012,4.8-2.671-.917-3.368-5.653.119-7.671-1.706.069-10.191,1.017-13.636,3.061s-5.173,6.137-6.61,10.674Z" transform="translate(-4735.56-1110.73)" fill="#e4b363"/></g><g id="jumping-u-group-256" transform="translate(49.782 110.185)"><path id="jumping-u-path-702" d="M4735.557,1117.085c9.738,1.2,11.759,13.234,11.759,13.234s15.4-8.229,31.226-2.359c1.335188.446894,2.471656,1.347364,3.212,2.545.112869-.825205.169665-1.657112.17-2.49-.013-2.751-1.617-5.4-4-7.583-1.3-1.194-3.661-2.7-5.514-4.213-1.537-1.262-2.684-2.677-2.948-2.617-3.119,2.91-10.675,6.678-16.96,4.523-2.672-.917-3.419-5.377.067-7.395-1.706.069-10.191,1.017-13.636,3.061-1.356533.832969-2.509934,1.958354-3.376,3.294Z" transform="translate(-4735.56-1110.73)" fill="#bf9247"/></g><path id="jumping-u-path-703" d="M4808.216,1124.271c-3.03,5.546-7.34,16.5-8.541,22.379-1.719,8.4-3.564,14.526-5.854,28.519-1.417,8.663-4.048,26.761-4.49,28.393-.838274-.067353-1.669883-.201106-2.487-.4.918-3.829,4.216-24.338,5.194-31.219c1.135-7.982,4.093-20.511,5.31-26.15c1.037-4.8,4.8-15.964,8.3-21.829c1.481-2.481,3.435-1.281,2.568.307Z" transform="translate(-4739.57-1006.07)" fill="#bf9247"/><path id="jumping-u-path-704" d="M4764.578,1112.754c.246,1.134.5,2.38,3.86,2.455s14.434.178,12.951,1.95c-3.189,3.812-12.234,8.763-12.921,7.565-.67-1.168-2.458-5.369-4.06-6.094-2.817-1.276-6,3.132-6.632,2.385-.216-.255-.171-3.4,4.445-8.987c1.818-2.196,2.279.372,2.357.726Z" transform="translate(-4697.17-1000.74)" fill="#b28845"/><g id="jumping-u-group-257" transform="translate(63.996 114.376)"><path id="jumping-u-path-705" d="M4783.7,1121.217c-.208129.886382-.110512,1.817092.277,2.641.269.437.547-.142,1.454.319.643.327.754.983,1.163.98c1.441714-.174628,2.744954-.943521,3.595-2.121-.178772-1.069067-.429679-2.124811-.751-3.16-.884107-.580815-1.859269-1.009413-2.885-1.268-.796.682-1.638,1.43-2.853,2.609Z" transform="translate(-4783.61-1118.61)" fill="#43474c"/></g><path id="jumping-u-path-706" d="M4771.638,1113.57c.263-.41-.631-1.631-1.351-3.2s-1.272-3.5-1.755-3.5c-.2,1.644-1.037,3.345-4.6,4.991-4.422,2.044-7.368,1.175-8.641,1.238-.4.02-.12,1.153.136,2.071.721,2.586,1.316,4.418,1.995,6.524.137.423,5.6-1.679,8.317-3.307c2.2434-1.232841,4.242581-2.86533,5.899-4.817Z" transform="translate(-4685.93-998.738)" fill="#e4b363"/><path id="jumping-u-path-707" d="M4789.764,1110.348c-.677-.923-.427-1.776.979-4.187.335-.575.846-1.267,1.319-2c.218-.338.513-.859.726-1.269-.920788.54447-1.76432,1.21008-2.508,1.979-1.205,1.17-2.013,1.673-2.508,2.208-4.035,4.361-5.473,9.521-4.841,9.334.746-.22,3.851-3.182,5.1-4.167c1.127-.893,2.11-1.384,1.733-1.898Z" transform="translate(-4721.77-996.879)" fill="#e4b363"/><path id="jumping-u-path-871" d="M4834.371,1129.532c-.638,1.264-1.31,2.62-1.952,4.081-.671,1.446-1.3,3-1.968,4.607-1.293,3.235-2.568,6.754-3.814,10.428s-2.483,7.5-3.83,11.319c-1.305135,3.825961-2.841293,7.569177-4.6,11.209-.453.892-.935,1.765-1.395,2.633-.5.853-1.017,1.686-1.515,2.511-.294.436-.658.9-.988,1.343l-.254.332c-.09.1-.186.2-.278.3l-.562.588c-.187.192-.372.392-.563.572l-.587.5c-.374987.33322-.766836.646966-1.174.94-1.420419,1.024022-2.911471,1.946322-4.462,2.76l-1.943,1.042c-.623.328-1.184.641-1.723.94-1.652974.890625-3.215629,1.93954-4.666,3.132-.600786.505308-1.164565,1.053046-1.687,1.639l-.511.112-.6.153c-.431.1-.93.21-1.471.3-1.070052.273718-2.178939.362997-3.279.264-.457827-.770803-.797915-1.605687-1.009-2.477-.273219-1.414172-.075461-2.878916.563-4.17.134-.137.507-.49,1.093-1.024.33895-.311879.695537-.604027,1.068-.875.419-.308.875-.7,1.408-1.036s1.106-.739,1.734-1.1c.626-.342,1.306-.764,2.011-1.1c1.428-.741,2.971-1.412,4.558-2.117c1.552268-.648134,3.062541-1.392583,4.522-2.229l.522-.311.467-.338.479-.337.416-.372.431-.37.364-.415.38-.415.424-.59c2.436403-3.449348,4.52431-7.132078,6.233-10.994c1.838-4.019,3.509-8.2,5.126-12.124s3.166-7.613,4.628-10.739c2.871-6.278,5.334-10.3,5.689-10.508c1.506-.788,3.018,1.331,2.715,1.936Z" transform="translate(-4766.92-1008.36)" fill="#313638"/><path id="jumping-u-path-872" d="M4839.1,1208.149c-.261.393-.541.763-.807,1.141l-.4.562-.2.279c-.055684.087898-.119641.170272-.191.246-.241.256-.467.516-.692.773q-.409.345-.791.693c-.579782,1.292169-1.24561,2.54398-1.993,3.747-.589,1.028-.865,1.708-.416,1.718c1.269.018,1.73.576,1.415,1.566-.72961,1.514883-1.792879,2.844824-3.11,3.89c2.37697-1.189406,4.671755-2.53641,6.869-4.032l.276-.582c.082-.194.154-.384.219-.56.13-.354.229-.667.307-.946.13231-.436432.199698-.889953.2-1.346-.006-.682-.194-.955-.4-1.108-.424-.293-.907-.122-.738-1.192.045-.215.061-.537.1-.876.039-.357.086-.693.127-1.136.081-.909.183-1.907.225-2.837Z" transform="translate(-4794.92-1046.12)" fill="#a8a8a8"/><path id="jumping-u-path-873" d="M4820.251,1196.566c-.38.717-.731,1.453-1.125,2.145-.045,3.173.965,3.68,1.787,3.694.686,0,.644,3.249.172,5.959c1.148103-1.827426,2.189187-3.719941,3.118-5.668-.363-2.243-.816-2.573-1.336-2.459s-1.128.717-1.863.468c-1.045-.36-1.038-1.912-.753-4.139Z" transform="translate(-4772.52-1040.7)" fill="#a8a8a8"/><g id="jumping-u-group-372" transform="translate(87.24 130.886)"><path id="jumping-u-path-974" d="M4699.682,1155.645q-.757,2.055-1.563,4.349c-.251.762-.6,1.55-.9,2.353l-.967,2.467c-1.338,3.341-2.906,6.878-4.726,10.483-.427.928-.943,1.786-1.429,2.693s-.985,1.821-1.506,2.728q-.815,1.323-1.644,2.672c-.279.448-.549.913-.841,1.353s-.6.869-.9,1.307c-.607.865-1.191,1.784-1.834,2.63l-1.956,2.545c-.658.856-1.377,1.631-2.071,2.458-.354.4-.693.826-1.063,1.219l-1.113,1.182c-.495.494-.978,1.02-1.488,1.493l-1.561,1.375-.784.689c-.262.228-.54.412-.809.62l-1.633,1.214c-.544.412-1.119.721-1.678,1.085-.566.336-1.118.735-1.7,1.01l-1.733.892c-.286172.167048-.595538.290727-.918.367-.172279.04064-.349041.059123-.526.055-.178434.004125-.356794-.010961-.532-.045-.646675-.136114-1.262233-.391834-1.815-.754-.509306-.317004-.993709-.672367-1.449-1.063-.870027-.752019-1.692291-1.557584-2.462-2.412-1.557424-1.728532-3.006521-3.551674-4.339-5.459-1.442078-2.0407-2.76302-4.164358-3.956-6.36-1.245-2.282-2.4-4.716-3.477-7.167-2.149-4.915-4.006-9.824-5.634-14.177l12.872-9.276c.607,2.634,1.333,5.762,2.22,9.318s1.929,7.541,3.261,11.806c.669,2.13,1.408,4.332,2.313,6.534.449755,1.115574.963268,2.20437,1.538,3.261.290491.532565.620411,1.042654.987,1.526.34351.492202.791954.902052,1.313,1.2.252779.12713.53636.180171.818.153.067224-.005843.13402-.015862.2-.03l.184-.072c.121975-.048365.238876-.108658.349-.18l1.364-.79c.467-.253.891-.569,1.335-.862s.9-.587,1.318-.915c.834-.669,1.727-1.294,2.517-2.038l1.22-1.089c.4-.371.775-.77,1.165-1.156c2.326626-2.353341,4.430898-4.916563,6.286-7.657l.706-1.015c.228-.342.438-.694.658-1.04q.651-1.05,1.291-2.078c.406-.7.791-1.41,1.18-2.11s.785-1.389,1.12-2.1c2.528743-4.961494,4.556118-10.162925,6.052-15.527.834-3.158,3-4.115,4.75-3.507.934492.339351,1.679626,1.061564,2.048,1.985.221545.539618.337638,1.11669.342,1.7.003969.332513-.02079.664748-.074.993-.027636.181703-.065699.361667-.114.539q-.094.307-.212.625Z" transform="translate(-4640.67-1149.63)" fill="#ffb888"/></g><g id="jumping-u-group-373" transform="translate(81.216 121.916)"><path id="jumping-u-path-975" d="M4735.585,1195.189c0,0-.474-.447-1.25-1.3s-1.857-2.112-3.117-3.8c-1.535473-2.065985-2.938292-4.227328-4.2-6.471-1.657904-3.008261-3.132589-6.113916-4.416-9.3-1.423-3.447-2.774-7.111-4.032-10.63s-2.424-6.905-3.449-9.88c-.515-1.492-.991-2.878-1.422-4.13-.336-.955-.638-1.807-.895-2.536-.475-1.337-.789-2.221-.886-2.494-1.634-4.8.36-9.855,4.484-11.361c2.053013-.770667,4.329843-.682362,6.317.245c2.353315,1.234361,4.100252,3.37649,4.836,5.93.055.157.3.983.674,2.306.186.656.405,1.436.655,2.318.182.684.385,1.448.606,2.275.885,3.326,2.053,7.791,3.337,12.388s2.7,9.3,3.956,12.845c.628,1.77,1.211,3.241,1.652,4.261s.727,1.589.727,1.589Z" transform="translate(-4711.35-1132.78)" fill="#e4b363"/></g><path id="jumping-u-path-976" d="M4717.327,1207.608c-1.165366-1.709959-2.14238-3.540938-2.914-5.461l-6.637,23.4c.874,1.094,1.761,2.119,2.69,3.073.922078.967508,1.925788,1.853784,3,2.649Z" transform="translate(-4606.39-1043.31)" fill="#bf9247"/><path id="jumping-u-path-1069" d="M4639.148,1099.9c.137-1.732-.051-2.312-.646-7.44s-.807-7.487-2.01-7.41c-1.3.083-2.131,2.388-2.046,4.366s.42,2.095.389,4.258.424,3.18-1.671,6.23l.7-.918c-3.61,4.888-7.219,7.454-9.268,7.971-1,.252-1.912-2.318-1.828-3.53.179-2.574-1.134-6.619-3.5-6.716-1.9-.077-.931,2.424-.244,4.4.629,1.809.194,6.513-.491,8.841-.945,3.213-.116,13.255,4.392,14.4c1.179.3,10.6-9.212,13.854-15.524c1.389986-2.783405,2.196164-5.82163,2.369-8.928Z" transform="translate(-4480.56-988.532)" fill="#eda87a"/><path id="jumping-u-path-1070" d="M4620.942,1110.711c.486834-2.478599,1.134877-4.922791,1.94-7.317.316-1.054-.842-4.964-.965-5.193-.560878-.832413-1.233886-1.58349-2-2.232-2.034-2.045-2.151-3.126-1.762-4.09.5-1.235,1.989,1.038,5,2.929c1.678,1.055,2.388,1.9,3.178,6.394.426743,1.653283.541704,3.371605.339,5.067-.234,1.69-.28,2.556-.443,4.741-.308,3.99-5.737,2.429-5.287-.299Z" transform="translate(-4468.06-991.562)" fill="#efaf84"/><path id="jumping-u-path-1071" d="M4628.645,1119.859c1.688-1.163,2.129-2.618,2.024-4.837-.117-2.481.567-4.741-.6-6.466-1.554-2.3-2.5-5.091-5.136-5.442-3.156-.421-7.374-2.31-7.585-.949s.751,2.6,2.291,3.269s4.188,1.43,4.51,1.642.873,1.2,1.8,3.881c.549,1.585-1.369,4.985-1.308,6.257.073,1.44,1.992,4.031,4.004,2.645Z" transform="translate(-4471.69-996.312)" fill="#f7b284"/><path id="jumping-u-path-1072" d="M4632.421,1131.616c-5.322,6.583-9.5,7.062-11.435,6.569-3.671-.933-2.323-5.774.158-8.84c1.289004-1.007068,2.700202-1.847066,4.2-2.5c2.354-.995,5.163-2.511,5.523-4.1s.228-1.991-.5-2.315-5.832-2.08-6.738-3.807c-.843-1.6.295-2.61,1.823-1.886c1.388579.532295,2.821032.942188,4.281,1.225.679.22,1.975.939,3.436,1.5s2.674.984,3,3.781c.351,2.987,1.209,4.274-.206,6-1.24,1.505-2.656,3.278-3.542,4.373Z" transform="translate(-4478.43-1002.31)" fill="#ffb888"/><path id="jumping-u-path-1162" d="M4749.57,1023.481c-5.128,10.313-23.625,18.016-32.565,14.643-4.093-1.544-9.966-12.631-7.8-21.834.873-3.71,2.549-9.394,3.747-14.652c2.975-13.058,2.192-23.318,15.465-27.85c15.412-5.262,31.153,4.942,33.087,15.437c3.191,17.319-4.831,19.975-11.934,34.256Z" transform="translate(-4651.8-935.813)" fill="#ffb888"/><path id="jumping-u-path-1163" d="M4721.318,1065.877c-2.036022-3.304955-3.553631-6.902363-4.5-10.667.359,7.276,4.871,14.887,8.113,16.109c8.94,3.374,27.6-4.2,32.733-14.508c2.483522-4.76009,5.245306-9.369742,8.271-13.805-3.156815-.278128-6.107988,1.595047-7.2,4.57-2.263,5.422-4.534,11.265-7.732,14.123-4.137631,3.569403-9.013354,6.179714-14.278,7.644-5.776,1.541-12.176,1.912-15.407-3.466Z" transform="translate(-4659.81-968.844)" fill="#ea8462"/><path id="jumping-u-path-1222" d="M4772.891,1047.112c.640276.35903,1.304901.672797,1.989.939.519.256,1.511.719,1.534,1.252-.068505.801429-.767634,1.399473-1.57,1.343-.743104-.206246-1.458859-.500672-2.132-.877-.756-.331-1.479-.644-2.089-.87c1.184062.833708,2.411447,1.60412,3.677,2.308c1.392.6,3.327-1.05,2.608-2.431-.554-1.059-2.591-1.376-4.017-1.664Z" transform="translate(-4699.57-970.784)" fill="#6d3409" fill-rule="evenodd"/><path id="jumping-u-path-1223" d="M4780.118,1036.191c-.545518-.67045-1.156542-1.284824-1.824-1.834-.68-.6-1.892-1.256-1.83-2.277.12142-1.002593.62244-1.920534,1.4-2.565.39998-.239933.821067-.442778,1.258-.606c2.716-1.327,4.922-4.723,5.883-8.488.427336-1.629786.310761-3.354541-.332-4.912.074-.17-.125-.032,0,0c.198465,1.032724.286294,2.08366.262,3.135-.19394,1.257823-.567415,2.481298-1.109,3.633-.905839,2.490432-2.631182,4.599067-4.893,5.98-.461236.187275-.912204.398906-1.351.634-.917.594-2.149,2.463-1.727,3.872.231.773,1.237,1.36,1.951,1.859.808.563,1.527,1.078,2.312,1.569Z" transform="translate(-4710.52-955.96)" fill="#6d3409" fill-rule="evenodd"/><path id="jumping-u-path-1282" d="M4757.7,1034.392c-.759799-1.562803-2.165429-2.714858-3.847-3.153-1.430819-.402317-2.967232.004865-4.011,1.063-.411.453-1.136-.165-.721-.621c1.225711-1.269102,3.025734-1.805013,4.746-1.413c2.080551.463809,3.827543,1.867906,4.728,3.8.28.547-.619.864-.895.324Z" transform="translate(-4669.65-962.855)" fill="#6d3409"/><path id="jumping-u-path-1283" d="M4788.379,1027.126c-.497878-1.298973-1.551852-2.30634-2.872-2.745-1.261428-.30473-2.585928.139879-3.408,1.144-.411.455-1.135-.164-.722-.621c1.014828-1.204449,2.596036-1.774615,4.146-1.495c1.727063.454902,3.125717,1.720067,3.751,3.393.251.563-.647.881-.895.324Z" transform="translate(-4717.49-959.659)" fill="#6d3409"/><path id="jumping-u-path-1342" d="M4748.66,1014.267c-1.6-4.2-4.482-7.753-10.241-8.994-.144-.031-1.852-.4-1.979-.02-.156.474,1.353.854,1.753,1.012c4.215014,1.305314,7.831047,4.062158,10.206,7.781.06.078.127.254.261.221Z" transform="translate(-4652.98-951.121)" fill="#6d3409" fill-rule="evenodd"/><path id="jumping-u-path-1343" d="M4776.631,1006.441c1.503091-.372169,3.056424-.499138,4.6-.376c1.854.169,3.644.843,5.288,1.071-.145-.453-.8-.763-1.38-1.068-.884397-.535802-1.866984-.889398-2.89-1.04-2.301-.328-4.673.224-5.618,1.413Z" transform="translate(-4712.23-951.053)" fill="#6d3409" fill-rule="evenodd"/><path id="jumping-u-path-1414" d="M4768.431,1073.987c1.457308-.046736,2.914371.100214,4.333.437-1.153.376-2.6.573-3.375,1.35c2.541-1.1,7.546-1.66,10.149.682-.582541.409988-1.193781.777601-1.829,1.1-1.084938.556015-2.238589.966232-3.431,1.22-.696226.187799-1.416188.272699-2.137.252-.802725-.181722-1.582582-.452744-2.325-.808-2.066375-.718965-3.938009-1.907048-5.468-3.471c1.31675-.451022,2.692207-.70772,4.083-.762Z" transform="translate(-4698.71-983.352)" fill="#d35e5e"/><path id="jumping-u-path-1415" d="M4769.17,1066.975c.874-.133,1.721-.29,2.539-.457-.345617.402954-.665262.827477-.957,1.271.51537-.469887,1.006663-.965519,1.472-1.485.342963-.120079.691735-.222874,1.045-.308-.694.665-1.29,1.477-1.932,2.223-.340349.111005-.686951.20183-1.038.272-3.651.747-9.1-.1-12.862-1.923c3.841751.938517,7.83545,1.077053,11.733.407Z" transform="translate(-4688.76-979.618)" fill="#fff"/><path id="jumping-u-path-1416" d="M4778.448,1060.48c-4.311857,1.543281-8.863538,2.308497-13.443,2.26-5.046985-.128163-9.915293-1.894724-13.87-5.033-.1.254.484.552.618.869.105147.382632.160602.777208.165,1.174.264754,2.530188,1.27949,4.923558,2.914,6.873c2.055826,2.394632,4.815969,4.078159,7.886,4.81-1.428737.015524-2.855175-.118539-4.256-.4c3.851906,1.613423,8.227245,1.395759,11.9-.592c3.578126-1.766378,6.086298-5.148204,6.738-9.085.448-.33,1.051-.43,1.4-.909-.038-.011-.045.01-.052.033Zm-6.284,4.133c-3.651.747-9.1-.1-12.862-1.923c3.841362.938711,7.834707,1.077587,11.732.408.875-.133,1.722-.29,2.539-.457-.345744.402852-.665395.827383-.957,1.271.515158-.470107,1.00644-.965729,1.472-1.485.357-.058.759-.309,1.044-.308-.694.665-1.29,1.477-1.931,2.223-.340042.110629-.686309.20112-1.037.271Zm-11.814,1.763c1.457307-.046689,2.914364.100261,4.333.437-1.153.376-2.6.573-3.376,1.35c2.541-1.1,7.546-1.66,10.149.682-.583024.409782-1.194581.777385-1.83,1.1-1.084984.555907-2.238621.966119-3.431,1.22-.69622.187828-1.416186.272728-2.137.252-.802758-.181609-1.582627-.452635-2.325-.808-2.066423-.718866-3.938078-1.906963-5.468-3.471c1.3174-.451171,2.693538-.707871,4.085-.762Z" transform="translate(-4690.63-975.741)" fill="#6d3409"/><path id="jumping-u-path-1604" d="M4713.927,959.585c1.949,2.726,8.462,7.553,10.6,8.612-1.265.148-3.287,1.218-3.636,2.305c1.636125-1.272962,3.708889-1.848031,5.767-1.6-3.435.82-5.539,3.336-6.267,7.295-.660897,2.807182.046436,5.761512,1.907,7.965-1.457-3.171-2.424-9.619,2.785-13.872-2.283256,3.465434-3.027684,7.72236-2.056,11.757.795323,2.821262.885635,5.79467.263,8.659-.446304,2.213163-1.14208,4.368594-2.074,6.425-.671,1.128-.675,1.341,4.323-1.38s5.234-.322,8.265-2.049s9.39-8.553,8.594-15.481c2.446,2.806,4.1,4.859,4.564,7.978c2.606-4.66,4.015-13.681-5.741-21.186c4.832.318,8.567,2.325,10.946,5.69-.153-3.24-4.141-6.4-10.693-8.034c5.074-.031,8.461-3.12,8.662-7.509-2.239,3.443-4.955,6.37-12.034,5.853c4.613-1.792,9.677-12.378.051-20.335c2.84,7.328,2.386,14.716-4.368,17.8.987-9.765-12.493-34.54-37.894-28.789c6.487.051,9.882.223,15.072,2.8-6.8-1.345-25.607-3.6-22.619,22.586-4.3-4.028-10.447-2.064-12.922,1.692c5.177-1.76,7.555-.324,10.438,1.848-4.388-.593-6.908.3-8.7,3.041c2.849-1.9,4.576-2.371,8.158-.5-3.423.37-9.905,4.174-6.264,16.98.895-4.476,1.66-7.476,4.447-9.819-1.31,5.185-.828,8.057,1.949,12.137c1.23-6.912,2.336-11.956,2.969-14.231.36227-1.515419,1.013133-2.946843,1.917-4.216.884364,4.669839,3.022357,9.011158,6.185,12.559-2.854-4.665-4.548-8.653-4.5-15.532c2.024,5.3,7.543,13.523,15.909,17.524-5.762-4.379-11.7-11.289-13.153-18.338c3.9,6.536,9.342,11.5,23.615,12.3-3.462-3.065-5.192-7.476-4.465-10.935Z" transform="translate(-4624.02-915.451)" fill="#ea8462"/><path id="jumping-u-path-1605" d="M4701.97,1008.75c-.316539-.507392-.592401-1.039054-.825-1.59-.206473-.486461-.347049-.998319-.418-1.522-.056746-.436348-.040185-.879111.049-1.31.069094-.322378.183213-.633428.339-.924.259-.473.478-.677.5-.659-.09232.253735-.200191.501538-.323.742-.114343.286596-.194561.585653-.239.891-.054502.401552-.045729.809165.026,1.208.233104,1.046951.669342,2.038,1.284,2.917.66,1.03,1.5,2.1,2.357,3.243.833665,1.067763,1.594709,2.190287,2.278,3.36.568322.966459.976911,2.018322,1.21,3.115.150259.743506.161448,1.508417.033,2.256-.024274.277526-.11038.546096-.252.786-.006941-.271533.012146-.543107.057-.811.050181-.724018-.012911-1.451433-.187-2.156-.273907-1.042995-.699802-2.040008-1.264-2.959-.696358-1.137761-1.456574-2.235184-2.277-3.287-.859-1.139-1.692-2.227-2.348-3.3Z" transform="translate(-4593.63-950.028)" fill="#fff"/><path id="jumping-u-path-1606" d="M4713.952,1011.865l-.037-.106c-.007,0-.063.152-.063.152-.062.162-.125.322-.181.483-.028.08-.056.161-.08.242-.04794.155131-.087662.312683-.119.472-.01223.053459-.021577.107537-.028.162-.007.061-.018.108-.023.179l-.019.206-.016.234-.072,1.017-.294-.876-.154-.462c-.051-.159-.1-.32-.15-.492-.024-.083-.047-.169-.069-.256l-.054-.21-.061-.266c-.038-.177-.073-.353-.1-.528-.119336-.67266-.183881-1.353897-.193-2.037-.03551-1.160684.161698-2.316732.58-3.4.285518-.727508.737212-1.378166,1.319-1.9.417-.358.7-.477.712-.454s-.22.206-.58.591c-.500491.547439-.88338,1.191715-1.125,1.893-.351985,1.050101-.503944,2.156892-.448,3.263.021971.6576.094518,1.312534.217,1.959q.047.253.1.508l.062.255.012.05c.006-.006,0,.024.021-.054s.056-.175.086-.26c.061-.171.125-.336.188-.5l.129-.338c.06-.162.116-.326.169-.515l.316-1.168.2,1.143c.018.089.033.189.052.268l.059.242.062.214.025.082.017.054c.093927.286565.203764.567668.329.842.240065.519579.507095,1.026268.8,1.518.559.946,1.087,1.788,1.436,2.547.2962.589323.483861,1.227167.554,1.883.043279.237254.023626.481707-.057.709-.05448-.225418-.093571-.454279-.117-.685-.134797-.617286-.360597-1.211108-.67-1.762-.377-.716-.928-1.524-1.518-2.467-.316084-.498245-.603549-1.01408-.861-1.545-.135405-.28867-.254264-.584816-.356-.887Z" transform="translate(-4608.98-950.624)" fill="#fff"/><path id="jumping-u-path-1607" d="M4692.763,1003.828c-.153-.126-.327-.256-.49-.385l-.566-.44.957.161.224.035.2.022.194.014.182.011.207.012h.054c-.022811-.038585-.048554-.07536-.077-.11l-.152-.185c-.582185-.686284-1.265324-1.280068-2.026-1.761-.817141-.539514-1.754228-.87019-2.729-.963-.648363-.047182-1.298456.06437-1.894.325-.211801.116794-.431308.219031-.657.306-.016-.021.161-.219.576-.465.256076-.147862.529494-.26341.814-.344.381819-.107505.777417-.15805,1.174-.15c1.043213.045909,2.056767.361138,2.942.915.531339.316487,1.02776.688216,1.481,1.109.241997.224059.471667.461073.688.71q.082.095.163.194l.081.1.14.185c.1.131.187.262.274.392l.264.391c-.263-.042-.564-.1-.82-.127-.063-.006-.128-.013-.191-.016l-.136-.009-.177-.009c-.011,0,.034.04.034.04.148.13.293.263.435.4q.423.4.8.825c.484236.539053.93,1.111463,1.334,1.713.689843,1.016108,1.236949,2.122097,1.626,3.287.263508.784474.420576,1.600755.467,2.427.040065.300894.020355.606737-.058.9-.073066-.290139-.119261-.58639-.138-.885-.118953-.795485-.322782-1.575938-.608-2.328-.424865-1.11313-.986867-2.168941-1.673-3.143-.402677-.575819-.842618-1.124659-1.317-1.643q-.37-.4-.781-.794c-.137-.129-.277-.257-.421-.383l-.177-.152c-.066-.056-.147-.119-.223-.182Z" transform="translate(-4575.75-948.705)" fill="#fff"/><path id="jumping-u-path-1608" d="M4702.652,991.645c.374228-.214224.78197-.363662,1.206-.442.265398-.048814.535321-.068597.805-.059.146961.00519.293521.018544.439.04.038,0,.075.011.113.018l.058.01.046.007c-.001101-.012863-.003446-.025589-.007-.038l-.006-.027c0-.016-.01-.063-.01-.063-.02-.125-.036-.251-.051-.38-.029-.256-.05-.52-.076-.787s-.056-.537-.108-.806c-.013-.067-.027-.135-.042-.2l-.025-.1-.04-.142c-.023-.069-.044-.136-.07-.206l-.091-.222-.2-.469.087.042c.216.113.411.208.625.329.053.03.108.069.163.1l.083.053.04.028.024.018c.06.043.117.09.173.137.230704.19495.432701.421523.6.673.336585.52396.545518,1.119593.61,1.739.011.082.018.164.025.246l.008.127c.011-.007.157-.153.157-.153.2-.192.4-.374.607-.544.403916-.336131.851272-.616317,1.33-.833.451099-.203698.939108-.312939,1.434-.321.230578-.001553.460628.022257.686.071l.041.009.064.015c.043.012.088.021.131.035l.127.04.117.043.434.17.061.037-.451.1c-.075.015-.146.031-.206.049s-.127.032-.185.051l-.123.038-.1.032c-.063.023-.126.045-.187.07-.230193.091314-.453735.198574-.669.321-.34857.199122-.676803.431899-.98.695-.194483.168219-.380384.34611-.557.533-.122.128-.187.2-.194.19.038023-.083237.088613-.160135.15-.228.159907-.205578.333999-.399718.521-.581.29511-.287177.619555-.542577.968-.762.217354-.137094.444271-.258406.679-.363.062-.028.126-.054.191-.08l.176-.067c.035-.013.065-.023.094-.031-.016285-.013505-.036034-.022167-.057-.025l-.032-.007-.071-.012c-.206313-.035519-.415904-.048262-.625-.038-.449303.026844-.888492.144551-1.291.346-.437795.220589-.84435.498351-1.209.826-.192.168-.378.347-.561.537l-.135.145-.128.142-.139.157c-.186.219-.379.436-.561.643l-.022.026.027-.517.011-.256c0-.082.009-.173.006-.249v-.235l-.006-.112c-.005-.075-.01-.15-.019-.225-.046535-.552577-.220411-1.08687-.508-1.561-.139916-.222578-.310227-.424528-.506-.6-.049-.042-.1-.085-.149-.124-.034,0-.02.06-.02.06l.026.11c.015.073.03.145.042.218.05.289.076.57.1.842s.037.533.059.783c.011.126.023.248.039.368l.005.045.012.075c.007.051.015.1.025.154l.058.319c0,.008-.4-.107-.4-.107l-.1-.027-.062-.015-.1-.023c-.134081-.028168-.269623-.048866-.406-.062-.251526-.024699-.504975-.022352-.756.007-.409546.05033-.808124.167201-1.18.346-.239123.115734-.469117.249452-.688.4-.073595.059417-.153391.110715-.238.153.056244-.076332.123668-.143756.2-.2.205831-.177201.428183-.334253.664-.469Z" transform="translate(-4598.09-943.026)" fill="#fff"/><path id="jumping-u-path-1609" d="M4726,974.136c-1.098993.3916-2.077081,1.062614-2.838,1.947-.6751.805875-1.091247,1.796751-1.194,2.843-.077662.920466.033614,1.847093.327,2.723.229248.729235.59998,1.406135,1.091,1.992.367395.454847.766383.883241,1.194,1.282.706.659,1.14.98,1.116,1.013-.453886-.228812-.873329-.520335-1.246-.866-.460353-.380332-.888785-.797727-1.281-1.248-.246426-.284349-.471063-.586874-.672-.905-.111242-.175938-.211435-.358624-.3-.547-.092-.2-.166-.4-.241-.607-.332291-.919624-.468542-1.898588-.4-2.874.044047-.548516.168373-1.087595.369-1.6.215498-.542194.512963-1.048087.882-1.5.804746-.957682,1.847316-1.686756,3.023-2.114c1.247759-.464756,2.581041-.655079,3.909-.558.456034.031823.909197.096322,1.356.193q.331.072.655.167l.1.029c.015,0-.011-.08-.011-.08l-.058-.2c-.073-.261-.13-.518-.193-.765-.05784-.239884-.131331-.475722-.22-.706-.022-.056-.045-.111-.069-.164l-.02-.04c-.007157-.017058-.015167-.033746-.024-.05l-.077-.146-.1-.165-.113-.171-.222-.336h.071l.085.006.164.013.324.028c.112.014.226.029.341.053l.125.026.091.021c.239011.058594.474409.13105.705.217.442214.164931.871137.363513,1.283.594.763346.426563,1.479632.932354,2.137,1.509c1.09432.943228,2.011385,2.07432,2.708,3.34.45596.829252.780487,1.724232.962,2.653.085643.329031.115723.670057.089,1.009-.032,0-.081-.348-.246-.973-.239322-.891286-.59825-1.746054-1.067-2.541-1.163154-1.932352-2.819924-3.52009-4.8-4.6-.394719-.213944-.804858-.398123-1.227-.551-.21473-.078956-.433745-.145729-.656-.2l-.135-.029c.007391.042061.020865.082822.04.121.028.061.055.123.081.186.098009.249378.179518.504929.244.765.066.255.124.508.195.753l.054.182.036.108.067.187c.1.247.232.53.339.78l-.627-.225c-.1-.037-.214-.076-.3-.1l-.139-.044-.077-.022q-.306-.089-.621-.156c-.4235-.090926-.852907-.151745-1.285-.182-1.257949-.090287-2.52069.088692-3.704.525Z" transform="translate(-4636.22-935.029)" fill="#fff"/><path id="jumping-u-path-1610" d="M4744.937,955.474c.212184-2.398948,1.182335-4.668119,2.77-6.479.601111-.68785,1.271296-1.312127,2-1.863.546152-.414826,1.119431-.792669,1.716-1.131.494048-.311935,1.024296-.562451,1.579-.746.018.036-.537.316-1.478.914-.569339.363216-1.117557.758521-1.642,1.184-.692435.561027-1.328755,1.18797-1.9,1.872-.68835.825845-1.256936,1.744538-1.689,2.729-.490145,1.129742-.790838,2.332512-.89,3.56-.104323,1.359394-.003187,2.726747.3,4.056.324248,1.431801.821922,2.818708,1.482,4.13c1.291747,2.540093,3.020832,4.83279,5.108,6.773c1.696112,1.597086,3.599952,2.958029,5.66,4.046c1.391307.733302,2.852182,1.326227,4.361,1.77c1.071.312,1.68.43,1.673.469-.583767-.023619-1.162581-.11729-1.724-.279-1.548286-.3754-3.048664-.926299-4.472-1.642-2.117996-1.060154-4.075384-2.41457-5.814-4.023-2.148645-1.961127-3.924898-4.294681-5.243-6.888-.678983-1.34839-1.187556-2.776023-1.514-4.25-.307954-1.378055-.40339-2.795096-.283-4.202Z" transform="translate(-4672.79-923.133)" fill="#fff"/><path id="jumping-u-path-1611" d="M4778.931,952.076c.077367-.940174.260181-1.868671.545-2.768.475546-1.519005,1.197133-2.94968,2.136-4.235.625158-.868459,1.37139-1.642978,2.216-2.3.294702-.258286.633417-.461515,1-.6.021.033-.324.264-.878.756-.776403.698868-1.464804,1.489689-2.05,2.355-.870764,1.277516-1.539289,2.681688-1.982,4.163-.262578.868996-.430223,1.763885-.5,2.669-.034471.476043-.034471.953957,0,1.43.018.241.045.483.083.724l.031.182.029-.084.062-.175q.064-.174.131-.344l.086-.212.133-.319.274-.634.541-1.262-.039,1.39c0,.119,0,.217,0,.325s0,.209,0,.307s0,.2.009.294l.01.217c.021.385.057.762.107,1.129.095897.701877.243294,1.39575.441,2.076.329583,1.133891.799912,2.22203,1.4,3.239.400379.673146.854879,1.312591,1.359,1.912.200092.204397.380241.427406.538.666-.250554-.145704-.474981-.332276-.664-.552-.564393-.565189-1.067209-1.188681-1.5-1.86-.660683-1.019023-1.179769-2.123133-1.543-3.282-.219985-.697384-.385154-1.410888-.494-2.134-.058-.378-.1-.768-.126-1.166v-.074c-.017,0-.064.125-.064.125q-.064.164-.124.33l-.059.167-.083.261c-.078937.256698-.142713.517816-.191.782l-.18.937-.29-.932c-.064-.205-.128-.43-.183-.672-.028-.122-.052-.242-.074-.361l-.033-.2c-.041-.256-.068-.512-.085-.766-.033134-.500927-.029457-1.003611.011-1.504Z" transform="translate(-4711.75-921.688)" fill="#fff"/><path id="jumping-u-path-1612" d="M4740.881,962.758c-.853128-1.030236-1.809443-1.970467-2.854-2.806-1.191241-.964387-2.497967-1.77664-3.89-2.418-.749107-.343037-1.528018-.616844-2.327-.818-.82702-.210976-1.678641-.309861-2.532-.294-.875713.015841-1.739637.204803-2.542.556-.406346.181855-.791072.408599-1.147.676-.368168.270154-.715176.56802-1.038.891-.794901.79419-1.404142,1.754496-1.784,2.812-.356237,1.028255-.545631,2.106893-.561,3.195-.016893,1.047661.049987,2.094997.2,3.132.067.507.146,1.006.232,1.5l.132.739.253,1.338c-.176-.143-.355-.3-.526-.44s-.354-.309-.524-.473c-.187-.182-.367-.366-.54-.552-.346-.371-.67-.746-.977-1.118s-.6-.741-.876-1.1l-.181-.237-.049-.068-.108-.151c-.001213.015977-.001213.032023,0,.048l.009.063.022.135.006.036.024.111.049.226.1.44c.143.577.305,1.116.478,1.611.290137.851545.664666,1.671957,1.118,2.449.290265.491597.625.95554,1,1.386.143352.142557.276985.294564.4.455-.177054-.100828-.336479-.229854-.472-.382-.413088-.408342-.779351-.861475-1.092-1.351-.492369-.772919-.90069-1.596265-1.218-2.456-.189-.5-.366-1.044-.524-1.627q-.06-.219-.116-.445l-.055-.228-.07-.314c-.056-.263-.1-.526-.15-.785l-.069-.4-.035-.2-.018-.1c-.006218-.030371-.01056-.061096-.013-.092l1.274,1.642c.281.356.575.718.882,1.081s.631.729.975,1.087c.171.179.349.357.531.53.021648.020801.045449.039238.071.055l-.023-.1-.136-.724c-.09-.494-.174-1-.246-1.512-.159851-1.061628-.233093-2.134498-.219-3.208.011134-1.141232.206655-2.273161.579-3.352.403186-1.128447,1.052171-2.15316,1.9-3c.341748-.341371.709523-.655652,1.1-.94.385291-.289711.802309-.534621,1.243-.73.86307-.376522,1.792472-.577428,2.734-.591.897459-.014283,1.792683.093709,2.661.321.824844.213228,1.62825.502119,2.4.863c1.421427.667211,2.752125,1.512675,3.96,2.516c1.055475.865178,2.016789,1.839229,2.868,2.906.705139.87866,1.308953,1.834029,1.8,2.848.373332.766037.644965,1.577574.808,2.414.10168.528879.135286,1.068593.1,1.606.00148.188262-.029647.375358-.092.553-.016696-.184852-.020038-.370667-.01-.556-.009459-.526436-.074825-1.050377-.195-1.563-.193321-.809273-.485166-1.591781-.869-2.33-.508512-.983634-1.122452-1.909071-1.831-2.76Z" transform="translate(-4638.72-928.125)" fill="#fff"/><path id="jumping-u-path-1613" d="M4798.474,994.261l.2.107c.064.034.126.059.188.089s.125.053.186.076c.632171.237682,1.324763.261916,1.972.069.269767-.082076.531512-.188514.782-.318.178-.091.279-.14.3-.118s-.052.112-.209.249c-.23173.193486-.491749.350307-.771.465-.434688.181092-.904919.260775-1.375.233-.286068-.016782-.568755-.070563-.841-.16-.071-.023-.144-.049-.214-.077-.006011.019781-.003473.041175.007.059.178602.289016.382752.561439.61.814.285571.317357.607828.599668.96.841.166531.114166.339482.218672.518.313l.131.067.065.032.1.045.536.22-.269.3c-.042.049-.085.1-.121.145l-.071.093c-.071162.095647-.135968.195863-.194.3-.107995.190225-.1891.394503-.241.607-.077312.361285-.097558.73245-.06,1.1.026.318.063.572.079.748s.016.274-.01.28-.071-.08-.133-.247c-.087811-.24186-.157667-.489866-.209-.742-.089299-.400235-.10354-.813568-.042-1.219.043718-.253348.124236-.498944.239-.729.061498-.123277.131326-.242219.209-.356l.03-.043c.03-.049,0-.055,0-.055l-.041-.017-.073-.032-.145-.07c-.618903-.306886-1.173768-.728719-1.635-1.243-.247864-.275669-.468865-.574356-.66-.892l-.018-.03-.03-.053-.061-.106c-.042-.07-.077-.144-.114-.216s-.072-.143-.1-.211-.064-.137-.092-.2l-.172-.395-.086-.2-.059-.146c.313.213.66.451.934.623Z" transform="translate(-4738.93-945.767)" fill="#fff"/><path id="jumping-u-path-1614" d="M4782.565,979.623l.062-.122.046-.106c.067602-.156695.125707-.317319.174-.481.090104-.309241.156957-.624788.2-.944.073515-.529952.098952-1.065466.076-1.6-.031787-.47759-.088196-.953223-.169-1.425.19563.446717.311384.924287.342,1.411.064762.547265.076149,1.099531.034,1.649-.024753.336697-.075234.671006-.151,1-.041863.179929-.094288.357236-.157.531l-.017.05c.011494-.004208.022034-.010667.031-.019l.058-.039q.064-.045.125-.093c.08161-.063694.159098-.132499.232-.206.147-.15.289-.327.44-.509l.114-.137.188-.22c.157-.181.314-.345.471-.513l.025-.029.016.086.079.438.079.4c.029.133.058.265.09.4.063.261.131.518.2.769.145.5.3.982.466,1.436.327.906.673,1.706.988,2.365.629,1.32,1.136,2.078,1.1,2.1-.506522-.61613-.942564-1.286964-1.3-2-.417515-.757846-.79243-1.538392-1.123-2.338-.187-.452-.369-.933-.536-1.441-.083-.254-.163-.514-.236-.781-.037-.133-.072-.268-.105-.4c0-.014-.047.036-.047.036l-.114.133c-.152.176-.3.359-.479.531-.088121.085579-.181646.16541-.28.239-.049.036-.1.07-.148.1l-.084.054c-.047.029-.093.057-.139.084-.187.106-.364.193-.532.273l-.5.238-.075.032-.128.057.518-.734c.061209-.087989.116658-.179848.166-.275Z" transform="translate(-4716.22-937.021)" fill="#fff"/><path id="jumping-u-path-1615" d="M4795.409,989.243c-.281417.179091-.596579.298553-.926.351-.118098.029298-.241764.027575-.359-.005.110336-.038409.223295-.068821.338-.091.299893-.092169.580477-.238222.828-.431.368747-.288455.687361-.635789.943-1.028.153996-.23091.290062-.473287.407-.725.06-.131.117-.267.167-.406l.019-.053.009-.026c-.013281-.001663-.026719-.001663-.04,0l-.071-.005c-.046,0-.093-.011-.138-.019-.320674-.065384-.629985-.177585-.918-.333-.069-.035-.135-.071-.2-.108l-.081-.046-.091-.053-.174-.106c-.222-.141-.411-.27-.6-.4l-.121-.087c.329,0,.663.018.9.01.062,0,.116-.007.171-.011l.139-.015c.052-.006.1-.015.153-.024.189931-.035363.374026-.096952.547-.183.287583-.152201.540555-.362274.743-.617.179-.215.307-.4.4-.523s.147-.188.159-.181-.021.085-.091.223c-.10069.199345-.21288.392671-.336.579-.192921.29898-.448479.55249-.749.743-.18689.113273-.388902.199465-.6.256-.055.015-.111.029-.169.041s-.034.026-.027.028l.213.1c.257115.122171.529591.208959.81.258.035,0,.07.008.1.01h.051c.041,0,.065,0,.085,0l.128-.021.152-.054.336-.124-.017.059-.015.052c-.042.148-.078.292-.127.442-.025.075-.054.148-.082.221l-.058.136c-.065.149-.137.291-.211.427-.143971.260504-.309199.50868-.494.742-.307106.393747-.68033.731104-1.103.997Z" transform="translate(-4732.63-941.318)" fill="#fff"/><path id="jumping-u-path-1616" d="M4721.64,1026.487c.133.469.292,1.028.446,1.656.174603.683069.308175,1.375974.4,2.075.058889.464201.081624.932277.068,1.4c0,.112-.011.224-.02.333l-.017.163-.008.07-.028.081-.02.056c.016478-.008321.031104-.019886.043-.034.01-.01.021-.023.033-.038l.02-.025c.011-.014.041-.062.041-.062.142476-.220181.273646-.447475.393-.681.091287-.21301.198942-.418625.322-.615-.030669.232066-.093961.458637-.188.673-.091684.253076-.197518.5008-.317.742l-.027.054c-.013632.031342-.029334.061742-.047.091l-.105.188-.118.192c-.041.068-.081.117-.123.178-.169.236-.339.455-.55.723l-.066.078-.06.073-.075.093.312-.954c.011-.035.026-.078.034-.108l.025-.089.049-.18c.019-.1.047-.213.06-.31l.022-.152c.007-.048.011-.086.011-.086l.015-.154c.007-.1.015-.208.018-.315.013638-.448663-.003737-.897732-.052-1.344-.075-.729-.2-1.422-.327-2.051s-.254-1.194-.356-1.671c-.138295-.509847-.226381-1.032-.263-1.559.178741.494436.330629.99817.455,1.509Z" transform="translate(-4619.51-960.428)" fill="#fff"/><path id="jumping-u-path-1884" d="M4718.243,1047.88c-.906,3.854-7.952,7.4-11.005,6.68s-3.187-3.933-1.331-7.43c1.9-3.586,4.688-6.381,7.822-6.27c4.555.161,5.421,3.166,4.514,7.02Z" transform="translate(-4605.99-967.858)" fill="#ffb888"/><path id="jumping-u-path-1885" d="M4718.652,1049.056c-.455,1.934-3.343,4.281-5.687,4.592-1.811.24.124-2.664-2.333-2.746-2.235-.074-2.726.361-1.371-2.266c1.39-2.7,3.98-4.847,6.22-4.79c3.256.084,3.85,2.322,3.171,5.21Z" transform="translate(-4608.36-969.256)" opacity="0.3" fill="#432918"/><path id="jumping-u-path-427" d="M2084.663,2097.276c-3.86,6.6-6.225,12.685-9.2,20.42-1.483,3.871-3.113,8.158-5.09,13.181s-4.312,10.761-6.965,17.8c-.657,1.78-1.319,3.584-1.953,5.454-.311.946-.627,1.888-.918,2.884-.159.5-.308,1.063-.453,1.607s-.277,1.1-.4,1.652c-.259341,1.107956-.426578,2.235468-.5,3.371l-.065,1.712c-.019.566-.05,1.158-.018,1.7l.053,1.618c.024.521.017,1.068.066,1.568q.122,1.525.244,3.054c.42,4.007.939,7.957,1.618,11.805.166.964.313,1.938.491,2.894l.54,2.86c.341,1.915.742,3.791,1.13,5.665c2.800046,13.713084,6.472172,27.233548,10.994,40.479c1.861,5.281,7.31,3.211,11.186,2.122c3.421-.965,8.4-4.215,6.3-8.579q-4.422-9.1-8.52-18.5c-2.733-6.27-5.263-12.673-7.53-19.207-2.311698-6.503413-4.119371-13.17512-5.407-19.956-.177-.847-.248-1.666-.375-2.5l-.17-1.25c-.051-.415-.066-.813-.1-1.221-.051-.83-.152-1.566-.123-2.307-.019277-.741631.007776-1.483741.081-2.222.109164-.735842.258048-1.46524.446-2.185.1-.362.18-.712.3-1.087l.366-1.181c.521-1.6,1.147-3.233,1.806-4.859c2.449942-5.79373,5.241515-11.436981,8.36-16.9c2.8-4.953,5.478-9.281,7.94-13.143c4.938-7.72,8.98-13.584,11.843-18.788c1.59-2.917,2.927-8.835-2.565-12.2-6.269-3.845-11.461.894-13.412,4.239Z" transform="translate(-2049.09-1895.6)" fill="#313638"/><path id="jumping-u-path-457" d="M2104,2366.61c5.7.017,6.878,2.735,7.467,4.455.5,1.448.605,5.4.047,5.471s-27.488.373-28.886.373-1.259-2.511-1.026-3.325s7.848-1.772,10.735-3.1c1.402-.641,8.149-3.884,11.663-3.874Z" transform="translate(-2067.2-2030.32)" fill="#454d50"/><path id="jumping-u-path-504" d="M2020.205,2097.821c-.862,6.744,14.133,21.257,26.785,17.623c6.114-1.757,11.868-7.048,11.753-16.459-.039-3.245-.463-3.51-1.422-7.425-9.79-1.539-16.1,3.156-27.169,2.242-2.964695-.29359-5.82088-1.270868-8.344-2.855-.388,2.242-1.361,4.977-1.603,6.874Z" transform="translate(-1983.36-1898.16)" fill="#313638"/><path id="jumping-u-path-577" d="M1926.326,2105.229c-.931,7.555-.933,14.078-1.193,22.548-.123,4.239-.335,8.957-.627,14.624-.139,2.837-.3,5.917-.358,9.35-.041,1.71-.023,3.529.027,5.438.077,1.924.21,3.953.5,6.117.288274,2.276059.792549,4.51951,1.506,6.7.09.278.174.558.271.834l.32.816c.218.538.421,1.107.658,1.619.475,1.021.934,2.056,1.457,3.007c2.00184,3.739551,4.253268,7.340032,6.739,10.777c4.8,6.751,9.916,13.04,14.957,19.121s10.052,11.874,14.833,17.314s9.351,10.5,13.6,15c3.9,4.135,8.24-.078,11.5-2.709c2.878-2.321,6.313-7.5,2.386-10.836-10.878-9.259-22.073-18.353-32.7-28.227-5.341962-4.880425-10.364339-10.099542-15.036-15.625-2.267271-2.703271-4.321117-5.578587-6.143-8.6-.235-.368-.413-.74-.619-1.111s-.413-.742-.589-1.114c-.338-.743-.722-1.488-.969-2.208-.284111-.722905-.52782-1.461044-.73-2.211l-.251-1.139c-.079-.384-.122-.758-.191-1.159-.207249-1.566353-.307481-3.145013-.3-4.725q.027-2.385.25-4.721c.29-3.111.79-6.126,1.326-9c1.092-5.746,2.356-10.946,3.46-15.654c2.236-9.423,3.906-16.912,4.472-23.274.338-3.574-1.063-9.948-7.757-10.535-3.045502-.418676-6.092054.759817-8.063,3.119-1.493666,1.859327-2.440944,4.09734-2.736,6.464Z" transform="translate(-1869.44-1901.54)" fill="#313638"/><path id="jumping-u-path-630" d="M1937.435,2357.308c.471692-.280259.962578-.526872,1.469-.738.408293-.198125.834558-.356844,1.273-.474.705697-.189855,1.437669-.263154,2.167-.217c1.104378.139615,2.160824.535482,3.085,1.156c1.277.781,3.965,3.626,3.553,4.086-.025.029-.132.131-.313.3l-.786.647-1.182.958c-.452.367-1,.724-1.572,1.14-2.819755,1.966277-5.844439,3.620951-9.021,4.935-3.182191,1.310381-6.475345,2.333133-9.84,3.056-.7.15-1.35.309-1.938.414l-1.562.272c-.9.154-1.487.262-1.668.275-1.449.178-1.6-2.308-1.472-3.135.032-.209.521-.475,1.267-.8.743-.347,1.743-.75,2.809-1.179c1.054-.482,2.179-.967,3.167-1.5.856475-.447315,1.66472-.981453,2.412-1.594l1.458-1.373c.335-.3.693-.655,1.065-1.036s.769-.765,1.172-1.151.788-.818,1.188-1.2c.39-.4.805-.745,1.167-1.127.637326-.645185,1.342024-1.220141,2.102-1.715Z" transform="translate(-1821.47-2028.2)" fill="#454d50"/></g></g>
<script><![CDATA[
!function(t,n){"object"==typeof exports&&"undefined"!=typeof module?module.exports=n():"function"==typeof define&&define.amd?define(n):((t="undefined"!=typeof globalThis?globalThis:t||self).__SVGATOR_PLAYER__=t.__SVGATOR_PLAYER__||{},t.__SVGATOR_PLAYER__["5c7f360c"]=n())}(this,(function(){"use strict";function t(t,n){var e=Object.keys(t);if(Object.getOwnPropertySymbols){var r=Object.getOwnPropertySymbols(t);n&&(r=r.filter((function(n){return Object.getOwnPropertyDescriptor(t,n).enumerable}))),e.push.apply(e,r)}return e}function n(n){for(var e=1;e<arguments.length;e++){var r=null!=arguments[e]?arguments[e]:{};e%2?t(Object(r),!0).forEach((function(t){o(n,t,r[t])})):Object.getOwnPropertyDescriptors?Object.defineProperties(n,Object.getOwnPropertyDescriptors(r)):t(Object(r)).forEach((function(t){Object.defineProperty(n,t,Object.getOwnPropertyDescriptor(r,t))}))}return n}function e(t){return(e="function"==typeof Symbol&&"symbol"==typeof Symbol.iterator?function(t){return typeof t}:function(t){return t&&"function"==typeof Symbol&&t.constructor===Symbol&&t!==Symbol.prototype?"symbol":typeof t})(t)}function r(t,n){if(!(t instanceof n))throw new TypeError("Cannot call a class as a function")}function i(t,n){for(var e=0;e<n.length;e++){var r=n[e];r.enumerable=r.enumerable||!1,r.configurable=!0,"value"in r&&(r.writable=!0),Object.defineProperty(t,r.key,r)}}function u(t,n,e){return n&&i(t.prototype,n),e&&i(t,e),t}function o(t,n,e){return n in t?Object.defineProperty(t,n,{value:e,enumerable:!0,configurable:!0,writable:!0}):t[n]=e,t}function a(t){return(a=Object.setPrototypeOf?Object.getPrototypeOf:function(t){return t.__proto__||Object.getPrototypeOf(t)})(t)}function l(t,n){return(l=Object.setPrototypeOf||function(t,n){return t.__proto__=n,t})(t,n)}function s(){if("undefined"==typeof Reflect||!Reflect.construct)return!1;if(Reflect.construct.sham)return!1;if("function"==typeof Proxy)return!0;try{return Boolean.prototype.valueOf.call(Reflect.construct(Boolean,[],(function(){}))),!0}catch(t){return!1}}function f(t,n,e){return(f=s()?Reflect.construct:function(t,n,e){var r=[null];r.push.apply(r,n);var i=new(Function.bind.apply(t,r));return e&&l(i,e.prototype),i}).apply(null,arguments)}function c(t,n){if(n&&("object"==typeof n||"function"==typeof n))return n;if(void 0!==n)throw new TypeError("Derived constructors may only return object or undefined");return function(t){if(void 0===t)throw new ReferenceError("this hasn't been initialised - super() hasn't been called");return t}(t)}function h(t,n,e){return(h="undefined"!=typeof Reflect&&Reflect.get?Reflect.get:function(t,n,e){var r=function(t,n){for(;!Object.prototype.hasOwnProperty.call(t,n)&&null!==(t=a(t)););return t}(t,n);if(r){var i=Object.getOwnPropertyDescriptor(r,n);return i.get?i.get.call(e):i.value}})(t,n,e||t)}function v(t){return function(t){if(Array.isArray(t))return y(t)}(t)||function(t){if("undefined"!=typeof Symbol&&null!=t[Symbol.iterator]||null!=t["@@iterator"])return Array.from(t)}(t)||function(t,n){if(!t)return;if("string"==typeof t)return y(t,n);var e=Object.prototype.toString.call(t).slice(8,-1);"Object"===e&&t.constructor&&(e=t.constructor.name);if("Map"===e||"Set"===e)return Array.from(t);if("Arguments"===e||/^(?:Ui|I)nt(?:8|16|32)(?:Clamped)?Array$/.test(e))return y(t,n)}(t)||function(){throw new TypeError("Invalid attempt to spread non-iterable instance.\nIn order to be iterable, non-array objects must have a [Symbol.iterator]() method.")}()}function y(t,n){(null==n||n>t.length)&&(n=t.length);for(var e=0,r=new Array(n);e<n;e++)r[e]=t[e];return r}Number.isInteger||(Number.isInteger=function(t){return"number"==typeof t&&isFinite(t)&&Math.floor(t)===t}),Number.EPSILON||(Number.EPSILON=2220446049250313e-31);var g=d(Math.pow(10,-6));function d(t){var n=arguments.length>1&&void 0!==arguments[1]?arguments[1]:6;if(Number.isInteger(t))return t;var e=Math.pow(10,n);return Math.round((+t+Number.EPSILON)*e)/e}function p(t,n){var e=arguments.length>2&&void 0!==arguments[2]?arguments[2]:g;return Math.abs(t-n)<e}var m=Math.PI/180;function b(t){return t}function w(t,n,e){var r=1-e;return 3*e*r*(t*r+n*e)+e*e*e}function x(){var t=arguments.length>0&&void 0!==arguments[0]?arguments[0]:0,n=arguments.length>1&&void 0!==arguments[1]?arguments[1]:0,e=arguments.length>2&&void 0!==arguments[2]?arguments[2]:1,r=arguments.length>3&&void 0!==arguments[3]?arguments[3]:1;return t<0||t>1||e<0||e>1?null:p(t,n)&&p(e,r)?b:function(i){if(i<=0)return t>0?i*n/t:0===n&&e>0?i*r/e:0;if(i>=1)return e<1?1+(i-1)*(r-1)/(e-1):1===e&&t<1?1+(i-1)*(n-1)/(t-1):1;for(var u,o=0,a=1;o<a;){var l=w(t,e,u=(o+a)/2);if(p(i,l))break;l<i?o=u:a=u}return w(n,r,u)}}function A(){return 1}function k(t){return 1===t?1:0}function _(){var t=arguments.length>0&&void 0!==arguments[0]?arguments[0]:1,n=arguments.length>1&&void 0!==arguments[1]?arguments[1]:0;if(1===t){if(0===n)return k;if(1===n)return A}var e=1/t;return function(t){return t>=1?1:(t+=n*e)-t%e}}var S=Math.sin,O=Math.cos,j=Math.acos,M=Math.asin,P=Math.tan,E=Math.atan2,I=Math.PI/180,R=180/Math.PI,F=Math.sqrt,N=function(){function t(){var n=arguments.length>0&&void 0!==arguments[0]?arguments[0]:1,e=arguments.length>1&&void 0!==arguments[1]?arguments[1]:0,i=arguments.length>2&&void 0!==arguments[2]?arguments[2]:0,u=arguments.length>3&&void 0!==arguments[3]?arguments[3]:1,o=arguments.length>4&&void 0!==arguments[4]?arguments[4]:0,a=arguments.length>5&&void 0!==arguments[5]?arguments[5]:0;r(this,t),this.m=[n,e,i,u,o,a],this.i=null,this.w=null,this.s=null}return u(t,[{key:"determinant",get:function(){var t=this.m;return t[0]*t[3]-t[1]*t[2]}},{key:"isIdentity",get:function(){if(null===this.i){var t=this.m;this.i=1===t[0]&&0===t[1]&&0===t[2]&&1===t[3]&&0===t[4]&&0===t[5]}return this.i}},{key:"point",value:function(t,n){var e=this.m;return{x:e[0]*t+e[2]*n+e[4],y:e[1]*t+e[3]*n+e[5]}}},{key:"translateSelf",value:function(){var t=arguments.length>0&&void 0!==arguments[0]?arguments[0]:0,n=arguments.length>1&&void 0!==arguments[1]?arguments[1]:0;if(!t&&!n)return this;var e=this.m;return e[4]+=e[0]*t+e[2]*n,e[5]+=e[1]*t+e[3]*n,this.w=this.s=this.i=null,this}},{key:"rotateSelf",value:function(){var t=arguments.length>0&&void 0!==arguments[0]?arguments[0]:0;if(t%=360){var n=S(t*=I),e=O(t),r=this.m,i=r[0],u=r[1];r[0]=i*e+r[2]*n,r[1]=u*e+r[3]*n,r[2]=r[2]*e-i*n,r[3]=r[3]*e-u*n,this.w=this.s=this.i=null}return this}},{key:"scaleSelf",value:function(){var t=arguments.length>0&&void 0!==arguments[0]?arguments[0]:1,n=arguments.length>1&&void 0!==arguments[1]?arguments[1]:1;if(1!==t||1!==n){var e=this.m;e[0]*=t,e[1]*=t,e[2]*=n,e[3]*=n,this.w=this.s=this.i=null}return this}},{key:"skewSelf",value:function(t,n){if(n%=360,(t%=360)||n){var e=this.m,r=e[0],i=e[1],u=e[2],o=e[3];t&&(t=P(t*I),e[2]+=r*t,e[3]+=i*t),n&&(n=P(n*I),e[0]+=u*n,e[1]+=o*n),this.w=this.s=this.i=null}return this}},{key:"resetSelf",value:function(){var t=arguments.length>0&&void 0!==arguments[0]?arguments[0]:1,n=arguments.length>1&&void 0!==arguments[1]?arguments[1]:0,e=arguments.length>2&&void 0!==arguments[2]?arguments[2]:0,r=arguments.length>3&&void 0!==arguments[3]?arguments[3]:1,i=arguments.length>4&&void 0!==arguments[4]?arguments[4]:0,u=arguments.length>5&&void 0!==arguments[5]?arguments[5]:0,o=this.m;return o[0]=t,o[1]=n,o[2]=e,o[3]=r,o[4]=i,o[5]=u,this.w=this.s=this.i=null,this}},{key:"recomposeSelf",value:function(){var t=arguments.length>0&&void 0!==arguments[0]?arguments[0]:null,n=arguments.length>1&&void 0!==arguments[1]?arguments[1]:null,e=arguments.length>2&&void 0!==arguments[2]?arguments[2]:null,r=arguments.length>3&&void 0!==arguments[3]?arguments[3]:null,i=arguments.length>4&&void 0!==arguments[4]?arguments[4]:null;return this.isIdentity||this.resetSelf(),t&&(t.x||t.y)&&this.translateSelf(t.x,t.y),n&&this.rotateSelf(n),e&&(e.x&&this.skewSelf(e.x,0),e.y&&this.skewSelf(0,e.y)),!r||1===r.x&&1===r.y||this.scaleSelf(r.x,r.y),i&&(i.x||i.y)&&this.translateSelf(i.x,i.y),this}},{key:"decompose",value:function(){var t=arguments.length>0&&void 0!==arguments[0]?arguments[0]:0,n=arguments.length>1&&void 0!==arguments[1]?arguments[1]:0,e=this.m,r=e[0]*e[0]+e[1]*e[1],i=[[e[0],e[1]],[e[2],e[3]]],u=F(r);if(0===u)return{origin:{x:d(e[4]),y:d(e[5])},translate:{x:d(t),y:d(n)},scale:{x:0,y:0},skew:{x:0,y:0},rotate:0};i[0][0]/=u,i[0][1]/=u;var o=e[0]*e[3]-e[1]*e[2]<0;o&&(u=-u);var a=i[0][0]*i[1][0]+i[0][1]*i[1][1];i[1][0]-=i[0][0]*a,i[1][1]-=i[0][1]*a;var l=F(i[1][0]*i[1][0]+i[1][1]*i[1][1]);if(0===l)return{origin:{x:d(e[4]),y:d(e[5])},translate:{x:d(t),y:d(n)},scale:{x:d(u),y:0},skew:{x:0,y:0},rotate:0};i[1][0]/=l,i[1][1]/=l,a/=l;var s=0;return i[1][1]<0?(s=j(i[1][1])*R,i[0][1]<0&&(s=360-s)):s=M(i[0][1])*R,o&&(s=-s),a=E(a,F(i[0][0]*i[0][0]+i[0][1]*i[0][1]))*R,o&&(a=-a),{origin:{x:d(e[4]),y:d(e[5])},translate:{x:d(t),y:d(n)},scale:{x:d(u),y:d(l)},skew:{x:d(a),y:0},rotate:d(s)}}},{key:"clone",value:function(){var t=this.m;return new this.constructor(t[0],t[1],t[2],t[3],t[4],t[5])}},{key:"toString",value:function(){var t=arguments.length>0&&void 0!==arguments[0]?arguments[0]:" ";if(null===this.s){var n=this.m.map((function(t){return d(t)}));1===n[0]&&0===n[1]&&0===n[2]&&1===n[3]?this.s="translate("+n[4]+t+n[5]+")":this.s="matrix("+n.join(t)+")"}return this.s}}],[{key:"create",value:function(t){return t?Array.isArray(t)?f(this,v(t)):t instanceof this?t.clone():(new this).recomposeSelf(t.origin,t.rotate,t.skew,t.scale,t.translate):new this}}]),t}();function T(t,n,e){return t>=.5?e:n}function q(t,n,e){return 0===t||n===e?n:t*(e-n)+n}function B(t,n,e){var r=q(t,n,e);return r<=0?0:r}function L(t,n,e){var r=q(t,n,e);return r<=0?0:r>=1?1:r}function C(t,n,e){return 0===t?n:1===t?e:{x:q(t,n.x,e.x),y:q(t,n.y,e.y)}}function D(t,n,e){var r=function(t,n,e){return Math.round(q(t,n,e))}(t,n,e);return r<=0?0:r>=255?255:r}function z(t,n,e){return 0===t?n:1===t?e:{r:D(t,n.r,e.r),g:D(t,n.g,e.g),b:D(t,n.b,e.b),a:q(t,null==n.a?1:n.a,null==e.a?1:e.a)}}function V(t,n){for(var e=[],r=0;r<t;r++)e.push(n);return e}function G(t,n){if(--n<=0)return t;var e=(t=Object.assign([],t)).length;do{for(var r=0;r<e;r++)t.push(t[r])}while(--n>0);return t}var Y,$=function(){function t(n){r(this,t),this.list=n,this.length=n.length}return u(t,[{key:"setAttribute",value:function(t,n){for(var e=this.list,r=0;r<this.length;r++)e[r].setAttribute(t,n)}},{key:"removeAttribute",value:function(t){for(var n=this.list,e=0;e<this.length;e++)n[e].removeAttribute(t)}},{key:"style",value:function(t,n){for(var e=this.list,r=0;r<this.length;r++)e[r].style[t]=n}}]),t}(),U=/-./g,Q=function(t,n){return n.toUpperCase()};function H(t){return"function"==typeof t?t:T}function J(t){return t?"function"==typeof t?t:Array.isArray(t)?function(t){var n=arguments.length>1&&void 0!==arguments[1]?arguments[1]:b;if(!Array.isArray(t))return n;switch(t.length){case 1:return _(t[0])||n;case 2:return _(t[0],t[1])||n;case 4:return x(t[0],t[1],t[2],t[3])||n}return n}(t,null):function(t,n){var e=arguments.length>2&&void 0!==arguments[2]?arguments[2]:b;switch(t){case"linear":return b;case"steps":return _(n.steps||1,n.jump||0)||e;case"bezier":case"cubic-bezier":return x(n.x1||0,n.y1||0,n.x2||0,n.y2||0)||e}return e}(t.type,t.value,null):null}function Z(t,n,e){var r=arguments.length>3&&void 0!==arguments[3]&&arguments[3],i=n.length-1;if(t<=n[0].t)return r?[0,0,n[0].v]:n[0].v;if(t>=n[i].t)return r?[i,1,n[i].v]:n[i].v;var u,o=n[0],a=null;for(u=1;u<=i;u++){if(!(t>n[u].t)){a=n[u];break}o=n[u]}return null==a?r?[i,1,n[i].v]:n[i].v:o.t===a.t?r?[u,1,a.v]:a.v:(t=(t-o.t)/(a.t-o.t),o.e&&(t=o.e(t)),r?[u,t,e(t,o.v,a.v)]:e(t,o.v,a.v))}function K(t,n){var e=arguments.length>2&&void 0!==arguments[2]?arguments[2]:null;return t&&t.length?"function"!=typeof n?null:("function"!=typeof e&&(e=null),function(r){var i=Z(r,t,n);return null!=i&&e&&(i=e(i)),i}):null}function W(t,n){return t.t-n.t}function X(t,n,r,i,u){var o,a="@"===r[0],l="#"===r[0],s=Y[r],f=T;switch(a?(o=r.substr(1),r=o.replace(U,Q)):l&&(r=r.substr(1)),e(s)){case"function":if(f=s(i,u,Z,J,r,a,n,t),l)return f;break;case"string":f=K(i,H(s));break;case"object":if((f=K(i,H(s.i),s.f))&&"function"==typeof s.u)return s.u(n,f,r,a,t)}return f?function(t,n,e){if(arguments.length>3&&void 0!==arguments[3]&&arguments[3])return t instanceof $?function(r){return t.style(n,e(r))}:function(r){return t.style[n]=e(r)};if(Array.isArray(n)){var r=n.length;return function(i){var u=e(i);if(null==u)for(var o=0;o<r;o++)t[o].removeAttribute(n);else for(var a=0;a<r;a++)t[a].setAttribute(n,u)}}return function(r){var i=e(r);null==i?t.removeAttribute(n):t.setAttribute(n,i)}}(n,r,f,a):null}function tt(t,n,r,i){if(!i||"object"!==e(i))return null;var u=null,o=null;return Array.isArray(i)?o=function(t){if(!t||!t.length)return null;for(var n=0;n<t.length;n++)t[n].e&&(t[n].e=J(t[n].e));return t.sort(W)}(i):(o=i.keys,u=i.data||null),o?X(t,n,r,o,u):null}function nt(t,n,e){if(!e)return null;var r=[];for(var i in e)if(e.hasOwnProperty(i)){var u=tt(t,n,i,e[i]);u&&r.push(u)}return r.length?r:null}function et(t,n){if(!n.settings.duration||n.settings.duration<0)return null;var e,r,i,u,o,a=function(t,n){if(!n)return null;var e=[];if(Array.isArray(n))for(var r=n.length,i=0;i<r;i++){var u=n[i];if(2===u.length){var o=null;if("string"==typeof u[0])o=t.getElementById(u[0]);else if(Array.isArray(u[0])){o=[];for(var a=0;a<u[0].length;a++)if("string"==typeof u[0][a]){var l=t.getElementById(u[0][a]);l&&o.push(l)}o=o.length?1===o.length?o[0]:new $(o):null}if(o){var s=nt(t,o,u[1]);s&&(e=e.concat(s))}}}else for(var f in n)if(n.hasOwnProperty(f)){var c=t.getElementById(f);if(c){var h=nt(t,c,n[f]);h&&(e=e.concat(h))}}return e.length?e:null}(t,n.elements);return a?(e=a,r=n.settings,i=r.duration,u=e.length,o=null,function(t,n){var a=r.iterations||1/0,l=(r.alternate&&a%2==0)^r.direction>0?i:0,s=t%i,f=1+(t-s)/i;n*=r.direction,r.alternate&&f%2==0&&(n=-n);var c=!1;if(f>a)s=l,c=!0,-1===r.fill&&(s=r.direction>0?0:i);else if(n<0&&(s=i-s),s===o)return!1;o=s;for(var h=0;h<u;h++)e[h](s);return c}):null}function rt(t,n){if(Y=n,!t||!t.root||!Array.isArray(t.animations))return null;var e=function(t){for(var n=document.getElementsByTagName("svg"),e=0;e<n.length;e++)if(n[e].id===t.root&&!n[e].svgatorAnimation)return n[e].svgatorAnimation=!0,n[e];return null}(t);if(!e)return null;var r=t.animations.map((function(t){return et(e,t)})).filter((function(t){return!!t}));return r.length?{svg:e,animations:r,animationSettings:t.animationSettings,options:t.options||void 0}:null}function it(t){return+("0x"+(t.replace(/[^0-9a-fA-F]+/g,"")||27))}function ut(t,n,e){return!t||!e||n>t.length?t:t.substring(0,n)+ut(t.substring(n+1),e,e)}function ot(t){var n=arguments.length>1&&void 0!==arguments[1]?arguments[1]:27;return!t||t%n?t%n:ot(t/n,n)}function at(t,n,e){if(t&&t.length){var r=it(e),i=it(n),u=ot(r)+5,o=ut(t,ot(r,5),u);return o=o.replace(/\x7c$/g,"==").replace(/\x2f$/g,"="),o=function(t,n,e){var r=+("0x"+t.substring(0,4));t=t.substring(4);for(var i=n%r+e%27,u=[],o=0;o<t.length;o+=2)if("|"!==t[o]){var a=+("0x"+t[o]+t[o+1])-i;u.push(a)}else{var l=+("0x"+t.substring(o+1,o+1+4))-i;o+=3,u.push(l)}return String.fromCharCode.apply(String,u)}(o=(o=atob(o)).replace(/[\x41-\x5A]/g,""),i,r),o=JSON.parse(o)}}var lt=[{key:"alternate",def:!1},{key:"fill",def:1},{key:"iterations",def:0},{key:"direction",def:1},{key:"speed",def:1},{key:"fps",def:100}],st=function(){function t(n,e){var i=this,u=arguments.length>2&&void 0!==arguments[2]?arguments[2]:null;r(this,t),this._id=0,this._running=!1,this._rollingBack=!1,this._animations=n,this._settings=e,(!u||u<"2022-05-02")&&delete this._settings.speed,lt.forEach((function(t){i._settings[t.key]=i._settings[t.key]||t.def})),this.duration=e.duration,this.offset=e.offset||0,this.rollbackStartOffset=0}return u(t,[{key:"alternate",get:function(){return this._settings.alternate}},{key:"fill",get:function(){return this._settings.fill}},{key:"iterations",get:function(){return this._settings.iterations}},{key:"direction",get:function(){return this._settings.direction}},{key:"speed",get:function(){return this._settings.speed}},{key:"fps",get:function(){return this._settings.fps}},{key:"maxFiniteDuration",get:function(){return this.iterations>0?this.iterations*this.duration:this.duration}},{key:"_apply",value:function(t){for(var n=arguments.length>1&&void 0!==arguments[1]?arguments[1]:{},e=this._animations,r=e.length,i=0,u=0;u<r;u++)n[u]?i++:(n[u]=e[u](t,1),n[u]&&i++);return i}},{key:"_rollback",value:function(t){var n=this,e=1/0,r=null;this.rollbackStartOffset=t,this._rollingBack=!0,this._running=!0;this._id=window.requestAnimationFrame((function i(u){if(n._rollingBack){null==r&&(r=u);var o=Math.round(t-(u-r)*n.speed);if(o>n.duration&&e!==1/0){var a=!!n.alternate&&o/n.duration%2>1,l=o%n.duration;o=(l+=a?n.duration:0)||n.duration}var s=(n.fps?1e3/n.fps:0)*n.speed,f=Math.max(0,o);f<=e-s&&(n.offset=f,e=f,n._apply(f));var c=n.iterations>0&&-1===n.fill&&o>=n.maxFiniteDuration;(o<=0||n.offset<o||c)&&n.stop(),n._id=window.requestAnimationFrame(i)}}))}},{key:"_start",value:function(){var t=this,n=arguments.length>0&&void 0!==arguments[0]?arguments[0]:0,e=-1/0,r=null,i={};this._running=!0;var u=function u(o){null==r&&(r=o);var a=Math.round((o-r)*t.speed+n),l=(t.fps?1e3/t.fps:0)*t.speed;if(a>=e+l&&!t._rollingBack&&(t.offset=a,e=a,t._apply(a,i)===t._animations.length))return void t.pause(!0);t._id=window.requestAnimationFrame(u)};this._id=window.requestAnimationFrame(u)}},{key:"_pause",value:function(){this._id&&window.cancelAnimationFrame(this._id),this._running=!1}},{key:"play",value:function(){if(!this._running)return this._rollingBack?this._rollback(this.offset):this._start(this.offset)}},{key:"stop",value:function(){this._pause(),this.offset=0,this.rollbackStartOffset=0,this._rollingBack=!1,this._apply(0)}},{key:"reachedToEnd",value:function(){return this.iterations>0&&this.offset>=this.iterations*this.duration}},{key:"restart",value:function(){var t=arguments.length>0&&void 0!==arguments[0]&&arguments[0];this.stop(t),this.play(t)}},{key:"pause",value:function(){this._pause()}},{key:"reverse",value:function(){this.direction=-this.direction}}],[{key:"build",value:function(t,n){delete t.animationSettings,t.options=at(t.options,t.root,"5c7f360c"),t.animations.map((function(n){n.settings=at(n.s,t.root,"5c7f360c"),delete n.s,t.animationSettings||(t.animationSettings=n.settings)}));var e=t.version;if(!(t=rt(t,n)))return null;var r=t.options||{},i=new this(t.animations,t.animationSettings,e);return{el:t.svg,options:r,player:i}}},{key:"push",value:function(t){return this.build(t)}},{key:"init",value:function(){var t=this,n=window.__SVGATOR_PLAYER__&&window.__SVGATOR_PLAYER__["5c7f360c"];Array.isArray(n)&&n.splice(0).forEach((function(n){return t.build(n)}))}}]),t}();function ft(t){return d(t)+""}function ct(t){var n=arguments.length>1&&void 0!==arguments[1]?arguments[1]:" ";return t&&t.length?t.map(ft).join(n):""}function ht(t){if(!t)return"transparent";if(null==t.a||t.a>=1){var n=function(t){return 1===(t=parseInt(t).toString(16)).length?"0"+t:t},e=function(t){return t.charAt(0)===t.charAt(1)},r=n(t.r),i=n(t.g),u=n(t.b);return e(r)&&e(i)&&e(u)&&(r=r.charAt(0),i=i.charAt(0),u=u.charAt(0)),"#"+r+i+u}return"rgba("+t.r+","+t.g+","+t.b+","+t.a+")"}function vt(t){return t?"url(#"+t+")":"none"}!function(){for(var t=0,n=["ms","moz","webkit","o"],e=0;e<n.length&&!window.requestAnimationFrame;++e)window.requestAnimationFrame=window[n[e]+"RequestAnimationFrame"],window.cancelAnimationFrame=window[n[e]+"CancelAnimationFrame"]||window[n[e]+"CancelRequestAnimationFrame"];window.requestAnimationFrame||(window.requestAnimationFrame=function(n){var e=Date.now(),r=Math.max(0,16-(e-t)),i=window.setTimeout((function(){n(e+r)}),r);return t=e+r,i},window.cancelAnimationFrame=window.clearTimeout)}();var yt={f:null,i:function(t,n,e){return 0===t?n:1===t?e:{x:B(t,n.x,e.x),y:B(t,n.y,e.y)}},u:function(t,n){return function(e){var r=n(e);t.setAttribute("rx",ft(r.x)),t.setAttribute("ry",ft(r.y))}}},gt={f:null,i:function(t,n,e){return 0===t?n:1===t?e:{width:B(t,n.width,e.width),height:B(t,n.height,e.height)}},u:function(t,n){return function(e){var r=n(e);t.setAttribute("width",ft(r.width)),t.setAttribute("height",ft(r.height))}}};Object.freeze({M:2,L:2,Z:0,H:1,V:1,C:6,Q:4,T:2,S:4,A:7});var dt={},pt=null;function mt(t){var n=function(){if(pt)return pt;if("object"!==("undefined"==typeof document?"undefined":e(document))||!document.createElementNS)return{};var t=document.createElementNS("http://www.w3.org/2000/svg","svg");return t&&t.style?(t.style.position="absolute",t.style.opacity="0.01",t.style.zIndex="-9999",t.style.left="-9999px",t.style.width="1px",t.style.height="1px",pt={svg:t}):{}}().svg;if(!n)return function(t){return null};var r=document.createElementNS(n.namespaceURI,"path");r.setAttributeNS(null,"d",t),r.setAttributeNS(null,"fill","none"),r.setAttributeNS(null,"stroke","none"),n.appendChild(r);var i=r.getTotalLength();return function(t){var n=r.getPointAtLength(i*t);return{x:n.x,y:n.y}}}function bt(t){return dt[t]?dt[t]:dt[t]=mt(t)}function wt(t,n,e,r){if(!t||!r)return!1;var i=["M",t.x,t.y];if(n&&e&&(i.push("C"),i.push(n.x),i.push(n.y),i.push(e.x),i.push(e.y)),n?!e:e){var u=n||e;i.push("Q"),i.push(u.x),i.push(u.y)}return n||e||i.push("L"),i.push(r.x),i.push(r.y),i.join(" ")}function xt(t,n,e,r){var i=arguments.length>4&&void 0!==arguments[4]?arguments[4]:1,u=wt(t,n,e,r),o=bt(u);try{return o(i)}catch(t){return null}}function At(t,n,e){return t+(n-t)*e}function kt(t,n,e){var r=arguments.length>3&&void 0!==arguments[3]&&arguments[3],i={x:At(t.x,n.x,e),y:At(t.y,n.y,e)};return r&&(i.a=_t(t,n)),i}function _t(t,n){return Math.atan2(n.y-t.y,n.x-t.x)}function St(t,n,e,r){var i=1-r;return i*i*t+2*i*r*n+r*r*e}function Ot(t,n,e,r){return 2*(1-r)*(n-t)+2*r*(e-n)}function jt(t,n,e,r){var i=arguments.length>4&&void 0!==arguments[4]&&arguments[4],u=xt(t,n,null,e,r);return u||(u={x:St(t.x,n.x,e.x,r),y:St(t.y,n.y,e.y,r)}),i&&(u.a=Mt(t,n,e,r)),u}function Mt(t,n,e,r){return Math.atan2(Ot(t.y,n.y,e.y,r),Ot(t.x,n.x,e.x,r))}function Pt(t,n,e,r,i){var u=i*i;return i*u*(r-t+3*(n-e))+3*u*(t+e-2*n)+3*i*(n-t)+t}function Et(t,n,e,r,i){var u=1-i;return 3*(u*u*(n-t)+2*u*i*(e-n)+i*i*(r-e))}function It(t,n,e,r,i){var u=arguments.length>5&&void 0!==arguments[5]&&arguments[5],o=xt(t,n,e,r,i);return o||(o={x:Pt(t.x,n.x,e.x,r.x,i),y:Pt(t.y,n.y,e.y,r.y,i)}),u&&(o.a=Rt(t,n,e,r,i)),o}function Rt(t,n,e,r,i){return Math.atan2(Et(t.y,n.y,e.y,r.y,i),Et(t.x,n.x,e.x,r.x,i))}function Ft(t,n,e){var r=arguments.length>3&&void 0!==arguments[3]&&arguments[3];if(Tt(n)){if(qt(e))return jt(n,e.start,e,t,r)}else if(Tt(e)){if(Bt(n))return jt(n,n.end,e,t,r)}else{if(Bt(n))return qt(e)?It(n,n.end,e.start,e,t,r):jt(n,n.end,e,t,r);if(qt(e))return jt(n,e.start,e,t,r)}return kt(n,e,t,r)}function Nt(t,n,e){var r=Ft(t,n,e,!0);return r.a=function(t){return arguments.length>1&&void 0!==arguments[1]&&arguments[1]?t+Math.PI:t}(r.a)/m,r}function Tt(t){return!t.type||"corner"===t.type}function qt(t){return null!=t.start&&!Tt(t)}function Bt(t){return null!=t.end&&!Tt(t)}var Lt=new N;var Ct={f:ft,i:q},Dt={f:ft,i:L};function zt(t,n,e){return t.map((function(t){return function(t,n,e){var r=t.v;if(!r||"g"!==r.t||r.s||!r.v||!r.r)return t;var i=e.getElementById(r.r),u=i&&i.querySelectorAll("stop")||[];return r.s=r.v.map((function(t,n){var e=u[n]&&u[n].getAttribute("offset");return{c:t,o:e=d(parseInt(e)/100)}})),delete r.v,t}(t,0,e)}))}var Vt={gt:"gradientTransform",c:{x:"cx",y:"cy"},rd:"r",f:{x:"x1",y:"y1"},to:{x:"x2",y:"y2"}};function Gt(t,n,r,i,u,o,a,l){return zt(t,0,l),n=function(t,n,e){for(var r,i,u,o=t.length-1,a={},l=0;l<=o;l++)(r=t[l]).e&&(r.e=n(r.e)),r.v&&"g"===(i=r.v).t&&i.r&&(u=e.getElementById(i.r))&&(a[i.r]={e:u,s:u.querySelectorAll("stop")});return a}(t,i,l),function(i){var u=r(i,t,Yt);if(!u)return"none";if("c"===u.t)return ht(u.v);if("g"===u.t){if(!n[u.r])return vt(u.r);var o=n[u.r];return function(t,n){for(var e=t.s,r=e.length;r<n.length;r++){var i=e[e.length-1].cloneNode();i.id=Qt(i.id),t.e.appendChild(i),e=t.s=t.e.querySelectorAll("stop")}for(var u=0,o=e.length,a=n.length-1;u<o;u++)e[u].setAttribute("stop-color",ht(n[Math.min(u,a)].c)),e[u].setAttribute("offset",n[Math.min(u,a)].o)}(o,u.s),Object.keys(Vt).forEach((function(t){if(void 0!==u[t])if("object"!==e(Vt[t])){var n,r="gt"===t?(n=u[t],Array.isArray(n)?"matrix("+n.join(" ")+")":""):u[t],i=Vt[t];o.e.setAttribute(i,r)}else Object.keys(Vt[t]).forEach((function(n){if(void 0!==u[t][n]){var e=u[t][n],r=Vt[t][n];o.e.setAttribute(r,e)}}))})),vt(u.r)}return"none"}}function Yt(t,e,r){if(0===t)return e;if(1===t)return r;if(e&&r){var i=e.t;if(i===r.t)switch(e.t){case"c":return{t:i,v:z(t,e.v,r.v)};case"g":if(e.r===r.r){var u={t:i,s:$t(t,e.s,r.s),r:e.r};return e.gt&&r.gt&&(u.gt=function(t,n,e){var r=n.length;if(r!==e.length)return T(t,n,e);for(var i=new Array(r),u=0;u<r;u++)i[u]=q(t,n[u],e[u]);return i}(t,e.gt,r.gt)),e.c?(u.c=C(t,e.c,r.c),u.rd=B(t,e.rd,r.rd)):e.f&&(u.f=C(t,e.f,r.f),u.to=C(t,e.to,r.to)),u}}if("c"===e.t&&"g"===r.t||"c"===r.t&&"g"===e.t){var o="c"===e.t?e:r,a="g"===e.t?n({},e):n({},r),l=a.s.map((function(t){return{c:o.v,o:t.o}}));return a.s="c"===e.t?$t(t,l,a.s):$t(t,a.s,l),a}}return T(t,e,r)}function $t(t,n,e){if(n.length===e.length)return n.map((function(n,r){return Ut(t,n,e[r])}));for(var r=Math.max(n.length,e.length),i=[],u=0;u<r;u++){var o=Ut(t,n[Math.min(u,n.length-1)],e[Math.min(u,e.length-1)]);i.push(o)}return i}function Ut(t,n,e){return{o:L(t,n.o,e.o||0),c:z(t,n.c,e.c||{})}}function Qt(t){return t.replace(/-fill-([0-9]+)$/,(function(t,n){return"-fill-"+(+n+1)}))}var Ht={fill:Gt,"fill-opacity":Dt,stroke:Gt,"stroke-opacity":Dt,"stroke-width":Ct,"stroke-dashoffset":{f:ft,i:q},"stroke-dasharray":{f:function(t){var n=arguments.length>1&&void 0!==arguments[1]?arguments[1]:" ";return t&&t.length>0&&(t=t.map((function(t){return d(t,4)}))),ct(t,n)},i:function(t,n,e){var r,i,u,o=n.length,a=e.length;if(o!==a)if(0===o)n=V(o=a,0);else if(0===a)a=o,e=V(o,0);else{var l=(u=(r=o)*(i=a)/function(t,n){for(var e;n;)e=n,n=t%n,t=e;return t||1}(r,i))<0?-u:u;n=G(n,Math.floor(l/o)),e=G(e,Math.floor(l/a)),o=a=l}for(var s=[],f=0;f<o;f++)s.push(d(B(t,n[f],e[f])));return s}},opacity:Dt,transform:function(t,n,r,i){if(!(t=function(t,n){if(!t||"object"!==e(t))return null;var r=!1;for(var i in t)t.hasOwnProperty(i)&&(t[i]&&t[i].length?(t[i].forEach((function(t){t.e&&(t.e=n(t.e))})),r=!0):delete t[i]);return r?t:null}(t,i)))return null;var u=function(e,i,u){var o=arguments.length>3&&void 0!==arguments[3]?arguments[3]:null;return t[e]?r(i,t[e],u):n&&n[e]?n[e]:o};return n&&n.a&&t.o?function(n){var e=r(n,t.o,Nt);return Lt.recomposeSelf(e,u("r",n,q,0)+e.a,u("k",n,C),u("s",n,C),u("t",n,C)).toString()}:function(t){return Lt.recomposeSelf(u("o",t,Ft,null),u("r",t,q,0),u("k",t,C),u("s",t,C),u("t",t,C)).toString()}},r:Ct,"#size":gt,"#radius":yt,_:function(t,n){if(Array.isArray(t))for(var e=0;e<t.length;e++)this[t[e]]=n;else this[t]=n}},Jt=function(t){!function(t,n){if("function"!=typeof n&&null!==n)throw new TypeError("Super expression must either be null or a function");t.prototype=Object.create(n&&n.prototype,{constructor:{value:t,writable:!0,configurable:!0}}),n&&l(t,n)}(o,t);var n,e,i=(n=o,e=s(),function(){var t,r=a(n);if(e){var i=a(this).constructor;t=Reflect.construct(r,arguments,i)}else t=r.apply(this,arguments);return c(this,t)});function o(){return r(this,o),i.apply(this,arguments)}return u(o,null,[{key:"build",value:function(t){var n=h(a(o),"build",this).call(this,t,Ht);if(!n)return null;n.el,n.options,function(t,n,e){t.play()}(n.player)}}]),o}(st);return Jt.init(),Jt}));
(function(s,i,o,w,a,b){w[o]=w[o]||{};w[o][s]=w[o][s]||[];w[o][s].push(i);})('5c7f360c',{"root":"jumping","version":"2022-05-04","animations":[{"elements":{"jumping-u-shadow":{"transform":{"data":{"o":{"x":72.097695,"y":342.429077,"type":"corner"},"t":{"x":-1965.03,"y":-2380.589}},"keys":{"s":[{"t":0,"v":{"x":1,"y":1}},{"t":1500,"v":{"x":0.5,"y":0.5}},{"t":3000,"v":{"x":1,"y":1}}]}}},"jumping-u-group-424":{"transform":{"data":{"t":{"x":-79.536621,"y":-173.29538}},"keys":{"o":[{"t":0,"v":{"x":79.536621,"y":171.29538,"type":"corner"}},{"t":1500,"v":{"x":79.536621,"y":89.29538,"type":"corner"}},{"t":3000,"v":{"x":79.536621,"y":171.29538,"type":"corner"}}]}}}},"s":"MEDA1ZGFlNTU5N2E4YTPVDOTRhNzljYTJhMTUU1NmQ2NjYzRjYzNjM1KZjU1OTc5Y2E1OTg5NHmE3OWNhMmExNTU2ZDJY0NWY1NTljYTc5OGEK1OTRhNzljYTJhMWE2XNTVNNmQ2MzVmNTU5OTTljOWY5ZjU1NmQ2NFLE1ZjU1OTQ5ZmE3OThPhNUlhMTk0YTdROTg1XNTZkOTk5NDlmYTY5OKDVmNTVhNmEzTTk4OTLg5NzU1NmRKNjQ1ZjUR1OTlhM1dhNjU1NmRDDNjQ2MzYzYjA/"}],"options":"MVDAxMDhlMzVEODY4NzHc0ODU4NzM1NGQzNTdYmODI3NDc3MzU5MA|"},'__SVGATOR_PLAYER__',window)
]]></script>
</svg>
