<svg id="okay" xmlns="http://www.w3.org/2000/svg" xmlns:xlink="http://www.w3.org/1999/xlink" viewBox="0 0 159.474 403.274" shape-rendering="geometricPrecision" text-rendering="geometricPrecision"><g id="okay-u-group-525" transform="translate(-479.022-60.418)"><path id="okay-u-shadow" d="M2474.022,726.956c0,4.063,35.7,7.358,79.738,7.358s79.736-3.294,79.736-7.358-35.7-7.357-79.736-7.357-79.738,3.294-79.738,7.357Z" transform="translate(-1995-270.621)" opacity="0.1"/><path id="okay-u-path-250" d="M2604.985,301.327c2.222348,5.271639,4.791646,10.39019,7.691,15.322c1.628,2.822,3.413,5.744,5.334,8.708l.664,1.013.574.854l1.174,1.7c.792,1.131,1.6,2.255,2.428,3.362c1.656,2.213,3.371,4.367,5.163,6.38c1.697241,2.016606,3.642672,3.810501,5.79,5.339.537969.360279,1.135549.622333,1.765.774.329626.065856.671442.031012.981-.1.318434-.167995.562446-.449108.684-.788.53-1.354.983-2.712,1.518-4c1.02-2.6,2.077-5.031,3.048-7.333c1.375-3.223,2.6-6.178,3.611-8.846l.188-.5q.138-.34.275-.678l.6-1.47q.561-1.459,1.1-2.852c.729-1.85,1.355-3.624,1.944-5.288l12.543,5.08c-.783,1.68-1.618,3.476-2.568,5.337q-.7,1.4-1.44,2.873l-1.63,3.127c-1.219,2.363-2.546,4.752-3.87,7.2q-2.022,3.647-4.092,7.459c-.478.916-1,1.728-1.509,2.581-.511.833-1.02,1.723-1.534,2.518l-3.028,4.683c-1.015,1.547-1.838,3.05-2.76,4.588-.243007.414102-.633351.721234-1.093.86-.49991.126247-1.024325.117967-1.52-.024-.968431-.311165-1.880192-.776839-2.7-1.379-1.647187-1.199626-3.174616-2.555592-4.561-4.049-1.42-1.489-2.772-3.073-4.072-4.713-2.6-3.285-4.982-6.766-7.2-10.188-1.111-1.714-2.177-3.422-3.209-5.108l-1.52-2.515-1.442-2.448c-1.83-3.139-3.547-6.2-5.143-9.145-3.2-5.881-5.908-11.269-8.054-15.806-.742275-1.35314-1.031743-2.908415-.826-4.438.125164-.927225.770946-1.700529,1.661-1.989c1.592-.433,3.75.74,5.035,3.899Z" transform="translate(-2100.74-110.805)" fill="#ffb888"/><path id="okay-u-path-251" d="M2587.175,335.66c0,0,.19-.5.75-1.768.542-1.272,1.49-3.285,2.94-6.3.6-1.359,1.528-3.485,2.6-5.932l.79-1.845.388-.95q.3-.689.6-1.387c.875-2.027,1.69-4.1,2.512-6.124.757-2.039,1.554-4.005,2.2-5.867s1.275-3.57,1.753-5.078c.948-3.019,1.652-5.106,1.771-5.6.755566-2.578106,2.192332-4.904774,4.159-6.735c1.763-1.562,3.823-2.319,5.727-1.815c2.023843.569092,3.643839,2.087978,4.342,4.071.483092,1.248084.715848,2.579038.685,3.917-.049518,1.714606-.334864,3.41423-.848,5.051-.165.518-2.412,6.952-5.9,14.848l-1.348,3.026-1.468,3.1c-.49,1.048-1,2.1-1.528,3.141l-1.771,3.556c-2.51,4.9-5.027,9.527-7.12,13.586-.54,1.1-1.125,2-1.649,2.912l-.775,1.318c-.251.429-.494.85-.734,1.2l-2.439,3.7-1.5,2.263-.492.779Z" transform="translate(-2050.22-106.55)" fill="#e4b363"/><path id="okay-u-path-252" d="M2628.272,383.858c.458-.6.866-1.244,1.3-1.863s.844-1.238,1.337-1.927l1.422-2.011c.231-.319.487-.707.737-1.076l.751-1.115-6.892-19.575c-.835,1.67-1.582,3.381-2.326,5.092Z" transform="translate(-2088.92-133.115)" fill="#bf9247"/><path id="okay-u-path-399" d="M2705.307,281.171c.046202,2.199738-.59912,4.358505-1.845,6.172-2.639,3.241-5.515,5.217-9.523,3.641-1.86-.732-6-3.094-8.663-9.411-.749279-1.790836-1.286269-3.663254-1.6-5.579-.77-3.672.871-6.226,3.321-6.7s6.975-4.23,8.512-4.129c1.768253.190326,3.212169,1.498938,3.575,3.24.306697,1.44606.516497,2.910985.628,4.385.067542,1.85271,1.102907,3.533897,2.727,4.428c2.191,1.282,2.8,2.572,2.868,3.953Z" transform="translate(-2197-98.624)" fill="#ffb888"/><path id="okay-u-path-400" d="M2695.732,281.842c2.191,1.277,2.8,2.572,2.867,3.952.046495,2.199629-.598474,4.358387-1.844,6.172-.517889.645194-1.077416,1.25583-1.675,1.828-2.707018-.166582-5.231674-1.420614-7-3.477-1.972-2.517-5.359-6.368-4.435-9.381.279-.909,1.482-1.232,2.173-2.439c1.2-2.1,2.67-.64,3.559-.382.373.109,3.365,1.064,3.631-.7.067468,1.851667,1.101505,3.532165,2.724,4.427Z" transform="translate(-2190.3-103.248)" fill="#eda87a"/><path id="okay-u-path-401" d="M2687.452,268.479c-.757-.14-3.244-2.8-3.394-4.944-.8-.032-3.323.062-4.01-.434-1.276.99-2.431,1.474-2.926,3.088-.475584,1.268512-.679979,2.62263-.6,3.975.167.921-1.266,1.2-2.4-.25s-3.934-6.561-.258-9.038s4.4-2.913,6.358-2.524s6.35.586,7.022,1.68c.606633,1.145542.939349,2.416158.972,3.712.373,2.707,2.505,5.339-.764,4.735Z" transform="translate(-2173.82-96)" fill="#ffb888"/><path id="okay-u-path-402" d="M2690.966,255.13c.081192-2.898587-.026369-5.799385-.322-8.684-.088-1.26,2.2-5.346,2.394-5.571.840728-.790638,1.786674-1.461314,2.811-1.993c2.794-1.774,3.2-2.956,3.007-4.134-.247-1.51-2.49.659-6.335,2.015-2.146.758-3.156,1.525-5.177,6.356-.896225,1.743643-1.459837,3.638964-1.662,5.589-.164,1.951-.332,2.932-.7,5.421-.682,4.548,5.798,4.171,5.984,1.001Z" transform="translate(-2191.49-86.918)" fill="#ffb888"/><path id="okay-u-path-403" d="M2712.277,253.772c-1.275468-2.699549-2.725542-5.313089-4.341-7.824-.668-1.116-.471-5.933-.4-6.23.403737-1.117498.960001-2.173827,1.653-3.139c1.739-2.932,1.562-4.205.835-5.2-.931-1.271-1.98,1.765-4.878,4.8-1.618,1.695-2.187,2.87-1.792,8.247-.011064,2.018483.354172,4.021348,1.077,5.906.758,1.868,1.061,2.848,1.881,5.3c1.501,4.5,7.271,1.136,5.965-1.86Z" transform="translate(-2216.43-85.726)" fill="#ffb888"/><path id="okay-u-path-404" d="M2720.38,261.65c-1.612646-1.970791-3.351998-3.834405-5.207-5.579-.784-.786-1.615-4.812-1.615-5.074.103957-1.008072.346233-1.997027.72-2.939.834-2.786.423-3.8-.382-4.474-1.033-.86-1.275,1.87-3.046,4.981-.988,1.737-1.218,2.826.22,7.2.516586,1.633057,1.225211,3.199014,2.111,4.665c1.072889,1.661992,1.816687,3.514528,2.191,5.457.902,3.933,6.707-2.026,5.008-4.237Z" transform="translate(-2228.89-90.396)" fill="#ffb888"/><path id="okay-u-path-405" d="M2689.848,274.334c-1.131-1.446-3.9-.176-4.678,1.865s-.414,2.052-1.117,3.323-3.323,1.577-5.325.38-3.85-.088-5.115,1.359c-3,3.428-1.435,13.686,2.406,12.694c4.231-1.091,6.151-5.154,8.264-7.673s3.787-2.846,4.028-5.5c.401-4.405,2.268-5.514,1.537-6.448Z" transform="translate(-2174.59-101.861)" fill="#ffb888"/><path id="okay-u-path-444" d="M2611.884,446.121c-4.035,17.327-2.326,30.2-8.779,63.647-3.241,16.811-8.165,34.385-13.3,51.074s-10.491,32.481-14.464,45.814c-1.856,6.11,4.716,8,9.121,9.7c3.893,1.51,10.885,1.965,11.958-3.779c5.79-31.85,10.182-64.775,18.234-98.25c7.829-32.585,15.106-51.092,17.927-64.844.792-3.847.179-10.98-7.176-12.8-8.375-2.065-12.505,5.053-13.521,9.438Z" transform="translate(-2057.11-163.405)" fill="#313638"/><path id="okay-u-path-474" d="M2663.958,713.659c6.9.022,8.326,3.311,9.04,5.394.6,1.754.733,6.54.057,6.625s-33.281.451-34.973.451-1.524-3.04-1.242-4.026s9.5-2.145,13-3.751c1.689-.78,9.86-4.706,14.118-4.693Z" transform="translate(-2136.09-268.373)" fill="#454d50"/><g id="okay-u-group-205" transform="translate(576.789 144.183)"><path id="okay-u-path-556" d="M2551.915,250.843c.654-3.229.941-6.521,1.215-8.606c1.119-8.524.78-10.078,3.584-12.173c2.312-1.728,9.182-1.5,8.44,6.5-.682,7.351-.873,14.459-.129,18.862-4.217-2.119-8.564-4.612-13.11-4.583Z" transform="translate(-2551.92-229.193)" fill="#eaa475"/></g><g id="okay-u-group-206" transform="translate(551.651 165.832)"><path id="okay-u-path-557" d="M2527.53,363.585c1.065-17.374.615-19.254.225-23.941-1.407-16.918-8.292-33.861-5.86-48.433c1.924-11.525,6.376-12.568,12.222-15c5.6-2.325,7.4-1.68,9.611-4.72c1.426107-2.274092,2.375621-4.81407,2.791-7.466c4.546-.029,8.893,2.464,13.109,4.582.052.31.109.608.17.89c1.513,6.914,11.369,8.1,16.079,12.9c3.468,3.533,5.1,10.244-2.45,28.075-2.85,6.728-6.579,13.643-8.5,20.693-3.353,12.289-2.984,17.5.7,30.4c1.13,3.957,2.111,7.08,2.878,9.77c1.006096,3.245217,1.557016,6.614345,1.637,10.011.139,9.677-6.662,14.955-14.064,16.76-15.32,3.737-32.043-11.234-31-18.167.286-1.9.579-3.819,1.039-6.045.727364-3.396299,1.199682-6.842244,1.413-10.309Z" transform="translate(-2521.38-264.027)" fill="#ffb888"/></g><path id="okay-u-path-558" d="M2535.08,444.916c-1.043,6.934,15.842,22.069,31.161,18.333c7.4-1.807,14.368-7.246,14.229-16.923-.155909-3.540649-.800337-7.042772-1.915-10.407-11.853-1.582-19.3,6.017-32.7,5.078-3.305036-.091863-6.55389-.877162-9.536-2.305-.471,2.308-.945,4.274-1.239,6.224Z" transform="translate(-1979.9-163.17)" fill="#313638"/><path id="okay-u-path-594" d="M2545.433,452.554c-1.413,16.554,1.6,28.324-1.357,60.635-1.463,16.249-4.222,33.547-6.219,50.348-1.998834,15.448846-3.130607,30.997542-3.39,46.573-.008,6.246,6.491,6.121,10.969,6.435c3.957.272,10.446-1.273,9.854-6.658-1.6-14.98-2.857-30.237-2.961-45.829-.09964-15.944511.940342-31.875758,3.112-47.672c2.14-15.746,4.517-28.24,6.361-38.5.919-5.129,1.7-9.7,2.346-13.829.612-4.132,1.024-7.83,1.223-11.21.25-3.789-1.465-10.5-8.638-11.02-8.184-.591-10.903,6.548-11.3,10.727Z" transform="translate(-1964.47-165.477)" fill="#313638"/><path id="okay-u-path-620" d="M2567.212,726.566c2.648,0,2.078-3.973,1.072-4.911-1.552-1.444-7.435-5.709-11.944-5.722-7.128-.019-9.086,3.173-11.811,5.9-1.553,1.552-.507,4.738,1.183,4.738Z" transform="translate(-1973.98-269.234)" fill="#454d50"/><g id="okay-u-group-300" transform="translate(551.069 174.752)"><path id="okay-u-path-806" d="M2521,298.334c-.862,6.368.361,16.024,1.085,20.486s3.3,18.342,4.26,23.655.6,16.931.387,19.9c-.398453,4.22659-1.100262,8.419064-2.1,12.545-.239.866-.854,3.019-.977,3.456c1.1,1.241,3.872,3.313,11.628,3.922c8.89.7,16.986-2.935,21.974-4.262c3.931128-1.182073,8.096818-1.354039,12.112-.5c1.421.32.964-1.549.095-2.7-.037-.05-.072-.1-.1-.14-.694-1,.136-.894.7-2.478.589-1.655-.172.819-4.039-10.944s1.543-28.971,2.761-32.035s5.652-13.887,8.18-21.161s2.362-12.623,1.83-15.6c-.565-3.162-2.941-5.884-6.119-7.922-1.736-1.113-4.753-2.369-7.189-3.743-2.021-1.144-3.625-2.541-3.916-2.42-3.006,3.973-10.947,10.152-18.612,8.932-3.257-.52-5.008-5.829-1.4-8.849-1.949.421-11.521,3.213-15.076,6.254s-4.737,8.096-5.484,13.604Z" transform="translate(-2520.71-278.378)" fill="#e4b363"/></g><g id="okay-u-group-301" transform="translate(553.618 174.752)"><path id="okay-u-path-807" d="M2520.739,289.189c11.444-.576,16.182,12.87,16.182,12.87s16.066-12.554,35.454-8.974c1.626263.246653,3.114768,1.055123,4.207,2.285-.034573-.97232-.134801-1.941193-.3-2.9-.565-3.162-2.941-5.884-6.119-7.922-1.736-1.113-4.753-2.369-7.189-3.743-2.021-1.144-3.625-2.541-3.916-2.42-3.006,3.973-10.944,9.824-18.609,8.6-3.257-.519-5.01-5.5-1.4-8.521-1.949.421-11.521,3.213-15.076,6.254-1.398149,1.230315-2.503165,2.757998-3.234,4.471Z" transform="translate(-2520.74-278.378)" fill="#bf9247"/></g><path id="okay-u-path-808" d="M2584.071,291.629c-2.375,6.988-5.136,20.461-5.342,27.46-.293,10.01-1.188,17.427-1.018,33.986.106,10.251.708,31.6.525,33.567-.978111.090419-1.961836.103459-2.942.039.289-4.589-.028-28.847-.282-36.96-.294-9.411.6-24.419.868-31.151.23-5.735,2.325-19.329,5.176-26.779c1.205-3.151,3.694-2.162,3.015-.162Z" transform="translate(-2008.42-107.936)" fill="#bf9247"/><path id="okay-u-path-809" d="M2553.087,280.708c.51,1.255,1.051,2.638,4.933,2.05s16.643-2.689,15.292-.352c-2.905,5.024-12.32,12.534-13.35,11.294-1.005-1.209-3.9-5.684-5.893-6.2-3.5-.9-6.275,4.806-7.152,4.073-.3-.25-.879-3.883,3.313-11.231c1.65-2.887,2.7-.022,2.857.366Z" transform="translate(-1980.09-103.887)" fill="#b28845"/><g id="okay-u-group-302" transform="translate(570.167 179.635)"><path id="okay-u-path-810" d="M2571.362,289.81c-.060537,1.061519.238571,2.112447.849,2.983.4.449.6-.274,1.736.075.806.247,1.065.98,1.534.894c1.624051-.489955,2.969452-1.636318,3.711-3.162-.420684-1.194224-.921832-2.35856-1.5-3.485-1.133607-.490655-2.341238-.788423-3.573-.881-.777.946-1.597,1.976-2.757,3.576Z" transform="translate(-2571.36-286.235)" fill="#43474c"/></g><path id="okay-u-path-811" d="M2563.668,276.707c.219-.524-1.053-1.75-2.2-3.413s-2.165-3.773-2.721-3.677c.1,1.93-.521,4.057-4.287,6.663-4.68,3.239-8.244,2.83-9.7,3.157-.452.1.093,1.351.573,2.356c1.347,2.831,2.4,4.819,3.6,7.106.242.46,6.106-3.055,8.907-5.472c2.335669-1.866418,4.310752-4.143796,5.828-6.72Z" transform="translate(-1969.06-100.309)" fill="#e4b363"/><path id="okay-u-path-812" d="M2581.57,278.625c-.965-.927-.848-1.958.286-5.014.271-.729.72-1.627,1.118-2.566.183-.432.418-1.091.582-1.605-.950782.810649-1.787983,1.74573-2.489,2.78-1.152,1.588-1.981,2.329-2.443,3.044-3.768,5.825-4.388,12.051-3.7,11.709.813-.4,3.793-4.432,5.028-5.816c1.121-1.257,2.154-2.016,1.618-2.532Z" transform="translate(-2007.62-100.243)" fill="#e4b363"/><path id="okay-u-path-853" d="M2588.084,295.949c-1.64934,7.601272-2.769693,15.30775-3.353,23.064-.713,8.678-.944,17.91-.788,26.408.289,17.005,1.879,31.037,1.993,32.272-.595,1.461-2.111,4.477-4.211,5.643-2.348766-.804129-4.293231-2.489356-5.423-4.7-.473467-14.299234-.130577-28.613836,1.027-42.874.750543-9.438926,2.03796-18.827456,3.856-28.12.193-.952.378-1.868.554-2.743.2-.866.393-1.693.574-2.474.375-1.554.675-2.924,1.01-4.053.288292-1.29971.708469-2.566606,1.254-3.781c1.423-1.291,3.671.609,3.507,1.358Z" transform="translate(-2013.04-109.597)" fill="#43474c"/><path id="okay-u-path-854" d="M2581.5,381.684c-.125,2.315-.174,4.576-.254,6.756c1.528,3.955,3.384,7.23,3.835,6.332c1.314-2.589,3.206-.539,4.809,4.287-.183-2.5-.37-5.311-.522-8.348-4.179-6.1-3.635-1.63-5.116-3.771-.622-.916-1.752-3.23-2.752-5.256Z" transform="translate(-2018.04-142.726)" fill="#6b7075"/><path id="okay-u-path-855" d="M2582.717,367.916q-.094,1.445-.188,2.879c1.486,3.456,2.856,3.329,3.653,2.929.7-.346,2.339,2.886,3.633,5.463-.076-2.208-.123-4.49-.167-6.824-2.938-3.985-2.492-.649-4.232-.41-1.233.166-2.027-1.468-2.699-4.037Z" transform="translate(-2018.76-137.515)" fill="#6b7075"/><g id="okay-u-group-402" transform="translate(597.945 196.367)"><path id="okay-u-path-1019" d="M2499.344,389.993c2.342-4.526,5.286-10.349,8.444-16.691c3.083-6.325,6.57-13.3,7.167-19.446.297438-3.091976-.013063-6.212275-.914-9.185-.933748-3.179923-2.147844-6.270712-3.628-9.236-2.939-6.023-6.31-11.524-8.987-15.913l11.828-6.366c2.14,4.789,4.857,10.872,7.284,17.943c1.294269,3.721128,2.269783,7.545571,2.916,11.432.706839,4.155954.63257,8.407271-.219,12.536-.933473,3.965732-2.375761,7.794133-4.291,11.39-1.776,3.486-3.668,6.738-5.417,9.857-3.112138,5.338271-5.942029,10.836162-8.478,16.471-2.304,5.459-8.185,2.078-5.705-2.792Z" transform="translate(-2498.75-313.156)" fill="#ffb888"/></g><g id="okay-u-group-403" transform="translate(593.473 181.465)"><path id="okay-u-path-1020" d="M2516.611,335.636l-.342-1.334-.509-1.572c-.1-.305-.188-.625-.319-.972s-.272-.714-.418-1.1c-1.541852-3.938992-3.3194-7.781607-5.323-11.507-4.533-8.535-9.96-17.283-10.453-18.175-2.294-3.906-1.442-8.779,1.929-10.747c3.326-1.937,7.911-1.434,10.793,3.474.274.528,5.171,9.753,9.424,19.328c1.991609,4.420502,3.709191,8.95942,5.143,13.591.608,1.9.943,3.595,1.232,4.735.214,1.182.337,1.856.337,1.856Z" transform="translate(-2497.96-289.179)" fill="#e4b363"/></g><path id="okay-u-path-1021" d="M2510.585,358.877c-.167-1.423-.507-2.75-.793-4.11-.145-.68-.355-1.313-.531-1.971s-.356-1.315-.567-1.944l-14.5,4.6c.168.5.277.97.421,1.455.126.478.3.974.391,1.436.182.924.444,1.873.528,2.742Z" transform="translate(-1884.63-131.056)" fill="#bf9247"/><path id="okay-u-path-1125" d="M2530.818,453.2c-4.917-7.7,10.277-18.245,13.023-14.736c2.225,2.845.755,8.893,0,14.191-.984,6.87-2.213,10.489-4.318,12.274-2.859549-2.292751-5.592254-4.739366-8.186-7.329.349775-1.482066.16601-3.039992-.519-4.4Z" transform="translate(-1941.22-163.952)" fill="#ffb888"/><path id="okay-u-path-1126" d="M2547.331,454.5c-1.176-.183-1-1.193-2.591-2.078-2.531-1.406-6.228,1.8-8.676,3.767-2.975,2.39-5.33,2.282-5.944.646-.455-1.213,4.476-4.894,5.718-6.661c1.619-2.305,3.385-2.683,6.6-6.58c3.4-4.112,6.035-5.21,9-5.9c2.041-.477,5.577-1.125,7.1.539c1.342,1.472,1.2,3.492.544,6.319-1.161,5.013-7.805,10.565-11.751,9.948Z" transform="translate(-1955.92-163.722)" fill="#ffb888"/><g id="okay-u-head" transform="translate(-4.793532-1.16751)"><path id="okay-u-path-1192" d="M2568.565,193.047c-4.125,12.8-24.142,24.922-35.054,22.585-5-1.07-13.711-12.85-12.815-23.854.361-4.437,1.306-11.293,1.774-17.574c1.16-15.6-1.533-27.31,13.005-34.856c16.881-8.762,36.836.278,40.9,12.061c6.705,19.443-2.096,23.903-7.81,41.638Z" transform="translate(-1969.26-49.679)" fill="#ffb888"/><path id="okay-u-path-1193" d="M2532.4,234.63c-2.9293-3.461208-5.310631-7.351063-7.061-11.534c1.682,8.34,8.22,16.342,12.177,17.189c10.912,2.338,31.146-9.656,35.272-22.459c2.038256-5.92961,4.424055-11.733998,7.145-17.383-3.69522.22798-6.778267,2.906021-7.521,6.533-1.669,6.656-3.272,13.8-6.468,17.657-4.155665,4.843295-9.331324,8.707281-15.156,11.315-6.393,2.785-13.718,4.328-18.388-1.318Z" transform="translate(-1973.33-74.129)" fill="#ea8462"/><path id="okay-u-path-1250" d="M2579.576,213.666c.801803.303017,1.623806.549618,2.46.738.644.2,1.87.566,1.99,1.178.059781.937078-.643022,1.74893-1.579,1.824-.894123-.108546-1.772037-.323744-2.615-.641-.93-.25-1.819-.486-2.564-.64c1.513099.756027,3.064908,1.43196,4.649,2.025c1.712.452,3.659-1.793,2.587-3.262-.823-1.128-3.231-1.135-4.928-1.222Z" transform="translate(-2010.48-79.134)" fill="#6d3409" fill-rule="evenodd"/><path id="okay-u-path-1251" d="M2592.517,206.872c-.746688-.679315-1.559392-1.282311-2.426-1.8-.891-.572-2.4-1.121-2.51-2.311-.035217-1.178568.382399-2.325849,1.167-3.206.420267-.346461.871117-.654057,1.347-.919c2.906-2.005,4.86-6.312,5.314-10.827.21009-1.956685-.224992-3.928424-1.239-5.615.055-.209-.151-.015,0,0c.409236,1.158049.693517,2.356523.848,3.575-.003694,1.486485-.221601,2.96468-.647,4.389-.754,3.126-2.387,6.16-4.607,7.758-.500354.296563-.984695.619346-1.451.967-.955.846-2.052,3.219-1.318,4.772.4.853,1.666,1.354,2.577,1.806c1.028.512,1.953.984,2.945,1.411Z" transform="translate(-2027.04-67.185)" fill="#6d3409" fill-rule="evenodd"/><path id="okay-u-path-1312" d="M2568.4,198.138c-1.149415-1.672103-2.973116-2.757335-4.991-2.97-1.722329-.215178-3.425461.522999-4.446,1.927-.4.6-1.341.007-.942-.592c1.194285-1.679388,3.18-2.611745,5.235-2.458c2.483323.172274,4.745547,1.488887,6.122,3.563.422.584-.565,1.105-.978.53Z" transform="translate(-1983.14-71.705)" fill="#6d3409"/><path id="okay-u-path-1313" d="M2599.534,195.568c-.800707-1.413532-2.193148-2.393452-3.794-2.67-1.510044-.132211-2.9624.612039-3.737,1.915-.395.6-1.339.008-.942-.592.962194-1.567949,2.689121-2.501969,4.528-2.449c2.074167.223399,3.910283,1.441136,4.923,3.265.388.607-.595,1.131-.978.531Z" transform="translate(-2034.79-70.846)" fill="#6d3409"/><path id="okay-u-path-1372" d="M2567.567,179.881c-3.281-3.674-7.565-6.168-13.787-5.139-.155.025-2,.327-1.975.772.034.548,1.686.335,2.149.338c2.220514-.063384,4.440128.154343,6.606.648c2.360513.771926,4.602037,1.868792,6.66,3.259.09.055.224.204.347.122Z" transform="translate(-1977.41-64.313)" fill="#6d3409" fill-rule="evenodd"/><path id="okay-u-path-1373" d="M2589.557,175.667c1.671829-.692628,3.444764-1.110027,5.25-1.236c2.17-.127,4.355.338,6.293.315-.247-.5-1.059-.741-1.781-.993-1.114288-.465484-2.310398-.703482-3.518-.7-2.717.031-5.36,1.076-6.244,2.614Z" transform="translate(-2034.41-63.763)" fill="#6d3409" fill-rule="evenodd"/><path id="okay-u-path-1459" d="M2578.914,233.351c2.888376.247708,5.796811.113214,8.65-.4.027,0,.053.009.043.047-.76049.483282-1.49238,1.010163-2.192,1.578-.57354.633954-1.220028,1.197869-1.926,1.68-.999594.374244-2.050253.594424-3.116.653l-.213.017c-1.765.136-3.786-.075-5.331-.048c1.45.17,3.106.382,4.691.428.859405.03465,1.720199-.004158,2.573-.116-1.422654,1.046998-3.045705,1.789762-4.768,2.182-2.098822.419635-4.271923.266264-6.291-.444.106316-.88309.144762-1.773032.115-2.662.308,0,.763.254.993.043-.58058-.17076-1.121403-.455279-1.591-.837-.06-.938-.263-1.919-.337-2.8-.011-.13-.019-.259-.022-.384c2.431.912,5.627.844,8.722,1.063Z" transform="translate(-2008.88-86.185)" fill="#fff"/><path id="okay-u-path-1460" d="M2567.3,231.1c-.011-.13-.019-.259-.022-.384c2.433.9,5.628.835,8.723,1.054c2.888377.247696,5.79681.113202,8.65-.4.027,0,.053.009.043.047-.761302.484836-1.493864,1.013389-2.194,1.583-.57354.633954-1.220028,1.197869-1.926,1.68-.999594.374244-2.050253.594424-3.116.653l-.213.017c-1.765.136-3.786-.075-5.331-.048c1.45.17,3.106.382,4.691.428.859405.03465,1.720199-.004158,2.573-.116-1.422654,1.046998-3.045705,1.789762-4.768,2.182-2.098822.419635-4.271923.266264-6.291-.444.106316-.88309.144762-1.773032.115-2.662.308,0,.763.254.993.043-.58058-.17076-1.121403-.455279-1.591-.837-.059-.939-.262-1.921-.336-2.796Zm-3.646-1.263c.125.131.225-.032.319-.077c1.298948,1.562305,2.322559,3.334265,3.027,5.24.214.623.579,1.428.226,2.089-.425,0-.623-.209-.983-.268-.116.121.228.279.39.378c1.61448.90982,3.416615,1.436056,5.267,1.538c3.523.16,6.41-1.615,8.543-3.157c2.348-1.7,4.255-3.849,7.117-4.666.444.155.721.465,1.194.594-.027-.494-.546-.715-.91-.9-.447003-.219263-.933037-.347739-1.43-.378.247672.176271.51434.324196.795.441-4.322306.538444-8.689106.622904-13.029.252-.469-.042-.927-.019-1.4-.06-2.856029-.17879-5.675001-.741172-8.381-1.672-.018-.3.254-.663.272-1.073-.371.535-.92.882-1.017,1.718Z" transform="translate(-2005.97-84.603)" fill="#6d3409"/><path id="okay-u-path-1461" d="M2586.94,247.361c.753,1.8,4.93,1.347,6.869,1.065-2.498.094-5.209-.126-6.869-1.065Z" transform="translate(-2025.49-91.887)" fill="#6d3409"/><path id="okay-u-path-1799" d="M2534.673,128.463c2.726,2.808,11.088,7.247,13.74,8.1-1.434.391-3.582,1.978-3.8,3.3c1.667619-1.760003,3.963549-2.789164,6.387-2.863-3.823,1.545-5.815,4.817-5.966,9.516-.273908,3.356942,1.057634,6.645367,3.59,8.866-2.234-3.408-4.475-10.686.8-16.5-2.031644,4.400391-2.148949,9.445946-.324,13.936c1.410461,3.119435,2.033037,6.53759,1.813,9.954-.129854,2.633487-.55758,5.243792-1.275,7.781-.579,1.419-.546,1.666,4.752-2.347s5.989-1.284,9.187-3.807s9.353-11.513,7.226-19.374c3.314,2.814,5.585,4.9,6.662,8.418c2.2-5.836,2.252-16.5-10.321-23.466c5.635-.475,10.3,1.192,13.632,4.663-.742-3.715-5.9-6.67-13.749-7.414c5.854-.92,9.228-5.077,8.694-10.18-1.986,4.366-4.612,8.22-12.877,8.857c5.014-2.875,9.018-15.981-3.484-23.492c4.557,7.967,5.32,16.578-1.943,21.322-.562-11.448-20.447-37.709-48.776-26.642c7.5-1.072,11.45-1.464,17.892.6-8.082-.369-30.2.3-22.184,30.024-5.672-3.9-12.424-.562-14.628,4.206c5.673-2.935,8.668-1.69,12.377.316-5.171.08-7.926,1.55-9.514,5.027c2.958-2.694,4.872-3.535,9.334-2-3.888,1.024-10.71,6.548-4.274,20.7.253-5.325.615-8.922,3.425-12.113-.61,6.215.448,9.448,4.366,13.676.216-8.2.614-14.213.948-16.951.154809-1.81217.656941-3.577611,1.479-5.2c1.835447,5.238579,5.061267,9.879239,9.332,13.425-4.109-4.889-6.76-9.2-7.9-17.153c3.261,5.765,11.067,14.3,21.425,17.464-7.417-4.053-15.48-11-18.385-18.884c5.645,6.867,12.793,11.65,29.414,10.092-4.548-2.944-7.316-7.735-7.075-11.857Z" transform="translate(-1952.03-34)" fill="#ea8462"/><path id="okay-u-path-1800" d="M2512.761,166.947c-.453995-.530668-.865279-1.096434-1.23-1.692-.323433-.525758-.575002-1.092461-.748-1.685-.142306-.49375-.200453-1.007939-.172-1.521.023674-.384146.100748-.763122.229-1.126.218-.591.435-.865.464-.849-.061355.309225-.142522.614187-.243.913-.194549.815416-.152926,1.669369.12,2.462.451454,1.168528,1.127911,2.237065,1.991,3.145.941,1.075,2.093,2.165,3.288,3.334c1.148859,1.087908,2.223596,2.25151,3.217,3.483.824245,1.017202,1.479298,2.160506,1.94,3.386.303871.832359.449702,1.714127.43,2.6.021312.324896-.031343.650393-.154.952-.053931-.312706-.079037-.629703-.075-.947-.067493-.844731-.266561-1.673729-.59-2.457-.497514-1.158142-1.163366-2.236445-1.976-3.2-1.001335-1.193093-2.069727-2.32826-3.2-3.4-1.195-1.162-2.347-2.274-3.291-3.398Z" transform="translate(-1906.29-58.849)" fill="#fff"/><path id="okay-u-path-1801" d="M2524.961,171.147l-.06-.117c-.008.007-.047.187-.047.187-.044.2-.088.393-.124.589-.019.1-.036.2-.05.293-.027998.187602-.046356.376517-.055.566c0,.06-.006.122,0,.193s0,.127,0,.211l.015.242.022.272.094,1.187-.492-.96-.264-.51c-.087-.175-.173-.352-.259-.542-.043-.092-.084-.188-.124-.283l-.1-.233-.117-.3q-.113-.3-.212-.592c-.254908-.756072-.447878-1.531631-.577-2.319-.242675-1.333443-.216155-2.70196.078-4.025.201723-.891916.609625-1.724159,1.191-2.43.419-.486.723-.672.743-.648-.172978.271989-.361978.533451-.566.783-.482982.719335-.813445,1.530008-.971,2.382-.222732,1.274355-.205095,2.579131.052,3.847.140617.755608.338521,1.499421.592,2.225q.1.283.21.569l.115.284.023.055c0-.009,0,.028.014-.067s.034-.211.054-.315c.04-.208.086-.41.13-.608l.091-.413c.042-.2.077-.4.105-.623l.162-1.4.431,1.285c.036.1.07.213.107.3l.109.27.109.236.043.091.03.06c.158564.314015.334159.619136.526.914.369594.557874.767792,1.096259,1.193,1.613.809.994,1.566,1.875,2.1,2.691.444034.628884.771562,1.332376.967,2.077.091734.266783.112074.552924.059.83-.101985-.251409-.187172-.509309-.255-.772-.263228-.689093-.627553-1.335172-1.081-1.917-.561-.761-1.337-1.6-2.183-2.584-.452219-.520059-.874245-1.065621-1.264-1.634-.205984-.309088-.394286-.629602-.564-.96Z" transform="translate(-1921.95-59.553)" fill="#fff"/><path id="okay-u-path-1802" d="M2505.919,159.659c-.2-.119-.421-.239-.634-.359l-.73-.41l1.133.02h.266l.239-.01.228-.017.211-.019.24-.022.064-.006c-.033504-.040608-.069934-.07871-.109-.114l-.208-.186c-.791796-.691079-1.683972-1.257878-2.646-1.681-1.037298-.480303-2.176621-.69869-3.318-.636-.756684.056588-1.488151.296863-2.131.7-.222443.171402-.456319.327431-.7.467-.023-.021.147-.28.584-.637.270062-.215157.565626-.39619.88-.539.422393-.190355.870546-.317388,1.33-.377c1.213063-.128336,2.438704.059058,3.558.544.667452.273028,1.304297.615584,1.9,1.022.318645.216266.625112.449955.918.7q.112.1.222.2l.109.1.2.19c.136.134.262.27.385.405l.373.405c-.311,0-.669-.015-.969,0-.074,0-.15.007-.224.014l-.159.014-.206.021c-.013,0,.045.04.045.04.195.125.385.254.571.383q.558.392,1.069.814c.65342.53753,1.267957,1.120655,1.839,1.745.974191,1.053095,1.798918,2.235171,2.451,3.513.440956.859877.764511,1.775046.962,2.721.099959.341817.130893.700109.091,1.054-.134762-.323035-.239537-.657778-.313-1-.276941-.897444-.648355-1.762959-1.108-2.582-.684576-1.21151-1.517681-2.332843-2.48-3.338-.565367-.594757-1.168986-1.151944-1.807-1.668-.332-.268-.679-.529-1.04-.78q-.271-.188-.553-.369l-.23-.144c-.1-.06-.204-.118-.303-.178Z" transform="translate(-1890.06-57.229)" fill="#fff"/><path id="okay-u-path-1803" d="M2519.033,150.5c.395198-.312083.84007-.555477,1.316-.72.297924-.102313.606055-.172053.919-.208.170639-.019588.342241-.029604.514-.03h.2c.017654.000937.035346.000937.053,0s-.014-.042-.014-.042l-.012-.031c-.006-.018-.022-.07-.022-.07-.045-.141-.086-.285-.125-.43-.078-.292-.149-.592-.225-.895s-.159-.611-.265-.912c-.027-.076-.055-.15-.084-.225l-.047-.111-.071-.157c-.039-.075-.074-.149-.117-.226l-.144-.241-.317-.506.108.033c.269.093.511.168.779.27.066.026.137.061.206.091l.1.047.052.025.031.017c.076.039.15.083.224.127.299661.185194.571678.411762.808.673.479714.545961.824928,1.196662,1.008,1.9.027.093.049.186.072.28l.031.144c.012-.01.156-.2.156-.2.193-.256.4-.5.606-.734.407624-.458603.87516-.860213,1.39-1.194.485413-.313731,1.029932-.524733,1.6-.62.264482-.041834.532785-.054243.8-.037h.049l.076.007c.053.006.105.008.158.017l.154.024.142.029.531.122.077.032-.5.191c-.083.031-.162.062-.229.092s-.142.06-.205.091l-.134.066-.105.054c-.069.037-.137.075-.2.113-.250038.145826-.489617.308887-.717.488-.367658.290544-.705943.616437-1.01.973-.253.3-.43.543-.55.712-.053698.092289-.118148.177886-.192.255.029554-.102958.074748-.200765.134-.29.148485-.265476.315569-.520112.5-.762.290444-.38309.620246-.734678.984-1.049.22751-.195602.468432-.375041.721-.537.067-.043.136-.085.207-.126l.191-.108c.039-.021.072-.039.1-.053-.021313-.012244-.045422-.018788-.07-.019h-.039-.084c-.24469-.004937-.489175.017197-.729.066-.513737.109433-.999896.322064-1.429.625-.467787.331038-.889482.722804-1.254,1.165q-.288.34-.552.718l-.131.19-.123.186-.132.205c-.177.286-.362.571-.536.841l-.021.035-.06-.6-.032-.3c-.012-.1-.02-.2-.036-.288l-.043-.271-.026-.129c-.019-.086-.038-.172-.061-.257-.150064-.629829-.44371-1.216437-.858-1.714-.200803-.232717-.433033-.436339-.69-.605-.064-.04-.127-.081-.194-.117-.038.012-.012.072-.012.072l.048.122c.031.081.061.163.088.244.108.325.188.646.259.955s.135.608.2.894q.052.214.11.418l.014.051.026.085c.018.057.034.111.057.174l.122.359c0,.008-.481-.054-.481-.054l-.118-.014-.074-.007c-.042,0-.083-.007-.124-.009-.159549-.00868-.319451-.00868-.479,0-.295186.015819-.587843.063086-.873.141-.463499.129227-.902663.333607-1.3.605-.256197.174436-.49858.368342-.725.58-.074728.081526-.157855.154933-.248.219.052431-.099123.119897-.189528.2-.268.211031-.240905.444777-.460921.698-.657Z" transform="translate(-1918.69-53.406)" fill="#fff"/><path id="okay-u-path-1804" d="M2542.485,136.927c-1.20053.643777-2.213,1.588702-2.938,2.742-.640455,1.048023-.948314,2.265514-.883,3.492.070584,1.076447.360881,2.127032.853,3.087.391331.802684.937464,1.5201,1.607,2.111.502658.461214,1.037327.886276,1.6,1.272.93.638,1.487.934,1.465.975-.564017-.184893-1.099251-.448134-1.59-.782-.599247-.358859-1.167844-.766577-1.7-1.219-.334818-.28474-.647394-.594641-.935-.927-.158326-.184454-.305584-.378127-.441-.58-.14-.213-.26-.43-.383-.659-.546275-1.003477-.876359-2.110229-.969-3.249-.044553-.640811.005313-1.28469.148-1.911.153479-.664444.408474-1.301257.756-1.888.761921-1.24637,1.838713-2.270048,3.122-2.968c1.359935-.754282,2.866485-1.206554,4.417-1.326.532324-.042856,1.067049-.0472,1.6-.013.263.016.526.043.786.078l.118.017c.017,0-.027-.09-.027-.09l-.1-.217c-.131-.289-.242-.576-.358-.85-.108597-.26694-.234532-.526494-.377-.777-.035-.061-.071-.12-.109-.178l-.028-.043c-.012-.017-.014-.022-.037-.053l-.114-.155-.142-.174-.16-.177-.316-.349.084-.007.1-.007.192-.014.378-.024c.132,0,.266-.006.4,0l.148.008.109.009c.286538.026394.571335.06913.853.128.53934.113795,1.069212.268578,1.585.463.955354.360059,1.87035.819233,2.73,1.37c1.427999.898929,2.684039,2.045586,3.709,3.386.670832.879709,1.201447,1.857958,1.573,2.9.155454.365379.249389.753958.278,1.15-.036.01-.154-.387-.455-1.081-.431708-.987421-.995162-1.911823-1.675-2.748-1.679616-2.028733-3.868863-3.573942-6.343-4.477-.49278-.178402-.998183-.319794-1.512-.423-.261353-.051942-.525445-.089002-.791-.111l-.162-.011c.015911.046975.038474.091427.067.132.043.066.085.133.125.2.156533.270979.295163.551913.415.841.121.283.232.565.356.836l.095.2.06.119.111.2c.156.268.36.572.529.842l-.764-.151c-.127-.024-.26-.051-.367-.066l-.169-.027-.092-.012c-.245-.033-.494-.057-.744-.073-.5047-.03101-1.01096-.026331-1.515.014-1.463508.114602-2.88594.53898-4.173,1.245Z" transform="translate(-1960.87-48.246)" fill="#fff"/><path id="okay-u-path-1805" d="M2558.875,124.224c-.172186-2.80748.553114-5.59696,2.071-7.965.573053-.898921,1.236865-1.736644,1.981-2.5.558434-.572402,1.154424-1.106922,1.784-1.6.516493-.445983,1.085341-.827454,1.694-1.136.027.039-.564.459-1.547,1.313-.594355.518718-1.158606,1.07095-1.69,1.654-.70144.768709-1.326698,1.603615-1.867,2.493-.651608,1.073539-1.148504,2.233637-1.476,3.446-.369129,1.390321-.506638,2.831966-.407,4.267.115123,1.58791.468756,3.149425,1.049,4.632.624362,1.596586,1.441054,3.111093,2.432,4.51c1.934518,2.707963,4.330773,5.054121,7.079,6.931c2.236979,1.548613,4.672598,2.788455,7.241,3.686c1.734363.6041,3.524506,1.034217,5.344,1.284c1.291.173,2.015.2,2.014.25-.678096.074339-1.362666.066953-2.039-.022-1.853521-.16354-3.682341-.53796-5.451-1.116-2.630602-.855318-5.126997-2.078433-7.415-3.633-2.823424-1.890296-5.28166-4.275693-7.256-7.041-1.019144-1.438371-1.855241-2.998033-2.489-4.643-.594101-1.540245-.948878-3.162372-1.052-4.81Z" transform="translate(-1998.8-40.283)" fill="#fff"/><path id="okay-u-path-1806" d="M2596.372,122.433c-.074717-1.099006-.025743-2.202928.146-3.291.284378-1.836827.868484-3.614482,1.729-5.262.570685-1.112214,1.297734-2.136953,2.159-3.043.295352-.351858.651718-.647588,1.052-.873.03.034-.328.361-.882,1.026-.774432.942704-1.431572,1.975927-1.957,3.077-.78385,1.626774-1.311417,3.36498-1.564,5.153-.150249,1.049341-.18646,2.111864-.108,3.169.043069.555495.125611,1.107222.247,1.651.063.275.136.55.222.822l.068.206.02-.1.04-.213c.029-.141.059-.28.091-.419l.062-.26.1-.391.206-.781.4-1.552.2,1.612c.016.138.035.25.052.375s.036.241.057.354.038.229.06.339l.049.248c.092.441.2.87.321,1.285.233038.793785.5245,1.569237.872,2.32.579564,1.253421,1.313955,2.429254,2.186,3.5.578913.707368,1.214337,1.366536,1.9,1.971.266862.201811.514272.428129.739.676-.314766-.124209-.606477-.300317-.863-.521-.750532-.554403-1.440364-1.186581-2.058-1.886-.94022-1.061862-1.732101-2.246321-2.354-3.521-.375599-.76698-.690886-1.562052-.943-2.378-.132-.427-.249-.869-.349-1.324l-.018-.085c-.019.008-.053.155-.053.155q-.045.2-.085.4l-.038.2-.052.316c-.046044.310117-.074091.62264-.084.936l-.045,1.113-.5-1.026c-.11-.226-.223-.475-.328-.744-.054-.136-.1-.271-.148-.4l-.073-.222c-.091-.289-.168-.58-.232-.871-.123926-.573563-.205479-1.155467-.244-1.741Z" transform="translate(-2042.37-39.883)" fill="#fff"/><path id="okay-u-path-1807" d="M2561.545,124.44c-1.164283-1.04124-2.432245-1.960379-3.784-2.743-1.543612-.905781-3.193965-1.615906-4.913-2.114-.925013-.265212-1.872259-.445624-2.83-.539-.991659-.100388-1.992321-.066753-2.975.1-1.008399.17059-1.972986.539362-2.838,1.085-.438208.280205-.843141.609318-1.207.981-.378831.375954-.728194.78048-1.045,1.21-.779223,1.055761-1.315354,2.270764-1.57,3.558-.232259,1.249386-.262981,2.5279-.091,3.787.161371,1.212682.419529,2.410505.772,3.582.167.574.345,1.135.528,1.687l.281.83.526,1.5c-.229-.135-.461-.28-.684-.416s-.462-.3-.687-.455c-.249-.177-.488-.359-.72-.543-.465-.368-.9-.745-1.324-1.121s-.819-.752-1.2-1.122l-.249-.242-.068-.07-.152-.155c.002715.018919.006724.03763.012.056l.022.07.049.152.014.04.046.124.1.252.2.49c.267.641.547,1.235.833,1.777.48344.932756,1.058972,1.814813,1.718,2.633.419525.517109.885466.994765,1.392,1.427.188573.139164.367022.291548.534.456-.221775-.085767-.428133-.207014-.611-.359-.549597-.398834-1.052741-.858036-1.5-1.369-.704682-.806378-1.320249-1.686478-1.836-2.625-.305-.544-.6-1.141-.889-1.787q-.107-.242-.211-.494l-.1-.254-.135-.351c-.11-.293-.214-.589-.311-.88l-.149-.444-.076-.228-.039-.116c-.012381-.032664-.022734-.066061-.031-.1l1.758,1.674q.581.544,1.208,1.094c.42.365.856.731,1.314,1.086.229.176.464.351.706.519.028463.020418.058958.037844.091.052l-.044-.113-.283-.812c-.19-.554-.375-1.122-.548-1.7-.369432-1.198351-.64099-2.424711-.812-3.667-.185553-1.319581-.157189-2.660446.084-3.971.268438-1.371891.838149-2.66706,1.668-3.792.333041-.453512.700815-.880464,1.1-1.277.394355-.401832.833182-.757456,1.308-1.06.930861-.585649,1.969065-.97999,3.054-1.16c1.033651-.172441,2.08593-.203727,3.128-.093.991393.101522,1.971248.294681,2.927.577c1.757636.52335,3.441755,1.267629,5.012,2.215c1.369443.815646,2.649169,1.773262,3.818,2.857.968419.890965,1.832918,1.888645,2.577,2.974.565455.819499,1.020691,1.709798,1.354,2.648.211063.5921.345488,1.208775.4,1.835.034074.216935.031031.438084-.009.654-.051608-.210404-.087705-.424312-.108-.64-.103811-.605975-.27141-1.199274-.5-1.77-.36388-.901371-.837449-1.754466-1.41-2.54-.758589-1.044728-1.628721-2.003718-2.595-2.86Z" transform="translate(-1966.41-43.085)" fill="#fff"/><path id="okay-u-path-1808" d="M2613.571,165.358l.246.09c.08.028.156.047.233.07s.152.039.228.055c.771318.165149,1.575528.072396,2.289-.264.296708-.140424.579896-.307793.846-.5.191-.135.3-.211.323-.188s-.04.139-.2.324c-.233681.263809-.506536.49012-.809.671-.470413.284582-.999454.458307-1.547.508-.333531.030962-.669669.018525-1-.037-.086-.014-.175-.031-.261-.052-.003428.023856.003078.048074.018.067.256964.302336.540424.581111.847.833.567651.467475,1.21317.831362,1.907,1.075l.164.055.082.025.122.035.656.161-.257.392c-.04.064-.081.129-.114.189l-.067.119c-.065371.121842-.122823.24777-.172.377-.091762.238069-.14966.487838-.172.742-.026784.432194.015068.865902.124,1.285.085.362.172.65.22.85s.066.314.038.325-.1-.08-.2-.262c-.143805-.263768-.267813-.537855-.371-.82-.172409-.44663-.260892-.921248-.261-1.4.006115-.300126.056664-.597691.15-.883.049378-.152592.109185-.30161.179-.446l.027-.055c.025-.062-.007-.063-.007-.063l-.05-.013-.09-.024-.18-.055c-.246227-.079092-.48735-.17327-.722-.282-.49627-.229323-.961065-.521374-1.383-.869-.334236-.27496-.641311-.581365-.917-.915l-.027-.031-.044-.057-.088-.112c-.06-.073-.115-.152-.17-.229s-.107-.152-.156-.226-.1-.147-.141-.218l-.267-.426-.134-.215-.094-.159c.414.188.854.403,1.202.553Z" transform="translate(-2065.23-60.568)" fill="#fff"/><path id="okay-u-path-1809" d="M2597.408,149.623l.05-.152.035-.13c.050219-.192587.089284-.387912.117-.585.05115-.372415.074548-.748116.07-1.124-.007161-.626493-.071089-1.251048-.191-1.866-.119611-.546067-.267815-1.085477-.444-1.616.304636.48152.521965,1.012993.642,1.57.16934.621415.27851,1.257678.326,1.9.030516.393743.030516.789257,0,1.183-.017203.214882-.04692.428578-.089.64l-.01.062c.012673-.007161.023871-.016662.033-.028l.059-.055c.044-.042.087-.084.128-.128.08327-.088251.160764-.181778.232-.28.144-.2.277-.428.419-.664l.107-.178.179-.287c.149-.237.3-.454.454-.675l.025-.039.032.1.167.492.161.452q.084.223.172.441.178.436.369.853c.254.554.521,1.081.789,1.576.536.99,1.074,1.852,1.553,2.559.957,1.415,1.674,2.2,1.64,2.231-.692435-.622187-1.313884-1.319096-1.853-2.078-.612628-.801135-1.180173-1.63576-1.7-2.5-.295-.49-.589-1.013-.87-1.57-.141-.278-.278-.566-.409-.86q-.1-.222-.193-.449c-.006-.015-.048.05-.048.05l-.108.173c-.145.23-.286.467-.461.7-.086916.113967-.181113.222193-.282.324q-.075.076-.153.145l-.088.077c-.049.042-.1.082-.146.121-.2.155-.387.287-.567.408l-.539.363-.081.05-.137.088.469-.938c.054657-.115489.101756-.234406.141-.356Z" transform="translate(-2042.25-52.822)" fill="#fff"/><path id="okay-u-path-1810" d="M2611.978,160.015c-.293586.256091-.636689.449086-1.008.567-.131041.054698-.274064.074343-.415.057.120722-.06397.246074-.11879.375-.164.330329-.158103.628919-.375352.881-.641.375755-.397073.683239-.853568.91-1.351.137491-.293405.252164-.596971.343-.908.046-.162.088-.328.122-.5l.013-.064.006-.032c-.015273-.001924-.030727-.001924-.046,0-.028,0-.055,0-.083.007-.055,0-.109,0-.163,0-.381596-.01975-.75825-.095216-1.118-.224-.086-.029-.169-.059-.252-.09l-.1-.039-.114-.045-.219-.093c-.281-.124-.521-.24-.765-.352l-.155-.08c.38-.053.769-.1,1.04-.145.07-.013.133-.029.2-.044l.158-.042c.059-.017.116-.035.173-.055.213113-.073939.415015-.176908.6-.306.305055-.226018.560064-.512689.749-.842.17-.278.285-.515.372-.674s.137-.242.152-.236-.01.1-.067.273c-.081285.248233-.17746.49134-.288.728-.170132.378947-.420577.716399-.734.989-.197186.163688-.416735.298381-.652.4-.062.027-.124.053-.187.076-.047.034-.036.036-.027.037.1.03.183.055.263.077.318012.096636.647715.149456.98.157.042,0,.083,0,.122-.006.02,0,.041,0,.059-.006.033669-.00442.067056-.010764.1-.019l.145-.047.166-.089.367-.2c-.006.039-.009.071-.009.071l-.008.062c-.023.179-.039.351-.07.532-.016.091-.036.181-.056.27l-.043.167c-.049.183-.106.36-.169.531-.121139.325958-.268975.641362-.442.943-.286915.511194-.661251.968113-1.106,1.35Z" transform="translate(-2060-56.446)" fill="#fff"/><path id="okay-u-path-1811" d="M2531.487,185.492c.235.518.515,1.135.8,1.834.319258.75882.593402,1.535841.821,2.327.148683.524171.256342,1.05912.322,1.6.016.131.026.26.035.388l.009.191v.082l-.017.1-.014.068c.018176-.012283.033519-.028307.045-.047.01-.014.02-.03.032-.05l.018-.032c.01-.019.037-.078.037-.078.147-.321.252-.613.335-.855.068206-.261858.15681-.517974.265-.766.005016.273364-.02865.546064-.1.81-.061222.308344-.140356.61286-.237.912l-.021.067c-.009898.038542-.022598.076309-.038.113l-.089.236-.1.242c-.036.086-.073.149-.111.226-.155.3-.313.585-.508.931l-.063.1-.057.094-.071.12.194-1.155c.007-.042.017-.1.021-.131l.013-.107.025-.216c0-.12.018-.254.015-.368v-.179c0-.058,0-.1,0-.1l-.009-.18c-.008-.121-.019-.244-.033-.367-.064657-.520579-.164891-1.036119-.3-1.543-.213-.829-.48-1.607-.735-2.311s-.5-1.336-.7-1.868c-.248456-.564938-.441364-1.152706-.576-1.755.294661.540574.559068,1.097098.792,1.667Z" transform="translate(-1930.91-67.84)" fill="#fff"/><path id="okay-u-path-1914" d="M2527.357,205.11c-.375,4.609-7.895,9.929-11.546,9.632s-4.365-3.986-2.831-8.348c1.574-4.473,4.3-8.186,7.94-8.6c5.288-.613,6.812,2.706,6.437,7.316Z" transform="translate(-1912.66-73.097)" fill="#ffb888"/><path id="okay-u-path-1915" d="M2527.42,206.386c-.188,2.313-3.114,5.527-5.768,6.295-2.049.592-.321-3.1-3.173-2.764-2.595.3-3.085.891-1.978-2.379c1.136-3.354,3.751-6.291,6.348-6.615c3.776-.47,4.851,2.011,4.571,5.463Z" transform="translate(-1915.02-74.289)" opacity="0.3" fill="#432918"/></g></g>
<script><![CDATA[
!function(t,n){"object"==typeof exports&&"undefined"!=typeof module?module.exports=n():"function"==typeof define&&define.amd?define(n):((t="undefined"!=typeof globalThis?globalThis:t||self).__SVGATOR_PLAYER__=t.__SVGATOR_PLAYER__||{},t.__SVGATOR_PLAYER__["5c7f360c"]=n())}(this,(function(){"use strict";function t(t,n){var e=Object.keys(t);if(Object.getOwnPropertySymbols){var r=Object.getOwnPropertySymbols(t);n&&(r=r.filter((function(n){return Object.getOwnPropertyDescriptor(t,n).enumerable}))),e.push.apply(e,r)}return e}function n(n){for(var e=1;e<arguments.length;e++){var r=null!=arguments[e]?arguments[e]:{};e%2?t(Object(r),!0).forEach((function(t){o(n,t,r[t])})):Object.getOwnPropertyDescriptors?Object.defineProperties(n,Object.getOwnPropertyDescriptors(r)):t(Object(r)).forEach((function(t){Object.defineProperty(n,t,Object.getOwnPropertyDescriptor(r,t))}))}return n}function e(t){return(e="function"==typeof Symbol&&"symbol"==typeof Symbol.iterator?function(t){return typeof t}:function(t){return t&&"function"==typeof Symbol&&t.constructor===Symbol&&t!==Symbol.prototype?"symbol":typeof t})(t)}function r(t,n){if(!(t instanceof n))throw new TypeError("Cannot call a class as a function")}function i(t,n){for(var e=0;e<n.length;e++){var r=n[e];r.enumerable=r.enumerable||!1,r.configurable=!0,"value"in r&&(r.writable=!0),Object.defineProperty(t,r.key,r)}}function u(t,n,e){return n&&i(t.prototype,n),e&&i(t,e),t}function o(t,n,e){return n in t?Object.defineProperty(t,n,{value:e,enumerable:!0,configurable:!0,writable:!0}):t[n]=e,t}function a(t){return(a=Object.setPrototypeOf?Object.getPrototypeOf:function(t){return t.__proto__||Object.getPrototypeOf(t)})(t)}function l(t,n){return(l=Object.setPrototypeOf||function(t,n){return t.__proto__=n,t})(t,n)}function s(){if("undefined"==typeof Reflect||!Reflect.construct)return!1;if(Reflect.construct.sham)return!1;if("function"==typeof Proxy)return!0;try{return Boolean.prototype.valueOf.call(Reflect.construct(Boolean,[],(function(){}))),!0}catch(t){return!1}}function f(t,n,e){return(f=s()?Reflect.construct:function(t,n,e){var r=[null];r.push.apply(r,n);var i=new(Function.bind.apply(t,r));return e&&l(i,e.prototype),i}).apply(null,arguments)}function c(t,n){if(n&&("object"==typeof n||"function"==typeof n))return n;if(void 0!==n)throw new TypeError("Derived constructors may only return object or undefined");return function(t){if(void 0===t)throw new ReferenceError("this hasn't been initialised - super() hasn't been called");return t}(t)}function h(t,n,e){return(h="undefined"!=typeof Reflect&&Reflect.get?Reflect.get:function(t,n,e){var r=function(t,n){for(;!Object.prototype.hasOwnProperty.call(t,n)&&null!==(t=a(t)););return t}(t,n);if(r){var i=Object.getOwnPropertyDescriptor(r,n);return i.get?i.get.call(e):i.value}})(t,n,e||t)}function v(t){return function(t){if(Array.isArray(t))return y(t)}(t)||function(t){if("undefined"!=typeof Symbol&&null!=t[Symbol.iterator]||null!=t["@@iterator"])return Array.from(t)}(t)||function(t,n){if(!t)return;if("string"==typeof t)return y(t,n);var e=Object.prototype.toString.call(t).slice(8,-1);"Object"===e&&t.constructor&&(e=t.constructor.name);if("Map"===e||"Set"===e)return Array.from(t);if("Arguments"===e||/^(?:Ui|I)nt(?:8|16|32)(?:Clamped)?Array$/.test(e))return y(t,n)}(t)||function(){throw new TypeError("Invalid attempt to spread non-iterable instance.\nIn order to be iterable, non-array objects must have a [Symbol.iterator]() method.")}()}function y(t,n){(null==n||n>t.length)&&(n=t.length);for(var e=0,r=new Array(n);e<n;e++)r[e]=t[e];return r}Number.isInteger||(Number.isInteger=function(t){return"number"==typeof t&&isFinite(t)&&Math.floor(t)===t}),Number.EPSILON||(Number.EPSILON=2220446049250313e-31);var g=d(Math.pow(10,-6));function d(t){var n=arguments.length>1&&void 0!==arguments[1]?arguments[1]:6;if(Number.isInteger(t))return t;var e=Math.pow(10,n);return Math.round((+t+Number.EPSILON)*e)/e}function p(t,n){var e=arguments.length>2&&void 0!==arguments[2]?arguments[2]:g;return Math.abs(t-n)<e}var m=Math.PI/180;function b(t){return t}function w(t,n,e){var r=1-e;return 3*e*r*(t*r+n*e)+e*e*e}function x(){var t=arguments.length>0&&void 0!==arguments[0]?arguments[0]:0,n=arguments.length>1&&void 0!==arguments[1]?arguments[1]:0,e=arguments.length>2&&void 0!==arguments[2]?arguments[2]:1,r=arguments.length>3&&void 0!==arguments[3]?arguments[3]:1;return t<0||t>1||e<0||e>1?null:p(t,n)&&p(e,r)?b:function(i){if(i<=0)return t>0?i*n/t:0===n&&e>0?i*r/e:0;if(i>=1)return e<1?1+(i-1)*(r-1)/(e-1):1===e&&t<1?1+(i-1)*(n-1)/(t-1):1;for(var u,o=0,a=1;o<a;){var l=w(t,e,u=(o+a)/2);if(p(i,l))break;l<i?o=u:a=u}return w(n,r,u)}}function A(){return 1}function k(t){return 1===t?1:0}function _(){var t=arguments.length>0&&void 0!==arguments[0]?arguments[0]:1,n=arguments.length>1&&void 0!==arguments[1]?arguments[1]:0;if(1===t){if(0===n)return k;if(1===n)return A}var e=1/t;return function(t){return t>=1?1:(t+=n*e)-t%e}}var S=Math.sin,O=Math.cos,j=Math.acos,M=Math.asin,P=Math.tan,E=Math.atan2,I=Math.PI/180,R=180/Math.PI,F=Math.sqrt,N=function(){function t(){var n=arguments.length>0&&void 0!==arguments[0]?arguments[0]:1,e=arguments.length>1&&void 0!==arguments[1]?arguments[1]:0,i=arguments.length>2&&void 0!==arguments[2]?arguments[2]:0,u=arguments.length>3&&void 0!==arguments[3]?arguments[3]:1,o=arguments.length>4&&void 0!==arguments[4]?arguments[4]:0,a=arguments.length>5&&void 0!==arguments[5]?arguments[5]:0;r(this,t),this.m=[n,e,i,u,o,a],this.i=null,this.w=null,this.s=null}return u(t,[{key:"determinant",get:function(){var t=this.m;return t[0]*t[3]-t[1]*t[2]}},{key:"isIdentity",get:function(){if(null===this.i){var t=this.m;this.i=1===t[0]&&0===t[1]&&0===t[2]&&1===t[3]&&0===t[4]&&0===t[5]}return this.i}},{key:"point",value:function(t,n){var e=this.m;return{x:e[0]*t+e[2]*n+e[4],y:e[1]*t+e[3]*n+e[5]}}},{key:"translateSelf",value:function(){var t=arguments.length>0&&void 0!==arguments[0]?arguments[0]:0,n=arguments.length>1&&void 0!==arguments[1]?arguments[1]:0;if(!t&&!n)return this;var e=this.m;return e[4]+=e[0]*t+e[2]*n,e[5]+=e[1]*t+e[3]*n,this.w=this.s=this.i=null,this}},{key:"rotateSelf",value:function(){var t=arguments.length>0&&void 0!==arguments[0]?arguments[0]:0;if(t%=360){var n=S(t*=I),e=O(t),r=this.m,i=r[0],u=r[1];r[0]=i*e+r[2]*n,r[1]=u*e+r[3]*n,r[2]=r[2]*e-i*n,r[3]=r[3]*e-u*n,this.w=this.s=this.i=null}return this}},{key:"scaleSelf",value:function(){var t=arguments.length>0&&void 0!==arguments[0]?arguments[0]:1,n=arguments.length>1&&void 0!==arguments[1]?arguments[1]:1;if(1!==t||1!==n){var e=this.m;e[0]*=t,e[1]*=t,e[2]*=n,e[3]*=n,this.w=this.s=this.i=null}return this}},{key:"skewSelf",value:function(t,n){if(n%=360,(t%=360)||n){var e=this.m,r=e[0],i=e[1],u=e[2],o=e[3];t&&(t=P(t*I),e[2]+=r*t,e[3]+=i*t),n&&(n=P(n*I),e[0]+=u*n,e[1]+=o*n),this.w=this.s=this.i=null}return this}},{key:"resetSelf",value:function(){var t=arguments.length>0&&void 0!==arguments[0]?arguments[0]:1,n=arguments.length>1&&void 0!==arguments[1]?arguments[1]:0,e=arguments.length>2&&void 0!==arguments[2]?arguments[2]:0,r=arguments.length>3&&void 0!==arguments[3]?arguments[3]:1,i=arguments.length>4&&void 0!==arguments[4]?arguments[4]:0,u=arguments.length>5&&void 0!==arguments[5]?arguments[5]:0,o=this.m;return o[0]=t,o[1]=n,o[2]=e,o[3]=r,o[4]=i,o[5]=u,this.w=this.s=this.i=null,this}},{key:"recomposeSelf",value:function(){var t=arguments.length>0&&void 0!==arguments[0]?arguments[0]:null,n=arguments.length>1&&void 0!==arguments[1]?arguments[1]:null,e=arguments.length>2&&void 0!==arguments[2]?arguments[2]:null,r=arguments.length>3&&void 0!==arguments[3]?arguments[3]:null,i=arguments.length>4&&void 0!==arguments[4]?arguments[4]:null;return this.isIdentity||this.resetSelf(),t&&(t.x||t.y)&&this.translateSelf(t.x,t.y),n&&this.rotateSelf(n),e&&(e.x&&this.skewSelf(e.x,0),e.y&&this.skewSelf(0,e.y)),!r||1===r.x&&1===r.y||this.scaleSelf(r.x,r.y),i&&(i.x||i.y)&&this.translateSelf(i.x,i.y),this}},{key:"decompose",value:function(){var t=arguments.length>0&&void 0!==arguments[0]?arguments[0]:0,n=arguments.length>1&&void 0!==arguments[1]?arguments[1]:0,e=this.m,r=e[0]*e[0]+e[1]*e[1],i=[[e[0],e[1]],[e[2],e[3]]],u=F(r);if(0===u)return{origin:{x:d(e[4]),y:d(e[5])},translate:{x:d(t),y:d(n)},scale:{x:0,y:0},skew:{x:0,y:0},rotate:0};i[0][0]/=u,i[0][1]/=u;var o=e[0]*e[3]-e[1]*e[2]<0;o&&(u=-u);var a=i[0][0]*i[1][0]+i[0][1]*i[1][1];i[1][0]-=i[0][0]*a,i[1][1]-=i[0][1]*a;var l=F(i[1][0]*i[1][0]+i[1][1]*i[1][1]);if(0===l)return{origin:{x:d(e[4]),y:d(e[5])},translate:{x:d(t),y:d(n)},scale:{x:d(u),y:0},skew:{x:0,y:0},rotate:0};i[1][0]/=l,i[1][1]/=l,a/=l;var s=0;return i[1][1]<0?(s=j(i[1][1])*R,i[0][1]<0&&(s=360-s)):s=M(i[0][1])*R,o&&(s=-s),a=E(a,F(i[0][0]*i[0][0]+i[0][1]*i[0][1]))*R,o&&(a=-a),{origin:{x:d(e[4]),y:d(e[5])},translate:{x:d(t),y:d(n)},scale:{x:d(u),y:d(l)},skew:{x:d(a),y:0},rotate:d(s)}}},{key:"clone",value:function(){var t=this.m;return new this.constructor(t[0],t[1],t[2],t[3],t[4],t[5])}},{key:"toString",value:function(){var t=arguments.length>0&&void 0!==arguments[0]?arguments[0]:" ";if(null===this.s){var n=this.m.map((function(t){return d(t)}));1===n[0]&&0===n[1]&&0===n[2]&&1===n[3]?this.s="translate("+n[4]+t+n[5]+")":this.s="matrix("+n.join(t)+")"}return this.s}}],[{key:"create",value:function(t){return t?Array.isArray(t)?f(this,v(t)):t instanceof this?t.clone():(new this).recomposeSelf(t.origin,t.rotate,t.skew,t.scale,t.translate):new this}}]),t}();function T(t,n,e){return t>=.5?e:n}function q(t,n,e){return 0===t||n===e?n:t*(e-n)+n}function B(t,n,e){var r=q(t,n,e);return r<=0?0:r}function L(t,n,e){var r=q(t,n,e);return r<=0?0:r>=1?1:r}function C(t,n,e){return 0===t?n:1===t?e:{x:q(t,n.x,e.x),y:q(t,n.y,e.y)}}function D(t,n,e){var r=function(t,n,e){return Math.round(q(t,n,e))}(t,n,e);return r<=0?0:r>=255?255:r}function z(t,n,e){return 0===t?n:1===t?e:{r:D(t,n.r,e.r),g:D(t,n.g,e.g),b:D(t,n.b,e.b),a:q(t,null==n.a?1:n.a,null==e.a?1:e.a)}}function V(t,n){for(var e=[],r=0;r<t;r++)e.push(n);return e}function G(t,n){if(--n<=0)return t;var e=(t=Object.assign([],t)).length;do{for(var r=0;r<e;r++)t.push(t[r])}while(--n>0);return t}var Y,$=function(){function t(n){r(this,t),this.list=n,this.length=n.length}return u(t,[{key:"setAttribute",value:function(t,n){for(var e=this.list,r=0;r<this.length;r++)e[r].setAttribute(t,n)}},{key:"removeAttribute",value:function(t){for(var n=this.list,e=0;e<this.length;e++)n[e].removeAttribute(t)}},{key:"style",value:function(t,n){for(var e=this.list,r=0;r<this.length;r++)e[r].style[t]=n}}]),t}(),U=/-./g,Q=function(t,n){return n.toUpperCase()};function H(t){return"function"==typeof t?t:T}function J(t){return t?"function"==typeof t?t:Array.isArray(t)?function(t){var n=arguments.length>1&&void 0!==arguments[1]?arguments[1]:b;if(!Array.isArray(t))return n;switch(t.length){case 1:return _(t[0])||n;case 2:return _(t[0],t[1])||n;case 4:return x(t[0],t[1],t[2],t[3])||n}return n}(t,null):function(t,n){var e=arguments.length>2&&void 0!==arguments[2]?arguments[2]:b;switch(t){case"linear":return b;case"steps":return _(n.steps||1,n.jump||0)||e;case"bezier":case"cubic-bezier":return x(n.x1||0,n.y1||0,n.x2||0,n.y2||0)||e}return e}(t.type,t.value,null):null}function Z(t,n,e){var r=arguments.length>3&&void 0!==arguments[3]&&arguments[3],i=n.length-1;if(t<=n[0].t)return r?[0,0,n[0].v]:n[0].v;if(t>=n[i].t)return r?[i,1,n[i].v]:n[i].v;var u,o=n[0],a=null;for(u=1;u<=i;u++){if(!(t>n[u].t)){a=n[u];break}o=n[u]}return null==a?r?[i,1,n[i].v]:n[i].v:o.t===a.t?r?[u,1,a.v]:a.v:(t=(t-o.t)/(a.t-o.t),o.e&&(t=o.e(t)),r?[u,t,e(t,o.v,a.v)]:e(t,o.v,a.v))}function K(t,n){var e=arguments.length>2&&void 0!==arguments[2]?arguments[2]:null;return t&&t.length?"function"!=typeof n?null:("function"!=typeof e&&(e=null),function(r){var i=Z(r,t,n);return null!=i&&e&&(i=e(i)),i}):null}function W(t,n){return t.t-n.t}function X(t,n,r,i,u){var o,a="@"===r[0],l="#"===r[0],s=Y[r],f=T;switch(a?(o=r.substr(1),r=o.replace(U,Q)):l&&(r=r.substr(1)),e(s)){case"function":if(f=s(i,u,Z,J,r,a,n,t),l)return f;break;case"string":f=K(i,H(s));break;case"object":if((f=K(i,H(s.i),s.f))&&"function"==typeof s.u)return s.u(n,f,r,a,t)}return f?function(t,n,e){if(arguments.length>3&&void 0!==arguments[3]&&arguments[3])return t instanceof $?function(r){return t.style(n,e(r))}:function(r){return t.style[n]=e(r)};if(Array.isArray(n)){var r=n.length;return function(i){var u=e(i);if(null==u)for(var o=0;o<r;o++)t[o].removeAttribute(n);else for(var a=0;a<r;a++)t[a].setAttribute(n,u)}}return function(r){var i=e(r);null==i?t.removeAttribute(n):t.setAttribute(n,i)}}(n,r,f,a):null}function tt(t,n,r,i){if(!i||"object"!==e(i))return null;var u=null,o=null;return Array.isArray(i)?o=function(t){if(!t||!t.length)return null;for(var n=0;n<t.length;n++)t[n].e&&(t[n].e=J(t[n].e));return t.sort(W)}(i):(o=i.keys,u=i.data||null),o?X(t,n,r,o,u):null}function nt(t,n,e){if(!e)return null;var r=[];for(var i in e)if(e.hasOwnProperty(i)){var u=tt(t,n,i,e[i]);u&&r.push(u)}return r.length?r:null}function et(t,n){if(!n.settings.duration||n.settings.duration<0)return null;var e,r,i,u,o,a=function(t,n){if(!n)return null;var e=[];if(Array.isArray(n))for(var r=n.length,i=0;i<r;i++){var u=n[i];if(2===u.length){var o=null;if("string"==typeof u[0])o=t.getElementById(u[0]);else if(Array.isArray(u[0])){o=[];for(var a=0;a<u[0].length;a++)if("string"==typeof u[0][a]){var l=t.getElementById(u[0][a]);l&&o.push(l)}o=o.length?1===o.length?o[0]:new $(o):null}if(o){var s=nt(t,o,u[1]);s&&(e=e.concat(s))}}}else for(var f in n)if(n.hasOwnProperty(f)){var c=t.getElementById(f);if(c){var h=nt(t,c,n[f]);h&&(e=e.concat(h))}}return e.length?e:null}(t,n.elements);return a?(e=a,r=n.settings,i=r.duration,u=e.length,o=null,function(t,n){var a=r.iterations||1/0,l=(r.alternate&&a%2==0)^r.direction>0?i:0,s=t%i,f=1+(t-s)/i;n*=r.direction,r.alternate&&f%2==0&&(n=-n);var c=!1;if(f>a)s=l,c=!0,-1===r.fill&&(s=r.direction>0?0:i);else if(n<0&&(s=i-s),s===o)return!1;o=s;for(var h=0;h<u;h++)e[h](s);return c}):null}function rt(t,n){if(Y=n,!t||!t.root||!Array.isArray(t.animations))return null;var e=function(t){for(var n=document.getElementsByTagName("svg"),e=0;e<n.length;e++)if(n[e].id===t.root&&!n[e].svgatorAnimation)return n[e].svgatorAnimation=!0,n[e];return null}(t);if(!e)return null;var r=t.animations.map((function(t){return et(e,t)})).filter((function(t){return!!t}));return r.length?{svg:e,animations:r,animationSettings:t.animationSettings,options:t.options||void 0}:null}function it(t){return+("0x"+(t.replace(/[^0-9a-fA-F]+/g,"")||27))}function ut(t,n,e){return!t||!e||n>t.length?t:t.substring(0,n)+ut(t.substring(n+1),e,e)}function ot(t){var n=arguments.length>1&&void 0!==arguments[1]?arguments[1]:27;return!t||t%n?t%n:ot(t/n,n)}function at(t,n,e){if(t&&t.length){var r=it(e),i=it(n),u=ot(r)+5,o=ut(t,ot(r,5),u);return o=o.replace(/\x7c$/g,"==").replace(/\x2f$/g,"="),o=function(t,n,e){var r=+("0x"+t.substring(0,4));t=t.substring(4);for(var i=n%r+e%27,u=[],o=0;o<t.length;o+=2)if("|"!==t[o]){var a=+("0x"+t[o]+t[o+1])-i;u.push(a)}else{var l=+("0x"+t.substring(o+1,o+1+4))-i;o+=3,u.push(l)}return String.fromCharCode.apply(String,u)}(o=(o=atob(o)).replace(/[\x41-\x5A]/g,""),i,r),o=JSON.parse(o)}}var lt=[{key:"alternate",def:!1},{key:"fill",def:1},{key:"iterations",def:0},{key:"direction",def:1},{key:"speed",def:1},{key:"fps",def:100}],st=function(){function t(n,e){var i=this,u=arguments.length>2&&void 0!==arguments[2]?arguments[2]:null;r(this,t),this._id=0,this._running=!1,this._rollingBack=!1,this._animations=n,this._settings=e,(!u||u<"2022-05-02")&&delete this._settings.speed,lt.forEach((function(t){i._settings[t.key]=i._settings[t.key]||t.def})),this.duration=e.duration,this.offset=e.offset||0,this.rollbackStartOffset=0}return u(t,[{key:"alternate",get:function(){return this._settings.alternate}},{key:"fill",get:function(){return this._settings.fill}},{key:"iterations",get:function(){return this._settings.iterations}},{key:"direction",get:function(){return this._settings.direction}},{key:"speed",get:function(){return this._settings.speed}},{key:"fps",get:function(){return this._settings.fps}},{key:"maxFiniteDuration",get:function(){return this.iterations>0?this.iterations*this.duration:this.duration}},{key:"_apply",value:function(t){for(var n=arguments.length>1&&void 0!==arguments[1]?arguments[1]:{},e=this._animations,r=e.length,i=0,u=0;u<r;u++)n[u]?i++:(n[u]=e[u](t,1),n[u]&&i++);return i}},{key:"_rollback",value:function(t){var n=this,e=1/0,r=null;this.rollbackStartOffset=t,this._rollingBack=!0,this._running=!0;this._id=window.requestAnimationFrame((function i(u){if(n._rollingBack){null==r&&(r=u);var o=Math.round(t-(u-r)*n.speed);if(o>n.duration&&e!==1/0){var a=!!n.alternate&&o/n.duration%2>1,l=o%n.duration;o=(l+=a?n.duration:0)||n.duration}var s=(n.fps?1e3/n.fps:0)*n.speed,f=Math.max(0,o);f<=e-s&&(n.offset=f,e=f,n._apply(f));var c=n.iterations>0&&-1===n.fill&&o>=n.maxFiniteDuration;(o<=0||n.offset<o||c)&&n.stop(),n._id=window.requestAnimationFrame(i)}}))}},{key:"_start",value:function(){var t=this,n=arguments.length>0&&void 0!==arguments[0]?arguments[0]:0,e=-1/0,r=null,i={};this._running=!0;var u=function u(o){null==r&&(r=o);var a=Math.round((o-r)*t.speed+n),l=(t.fps?1e3/t.fps:0)*t.speed;if(a>=e+l&&!t._rollingBack&&(t.offset=a,e=a,t._apply(a,i)===t._animations.length))return void t.pause(!0);t._id=window.requestAnimationFrame(u)};this._id=window.requestAnimationFrame(u)}},{key:"_pause",value:function(){this._id&&window.cancelAnimationFrame(this._id),this._running=!1}},{key:"play",value:function(){if(!this._running)return this._rollingBack?this._rollback(this.offset):this._start(this.offset)}},{key:"stop",value:function(){this._pause(),this.offset=0,this.rollbackStartOffset=0,this._rollingBack=!1,this._apply(0)}},{key:"reachedToEnd",value:function(){return this.iterations>0&&this.offset>=this.iterations*this.duration}},{key:"restart",value:function(){var t=arguments.length>0&&void 0!==arguments[0]&&arguments[0];this.stop(t),this.play(t)}},{key:"pause",value:function(){this._pause()}},{key:"reverse",value:function(){this.direction=-this.direction}}],[{key:"build",value:function(t,n){delete t.animationSettings,t.options=at(t.options,t.root,"5c7f360c"),t.animations.map((function(n){n.settings=at(n.s,t.root,"5c7f360c"),delete n.s,t.animationSettings||(t.animationSettings=n.settings)}));var e=t.version;if(!(t=rt(t,n)))return null;var r=t.options||{},i=new this(t.animations,t.animationSettings,e);return{el:t.svg,options:r,player:i}}},{key:"push",value:function(t){return this.build(t)}},{key:"init",value:function(){var t=this,n=window.__SVGATOR_PLAYER__&&window.__SVGATOR_PLAYER__["5c7f360c"];Array.isArray(n)&&n.splice(0).forEach((function(n){return t.build(n)}))}}]),t}();function ft(t){return d(t)+""}function ct(t){var n=arguments.length>1&&void 0!==arguments[1]?arguments[1]:" ";return t&&t.length?t.map(ft).join(n):""}function ht(t){if(!t)return"transparent";if(null==t.a||t.a>=1){var n=function(t){return 1===(t=parseInt(t).toString(16)).length?"0"+t:t},e=function(t){return t.charAt(0)===t.charAt(1)},r=n(t.r),i=n(t.g),u=n(t.b);return e(r)&&e(i)&&e(u)&&(r=r.charAt(0),i=i.charAt(0),u=u.charAt(0)),"#"+r+i+u}return"rgba("+t.r+","+t.g+","+t.b+","+t.a+")"}function vt(t){return t?"url(#"+t+")":"none"}!function(){for(var t=0,n=["ms","moz","webkit","o"],e=0;e<n.length&&!window.requestAnimationFrame;++e)window.requestAnimationFrame=window[n[e]+"RequestAnimationFrame"],window.cancelAnimationFrame=window[n[e]+"CancelAnimationFrame"]||window[n[e]+"CancelRequestAnimationFrame"];window.requestAnimationFrame||(window.requestAnimationFrame=function(n){var e=Date.now(),r=Math.max(0,16-(e-t)),i=window.setTimeout((function(){n(e+r)}),r);return t=e+r,i},window.cancelAnimationFrame=window.clearTimeout)}();var yt={f:null,i:function(t,n,e){return 0===t?n:1===t?e:{x:B(t,n.x,e.x),y:B(t,n.y,e.y)}},u:function(t,n){return function(e){var r=n(e);t.setAttribute("rx",ft(r.x)),t.setAttribute("ry",ft(r.y))}}},gt={f:null,i:function(t,n,e){return 0===t?n:1===t?e:{width:B(t,n.width,e.width),height:B(t,n.height,e.height)}},u:function(t,n){return function(e){var r=n(e);t.setAttribute("width",ft(r.width)),t.setAttribute("height",ft(r.height))}}};Object.freeze({M:2,L:2,Z:0,H:1,V:1,C:6,Q:4,T:2,S:4,A:7});var dt={},pt=null;function mt(t){var n=function(){if(pt)return pt;if("object"!==("undefined"==typeof document?"undefined":e(document))||!document.createElementNS)return{};var t=document.createElementNS("http://www.w3.org/2000/svg","svg");return t&&t.style?(t.style.position="absolute",t.style.opacity="0.01",t.style.zIndex="-9999",t.style.left="-9999px",t.style.width="1px",t.style.height="1px",pt={svg:t}):{}}().svg;if(!n)return function(t){return null};var r=document.createElementNS(n.namespaceURI,"path");r.setAttributeNS(null,"d",t),r.setAttributeNS(null,"fill","none"),r.setAttributeNS(null,"stroke","none"),n.appendChild(r);var i=r.getTotalLength();return function(t){var n=r.getPointAtLength(i*t);return{x:n.x,y:n.y}}}function bt(t){return dt[t]?dt[t]:dt[t]=mt(t)}function wt(t,n,e,r){if(!t||!r)return!1;var i=["M",t.x,t.y];if(n&&e&&(i.push("C"),i.push(n.x),i.push(n.y),i.push(e.x),i.push(e.y)),n?!e:e){var u=n||e;i.push("Q"),i.push(u.x),i.push(u.y)}return n||e||i.push("L"),i.push(r.x),i.push(r.y),i.join(" ")}function xt(t,n,e,r){var i=arguments.length>4&&void 0!==arguments[4]?arguments[4]:1,u=wt(t,n,e,r),o=bt(u);try{return o(i)}catch(t){return null}}function At(t,n,e){return t+(n-t)*e}function kt(t,n,e){var r=arguments.length>3&&void 0!==arguments[3]&&arguments[3],i={x:At(t.x,n.x,e),y:At(t.y,n.y,e)};return r&&(i.a=_t(t,n)),i}function _t(t,n){return Math.atan2(n.y-t.y,n.x-t.x)}function St(t,n,e,r){var i=1-r;return i*i*t+2*i*r*n+r*r*e}function Ot(t,n,e,r){return 2*(1-r)*(n-t)+2*r*(e-n)}function jt(t,n,e,r){var i=arguments.length>4&&void 0!==arguments[4]&&arguments[4],u=xt(t,n,null,e,r);return u||(u={x:St(t.x,n.x,e.x,r),y:St(t.y,n.y,e.y,r)}),i&&(u.a=Mt(t,n,e,r)),u}function Mt(t,n,e,r){return Math.atan2(Ot(t.y,n.y,e.y,r),Ot(t.x,n.x,e.x,r))}function Pt(t,n,e,r,i){var u=i*i;return i*u*(r-t+3*(n-e))+3*u*(t+e-2*n)+3*i*(n-t)+t}function Et(t,n,e,r,i){var u=1-i;return 3*(u*u*(n-t)+2*u*i*(e-n)+i*i*(r-e))}function It(t,n,e,r,i){var u=arguments.length>5&&void 0!==arguments[5]&&arguments[5],o=xt(t,n,e,r,i);return o||(o={x:Pt(t.x,n.x,e.x,r.x,i),y:Pt(t.y,n.y,e.y,r.y,i)}),u&&(o.a=Rt(t,n,e,r,i)),o}function Rt(t,n,e,r,i){return Math.atan2(Et(t.y,n.y,e.y,r.y,i),Et(t.x,n.x,e.x,r.x,i))}function Ft(t,n,e){var r=arguments.length>3&&void 0!==arguments[3]&&arguments[3];if(Tt(n)){if(qt(e))return jt(n,e.start,e,t,r)}else if(Tt(e)){if(Bt(n))return jt(n,n.end,e,t,r)}else{if(Bt(n))return qt(e)?It(n,n.end,e.start,e,t,r):jt(n,n.end,e,t,r);if(qt(e))return jt(n,e.start,e,t,r)}return kt(n,e,t,r)}function Nt(t,n,e){var r=Ft(t,n,e,!0);return r.a=function(t){return arguments.length>1&&void 0!==arguments[1]&&arguments[1]?t+Math.PI:t}(r.a)/m,r}function Tt(t){return!t.type||"corner"===t.type}function qt(t){return null!=t.start&&!Tt(t)}function Bt(t){return null!=t.end&&!Tt(t)}var Lt=new N;var Ct={f:ft,i:q},Dt={f:ft,i:L};function zt(t,n,e){return t.map((function(t){return function(t,n,e){var r=t.v;if(!r||"g"!==r.t||r.s||!r.v||!r.r)return t;var i=e.getElementById(r.r),u=i&&i.querySelectorAll("stop")||[];return r.s=r.v.map((function(t,n){var e=u[n]&&u[n].getAttribute("offset");return{c:t,o:e=d(parseInt(e)/100)}})),delete r.v,t}(t,0,e)}))}var Vt={gt:"gradientTransform",c:{x:"cx",y:"cy"},rd:"r",f:{x:"x1",y:"y1"},to:{x:"x2",y:"y2"}};function Gt(t,n,r,i,u,o,a,l){return zt(t,0,l),n=function(t,n,e){for(var r,i,u,o=t.length-1,a={},l=0;l<=o;l++)(r=t[l]).e&&(r.e=n(r.e)),r.v&&"g"===(i=r.v).t&&i.r&&(u=e.getElementById(i.r))&&(a[i.r]={e:u,s:u.querySelectorAll("stop")});return a}(t,i,l),function(i){var u=r(i,t,Yt);if(!u)return"none";if("c"===u.t)return ht(u.v);if("g"===u.t){if(!n[u.r])return vt(u.r);var o=n[u.r];return function(t,n){for(var e=t.s,r=e.length;r<n.length;r++){var i=e[e.length-1].cloneNode();i.id=Qt(i.id),t.e.appendChild(i),e=t.s=t.e.querySelectorAll("stop")}for(var u=0,o=e.length,a=n.length-1;u<o;u++)e[u].setAttribute("stop-color",ht(n[Math.min(u,a)].c)),e[u].setAttribute("offset",n[Math.min(u,a)].o)}(o,u.s),Object.keys(Vt).forEach((function(t){if(void 0!==u[t])if("object"!==e(Vt[t])){var n,r="gt"===t?(n=u[t],Array.isArray(n)?"matrix("+n.join(" ")+")":""):u[t],i=Vt[t];o.e.setAttribute(i,r)}else Object.keys(Vt[t]).forEach((function(n){if(void 0!==u[t][n]){var e=u[t][n],r=Vt[t][n];o.e.setAttribute(r,e)}}))})),vt(u.r)}return"none"}}function Yt(t,e,r){if(0===t)return e;if(1===t)return r;if(e&&r){var i=e.t;if(i===r.t)switch(e.t){case"c":return{t:i,v:z(t,e.v,r.v)};case"g":if(e.r===r.r){var u={t:i,s:$t(t,e.s,r.s),r:e.r};return e.gt&&r.gt&&(u.gt=function(t,n,e){var r=n.length;if(r!==e.length)return T(t,n,e);for(var i=new Array(r),u=0;u<r;u++)i[u]=q(t,n[u],e[u]);return i}(t,e.gt,r.gt)),e.c?(u.c=C(t,e.c,r.c),u.rd=B(t,e.rd,r.rd)):e.f&&(u.f=C(t,e.f,r.f),u.to=C(t,e.to,r.to)),u}}if("c"===e.t&&"g"===r.t||"c"===r.t&&"g"===e.t){var o="c"===e.t?e:r,a="g"===e.t?n({},e):n({},r),l=a.s.map((function(t){return{c:o.v,o:t.o}}));return a.s="c"===e.t?$t(t,l,a.s):$t(t,a.s,l),a}}return T(t,e,r)}function $t(t,n,e){if(n.length===e.length)return n.map((function(n,r){return Ut(t,n,e[r])}));for(var r=Math.max(n.length,e.length),i=[],u=0;u<r;u++){var o=Ut(t,n[Math.min(u,n.length-1)],e[Math.min(u,e.length-1)]);i.push(o)}return i}function Ut(t,n,e){return{o:L(t,n.o,e.o||0),c:z(t,n.c,e.c||{})}}function Qt(t){return t.replace(/-fill-([0-9]+)$/,(function(t,n){return"-fill-"+(+n+1)}))}var Ht={fill:Gt,"fill-opacity":Dt,stroke:Gt,"stroke-opacity":Dt,"stroke-width":Ct,"stroke-dashoffset":{f:ft,i:q},"stroke-dasharray":{f:function(t){var n=arguments.length>1&&void 0!==arguments[1]?arguments[1]:" ";return t&&t.length>0&&(t=t.map((function(t){return d(t,4)}))),ct(t,n)},i:function(t,n,e){var r,i,u,o=n.length,a=e.length;if(o!==a)if(0===o)n=V(o=a,0);else if(0===a)a=o,e=V(o,0);else{var l=(u=(r=o)*(i=a)/function(t,n){for(var e;n;)e=n,n=t%n,t=e;return t||1}(r,i))<0?-u:u;n=G(n,Math.floor(l/o)),e=G(e,Math.floor(l/a)),o=a=l}for(var s=[],f=0;f<o;f++)s.push(d(B(t,n[f],e[f])));return s}},opacity:Dt,transform:function(t,n,r,i){if(!(t=function(t,n){if(!t||"object"!==e(t))return null;var r=!1;for(var i in t)t.hasOwnProperty(i)&&(t[i]&&t[i].length?(t[i].forEach((function(t){t.e&&(t.e=n(t.e))})),r=!0):delete t[i]);return r?t:null}(t,i)))return null;var u=function(e,i,u){var o=arguments.length>3&&void 0!==arguments[3]?arguments[3]:null;return t[e]?r(i,t[e],u):n&&n[e]?n[e]:o};return n&&n.a&&t.o?function(n){var e=r(n,t.o,Nt);return Lt.recomposeSelf(e,u("r",n,q,0)+e.a,u("k",n,C),u("s",n,C),u("t",n,C)).toString()}:function(t){return Lt.recomposeSelf(u("o",t,Ft,null),u("r",t,q,0),u("k",t,C),u("s",t,C),u("t",t,C)).toString()}},r:Ct,"#size":gt,"#radius":yt,_:function(t,n){if(Array.isArray(t))for(var e=0;e<t.length;e++)this[t[e]]=n;else this[t]=n}},Jt=function(t){!function(t,n){if("function"!=typeof n&&null!==n)throw new TypeError("Super expression must either be null or a function");t.prototype=Object.create(n&&n.prototype,{constructor:{value:t,writable:!0,configurable:!0}}),n&&l(t,n)}(o,t);var n,e,i=(n=o,e=s(),function(){var t,r=a(n);if(e){var i=a(this).constructor;t=Reflect.construct(r,arguments,i)}else t=r.apply(this,arguments);return c(this,t)});function o(){return r(this,o),i.apply(this,arguments)}return u(o,null,[{key:"build",value:function(t){var n=h(a(o),"build",this).call(this,t,Ht);if(!n)return null;n.el,n.options,function(t,n,e){t.play()}(n.player)}}]),o}(st);return Jt.init(),Jt}));
(function(s,i,o,w,a,b){w[o]=w[o]||{};w[o][s]=w[o][s]||[];w[o][s].push(i);})('5c7f360c',{"root":"okay","version":"2022-05-04","animations":[{"elements":{"okay-u-head":{"transform":{"data":{"o":{"x":584.660209,"y":149.196599,"type":"corner"},"t":{"x":-589.453741,"y":-150.364109}},"keys":{"r":[{"t":0,"v":0},{"t":1500,"v":-24.468333},{"t":3000,"v":-0.580795}]}}}},"s":"MQDA1ZDkxMzg3YThiODVg3NzhhN2Y4NTg0MzgI1MDQ5TjQ2NDY0NjQyFMzg3YTdmODg3Yjc5OBGFVN2Y4NTg0Mzg1MDRQ3NDIzODdmOGE3YjgY4Nzc4YTdmODU4NDg5AMzg1MDQ2NDIzODdjNJ2Y4MjgyMzg1MDQ3NDFIzODc3QzgyOGE3YjgJ4ODQ3NzhhN2IzODUwARjdjNzc4Mjg5N2I0MXjM4ODlFODY3YjdiN2CEzODUwNDc0MjM4N2MU4NlM4OTM4NTBTNDc0DNjQ2OTM/"}],"options":"MUDAxMDkxMzg4OThhNzUc4OE04YTM4NTAzODgXyODU3NzdhMzg5Mw|"},'__SVGATOR_PLAYER__',window)
]]></script>
</svg>
