<svg id="eEGd2R3mcYF1" xmlns="http://www.w3.org/2000/svg" xmlns:xlink="http://www.w3.org/1999/xlink" viewBox="0 0 322.238 451.067" shape-rendering="geometricPrecision" text-rendering="geometricPrecision"><defs><linearGradient id="eEGd2R3mcYF76-fill" x1="0.5" y1="1" x2="0.5" y2="0" spreadMethod="pad" gradientUnits="objectBoundingBox" gradientTransform="translate(0 0)"><stop id="eEGd2R3mcYF76-fill-0" offset="0%" stop-color="#1a1a1a"/><stop id="eEGd2R3mcYF76-fill-1" offset="16.8%" stop-color="#232323"/><stop id="eEGd2R3mcYF76-fill-2" offset="44.9%" stop-color="#3d3d3d"/><stop id="eEGd2R3mcYF76-fill-3" offset="80.5%" stop-color="#666"/><stop id="eEGd2R3mcYF76-fill-4" offset="100%" stop-color="#808080"/></linearGradient><linearGradient id="eEGd2R3mcYF78-fill" x1="0" y1="0.5" x2="1" y2="0.5" spreadMethod="pad" gradientUnits="objectBoundingBox" gradientTransform="translate(0 0)"><stop id="eEGd2R3mcYF78-fill-0" offset="0%" stop-color="#808080"/><stop id="eEGd2R3mcYF78-fill-1" offset="7.5%" stop-color="#8d8d8d"/><stop id="eEGd2R3mcYF78-fill-2" offset="21.9%" stop-color="#a2a2a2"/><stop id="eEGd2R3mcYF78-fill-3" offset="36.2%" stop-color="#aeaeae"/><stop id="eEGd2R3mcYF78-fill-4" offset="50%" stop-color="#b3b3b3"/><stop id="eEGd2R3mcYF78-fill-5" offset="63.8%" stop-color="#aeaeae"/><stop id="eEGd2R3mcYF78-fill-6" offset="78.1%" stop-color="#a2a2a2"/><stop id="eEGd2R3mcYF78-fill-7" offset="92.5%" stop-color="#8d8d8d"/><stop id="eEGd2R3mcYF78-fill-8" offset="100%" stop-color="#808080"/></linearGradient></defs><g><path d="M3121.341,728.8c0,5.081,71.466,9.2,159.622,9.2s159.621-4.119,159.621-9.2-71.465-9.2-159.621-9.2-159.622,4.118-159.622,9.2Z" transform="translate(-3118.35-286.931)" opacity="0.1"/><path d="M3423.915,693.574h8.04l70.132-136.456h-8.04Z" transform="translate(-3414.99-250.723)" fill="#474747"/><path d="M3431.954,557.118l70.132,136.456h-8.04l-70.131-136.456Z" transform="translate(-3414.99-250.723)" fill="#474747"/><rect width="201.441" height="4.913" rx="0" ry="0" transform="translate(46.561 374.065)" fill="#474747"/><path d="M3167.57,693.574h8.041l70.132-136.456h-8.043Z" transform="translate(-2959.43-250.723)" fill="#474747"/><path d="M3175.61,557.118l70.132,136.456h-8.042l-70.13-136.456Z" transform="translate(-2959.43-250.723)" fill="#474747"/><rect width="198.332" height="9.827" rx="0" ry="0" transform="translate(0 301.482)" fill="#c6c6c6"/><rect width="116.177" height="9.827" rx="0" ry="0" transform="translate(197.886 301.482)" fill="#9e9e9e"/><rect width="294.284" height="7.285" rx="0" ry="0" transform="translate(8.92 311.309)" fill="#474747"/></g><g><path d="M3329.793,506.134c3.374-6.156,6.862-14.829,10.258-24.641s6.739-20.836,9.932-31.956c6.364-22.253,12.243-44.946,16.349-60.072l14.218,4.5c-5.36,14.4-13.588,36.519-21.674,58.252-8.178,21.912-16.37,43.64-22.827,57.171-.642093,1.580935-1.782925,2.908922-3.249,3.782-.888743.521821-1.999031.482849-2.849-.1-1.461-1.112-1.931-3.691-.158-6.936Z" transform="translate(-3219.42-213.362)" fill="#ffb888"/><path d="M3319.929,424.763l8.285-28.314c4.176-14.366,8.521-29.126,8.989-30.612c2.019-6.51,7.124-10.821,11.255-9.482c4.062,1.316,6.731,6.42,4.259,14.389-.57,1.62-20.366,58-20.366,58Z" transform="translate(-3185.76-205.929)" fill="#e4b363"/><path d="M3357.995,450.326l3.323-10.391-16.1-5.123-3.308,10.341Z" transform="translate(-3210.5-223.468)" fill="#bf9247"/><path d="M3440.912,550.22c5.347.294,9.823-2.792,10.967-6.367s-3.422-7.524-10.548-6.964c-15.173,1.191-19.087,1.313-23.724,2.932-6.641,2.318-11.792,2.624-17.175,4.028-3.60473.926968-7.271055,1.595335-10.971,2-4.647.537-4.628,2.893-3.1,3.82s6.422.466,13.777-.3c8.711511-.930818,17.481732-1.189916,26.233-.775c7.092.422,11.803,1.475,14.541,1.626Z" transform="translate(-3335.06-246.203)" fill="#ffb888"/><path d="M3399.147,546.738c-1.418972,1.148087-2.986886,2.098725-4.661,2.826.341.017.684.033,1.024.053c7.1.419,11.806,1.473,14.545,1.623c2.285.126,8.731-10.2-1.482-9.786-5.443.223-5.699,2.797-9.426,5.284Z" transform="translate(-3304.21-247.229)" fill="#eda87a"/></g><g><path d="M3408.719,541.879c5.956-2.435,9.458-1.778,10.518,1.208c1.694,4.772-7.242,9.708-9.555,10.193-4.216.884-9.565,1.554-12.047,3.091s-8.749,5.526-10.382,3.081c-1.318-1.972.331-3.583,5.984-6.473c10.207-5.217,8.409-8.207,15.482-11.1Z" transform="translate(-3303.53-246.995)" fill="#ffb888"/><path d="M3388.051,495.8c-9.608,4.754-17.355,9.8-27.556,15.907-5.1,3.046-10.832,6.332-17.756,9.941-1.731.9-3.535,1.827-5.428,2.778l-2.912,1.45-3.73,1.788c-2.526,1.21-5.138,2.457-7.781,3.824-1.325.68-2.647,1.4-3.956,2.174-1.29.795-2.569,1.625-3.828,2.548-.528614.370531-1.035453.771195-1.518,1.2-2.041385,2.4695-3.586982,5.309771-4.552,8.365-1.015597,3.077814-1.744367,6.242959-2.177,9.455-.144.805-.2,1.63-.3,2.446-.083.82-.209,1.634-.259,2.462-.113,1.654-.281,3.307-.33,4.979-.079,1.655-.162,3.377-.187,4.995-.051,1.438-.077,2.86-.1,4.278-.189,11.337-.189,22.416-.474,33.2-.484,21.562-2,41.825-3.168,58.781-.551,7.875,7.994,8.417,13.873,9.324c5.182.81,13.9-.52,13.613-7.96-.86-20.576-2.98-41.321-5.2-62.157-1.074-10.412-2.2-20.878-2.72-31.239-.057-1.291-.125-2.59-.148-3.868l-.047-1.725c-.015-.543-.009-1.087-.014-1.633-.025-2.181.066-4.372.229-6.562.173834-2.192761.531423-4.367061,1.069-6.5.528161-2.143312,1.506885-4.149508,2.871-5.885.131443-.185316.291034-.348957.473-.485.868117-.600699,1.793242-1.114508,2.762-1.534.947-.434,1.893-.838,2.83-1.221c1.876-.762,3.711-1.46,5.493-2.113l11.631-4.155l21.639-7.5c12.947-4.524,23.046-8.373,31.022-12.651c2.777852-1.498952,5.075755-3.752137,6.629-6.5c1.872419-3.439223,1.775301-7.614555-.255-10.963-2.611-4.744-6.366-6.629-10.016-7.05-3.345558-.3138-6.712336.311627-9.722,1.806Z" transform="translate(-3227.55-236.634)" fill="#313638"/><path d="M3442.684,715.014c8.632.018,10.416,4.13,11.311,6.733.753,2.192.924,8.177.078,8.284s-41.613.6-43.73.607-1.909-3.8-1.559-5.033s11.879-2.694,16.247-4.706c2.116-.976,12.325-5.899,17.653-5.885Z" transform="translate(-3355.61-285.909)" fill="#454d50"/><path d="M3282.62,322.9c.283191-3.567588.359652-7.148576.229-10.725-.057-2.69-.1-4.771-.138-6.489-.052-1.719-.129-3.037-.058-4.131.019824-1.916029.813245-3.742702,2.2-5.065c2.489-2.686,11.068-4.17,12,6.285.612,9.57,1.473,18.691,2.836,24.3-2.760204-1.204228-5.579079-2.269233-8.446-3.191-2.781042-.894718-5.711882-1.229166-8.623-.984Z" transform="translate(-3102.79-192.206)" fill="#eaa475"/><path d="M3256.208,450.794c2.288-10.446,3.229-16.223,3.7-20.118.343758-2.900678.517055-5.819024.519-8.74.284-10.256-1.362-20.581-2.842-30.232-.325-2.426-.712-4.8-1-7.132s-.48-4.643-.665-6.882c-.16331-2.203122-.196701-4.413951-.1-6.621.038138-2.128846.246132-4.251252.622-6.347c2.249-13.11,7.629-14.555,14.9-17.826c3.464-1.576,5.773-2.236,7.543-2.965c1.775158-.632825,3.271604-1.869128,4.228-3.493.805648-1.337356,1.409489-2.786304,1.792-4.3.460211-1.679273.763512-3.397648.906-5.133c2.912774-.245833,5.845378.088622,8.628.984c2.866904.921814,5.685778,1.986819,8.446,3.191q.149.592.312,1.131c.656726,2.07695,1.908428,3.91556,3.6,5.288c1.747069,1.428789,3.668423,2.630055,5.718,3.575c4.213,2.093,8.974,3.887,12.068,7.046c1.254113,1.288755,2.221002,2.828552,2.837,4.518.829048,2.327016,1.202506,4.79184,1.1,7.26-.117,5.94-1.954,14.426-7.351,26.1-.5,1.1-1.018,2.2-1.556,3.3-.553,1.08-1.116,2.18-1.683,3.287-1.133,2.192-2.283,4.414-3.4,6.579-1.156,2.184-2.277,4.372-3.308,6.571q-.775,1.648-1.474,3.305-.725,1.651-1.357,3.311c-1.458,3.864-2.559,7.168-3.421,10.209-.793644,2.848448-1.3456,5.758765-1.65,8.7-.27765,3.003222-.315103,6.023817-.112,9.033.163,3.259.583,6.894,1.107,11.169.643,5.244,1.258,9.424,1.649,12.988.593171,4.326192.568592,8.714724-.073,13.034-1.933,12.277-11.625,17.355-21.254,17.945-9.968.61-19.325-4.7-25.846-11.156s-10.233-14.035-8.876-18.147c.745-2.258,1.532-4.555,2.538-7.165c1.587283-3.978638,2.843219-8.081587,3.755-12.267Z" transform="translate(-3105.98-200.312)" fill="#ffb888"/><path d="M3278.255,508.018c-1.357,4.113,2.387,11.749,8.958,18.267s15.962,11.888,25.929,11.279c9.627-.592,19.564-5.835,21.5-18.114.665-4.232.437-8.239-.192-13.593-7.25-2.2-13.593-1.265-20.188-.317s-13.447,1.922-21.727-.06c-4.988-1.2-8.533-2.666-11.454-4.8-1.037,2.699-2.061,5.02-2.826,7.338Z" transform="translate(-3134.53-238.145)" fill="#313638"/><path d="M3434.43,518.818c-4.588.513-8.777,1.349-13.077,2.146-4.292.892-8.689,1.774-13.649,2.753-2.485.435-5.111.885-7.936,1.334-2.833.393-5.86.805-9.156,1.139-6.6.684-14.215,1.066-23.519,1.253l-7.336.173-4.282.166c-1.428.075-2.851.236-4.284.343-1.443.068-2.842.378-4.266.588-1.415797.239053-2.814447.570427-4.187.992-2.797207.772921-5.329192,2.297438-7.321,4.408-2.032851,2.079776-3.867761,4.344204-5.481,6.764-.842,1.206-1.64,2.454-2.447,3.7l-2.3,3.685c-2.6,4.139-5.129,8.169-7.68,12.12-10.147,15.8-20.611,30.252-29.043,42.637-3.875,5.682,2.262,9.777,6.243,12.981c3.511,2.83,10.584,5.6,13.556,0c8.237-15.507,16.047-31.591,23.8-47.915c1.941-4.069,3.882-8.162,5.861-12.165l1.307-2.637c.406-.818.832-1.633,1.264-2.449.85392-1.652083,1.817753-3.244996,2.885-4.768c1.027987-1.574505,2.452395-2.850609,4.13-3.7c1.769523-.627934,3.604602-1.052988,5.47-1.267.928-.169,1.877-.18,2.82-.267l1.417-.1l1.422-.036l1.422-.03c.488-.009.911-.021,1.488-.012l3.409.035c8.912.184,17.143.689,24.561.985c3.709.2,7.242.276,10.586.438l9.527.245c12.037.245,21.445-.164,29.188-1.289c4.337-.749,11.483-4.206,10.164-12.338-.427381-3.730886-2.730015-6.985345-6.106-8.63-2.642571-1.205058-5.568918-1.649032-8.45-1.282Z" transform="translate(-3255.82-242.164)" fill="#313638"/><path d="M3509.578,632.263c1.427172.742091,2.740542,1.685023,3.9,2.8.834857.786295,1.50369,1.73191,1.967,2.781.622229,1.545787.829082,3.227501.6,4.878-.21,2.224-2.353,7.608-3.182,7.358-.1-.034-.787-.3-1.9-.779l-4.45-2.06c-4.392253-2.171395-8.66322-4.579948-12.794-7.215-4.207963-2.744444-8.236791-5.754207-12.062-9.011-1.571-1.439-2.951-2.628-3.915-3.6l-1.79-1.8c-1.548-1.571,1.365-3.923,2.456-4.466.27-.133,1.044.2,2.091.8s2.366,1.481,3.864,2.316l2.255,1.3c.782.4,1.566.79,2.318,1.146s1.468.688,2.156.935c.61465.222427,1.242526.406448,1.88.551l2.923.6c1.36.237,2.978.554,4.649.9c1.709.3,3.419.7,5,1.1c1.401471.315358,2.757052.807992,4.034,1.466Z" transform="translate(-3469.12-264.986)" fill="#454d50"/></g><g><path d="M3254.707,369.43c-.465449,4.158149-.54178,8.350664-.228,12.523.2,4.351.646,8.46.948,11.085.275,2.628,1.033,8.033,1.6,13.673.153,1.408.306,2.826.456,4.21.127,1.393.251,2.752.368,4.033.224,2.57.462,4.828.563,6.456.536,6.474-1.775,20.424-2.605,23.984-.308,1.428-1.052,4.089-1.987,6.917-.842515,2.679395-1.834401,5.309512-2.971,7.878-.472.99-1.664,3.495-1.905,4c1.133,1.73,4.183,4.831,13.74,7.214c10.966,2.739,21.834-.085,28.337-.747c7.508-.752,12.278.625,15.248,1.837c1.71.7,1.527-1.777.678-3.419l-.1-.2c-.662-1.415.362-1.1,1.378-3.019.532-1,.438-.748-.1-2.217-.559-1.473-1.492-4.648-2.856-12.522-1.315-7.848.318-17.041,2.512-24.836c1.056-3.908,2.268-7.459,3.34-10.279c1.026-2.833,1.924-4.93,2.393-5.9s1.241-2.563,2.2-4.546l3.206-6.991c1.2-2.583,2.341-5.385,3.476-8.136s2.206-5.463,3.042-7.914c.794223-2.249992,1.45077-4.546237,1.966-6.876.397294-1.95254.668521-3.928623.812-5.916.119876-1.604805.143919-3.215332.072-4.823-.073238-1.231558-.225888-2.457106-.457-3.669-.832-4.338-3.917-7.964-8.124-10.521-2.278-1.4-6.186-2.869-9.365-4.487-2.627-1.351-4.778-3.024-5.146-2.838-2.389145,3.531189-5.482556,6.530293-9.086,8.809-4.051,2.6-8.966,4.3-13.839,3.733-2.120758-.371614-3.826025-1.953175-4.356-4.04-.686583-2.405493.095278-4.990326,2-6.612-1.2.339-4.8,1.565-8.617,3.137s-7.881,3.489-10.031,5.327c-2.085948,1.862393-3.655622,4.231887-4.557,6.879-.492087,1.377827-.88083,2.790404-1.163,4.226-.343,1.485-.611,3.021-.842,4.587Z" transform="translate(-3105.26-203.09)" fill="#e4b363"/><path d="M3248.981,358.993c7.222-.57,12.495,3.012,15.858,6.923c2.023193,2.396121,3.653454,5.098034,4.83,8.005c4.147365-2.848529,8.582749-5.253082,13.233-7.174c4.572377-1.958292,9.342151-3.419028,14.227-4.357c5.733686-1.10987,11.620058-1.181337,17.379-.211c2.11011.309239,4.030768,1.389453,5.391,3.032-.061549-1.336229-.218954-2.666315-.471-3.98-.833-4.338-3.917-7.964-8.125-10.521-2.278-1.4-6.186-2.869-9.365-4.487-2.627-1.351-4.778-3.024-5.146-2.838-2.379249,3.488006-5.483242,6.42145-9.1,8.6-2.054726,1.276525-4.278404,2.258431-6.606,2.917-2.348293.666425-4.802319.877885-7.23.623-4.142-.507-6.691-6.3-2.346-10.251-1.2.339-4.8,1.565-8.617,3.137s-7.881,3.489-10.032,5.327c-.830571.715635-1.57402,1.526547-2.215,2.416-.648986.887982-1.206806,1.839123-1.665,2.839Z" transform="translate(-3096.86-203.09)" fill="#bf9247"/><path d="M3325.269,358.743c-.693,2.181-1.4,4.848-2.077,7.744-.691,2.9-1.456,6.035-2.077,9.153-1.255794,5.510358-2.194668,11.088175-2.812,16.706-.119,1.525-.225,3-.379,4.451s-.333,2.882-.5,4.323l-.523,4.358c-.2,1.48-.4,2.994-.616,4.567-.4,3.171-.84,6.575-1.334,10.438-.447,3.883-1.009,8.253-1.549,13.336-.359,3.148-.816,7.157-1.3,11.437-.532,4.284-1.056,8.837-1.641,13.083-.549,4.24-1.1,8.169-1.561,11.186s-.79,5.12-.955,5.719c-1.241024-.093298-2.472809-.283884-3.684-.57.66-2.8,2.114-11.682,3.437-21.087c1.277-9.4,2.421-19.319,2.792-24.278.121-1.44.279-2.983.464-4.6.164-1.613.346-3.3.551-5.018.417-3.428.856-7.026,1.283-10.533.462-3.5.813-6.876,1.163-9.9.37-3.025.6-5.679.778-7.712.339-3.468,1.23-9.27,2.463-15.371.561-3.043,1.257-6.168,1.983-9.105.603273-2.705553,1.366615-5.372911,2.286-7.988.714-1.948,1.8-2.659,2.7-2.572.859.09,1.514.982,1.108,2.233Z" transform="translate(-3145.31-206.017)" fill="#bf9247"/><path d="M3283.655,348.256c.728,1.484,1.506,3.141,6.377,2.148c4.872-.957,20.86-4.7,19.318-1.547-1.026266,1.963278-2.27443,3.802307-3.72,5.481-1.594027,1.874093-3.322971,3.629106-5.173,5.251-3.521,3.106-6.775,5.105-7.449,4.344-1.316-1.507-5.139-6.947-7.673-7.459-4.457-.9-7.786,6.082-8.921,5.21-.193-.145-.5-1.294-.133-3.525.712453-3.544576,1.973623-6.956278,3.738-10.112c1.896-3.625,3.412-.258,3.636.209Z" transform="translate(-3107.5-203.762)" fill="#bf9247"/><path d="M3300.577,357.688c-.03934,1.291595.375774,2.556046,1.173,3.573.518.529.753-.355,2.2.026c1.028.272,1.381,1.16,1.972,1.039c2.031756-.645341,3.698337-2.115576,4.592-4.051-.579557-1.465374-1.282062-2.879083-2.1-4.226-.522-.432-3.776-.884-4.58-.847-.923,1.198-1.88,2.498-3.257,4.486Z" transform="translate(-3127.57-205.281)" fill="#313638"/><path d="M3298.058,343.339c.254-.706-1.477-2.215-3.109-4.268s-3.144-4.666-3.833-4.476c.329,2.471-.193,5.322-4.725,8.961-5.692,4.492-10.23,4.169-12.044,4.69-.565.156.209,1.649.884,2.861l2.53,4.554c.779,1.376,1.527,2.7,2.327,4.113.322.584,7.631-4.009,11.087-7.3c4.417-4.268,6.533-8.107,6.883-9.135Z" transform="translate(-3094.6-201.132)" fill="#e4b363"/><path d="M3313.771,347.875c-.635056-.476107-.984634-1.242314-.928-2.034.141607-1.395686.439816-2.771006.889-4.1.267-.912.742-2.052,1.147-3.242.187-.547.417-1.379.57-2.028-1.106363,1.091159-2.06669,2.321063-2.857,3.659-1.294,2.042-2.265,3.005-2.776,3.905-1.847093,3.107265-3.169479,6.497693-3.914,10.035-.61,2.708-.539,4.46-.107,4.245c1.014-.494,4.678-5.482,6.1-7.248c1.334-1.593,2.589-2.601,1.876-3.192Z" transform="translate(-3136.3-201.552)" fill="#e4b363"/><path d="M3329.4,363.2c-2.20623,9.537141-3.849403,19.195831-4.921,28.926-1.284,10.893-2.136,22.5-2.843,33.24s-1.323,20.617-2,28.035c-.655,7.416-1.319,12.358-1.394,13.16-1.151,1.686-4,4.98-6.893,5.659-1.583-1.331-4.086-3.064-5.145-7.283.056-.434.408-2.3.988-5.239.262-1.484.571-3.24.922-5.224s.684-4.222,1.081-6.629c1.52-9.659,3.153-22.426,5.012-35.171s4.078-25.439,6.255-34.954c2.155-9.523,4.13-15.878,4.559-16.281c1.806-1.6,4.599.81,4.379,1.761Z" transform="translate(-3150.84-206.997)" fill="#313638"/><path d="M3318.677,447.843c-.4,2.843-.784,5.621-1.157,8.295c1.359,5.069,3.085,9.439,3.807,8.409c2.03-2.988,4.142-.174,5.171,6.252.287-3.2.533-6.783.817-10.649-4.332-8.277-4.3-2.566-5.845-5.453-.655-1.221-1.746-4.24-2.793-6.854Z" transform="translate(-3157.54-226.371)" fill="#a8a8a8"/><path d="M3316.612,434.259l-.5,3.556c1.553,4.434,3.227,4.434,4.285,4.015.914-.363,2.619,3.857,3.916,7.279.182-2.795.371-5.682.564-8.633-3.308-5.307-3.058-1.054-5.256-.937-1.56.082-2.412-2.029-3.009-5.28Z" transform="translate(-3154-223.344)" fill="#a8a8a8"/></g><g><path d="M3306.289,275.535c-5.045,16.046-29.968,31.374-43.632,28.548-6.257-1.294-17.257-15.946-16.233-29.714.413-5.551,1.535-14.132,2.063-21.99c1.313-19.513-2.157-34.134,15.955-43.7c21.031-11.1,46.063.023,51.247,14.72c8.554,24.256-2.411,29.91-9.4,52.136Z" transform="translate(-3093.73-172.071)" fill="#ffb888"/><path d="M3259.858,311.642c-3.692684-4.302242-6.703994-9.145161-8.929-14.36c2.177,10.413,10.421,20.362,15.376,21.386c13.666,2.827,38.86-12.347,43.907-28.393c2.862-9.1,6.2-15.838,8.781-21.8-3.885.172-8.046,2.891-9.347,8.235-2.028,8.337-3.97,17.282-7.932,22.135-5.154342,6.09259-11.592435,10.969737-18.853,14.282-7.97,3.54-17.116,5.534-23.003-1.485Z" transform="translate(-3097.47-186.4)" fill="#ea8462"/><path d="M3305.6,282.123c1.004641.371828,2.034179.672569,3.081.9.806.25,2.343.692,2.5,1.456.08594,1.173051-.78627,2.197609-1.958,2.3-1.118802-.128271-2.218265-.389792-3.275-.779-1.166-.305-2.28-.591-3.212-.778c1.593.577,3.8,1.969,5.83,2.491c2.144.551,4.56-2.274,3.207-4.1-1.038-1.408-4.05-1.395-6.173-1.49Z" transform="translate(-3130.9-189.441)" fill="#6d3409" fill-rule="evenodd"/><path d="M3319.66,281.571c-.939461-.843106-1.960876-1.590156-3.049-2.23-1.119-.708-3.017-1.38-3.159-2.868-.054437-1.473183.457259-2.911297,1.43-4.019.522166-.437497,1.083158-.826443,1.676-1.162c3.616-2.533,6.022-7.935,6.55-13.585.293-3.137-.5-4.776-1.6-7.009.067-.262-.189-.018,0,0c.521787,1.444288.888189,2.940066,1.093,4.462.007293,1.858539-.252701,3.70847-.772,5.493-.915,3.916-2.93,7.723-5.693,9.741-.620889.375682-1.221709.783572-1.8,1.222-1.187,1.067-2.538,4.043-1.607,5.978.51,1.062,2.1,1.679,3.239,2.236c1.295.633,2.449,1.216,3.692,1.741Z" transform="translate(-3149.43-182.412)" fill="#6d3409" fill-rule="evenodd"/><path d="M3287.789,263.891c-.068,2.7.981,4.915,2.344,4.949s2.521-2.126,2.589-4.825-.981-4.914-2.344-4.948-2.522,2.126-2.589,4.824Z" transform="translate(-3099.84-184.303)" fill="#6d3409"/><path d="M3321.053,261.82c-.068,2.7.982,4.914,2.344,4.948s2.522-2.126,2.589-4.825-.981-4.914-2.345-4.948-2.52,2.127-2.588,4.825Z" transform="translate(-3158.96-183.842)" fill="#6d3409"/><path d="M3297.261,249.474c-4.134-4.566-9.512-7.646-17.284-6.3-.195.034-2.5.427-2.463.983.048.685,2.111.4,2.69.4c2.775678-.098492,5.552677.154177,8.265.752c2.958493.944472,5.771141,2.296104,8.357,4.016.113.068.283.253.435.149Z" transform="translate(-3096.39-180.69)" fill="#6d3409" fill-rule="evenodd"/><path d="M3315.317,244.922c2.083652-.881147,4.296336-1.418783,6.552-1.592c2.712-.179,5.448.385,7.871.339-.313-.622-1.332-.919-2.235-1.226-1.397936-.571186-2.895961-.857123-4.406-.841-3.399.059-6.692,1.389-7.782,3.32Z" transform="translate(-3158.25-180.411)" fill="#6d3409" fill-rule="evenodd"/><path d="M3329.963,297.121c.709-.08,1.375-.707,2.343-.706-.845761-.40975-1.864418-.102806-2.343.706Z" transform="translate(-3172.2-192.585)" fill="#6d3409" fill-rule="evenodd"/><path d="M3286.517,297.658c-.083.022,0,.05,0,.113c5.26293,2.61111,11.041738,4.016184,16.916,4.113c6.030367.174959,12.053553-.540747,17.875-2.124-.52-.466-1.478-.261-2.2-.192-2.089.2-4.147.713-6.252,1.018-8.885311,1.284926-17.951594.27737-26.338-2.927Z" transform="translate(-3127.4-192.903)" fill="#6d3409" fill-rule="evenodd"/><path d="M3281.733,298.378c1.817.508,4.48,1.282,5.725,2.636-.705-1.78-2.987-2.565-5.725-2.636Z" transform="translate(-3089.87-193.064)" fill="#6d3409" fill-rule="evenodd"/><path d="M3271.778,205.326c3.434,3.487,13.929,8.964,17.252,10-1.791.5-4.462,2.506-4.72,4.155c2.069241-2.211664,4.928402-3.516347,7.955-3.63-4.767,1.966-7.229,6.075-7.377,11.952s2.415,9.222,4.566,11.053c-2.822-4.241-5.688-13.321.854-20.644-2.50169,5.519935-2.60415,11.829751-.283,17.428c1.791081,3.887578,2.599448,8.155712,2.354,12.429-.242,3.521-.814,7.962-1.526,9.741s-.667,2.089,5.921-2.977s7.477-1.658,11.454-4.841s11.593-14.478,8.865-24.289c4.168,3.489,7.026,6.073,8.4,10.467c2.7-7.317,2.671-20.65-13.112-29.25c7.042-.644,12.888,1.4,17.086,5.71-.96-4.64-7.433-8.288-17.256-9.15c7.312-1.2,11.494-6.429,10.782-12.806-2.445,5.477-5.694,10.318-16.023,11.188c6.244-3.639,11.135-20.061-4.563-29.344c5.768,9.922,6.8,20.682-2.241,26.677-.8-14.31-25.9-46.971-61.224-32.883c9.369-1.407,14.3-1.932,22.378.595-10.109-.39-37.758.645-27.475,37.736-7.126-4.828-15.54-.595-18.253,5.389c7.067-3.72,10.824-2.19,15.479.285-6.464.145-9.9,2.008-11.851,6.37c3.674-3.4,6.061-4.463,11.654-2.58-4.854,1.315-13.335,8.281-5.162,25.92.269-6.659.689-11.161,4.175-15.176-.708,7.777.643,11.81,5.58,17.062.2-10.251.643-17.777,1.036-21.2.176513-2.268304.787611-4.481495,1.8-6.519c2.341249,6.532625,6.415353,12.305368,11.786,16.7-5.181-6.078-8.533-11.444-10.028-21.378c4.128,7.179,13.964,17.784,26.943,21.648-9.311-5-19.452-13.616-23.155-23.451c7.119,8.537,16.1,14.454,36.868,12.36-5.697-3.624-9.205-9.592-8.939-14.747Z" transform="translate(-3080.48-162.865)" fill="#ea8462"/><path d="M3239,236.708c-.572704-.659699-1.09201-1.363921-1.553-2.106-.408401-.654769-.72787-1.360965-.95-2.1-.18178-.616114-.258851-1.258371-.228-1.9.026171-.480612.119406-.955206.277-1.41.267-.741.535-1.085.572-1.065-.075089.387107-.175301.768914-.3,1.143-.235739,1.021281-.175732,2.08858.173,3.077.574112,1.457449,1.429352,2.787709,2.517,3.915c1.187,1.336,2.636,2.688,4.14,4.141c1.445942,1.34971,2.799651,2.794959,4.052,4.326c1.039991,1.2649,1.869294,2.689167,2.456,4.218.386727,1.038155.576634,2.139279.56,3.247.029181.405792-.033719.812933-.184,1.191-.070175-.390349-.103654-.78641-.1-1.183-.09279-1.055553-.349188-2.090252-.76-3.067-.633401-1.442217-1.475775-2.783275-2.5-3.98-1.264034-1.482228-2.611202-2.891496-4.035-4.221-1.499-1.449-2.949-2.829-4.137-4.226Z" transform="translate(-3017.79-177.408)" fill="#fff"/><path d="M3251.291,241.529l-.076-.145c-.01.009-.057.234-.057.234-.053.248-.106.493-.151.738-.022.122-.043.244-.059.367-.034096.234337-.055461.47035-.064.707c0,.075-.006.154,0,.241s0,.159.007.263l.021.3.03.34.129,1.484-.624-1.2-.329-.632c-.11-.218-.22-.439-.328-.675-.054-.115-.106-.234-.159-.354l-.124-.291-.149-.369c-.1-.246-.185-.493-.27-.738-.325194-.943426-.573669-1.911572-.743-2.895-.314731-1.665389-.293652-3.376867.062-5.034.244638-1.116492.747018-2.160291,1.467-3.048.52-.612.9-.848.924-.818-.213059.342281-.446827.671227-.7.985-.597963.903494-1.004017,1.92016-1.193,2.987-.266754,1.595217-.232838,3.226251.1,4.809.183031.943814.437087,1.872455.76,2.778q.127.353.267.709l.147.354.029.069c.006-.011,0,.035.016-.084s.041-.265.065-.395c.048-.26.1-.513.157-.761l.11-.517c.05-.247.093-.5.127-.78l.19-1.757.55,1.6c.046.125.089.266.136.375l.139.336.138.295.054.113.037.075c.201357.391366.42368.771586.666,1.139.466956.694593.969631,1.364493,1.506,2.007c1.02,1.236,1.975,2.331,2.652,3.346.561322.782351.977283,1.659325,1.228,2.589.11781.332164.145753.689562.081,1.036-.130382-.312893-.239301-.634304-.326-.962-.334873-.859522-.795934-1.664357-1.368-2.388-.707-.947-1.686-1.987-2.753-3.212-.569246-.646716-1.101431-1.325135-1.594-2.032-.265116-.382143-.508179-.779124-.728-1.189Z" transform="translate(-3034.38-177.828)" fill="#fff"/><path d="M3233.712,228.569c-.248-.147-.528-.3-.795-.445l-.917-.505l1.417.015h.332l.3-.015.284-.023.263-.026.3-.03.079-.008c-.041859-.050232-.087312-.097356-.136-.141l-.261-.232c-.996338-.85705-2.117133-1.557716-3.324-2.078-1.30105-.591639-2.727499-.854677-4.154-.766-.946628.079386-1.859643.388301-2.66.9-.278237.217151-.571281.41463-.877.591-.029-.026.181-.352.725-.8.335493-.2716.703284-.500671,1.095-.682.526691-.241432,1.085997-.40417,1.66-.483c1.51579-.171273,3.050113.052296,4.454.649c1.286498.517151,2.482464,1.235812,3.543,2.129.094.078.188.159.28.242l.138.125.246.235c.17.167.33.337.484.5l.469.5c-.387,0-.836-.013-1.21,0-.094.006-.189.01-.28.019l-.2.019-.257.027c-.017,0,.057.05.057.05q.365.232.717.475.7.486,1.344,1.008c.821169.666846,1.594411,1.390632,2.314,2.166c1.228937,1.307907,2.272054,2.778702,3.1,4.371.558705,1.071474.971375,2.212957,1.227,3.394.127467.42659.16927.874184.123,1.317-.171115-.401899-.305009-.818644-.4-1.245-.35392-1.12003-.826256-2.19913-1.409-3.219-.865875-1.509263-1.917394-2.904122-3.13-4.152-.711705-.739204-1.471351-1.430703-2.274-2.07q-.625-.5-1.306-.967c-.228-.155-.459-.308-.695-.456l-.29-.178c-.119-.065-.251-.137-.376-.211Z" transform="translate(-3000.82-176.438)" fill="#fff"/><path d="M3245.207,219.8c.491404-.394192,1.045873-.702531,1.64-.912.371617-.129995.756176-.219514,1.147-.267.213358-.026376.42803-.040732.643-.043.055,0,.11,0,.167,0h.086c.027,0,.048,0,.067,0s-.019-.053-.019-.053l-.014-.038-.03-.089c-.056-.175-.109-.354-.16-.536-.1-.364-.191-.738-.289-1.118s-.2-.762-.339-1.138c-.034-.094-.07-.188-.108-.281l-.059-.138-.09-.2c-.049-.093-.094-.185-.147-.281l-.183-.3-.4-.63.135.041c.339.114.641.205.977.331.084.032.173.075.26.111l.131.058.064.032.04.02c.1.047.188.1.282.157.376264.229568.718579.510622,1.017.835.604331.679302,1.041314,1.490598,1.276,2.369.034.116.063.232.092.349l.042.18c.014-.013.192-.257.192-.257.239-.321.489-.63.752-.923.505705-.577087,1.086946-1.083318,1.728-1.505.604272-.396425,1.283146-.665252,1.995-.79.330326-.054789.665695-.072899,1-.054h.062l.1.009c.066.006.132.009.2.02l.193.029.178.034.665.148.1.04-.63.243c-.1.039-.2.078-.285.117s-.176.076-.255.117l-.168.083-.13.068c-.086.047-.171.095-.254.144-.31084.184557-.608549.390381-.891.616-.45745.36695-.8781.777553-1.256,1.226-.313.371-.533.683-.681.9-.065851.115499-.145429.22261-.237.319.036129-.129205.092132-.252006.166-.364.184372-.333126.391881-.65291.621-.957.359541-.481636.768797-.924075,1.221-1.32.283691-.246873.584437-.473435.9-.678.083-.054.171-.106.258-.16l.239-.135c.048-.027.089-.049.129-.068-.026719-.01547-.057128-.023418-.088-.023h-.049-.1c-.306002-.003611-.611483.026233-.911.089-.641613.141341-1.247856.411462-1.782.794-.581927.417944-1.105832.911248-1.558,1.467-.238.285-.465.588-.684.9l-.162.239-.153.233-.164.258c-.217.358-.447.717-.662,1.056l-.025.044-.08-.753-.043-.372c-.016-.12-.027-.251-.048-.36l-.056-.339-.034-.161c-.024-.107-.049-.214-.079-.32-.19359-.78639-.566286-1.517408-1.089-2.136-.252438-.289666-.544285-.542465-.867-.751-.081-.05-.161-.1-.244-.145-.047.015-.015.09-.015.09l.062.152c.04.1.077.2.112.3.138.4.24.805.333,1.191s.173.76.263,1.117q.067.268.141.522l.019.064.034.1c.022.071.043.138.071.217l.157.448c0,.01-.6-.064-.6-.064l-.147-.016-.094-.009c-.051,0-.1-.007-.154-.009-.19985-.010963-.40015-.010963-.6,0-.368533.022235-.73362.083921-1.089.184-.579068.16547-1.127028.424923-1.622.768-.318531.220656-.619436.465727-.9.733-.092619.102631-.195864.195149-.308.276.063436-.123964.145751-.237317.244-.336.251348-.29482.529544-.56565.831-.809Z" transform="translate(-3031.76-174.211)" fill="#fff"/><path d="M3269.479,206.45c-1.495553.81504-2.753135,2.005417-3.649,3.454-.791019,1.316283-1.165412,2.841043-1.074,4.374.098231,1.345602.470881,2.656852,1.095,3.853.495429,1.000163,1.184005,1.892321,2.026,2.625.63387.571945,1.3072,1.098579,2.015,1.576c1.168.79,1.867,1.154,1.84,1.206-.709001-.224883-1.382411-.549467-2-.964-.750949-.443148-1.464037-.947527-2.132-1.508-.420742-.353858-.814191-.738951-1.177-1.152-.199233-.228685-.384565-.469117-.555-.72-.178-.266-.329-.536-.485-.822-.691815-1.24966-1.114537-2.630233-1.241-4.053-.061453-.800879-.005188-1.60644.167-2.391.18737-.831843.501004-1.630093.93-2.367.941845-1.565297,2.279382-2.854892,3.878-3.739c1.693301-.956553,3.573088-1.536419,5.511-1.7.665079-.058061,1.333479-.068087,2-.03.33.018.658.049.983.091l.146.02c.022,0-.034-.113-.034-.113l-.128-.27c-.165-.36-.307-.718-.454-1.06-.138158-.332698-.297829-.656049-.478-.968-.044-.075-.091-.149-.138-.221l-.037-.054c-.014-.02-.017-.027-.046-.066l-.144-.193-.181-.217-.2-.22-.4-.434.105-.011.123-.009.239-.019.474-.034c.164-.005.332-.009.5,0l.186.009.137.01c.358307.029984.714573.080736,1.067.152.67535.13778,1.33926.326656,1.986.565c1.19793.441625,2.346217,1.007724,3.426,1.689c1.793113,1.111244,3.37355,2.533535,4.667,4.2.84648,1.092288,1.518774,2.309028,1.993,3.607.197122.455497.318066.940288.358,1.435-.045.012-.2-.483-.578-1.348-.548595-1.230797-1.261411-2.381596-2.119-3.421-2.117331-2.522141-4.86832-4.434716-7.97-5.541-.617991-.218773-1.251407-.391249-1.895-.516-.327261-.062328-.657791-.106065-.99-.131l-.2-.012c.02048.059015.049089.114886.085.166.055.082.107.166.159.25.197968.337506.373676.687585.526,1.048.154.354.3.7.453,1.042l.121.25.076.148.14.255c.2.335.456.712.668,1.048l-.956-.183c-.16-.029-.327-.061-.459-.078l-.211-.032-.115-.015c-.308-.04-.619-.068-.931-.085-.633256-.03444-1.268147-.024415-1.9.03-1.827631.156953-3.601088.700273-5.203,1.594Z" transform="translate(-3079.52-171.21)" fill="#fff"/><path d="M3284.714,196.074c-.23992-3.508676.642264-7.002739,2.519-9.977.708696-1.128558,1.531338-2.181406,2.455-3.142.692943-.723138,1.433605-1.398988,2.217-2.023.641826-.56164,1.349311-1.043481,2.107-1.435.034.048-.7.578-1.923,1.655-.739226.653637-1.440376,1.349111-2.1,2.083-.870472.966863-1.644788,2.016141-2.312,3.133-.804724,1.348284-1.415398,2.803261-1.814,4.322-.450132,1.741555-.609611,3.545485-.472,5.339.158034,1.984248.613805,3.933411,1.352,5.782.794915,1.99121,1.829543,3.87812,3.081,5.619c2.443622,3.367222,5.46061,6.278261,8.913,8.6c2.810481,1.916732,5.866713,3.445521,9.086,4.545c2.17367.740504,4.415761,1.262419,6.693,1.558c1.616.206,2.521.237,2.52.3-.846999.098795-1.702802.095437-2.549-.01-2.319171-.188443-4.609294-.640697-6.826-1.348-3.295421-1.046784-6.426378-2.554019-9.3-4.477-3.547187-2.338562-6.642026-5.29958-9.135-8.74-1.286787-1.789623-2.345607-3.732585-3.152-5.784-.757327-1.918736-1.215989-3.942246-1.36-6Z" transform="translate(-3121.74-166.571)" fill="#fff"/><path d="M3322.34,194.173c-.102715-1.373443-.051059-2.754073.154-4.116.339227-2.301013,1.054075-4.530689,2.116-6.6.704052-1.395387,1.603804-2.683057,2.672-3.824.366826-.441821.80982-.81437,1.308-1.1.038.043-.406.455-1.093,1.291-.960684,1.185239-1.773341,2.48314-2.42,3.865-.965621,2.041041-1.609896,4.219097-1.91,6.457-.178946,1.313238-.214823,2.642019-.107,3.963.058537.694465.166477,1.383877.323,2.063.081.344.175.686.285,1.025l.087.257.023-.128.049-.267c.034-.176.072-.351.111-.525l.075-.326.12-.49.252-.978.492-1.944.261,2.014c.021.173.046.313.067.469s.047.3.074.441.05.286.079.423l.063.31q.178.825.412,1.6c.79673,2.649081,2.114124,5.112523,3.875,7.246.732357.879365,1.535002,1.697728,2.4,2.447.33555.249227.646318.53019.928.839-.393888-.153171-.759547-.370809-1.082-.644-.943656-.686965-1.811839-1.472017-2.59-2.342-1.1851-1.319326-2.185572-2.793458-2.974-4.382-.476817-.955479-.878045-1.946845-1.2-2.965-.169-.533-.319-1.086-.448-1.654l-.023-.106c-.030497.061365-.052371.126649-.065.194-.037.168-.072.336-.1.505l-.047.253-.062.4c-.056181.387709-.089572.77838-.1,1.17l-.047,1.393-.63-1.278c-.14-.281-.282-.591-.417-.927-.068-.169-.13-.337-.189-.5l-.093-.277c-.116-.36-.215-.723-.3-1.086-.162156-.713046-.272114-1.436964-.329-2.166Z" transform="translate(-3166.96-166.357)" fill="#fff"/><path d="M3293.8,194.145c-1.464939-1.292933-3.058609-2.432226-4.756-3.4-1.937919-1.119477-4.007895-1.992884-6.162-2.6-1.159134-.323878-2.345374-.541444-3.544-.65-1.240918-.116045-2.491808-.064584-3.719.153-1.259267.222191-2.462068.691552-3.539,1.381-.545091.35439-1.048297.769367-1.5,1.237-.471874.473462-.906498.982641-1.3,1.523-.965155,1.326667-1.624914,2.850396-1.932,4.462-.279423,1.564263-.306432,3.163192-.08,4.736.213528,1.51528.547927,3.01105,1,4.473.214.716.441,1.418.675,2.105l.359,1.035.671,1.872c-.288-.166-.579-.346-.86-.514s-.581-.364-.863-.562q-.469-.33-.906-.672c-.585-.456-1.137-.924-1.665-1.39s-1.032-.933-1.515-1.393l-.315-.3-.086-.087-.19-.193c.003384.023322.008396.046378.015.069l.027.089.063.189.018.05.058.155.123.314.252.611c.339.8.694,1.54,1.057,2.215.612344,1.161592,1.339293,2.25905,2.17,3.276.528614.642973,1.115068,1.236123,1.752,1.772.237432.172882.462328.362355.673.567-.277712-.106143-.536652-.256037-.767-.444-.68927-.494461-1.320887-1.064694-1.883-1.7-.887953-1.001712-1.665126-2.096393-2.318-3.265-.387-.678-.766-1.421-1.128-2.227-.09-.2-.181-.407-.268-.616l-.131-.316-.172-.438c-.141-.365-.273-.734-.4-1.1l-.19-.554-.1-.284-.049-.145c-.016398-.042424-.030092-.085844-.041-.13l2.213,2.077c.487.449.992.9,1.519,1.358s1.076.907,1.653,1.346c.289.219.585.435.887.643.035946.025366.074498.046821.115.064l-.056-.14-.361-1.013c-.243-.692-.479-1.4-.7-2.125-.473199-1.494634-.823695-3.025376-1.048-4.577-.243851-1.648663-.220214-3.325864.07-4.967.323598-1.717658,1.024456-3.342063,2.052-4.756.413516-.569826.87055-1.106766,1.367-1.606.489569-.505859,1.035073-.954407,1.626-1.337c1.158931-.739583,2.453368-1.241314,3.808-1.476c1.29111-.224978,2.606775-.273757,3.911-.145c1.240619.119954,2.467501.354284,3.665.7c2.202126.638887,4.314317,1.554529,6.286,2.725c1.719936,1.007299,3.328835,2.193192,4.8,3.538c1.218771,1.107153,2.308671,2.348345,3.249,3.7.713532,1.020418,1.290432,2.129841,1.716,3.3.268966.738601.442699,1.50847.517,2.291.043367.271113.04134.547552-.006.818-.067305-.262733-.114772-.530153-.142-.8-.133429-.756832-.346963-1.497329-.637-2.209-.46296-1.12327-1.062471-2.185261-1.785-3.162-.952703-1.297842-2.04342-2.488477-3.253-3.551Z" transform="translate(-3087-168.183)" fill="#fff"/><path d="M3339.708,234.227l.309.11c.1.034.195.057.292.085s.19.047.285.067c.965632.19912,1.969917.076175,2.859-.35.370341-.179356.723482-.392245,1.055-.636.237-.172.37-.267.4-.237s-.049.174-.246.406c-.289401.332106-.628404.617476-1.005.846-.585748.35999-1.245752.58193-1.93.649-.41651.041887-.836697.029449-1.25-.037-.109-.017-.218-.038-.326-.063-.004998.029857.003008.060426.022.084.323948.375615.680689.721648,1.066,1.034.484396.392965,1.013774.726974,1.577.995.266416.126552.539864.237734.819.333l.2.068.1.03.153.043.822.2-.319.493c-.05.081-.1.162-.141.237l-.082.15c-.081088.152584-.152236.310245-.213.472-.112054.298928-.182383.611871-.209.93-.029075.538803.027289,1.078814.167,1.6.109.452.221.811.283,1.062s.085.391.05.406-.121-.1-.25-.326c-.182141-.328364-.339253-.67-.47-1.022-.220271-.556995-.335219-1.150044-.339-1.749.00514-.37512.065453-.747441.179-1.105.060972-.19115.134122-.378199.219-.56l.034-.069c.031-.077-.008-.079-.008-.079l-.062-.016-.113-.03-.226-.067c-.30682-.096744-.607389-.212296-.9-.346-.622114-.282476-1.20552-.643408-1.736-1.074-.421042-.340896-.808173-.721664-1.156-1.137l-.034-.039-.056-.07-.111-.14c-.076-.091-.145-.189-.215-.284s-.136-.19-.2-.281-.123-.183-.178-.271l-.338-.53-.171-.267-.118-.2c.521.236,1.073.5,1.511.685Z" transform="translate(-3191.22-178.553)" fill="#fff"/><path d="M3323.4,219.611l.062-.19.043-.164c.061026-.241425.108104-.486164.141-.733.061289-.466383.087695-.936688.079-1.407-.014608-.783147-.100293-1.56335-.256-2.331-.154535-.681854-.344797-1.355116-.57-2.017.385469.59937.661735,1.262275.816,1.958.217939.77445.3606,1.568132.426,2.37.041027.492024.044371.986466.01,1.479-.019668.268509-.055062.535634-.106.8l-.012.077c.015694-.009058.029591-.020922.041-.035s.073-.07.073-.07c.054-.053.108-.106.159-.162.103175-.110924.199361-.228149.288-.351.178-.249.342-.538.518-.834l.133-.223.221-.36c.184-.3.375-.57.562-.849l.031-.047.041.12.214.614.206.564c.071.186.145.369.219.55q.226.544.469,1.063c.323.691.661,1.348,1,1.964.679,1.233,1.36,2.307,1.965,3.186c1.209,1.761,2.112,2.738,2.07,2.776-.871386-.771706-1.654505-1.637665-2.335-2.582-.77502-.998193-1.493801-2.038806-2.153-3.117-.372-.609-.744-1.261-1.1-1.955q-.267-.52-.519-1.072-.125-.276-.244-.56c-.009-.019-.06.063-.06.063l-.134.218c-.179.288-.353.587-.57.875-.107256.14351-.223841.279804-.349.408-.062.063-.125.124-.19.183l-.11.1c-.06.053-.121.1-.182.152-.244.2-.481.362-.706.515l-.671.459-.1.064-.171.11.578-1.177c.067087-.140046.124879-.284358.173-.432Z" transform="translate(-3166.45-173.986)" fill="#fff"/><path d="M3338.349,230.24c-.364948.322475-.79205.566824-1.255.718-.163573.069553-.342506.095066-.519.074.150193-.081023.306306-.150555.467-.208.412838-.20135.785579-.476162,1.1-.811.465839-.501021.845931-1.075382,1.125-1.7.169839-.3681.310602-.74893.421-1.139.058-.2.109-.41.149-.623l.015-.08.007-.04c-.019257-.002437-.038743-.002437-.058,0-.034,0-.068.006-.1.009-.068,0-.136.005-.2,0-.477403-.021425-.949086-.112729-1.4-.271-.108-.034-.212-.071-.316-.11l-.128-.047-.143-.056-.275-.113c-.352-.152-.655-.3-.96-.434l-.194-.1c.476-.07.96-.126,1.3-.191.087-.017.165-.037.244-.056l.2-.054c.073-.021.146-.045.215-.071.26634-.09423.518389-.224798.749-.388.379786-.28501.696434-.645581.93-1.059.209-.35.352-.647.459-.846s.169-.3.187-.3-.011.127-.08.342c-.09979.311084-.217999.615956-.354.913-.209218.475382-.519397.899532-.909,1.243-.245402.206449-.518777.37714-.812.507-.077.034-.155.067-.234.1-.058.044-.043.046-.034.047.13.037.23.067.33.094.398181.118157.8107.181078,1.226.187.053,0,.1,0,.153-.009.024,0,.05,0,.074-.009.041099-.006062.081829-.014408.122-.025l.18-.06.207-.113.457-.256c-.007.05-.01.089-.01.089l-.009.078c-.028.224-.046.44-.084.666-.018.113-.043.226-.067.338l-.052.21c-.059.229-.13.452-.207.665-.147906.408863-.329879.804586-.544,1.183-.354272.644655-.818996,1.22209-1.373,1.706Z" transform="translate(-3185.32-176.123)" fill="#fff"/><path d="M3257.332,254.012c.3.646.655,1.416,1.021,2.287.406998.944845.756959,1.913251,1.048,2.9.190966.654824.330721,1.323506.418,2c.02.162.034.325.046.484l.013.239v.1l-.02.123-.017.085c.022324-.015527.041076-.035642.055-.059.012-.016.025-.037.04-.061l.021-.04c.012-.024.046-.1.046-.1.154579-.350223.291419-.708009.41-1.072.082771-.327767.191446-.648443.325-.959.008087.341579-.031974.682594-.119,1.013-.073678.385951-.169842.767267-.288,1.142l-.027.084c-.012136.04831-.027504.09575-.046.142l-.109.3-.126.3c-.043.108-.091.187-.137.284-.191.379-.385.734-.627,1.169l-.078.127-.071.119-.087.151.232-1.446c.008-.054.019-.119.025-.163l.015-.134.03-.27c0-.151.02-.318.015-.461v-.223c0-.072,0-.128,0-.128l-.014-.224c-.012-.152-.026-.3-.046-.459-.082449-.650345-.209753-1.294212-.381-1.927-.274-1.035-.615-2.006-.94-2.884s-.639-1.665-.894-2.33c-.316259-.703622-.563095-1.436428-.737-2.188.373062.673793.708249,1.367871,1.004,2.079Z" transform="translate(-3043.41-182.715)" fill="#fff"/><path d="M3256.638,274.916c-.429,5.766-9.783,12.485-14.351,12.145s-5.495-4.946-3.614-10.414c1.929-5.606,5.306-10.273,9.852-10.828c6.607-.807,8.541,3.33,8.113,9.097Z" transform="translate(-3024.93-185.786)" fill="#ffb888"/><path d="M3255.8,275.746c-.214,2.893-3.844,6.937-7.156,7.921-2.557.759-.428-3.87-3.992-3.427-3.241.4-3.85,1.142-2.494-2.958c1.39-4.2,4.634-7.9,7.88-8.326c4.711-.623,6.08,2.47,5.762,6.79Z" transform="translate(-3026.97-186.489)" opacity="0.3" fill="#432918"/></g><g id="eEGd2R3mcYF65" transform="translate(113.108003 122.13301)"><path d="M3297.979,1902.748c2.980141,9.372048,6.49695,18.5649,10.533,27.533c2.3,5.117,4.916,10.37,7.858,15.474.741,1.267,1.492,2.54,2.281,3.773l.591.927c.2.3.406.644.558.853l.992,1.432c1.309336,1.849185,2.752896,3.599573,4.319,5.237c1.51551,1.615024,3.289032,2.966793,5.248,4c1.94803,1.055231,4.250836,1.239688,6.342.508c1.990406-.798279,3.860804-1.868087,5.558-3.179c1.614499-1.203233,3.158699-2.498023,4.625-3.878l1.046-.987l1.4-1.351c.961-.9,1.869-1.864,2.783-2.773l2.637-2.793c.842-.946,1.687-1.854,2.485-2.78c3.214-3.686,6.027-7.241,8.416-10.47l12.646,10.282c-2.888,3.208-6.277,6.728-10.136,10.377-1.927,1.826-3.99,3.668-6.151,5.531-1.107.909-2.2,1.858-3.363,2.768l-1.75,1.383-1.988,1.5c-2.694387,2.041754-5.521261,3.902507-8.462,5.57-2.917193,1.714898-6.062369,3.008386-9.342,3.842-1.67109.388013-3.402635.440021-5.094.153-1.707683-.325359-3.345761-.945264-4.841-1.832-1.511288-.861894-2.922257-1.888846-4.207-3.062-1.296878-1.161079-2.513347-2.408954-3.641-3.735-2.221126-2.651574-4.22463-5.478083-5.991-8.452-1.8-2.985-3.234-5.715-4.664-8.552-2.792-5.643-5.212-11.254-7.375-16.642-4.331-10.773-7.75-20.6-10.621-28.2-1.692-4.538-.483-7.21,1.451-7.7s4.578,1.162,5.857,5.243Z" transform="translate(-3282.13-1882.09)" fill="#ffb888"/><path d="M3271.155,1964.8l.431-.17c.408255-.151389.806402-.328752,1.192-.531c1.384075-.695931,2.704755-1.511359,3.947-2.437.782-.55,1.594-1.193,2.435-1.883.415-.352.854-.7,1.276-1.078l1.338-1.192c2.566-2.286,5.266-4.956,7.879-7.728c4.901352-5.214807,9.451027-10.749314,13.619-16.567c3.515-4.9,5.7-8.56,6.121-9.219.865187-1.387739,1.90279-2.660214,3.088-3.787c1.048722-1.030107,2.243978-1.899507,3.547-2.58c2.425-1.277,5.029-1.633,7.142-.592c2.273414,1.145231,3.815371,3.360385,4.1,5.89.436,2.85-.324,6.548-2.861,10.6-.274.409-2.824,4.294-6.945,9.48-2.049,2.6-4.512,5.512-7.206,8.534-2.719,3-5.7,6.094-8.781,9.062s-6.28,5.81-9.419,8.331l-.6.49-.67.519-1.318,1.02c-.858.685-1.736,1.3-2.578,1.9l-1.246.892-1.237.81c-.81.531-1.585,1.052-2.36,1.488s-1.487.911-2.206,1.268l-2.021,1.044c-1.3.573-2.413,1.1-3.374,1.4-.475.166-.895.328-1.267.443l-.958.245-.8.2Z" transform="translate(-3216.37-1886.02)" fill="#e4b363"/><path d="M3330.417,1994.92c4.845.232,9.333-1.724,13.571-4.039l-5.192-18.739c-.951238.599584-1.947174,1.125133-2.979,1.572-1.023609.470932-2.139352.707677-3.266.693Z" transform="translate(-3279.98-1897.54)" fill="#bf9247"/><path d="M3399.6,1888.173c.342-2.406.272-7.122-3.366-7.94-4.861489-1.007322-9.779987-1.716644-14.728-2.124-3.248-.148-3.3.49-6.913,3.106s-7.914,5.039-6.716,11.57s1.877,8.6,4.728,7.378s5.685-2.222,7.518-3.175s2.415,4.271,3.055,8.618-2.638,9.355.5,9.854s8.567,1.421,9.954.549s4.333-3.372,4.975-5.2s1.957-4.556,1.571-7.492c-.245-1.874,1.452-5.044,1.819-6.562.87-3.591-2.741-6.145-2.397-8.582Z" transform="translate(-3368.14-1878.09)" fill="#eda87a"/><g transform="matrix(.966 0.259-.259 0.966-1.375-25.485)"><rect width="34.781" height="70.914" rx="6" ry="6" transform="translate(.45 0)" fill="#1a1a1a"/><rect width="0.886" height="2.534" rx="0.443" ry="0.443" transform="translate(0 9.663)" fill="#666"/><rect width="0.886" height="5.058" rx="0.443" ry="0.443" transform="translate(0 14.563)" fill="#666"/><rect width="0.886" height="5.058" rx="0.443" ry="0.443" transform="translate(0 21.046)" fill="#666"/><rect width="0.886" height="9.455" rx="0.443" ry="0.443" transform="translate(34.779 14.907)" fill="#666"/><path d="M6268.895,266.018v-60.675c0-2.827146-2.291854-5.119-5.119-5.119h-24.543c-.366132.00008-.731207.039303-1.089.117L6267,270c1.201843-.972069,1.898636-2.436254,1.895-3.982Z" transform="translate(-6233.66-200.219)" opacity="0.1" fill="url(#eEGd2R3mcYF76-fill)"/><path d="M6091.636,200h-24.542c-2.827146,0-5.119,2.291854-5.119,5.119v60.675c-.000265,1.357816.538939,2.660111,1.498967,3.620326s2.262217,1.499674,3.620033,1.499674h24.542c2.827698,0,5.12-2.292302,5.12-5.12v-60.675c-.000552-2.827307-2.292693-5.119-5.12-5.119Zm3.347,65.794c0,1.848497-1.498503,3.347-3.347,3.347h-24.542c-1.84804-.001103-3.345897-1.49896-3.347-3.347v-60.675c.001103-1.84804,1.49896-3.345897,3.347-3.347h24.542c1.848497,0,3.347,1.498503,3.347,3.347Z" transform="translate(-6061.52-200)" fill="#111"/><path d="M6091.636,200.355c1.264092-.000796,2.476654.500941,3.370597,1.394696s1.395934,2.106211,1.395403,3.370304v60.675c.001063,1.264255-.500758,2.477021-1.394816,3.370891s-2.106929,1.395437-3.371184,1.394109h-24.542c-1.263919.000531-2.476224-.501324-3.36995-1.39505s-1.395581-2.106031-1.39505-3.36995v-60.676c-.001062-1.264082.500622-2.476696,1.394463-3.370537s2.106455-1.395525,3.370537-1.394463h24.542m0-.355h-24.542c-2.827146,0-5.119,2.291854-5.119,5.119v60.675c0,2.827146,2.291854,5.119,5.119,5.119h24.542c2.827307,0,5.119448-2.291693,5.12-5.119v-60.674c-.000552-2.827307-2.292693-5.119-5.12-5.119Z" transform="translate(-6061.52-200)" fill="url(#eEGd2R3mcYF78-fill)"/></g><path d="M3393.875,1893.079c-6.681.647-11.361.993-13.27,1.144-2.913.23-7,.643-7.095,4.99-.06,2.671,2.068,4.046,6.015,4.164c5.599144.197364,11.203908-.171172,16.729-1.1c5.037-1.016,6.325-9.843-2.379-9.198Z" transform="translate(-3369.81-1881.18)" fill="#ffb888"/><path d="M3392.7,1881.022c-5.984,1.051-10.185,1.683-11.9,1.949-2.614.408-6.376.847-6.049,5.132.2,2.634,2.362,4.075,5.945,3.948c5.611-.2,11.87-.8,15.3-1.814c4.462-1.313,4.175-10.195-3.296-9.215Z" transform="translate(-3370.06-1878.68)" fill="#ffb888"/><path d="M3393.883,1904.65c-5.81.721-10,.734-12.366.842-2.724.124-6.677.6-6.625,4.659.03,2.3,1.894,3.356,5.579,3.469c5.268521.235875,10.547489-.042441,15.762-.831c4.702-.949,5.778-8.741-2.35-8.139Z" transform="translate(-3370.1-1883.58)" fill="#ffb888"/><path d="M3393.582,1915.056c-5.44.526-9.165.469-10.719.592-2.373.188-5.313-.088-5.6,3.484-.171,2.173,2.487,3.81,5.7,3.907c5.033.151,9.4.144,12.552-.493c4.106-.827,5.154-8.015-1.933-7.49Z" transform="translate(-3370.59-1885.73)" fill="#ffb888"/></g>
<script><![CDATA[
!function(t,n){"object"==typeof exports&&"undefined"!=typeof module?module.exports=n():"function"==typeof __SVGATOR_DEFINE__&&__SVGATOR_DEFINE__.amd?__SVGATOR_DEFINE__(n):((t="undefined"!=typeof globalThis?globalThis:t||self).__SVGATOR_PLAYER__=t.__SVGATOR_PLAYER__||{},t.__SVGATOR_PLAYER__["5c7f360c"]=n())}(this,(function(){"use strict";function t(t,n){var e=Object.keys(t);if(Object.getOwnPropertySymbols){var r=Object.getOwnPropertySymbols(t);n&&(r=r.filter((function(n){return Object.getOwnPropertyDescriptor(t,n).enumerable}))),e.push.apply(e,r)}return e}function n(n){for(var e=1;e<arguments.length;e++){var r=null!=arguments[e]?arguments[e]:{};e%2?t(Object(r),!0).forEach((function(t){o(n,t,r[t])})):Object.getOwnPropertyDescriptors?Object.defineProperties(n,Object.getOwnPropertyDescriptors(r)):t(Object(r)).forEach((function(t){Object.defineProperty(n,t,Object.getOwnPropertyDescriptor(r,t))}))}return n}function e(t){return(e="function"==typeof Symbol&&"symbol"==typeof Symbol.iterator?function(t){return typeof t}:function(t){return t&&"function"==typeof Symbol&&t.constructor===Symbol&&t!==Symbol.prototype?"symbol":typeof t})(t)}function r(t,n){if(!(t instanceof n))throw new TypeError("Cannot call a class as a function")}function i(t,n){for(var e=0;e<n.length;e++){var r=n[e];r.enumerable=r.enumerable||!1,r.configurable=!0,"value"in r&&(r.writable=!0),Object.defineProperty(t,r.key,r)}}function u(t,n,e){return n&&i(t.prototype,n),e&&i(t,e),t}function o(t,n,e){return n in t?Object.defineProperty(t,n,{value:e,enumerable:!0,configurable:!0,writable:!0}):t[n]=e,t}function a(t){return(a=Object.setPrototypeOf?Object.getPrototypeOf:function(t){return t.__proto__||Object.getPrototypeOf(t)})(t)}function l(t,n){return(l=Object.setPrototypeOf||function(t,n){return t.__proto__=n,t})(t,n)}function s(){if("undefined"==typeof Reflect||!Reflect.construct)return!1;if(Reflect.construct.sham)return!1;if("function"==typeof Proxy)return!0;try{return Boolean.prototype.valueOf.call(Reflect.construct(Boolean,[],(function(){}))),!0}catch(t){return!1}}function f(t,n,e){return(f=s()?Reflect.construct:function(t,n,e){var r=[null];r.push.apply(r,n);var i=new(Function.bind.apply(t,r));return e&&l(i,e.prototype),i}).apply(null,arguments)}function c(t,n){if(n&&("object"==typeof n||"function"==typeof n))return n;if(void 0!==n)throw new TypeError("Derived constructors may only return object or undefined");return function(t){if(void 0===t)throw new ReferenceError("this hasn't been initialised - super() hasn't been called");return t}(t)}function h(t,n,e){return(h="undefined"!=typeof Reflect&&Reflect.get?Reflect.get:function(t,n,e){var r=function(t,n){for(;!Object.prototype.hasOwnProperty.call(t,n)&&null!==(t=a(t)););return t}(t,n);if(r){var i=Object.getOwnPropertyDescriptor(r,n);return i.get?i.get.call(e):i.value}})(t,n,e||t)}function v(t){return function(t){if(Array.isArray(t))return y(t)}(t)||function(t){if("undefined"!=typeof Symbol&&null!=t[Symbol.iterator]||null!=t["@@iterator"])return Array.from(t)}(t)||function(t,n){if(!t)return;if("string"==typeof t)return y(t,n);var e=Object.prototype.toString.call(t).slice(8,-1);"Object"===e&&t.constructor&&(e=t.constructor.name);if("Map"===e||"Set"===e)return Array.from(t);if("Arguments"===e||/^(?:Ui|I)nt(?:8|16|32)(?:Clamped)?Array$/.test(e))return y(t,n)}(t)||function(){throw new TypeError("Invalid attempt to spread non-iterable instance.\nIn order to be iterable, non-array objects must have a [Symbol.iterator]() method.")}()}function y(t,n){(null==n||n>t.length)&&(n=t.length);for(var e=0,r=new Array(n);e<n;e++)r[e]=t[e];return r}Number.isInteger||(Number.isInteger=function(t){return"number"==typeof t&&isFinite(t)&&Math.floor(t)===t}),Number.EPSILON||(Number.EPSILON=2220446049250313e-31);var g=p(Math.pow(10,-6));function p(t){var n=arguments.length>1&&void 0!==arguments[1]?arguments[1]:6;if(Number.isInteger(t))return t;var e=Math.pow(10,n);return Math.round((+t+Number.EPSILON)*e)/e}function d(t,n){var e=arguments.length>2&&void 0!==arguments[2]?arguments[2]:g;return Math.abs(t-n)<e}var m=Math.PI/180;function b(t){return t}function w(t,n,e){var r=1-e;return 3*e*r*(t*r+n*e)+e*e*e}function A(){var t=arguments.length>0&&void 0!==arguments[0]?arguments[0]:0,n=arguments.length>1&&void 0!==arguments[1]?arguments[1]:0,e=arguments.length>2&&void 0!==arguments[2]?arguments[2]:1,r=arguments.length>3&&void 0!==arguments[3]?arguments[3]:1;return t<0||t>1||e<0||e>1?null:d(t,n)&&d(e,r)?b:function(i){if(i<=0)return t>0?i*n/t:0===n&&e>0?i*r/e:0;if(i>=1)return e<1?1+(i-1)*(r-1)/(e-1):1===e&&t<1?1+(i-1)*(n-1)/(t-1):1;for(var u,o=0,a=1;o<a;){var l=w(t,e,u=(o+a)/2);if(d(i,l))break;l<i?o=u:a=u}return w(n,r,u)}}function _(){return 1}function x(t){return 1===t?1:0}function k(){var t=arguments.length>0&&void 0!==arguments[0]?arguments[0]:1,n=arguments.length>1&&void 0!==arguments[1]?arguments[1]:0;if(1===t){if(0===n)return x;if(1===n)return _}var e=1/t;return function(t){return t>=1?1:(t+=n*e)-t%e}}var S=Math.sin,O=Math.cos,j=Math.acos,E=Math.asin,M=Math.tan,P=Math.atan2,I=Math.PI/180,R=180/Math.PI,F=Math.sqrt,N=function(){function t(){var n=arguments.length>0&&void 0!==arguments[0]?arguments[0]:1,e=arguments.length>1&&void 0!==arguments[1]?arguments[1]:0,i=arguments.length>2&&void 0!==arguments[2]?arguments[2]:0,u=arguments.length>3&&void 0!==arguments[3]?arguments[3]:1,o=arguments.length>4&&void 0!==arguments[4]?arguments[4]:0,a=arguments.length>5&&void 0!==arguments[5]?arguments[5]:0;r(this,t),this.m=[n,e,i,u,o,a],this.i=null,this.w=null,this.s=null}return u(t,[{key:"determinant",get:function(){var t=this.m;return t[0]*t[3]-t[1]*t[2]}},{key:"isIdentity",get:function(){if(null===this.i){var t=this.m;this.i=1===t[0]&&0===t[1]&&0===t[2]&&1===t[3]&&0===t[4]&&0===t[5]}return this.i}},{key:"point",value:function(t,n){var e=this.m;return{x:e[0]*t+e[2]*n+e[4],y:e[1]*t+e[3]*n+e[5]}}},{key:"translateSelf",value:function(){var t=arguments.length>0&&void 0!==arguments[0]?arguments[0]:0,n=arguments.length>1&&void 0!==arguments[1]?arguments[1]:0;if(!t&&!n)return this;var e=this.m;return e[4]+=e[0]*t+e[2]*n,e[5]+=e[1]*t+e[3]*n,this.w=this.s=this.i=null,this}},{key:"rotateSelf",value:function(){var t=arguments.length>0&&void 0!==arguments[0]?arguments[0]:0;if(t%=360){var n=S(t*=I),e=O(t),r=this.m,i=r[0],u=r[1];r[0]=i*e+r[2]*n,r[1]=u*e+r[3]*n,r[2]=r[2]*e-i*n,r[3]=r[3]*e-u*n,this.w=this.s=this.i=null}return this}},{key:"scaleSelf",value:function(){var t=arguments.length>0&&void 0!==arguments[0]?arguments[0]:1,n=arguments.length>1&&void 0!==arguments[1]?arguments[1]:1;if(1!==t||1!==n){var e=this.m;e[0]*=t,e[1]*=t,e[2]*=n,e[3]*=n,this.w=this.s=this.i=null}return this}},{key:"skewSelf",value:function(t,n){if(n%=360,(t%=360)||n){var e=this.m,r=e[0],i=e[1],u=e[2],o=e[3];t&&(t=M(t*I),e[2]+=r*t,e[3]+=i*t),n&&(n=M(n*I),e[0]+=u*n,e[1]+=o*n),this.w=this.s=this.i=null}return this}},{key:"resetSelf",value:function(){var t=arguments.length>0&&void 0!==arguments[0]?arguments[0]:1,n=arguments.length>1&&void 0!==arguments[1]?arguments[1]:0,e=arguments.length>2&&void 0!==arguments[2]?arguments[2]:0,r=arguments.length>3&&void 0!==arguments[3]?arguments[3]:1,i=arguments.length>4&&void 0!==arguments[4]?arguments[4]:0,u=arguments.length>5&&void 0!==arguments[5]?arguments[5]:0,o=this.m;return o[0]=t,o[1]=n,o[2]=e,o[3]=r,o[4]=i,o[5]=u,this.w=this.s=this.i=null,this}},{key:"recomposeSelf",value:function(){var t=arguments.length>0&&void 0!==arguments[0]?arguments[0]:null,n=arguments.length>1&&void 0!==arguments[1]?arguments[1]:null,e=arguments.length>2&&void 0!==arguments[2]?arguments[2]:null,r=arguments.length>3&&void 0!==arguments[3]?arguments[3]:null,i=arguments.length>4&&void 0!==arguments[4]?arguments[4]:null;return this.isIdentity||this.resetSelf(),t&&(t.x||t.y)&&this.translateSelf(t.x,t.y),n&&this.rotateSelf(n),e&&(e.x&&this.skewSelf(e.x,0),e.y&&this.skewSelf(0,e.y)),!r||1===r.x&&1===r.y||this.scaleSelf(r.x,r.y),i&&(i.x||i.y)&&this.translateSelf(i.x,i.y),this}},{key:"decompose",value:function(){var t=arguments.length>0&&void 0!==arguments[0]?arguments[0]:0,n=arguments.length>1&&void 0!==arguments[1]?arguments[1]:0,e=this.m,r=e[0]*e[0]+e[1]*e[1],i=[[e[0],e[1]],[e[2],e[3]]],u=F(r);if(0===u)return{origin:{x:p(e[4]),y:p(e[5])},translate:{x:p(t),y:p(n)},scale:{x:0,y:0},skew:{x:0,y:0},rotate:0};i[0][0]/=u,i[0][1]/=u;var o=e[0]*e[3]-e[1]*e[2]<0;o&&(u=-u);var a=i[0][0]*i[1][0]+i[0][1]*i[1][1];i[1][0]-=i[0][0]*a,i[1][1]-=i[0][1]*a;var l=F(i[1][0]*i[1][0]+i[1][1]*i[1][1]);if(0===l)return{origin:{x:p(e[4]),y:p(e[5])},translate:{x:p(t),y:p(n)},scale:{x:p(u),y:0},skew:{x:0,y:0},rotate:0};i[1][0]/=l,i[1][1]/=l,a/=l;var s=0;return i[1][1]<0?(s=j(i[1][1])*R,i[0][1]<0&&(s=360-s)):s=E(i[0][1])*R,o&&(s=-s),a=P(a,F(i[0][0]*i[0][0]+i[0][1]*i[0][1]))*R,o&&(a=-a),{origin:{x:p(e[4]),y:p(e[5])},translate:{x:p(t),y:p(n)},scale:{x:p(u),y:p(l)},skew:{x:p(a),y:0},rotate:p(s)}}},{key:"clone",value:function(){var t=this.m;return new this.constructor(t[0],t[1],t[2],t[3],t[4],t[5])}},{key:"toString",value:function(){var t=arguments.length>0&&void 0!==arguments[0]?arguments[0]:" ";if(null===this.s){var n=this.m.map((function(t){return p(t)}));1===n[0]&&0===n[1]&&0===n[2]&&1===n[3]?this.s="translate("+n[4]+t+n[5]+")":this.s="matrix("+n.join(t)+")"}return this.s}}],[{key:"create",value:function(t){return t?Array.isArray(t)?f(this,v(t)):t instanceof this?t.clone():(new this).recomposeSelf(t.origin,t.rotate,t.skew,t.scale,t.translate):new this}}]),t}();function T(t,n,e){return t>=.5?e:n}function q(t,n,e){return 0===t||n===e?n:t*(e-n)+n}function B(t,n,e){var r=q(t,n,e);return r<=0?0:r}function D(t,n,e){var r=q(t,n,e);return r<=0?0:r>=1?1:r}function L(t,n,e){return 0===t?n:1===t?e:{x:q(t,n.x,e.x),y:q(t,n.y,e.y)}}function C(t,n,e){var r=function(t,n,e){return Math.round(q(t,n,e))}(t,n,e);return r<=0?0:r>=255?255:r}function V(t,n,e){return 0===t?n:1===t?e:{r:C(t,n.r,e.r),g:C(t,n.g,e.g),b:C(t,n.b,e.b),a:q(t,null==n.a?1:n.a,null==e.a?1:e.a)}}function G(t,n){for(var e=[],r=0;r<t;r++)e.push(n);return e}function z(t,n){if(--n<=0)return t;var e=(t=Object.assign([],t)).length;do{for(var r=0;r<e;r++)t.push(t[r])}while(--n>0);return t}var Y,$=function(){function t(n){r(this,t),this.list=n,this.length=n.length}return u(t,[{key:"setAttribute",value:function(t,n){for(var e=this.list,r=0;r<this.length;r++)e[r].setAttribute(t,n)}},{key:"removeAttribute",value:function(t){for(var n=this.list,e=0;e<this.length;e++)n[e].removeAttribute(t)}},{key:"style",value:function(t,n){for(var e=this.list,r=0;r<this.length;r++)e[r].style[t]=n}}]),t}(),U=/-./g,Q=function(t,n){return n.toUpperCase()};function H(t){return"function"==typeof t?t:T}function J(t){return t?"function"==typeof t?t:Array.isArray(t)?function(t){var n=arguments.length>1&&void 0!==arguments[1]?arguments[1]:b;if(!Array.isArray(t))return n;switch(t.length){case 1:return k(t[0])||n;case 2:return k(t[0],t[1])||n;case 4:return A(t[0],t[1],t[2],t[3])||n}return n}(t,null):function(t,n){var e=arguments.length>2&&void 0!==arguments[2]?arguments[2]:b;switch(t){case"linear":return b;case"steps":return k(n.steps||1,n.jump||0)||e;case"bezier":case"cubic-bezier":return A(n.x1||0,n.y1||0,n.x2||0,n.y2||0)||e}return e}(t.type,t.value,null):null}function Z(t,n,e){var r=arguments.length>3&&void 0!==arguments[3]&&arguments[3],i=n.length-1;if(t<=n[0].t)return r?[0,0,n[0].v]:n[0].v;if(t>=n[i].t)return r?[i,1,n[i].v]:n[i].v;var u,o=n[0],a=null;for(u=1;u<=i;u++){if(!(t>n[u].t)){a=n[u];break}o=n[u]}return null==a?r?[i,1,n[i].v]:n[i].v:o.t===a.t?r?[u,1,a.v]:a.v:(t=(t-o.t)/(a.t-o.t),o.e&&(t=o.e(t)),r?[u,t,e(t,o.v,a.v)]:e(t,o.v,a.v))}function K(t,n){var e=arguments.length>2&&void 0!==arguments[2]?arguments[2]:null;return t&&t.length?"function"!=typeof n?null:("function"!=typeof e&&(e=null),function(r){var i=Z(r,t,n);return null!=i&&e&&(i=e(i)),i}):null}function W(t,n){return t.t-n.t}function X(t,n,r,i,u){var o,a="@"===r[0],l="#"===r[0],s=Y[r],f=T;switch(a?(o=r.substr(1),r=o.replace(U,Q)):l&&(r=r.substr(1)),e(s)){case"function":if(f=s(i,u,Z,J,r,a,n,t),l)return f;break;case"string":f=K(i,H(s));break;case"object":if((f=K(i,H(s.i),s.f))&&"function"==typeof s.u)return s.u(n,f,r,a,t)}return f?function(t,n,e){if(arguments.length>3&&void 0!==arguments[3]&&arguments[3])return t instanceof $?function(r){return t.style(n,e(r))}:function(r){return t.style[n]=e(r)};if(Array.isArray(n)){var r=n.length;return function(i){var u=e(i);if(null==u)for(var o=0;o<r;o++)t[o].removeAttribute(n);else for(var a=0;a<r;a++)t[a].setAttribute(n,u)}}return function(r){var i=e(r);null==i?t.removeAttribute(n):t.setAttribute(n,i)}}(n,r,f,a):null}function tt(t,n,r,i){if(!i||"object"!==e(i))return null;var u=null,o=null;return Array.isArray(i)?o=function(t){if(!t||!t.length)return null;for(var n=0;n<t.length;n++)t[n].e&&(t[n].e=J(t[n].e));return t.sort(W)}(i):(o=i.keys,u=i.data||null),o?X(t,n,r,o,u):null}function nt(t,n,e){if(!e)return null;var r=[];for(var i in e)if(e.hasOwnProperty(i)){var u=tt(t,n,i,e[i]);u&&r.push(u)}return r.length?r:null}function et(t,n){if(!n.settings.duration||n.settings.duration<0)return null;var e,r,i,u,o,a=function(t,n){if(!n)return null;var e=[];if(Array.isArray(n))for(var r=n.length,i=0;i<r;i++){var u=n[i];if(2===u.length){var o=null;if("string"==typeof u[0])o=t.getElementById(u[0]);else if(Array.isArray(u[0])){o=[];for(var a=0;a<u[0].length;a++)if("string"==typeof u[0][a]){var l=t.getElementById(u[0][a]);l&&o.push(l)}o=o.length?1===o.length?o[0]:new $(o):null}if(o){var s=nt(t,o,u[1]);s&&(e=e.concat(s))}}}else for(var f in n)if(n.hasOwnProperty(f)){var c=t.getElementById(f);if(c){var h=nt(t,c,n[f]);h&&(e=e.concat(h))}}return e.length?e:null}(t,n.elements);return a?(e=a,r=n.settings,i=r.duration,u=e.length,o=null,function(t,n){var a=r.iterations||1/0,l=(r.alternate&&a%2==0)^r.direction>0?i:0,s=t%i,f=1+(t-s)/i;n*=r.direction,r.alternate&&f%2==0&&(n=-n);var c=!1;if(f>a)s=l,c=!0,-1===r.fill&&(s=r.direction>0?0:i);else if(n<0&&(s=i-s),s===o)return!1;o=s;for(var h=0;h<u;h++)e[h](s);return c}):null}function rt(t,n){if(Y=n,!t||!t.root||!Array.isArray(t.animations))return null;var e=function(t){for(var n=document.getElementsByTagName("svg"),e=0;e<n.length;e++)if(n[e].id===t.root&&!n[e].svgatorAnimation)return n[e].svgatorAnimation=!0,n[e];return null}(t);if(!e)return null;var r=t.animations.map((function(t){return et(e,t)})).filter((function(t){return!!t}));return r.length?{svg:e,animations:r,animationSettings:t.animationSettings,options:t.options||void 0}:null}function it(t){return+("0x"+(t.replace(/[^0-9a-fA-F]+/g,"")||27))}function ut(t,n,e){return!t||!e||n>t.length?t:t.substring(0,n)+ut(t.substring(n+1),e,e)}function ot(t){var n=arguments.length>1&&void 0!==arguments[1]?arguments[1]:27;return!t||t%n?t%n:ot(t/n,n)}function at(t,n,e){if(t&&t.length){var r=it(e),i=it(n),u=ot(r)+5,o=ut(t,ot(r,5),u);return o=o.replace(/\x7c$/g,"==").replace(/\x2f$/g,"="),o=function(t,n,e){var r=+("0x"+t.substring(0,4));t=t.substring(4);for(var i=n%r+e%27,u=[],o=0;o<t.length;o+=2)if("|"!==t[o]){var a=+("0x"+t[o]+t[o+1])-i;u.push(a)}else{var l=+("0x"+t.substring(o+1,o+1+4))-i;o+=3,u.push(l)}return String.fromCharCode.apply(String,u)}(o=(o=atob(o)).replace(/[\x41-\x5A]/g,""),i,r),o=JSON.parse(o)}}var lt=[{key:"alternate",def:!1},{key:"fill",def:1},{key:"iterations",def:0},{key:"direction",def:1},{key:"speed",def:1},{key:"fps",def:100}],st=function(){function t(n,e){var i=this,u=arguments.length>2&&void 0!==arguments[2]?arguments[2]:null;r(this,t),this._id=0,this._running=!1,this._rollingBack=!1,this._animations=n,this._settings=e,(!u||u<"2022-05-02")&&delete this._settings.speed,lt.forEach((function(t){i._settings[t.key]=i._settings[t.key]||t.def})),this.duration=e.duration,this.offset=e.offset||0,this.rollbackStartOffset=0}return u(t,[{key:"alternate",get:function(){return this._settings.alternate}},{key:"fill",get:function(){return this._settings.fill}},{key:"iterations",get:function(){return this._settings.iterations}},{key:"direction",get:function(){return this._settings.direction}},{key:"speed",get:function(){return this._settings.speed}},{key:"fps",get:function(){return this._settings.fps}},{key:"maxFiniteDuration",get:function(){return this.iterations>0?this.iterations*this.duration:this.duration}},{key:"_apply",value:function(t){for(var n=arguments.length>1&&void 0!==arguments[1]?arguments[1]:{},e=this._animations,r=e.length,i=0,u=0;u<r;u++)n[u]?i++:(n[u]=e[u](t,1),n[u]&&i++);return i}},{key:"_rollback",value:function(t){var n=this,e=1/0,r=null;this.rollbackStartOffset=t,this._rollingBack=!0,this._running=!0;this._id=window.requestAnimationFrame((function i(u){if(n._rollingBack){null==r&&(r=u);var o=Math.round(t-(u-r)*n.speed);if(o>n.duration&&e!==1/0){var a=!!n.alternate&&o/n.duration%2>1,l=o%n.duration;o=(l+=a?n.duration:0)||n.duration}var s=(n.fps?1e3/n.fps:0)*n.speed,f=Math.max(0,o);f<=e-s&&(n.offset=f,e=f,n._apply(f));var c=n.iterations>0&&-1===n.fill&&o>=n.maxFiniteDuration;(o<=0||n.offset<o||c)&&n.stop(),n._id=window.requestAnimationFrame(i)}}))}},{key:"_start",value:function(){var t=this,n=arguments.length>0&&void 0!==arguments[0]?arguments[0]:0,e=-1/0,r=null,i={};this._running=!0;var u=function u(o){null==r&&(r=o);var a=Math.round((o-r)*t.speed+n),l=(t.fps?1e3/t.fps:0)*t.speed;if(a>=e+l&&!t._rollingBack&&(t.offset=a,e=a,t._apply(a,i)===t._animations.length))return void t.pause(!0);t._id=window.requestAnimationFrame(u)};this._id=window.requestAnimationFrame(u)}},{key:"_pause",value:function(){this._id&&window.cancelAnimationFrame(this._id),this._running=!1}},{key:"play",value:function(){if(!this._running)return this._rollingBack?this._rollback(this.offset):this._start(this.offset)}},{key:"stop",value:function(){this._pause(),this.offset=0,this.rollbackStartOffset=0,this._rollingBack=!1,this._apply(0)}},{key:"reachedToEnd",value:function(){return this.iterations>0&&this.offset>=this.iterations*this.duration}},{key:"restart",value:function(){var t=arguments.length>0&&void 0!==arguments[0]&&arguments[0];this.stop(t),this.play(t)}},{key:"pause",value:function(){this._pause()}},{key:"reverse",value:function(){this.direction=-this.direction}}],[{key:"build",value:function(t,n){delete t.animationSettings,t.options=at(t.options,t.root,"5c7f360c"),t.animations.map((function(n){n.settings=at(n.s,t.root,"5c7f360c"),delete n.s,t.animationSettings||(t.animationSettings=n.settings)}));var e=t.version;if(!(t=rt(t,n)))return null;var r=t.options||{},i=new this(t.animations,t.animationSettings,e);return{el:t.svg,options:r,player:i}}},{key:"push",value:function(t){return this.build(t)}},{key:"init",value:function(){var t=this,n=window.__SVGATOR_PLAYER__&&window.__SVGATOR_PLAYER__["5c7f360c"];Array.isArray(n)&&n.splice(0).forEach((function(n){return t.build(n)}))}}]),t}();function ft(t){return p(t)+""}function ct(t){var n=arguments.length>1&&void 0!==arguments[1]?arguments[1]:" ";return t&&t.length?t.map(ft).join(n):""}function ht(t){if(!t)return"transparent";if(null==t.a||t.a>=1){var n=function(t){return 1===(t=parseInt(t).toString(16)).length?"0"+t:t},e=function(t){return t.charAt(0)===t.charAt(1)},r=n(t.r),i=n(t.g),u=n(t.b);return e(r)&&e(i)&&e(u)&&(r=r.charAt(0),i=i.charAt(0),u=u.charAt(0)),"#"+r+i+u}return"rgba("+t.r+","+t.g+","+t.b+","+t.a+")"}function vt(t){return t?"url(#"+t+")":"none"}!function(){for(var t=0,n=["ms","moz","webkit","o"],e=0;e<n.length&&!window.requestAnimationFrame;++e)window.requestAnimationFrame=window[n[e]+"RequestAnimationFrame"],window.cancelAnimationFrame=window[n[e]+"CancelAnimationFrame"]||window[n[e]+"CancelRequestAnimationFrame"];window.requestAnimationFrame||(window.requestAnimationFrame=function(n){var e=Date.now(),r=Math.max(0,16-(e-t)),i=window.setTimeout((function(){n(e+r)}),r);return t=e+r,i},window.cancelAnimationFrame=window.clearTimeout)}();var yt={f:null,i:function(t,n,e){return 0===t?n:1===t?e:{x:B(t,n.x,e.x),y:B(t,n.y,e.y)}},u:function(t,n){return function(e){var r=n(e);t.setAttribute("rx",ft(r.x)),t.setAttribute("ry",ft(r.y))}}},gt={f:null,i:function(t,n,e){return 0===t?n:1===t?e:{width:B(t,n.width,e.width),height:B(t,n.height,e.height)}},u:function(t,n){return function(e){var r=n(e);t.setAttribute("width",ft(r.width)),t.setAttribute("height",ft(r.height))}}};Object.freeze({M:2,L:2,Z:0,H:1,V:1,C:6,Q:4,T:2,S:4,A:7});var pt={},dt=null;function mt(t){var n=function(){if(dt)return dt;if("object"!==("undefined"==typeof document?"undefined":e(document))||!document.createElementNS)return{};var t=document.createElementNS("http://www.w3.org/2000/svg","svg");return t&&t.style?(t.style.position="absolute",t.style.opacity="0.01",t.style.zIndex="-9999",t.style.left="-9999px",t.style.width="1px",t.style.height="1px",dt={svg:t}):{}}().svg;if(!n)return function(t){return null};var r=document.createElementNS(n.namespaceURI,"path");r.setAttributeNS(null,"d",t),r.setAttributeNS(null,"fill","none"),r.setAttributeNS(null,"stroke","none"),n.appendChild(r);var i=r.getTotalLength();return function(t){var n=r.getPointAtLength(i*t);return{x:n.x,y:n.y}}}function bt(t){return pt[t]?pt[t]:pt[t]=mt(t)}function wt(t,n,e,r){if(!t||!r)return!1;var i=["M",t.x,t.y];if(n&&e&&(i.push("C"),i.push(n.x),i.push(n.y),i.push(e.x),i.push(e.y)),n?!e:e){var u=n||e;i.push("Q"),i.push(u.x),i.push(u.y)}return n||e||i.push("L"),i.push(r.x),i.push(r.y),i.join(" ")}function At(t,n,e,r){var i=arguments.length>4&&void 0!==arguments[4]?arguments[4]:1,u=wt(t,n,e,r),o=bt(u);try{return o(i)}catch(t){return null}}function _t(t,n,e){return t+(n-t)*e}function xt(t,n,e){var r=arguments.length>3&&void 0!==arguments[3]&&arguments[3],i={x:_t(t.x,n.x,e),y:_t(t.y,n.y,e)};return r&&(i.a=kt(t,n)),i}function kt(t,n){return Math.atan2(n.y-t.y,n.x-t.x)}function St(t,n,e,r){var i=1-r;return i*i*t+2*i*r*n+r*r*e}function Ot(t,n,e,r){return 2*(1-r)*(n-t)+2*r*(e-n)}function jt(t,n,e,r){var i=arguments.length>4&&void 0!==arguments[4]&&arguments[4],u=At(t,n,null,e,r);return u||(u={x:St(t.x,n.x,e.x,r),y:St(t.y,n.y,e.y,r)}),i&&(u.a=Et(t,n,e,r)),u}function Et(t,n,e,r){return Math.atan2(Ot(t.y,n.y,e.y,r),Ot(t.x,n.x,e.x,r))}function Mt(t,n,e,r,i){var u=i*i;return i*u*(r-t+3*(n-e))+3*u*(t+e-2*n)+3*i*(n-t)+t}function Pt(t,n,e,r,i){var u=1-i;return 3*(u*u*(n-t)+2*u*i*(e-n)+i*i*(r-e))}function It(t,n,e,r,i){var u=arguments.length>5&&void 0!==arguments[5]&&arguments[5],o=At(t,n,e,r,i);return o||(o={x:Mt(t.x,n.x,e.x,r.x,i),y:Mt(t.y,n.y,e.y,r.y,i)}),u&&(o.a=Rt(t,n,e,r,i)),o}function Rt(t,n,e,r,i){return Math.atan2(Pt(t.y,n.y,e.y,r.y,i),Pt(t.x,n.x,e.x,r.x,i))}function Ft(t,n,e){var r=arguments.length>3&&void 0!==arguments[3]&&arguments[3];if(Tt(n)){if(qt(e))return jt(n,e.start,e,t,r)}else if(Tt(e)){if(Bt(n))return jt(n,n.end,e,t,r)}else{if(Bt(n))return qt(e)?It(n,n.end,e.start,e,t,r):jt(n,n.end,e,t,r);if(qt(e))return jt(n,e.start,e,t,r)}return xt(n,e,t,r)}function Nt(t,n,e){var r=Ft(t,n,e,!0);return r.a=function(t){return arguments.length>1&&void 0!==arguments[1]&&arguments[1]?t+Math.PI:t}(r.a)/m,r}function Tt(t){return!t.type||"corner"===t.type}function qt(t){return null!=t.start&&!Tt(t)}function Bt(t){return null!=t.end&&!Tt(t)}var Dt=new N;var Lt={f:ft,i:q},Ct={f:ft,i:D};function Vt(t,n,e){return t.map((function(t){return function(t,n,e){var r=t.v;if(!r||"g"!==r.t||r.s||!r.v||!r.r)return t;var i=e.getElementById(r.r),u=i&&i.querySelectorAll("stop")||[];return r.s=r.v.map((function(t,n){var e=u[n]&&u[n].getAttribute("offset");return{c:t,o:e=p(parseInt(e)/100)}})),delete r.v,t}(t,0,e)}))}var Gt={gt:"gradientTransform",c:{x:"cx",y:"cy"},rd:"r",f:{x:"x1",y:"y1"},to:{x:"x2",y:"y2"}};function zt(t,n,r,i,u,o,a,l){return Vt(t,0,l),n=function(t,n,e){for(var r,i,u,o=t.length-1,a={},l=0;l<=o;l++)(r=t[l]).e&&(r.e=n(r.e)),r.v&&"g"===(i=r.v).t&&i.r&&(u=e.getElementById(i.r))&&(a[i.r]={e:u,s:u.querySelectorAll("stop")});return a}(t,i,l),function(i){var u=r(i,t,Yt);if(!u)return"none";if("c"===u.t)return ht(u.v);if("g"===u.t){if(!n[u.r])return vt(u.r);var o=n[u.r];return function(t,n){for(var e=t.s,r=e.length;r<n.length;r++){var i=e[e.length-1].cloneNode();i.id=Qt(i.id),t.e.appendChild(i),e=t.s=t.e.querySelectorAll("stop")}for(var u=0,o=e.length,a=n.length-1;u<o;u++)e[u].setAttribute("stop-color",ht(n[Math.min(u,a)].c)),e[u].setAttribute("offset",n[Math.min(u,a)].o)}(o,u.s),Object.keys(Gt).forEach((function(t){if(void 0!==u[t])if("object"!==e(Gt[t])){var n,r="gt"===t?(n=u[t],Array.isArray(n)?"matrix("+n.join(" ")+")":""):u[t],i=Gt[t];o.e.setAttribute(i,r)}else Object.keys(Gt[t]).forEach((function(n){if(void 0!==u[t][n]){var e=u[t][n],r=Gt[t][n];o.e.setAttribute(r,e)}}))})),vt(u.r)}return"none"}}function Yt(t,e,r){if(0===t)return e;if(1===t)return r;if(e&&r){var i=e.t;if(i===r.t)switch(e.t){case"c":return{t:i,v:V(t,e.v,r.v)};case"g":if(e.r===r.r){var u={t:i,s:$t(t,e.s,r.s),r:e.r};return e.gt&&r.gt&&(u.gt=function(t,n,e){var r=n.length;if(r!==e.length)return T(t,n,e);for(var i=new Array(r),u=0;u<r;u++)i[u]=q(t,n[u],e[u]);return i}(t,e.gt,r.gt)),e.c?(u.c=L(t,e.c,r.c),u.rd=B(t,e.rd,r.rd)):e.f&&(u.f=L(t,e.f,r.f),u.to=L(t,e.to,r.to)),u}}if("c"===e.t&&"g"===r.t||"c"===r.t&&"g"===e.t){var o="c"===e.t?e:r,a="g"===e.t?n({},e):n({},r),l=a.s.map((function(t){return{c:o.v,o:t.o}}));return a.s="c"===e.t?$t(t,l,a.s):$t(t,a.s,l),a}}return T(t,e,r)}function $t(t,n,e){if(n.length===e.length)return n.map((function(n,r){return Ut(t,n,e[r])}));for(var r=Math.max(n.length,e.length),i=[],u=0;u<r;u++){var o=Ut(t,n[Math.min(u,n.length-1)],e[Math.min(u,e.length-1)]);i.push(o)}return i}function Ut(t,n,e){return{o:D(t,n.o,e.o||0),c:V(t,n.c,e.c||{})}}function Qt(t){return t.replace(/-fill-([0-9]+)$/,(function(t,n){return"-fill-"+(+n+1)}))}var Ht={fill:zt,"fill-opacity":Ct,stroke:zt,"stroke-opacity":Ct,"stroke-width":Lt,"stroke-dashoffset":{f:ft,i:q},"stroke-dasharray":{f:function(t){var n=arguments.length>1&&void 0!==arguments[1]?arguments[1]:" ";return t&&t.length>0&&(t=t.map((function(t){return p(t,4)}))),ct(t,n)},i:function(t,n,e){var r,i,u,o=n.length,a=e.length;if(o!==a)if(0===o)n=G(o=a,0);else if(0===a)a=o,e=G(o,0);else{var l=(u=(r=o)*(i=a)/function(t,n){for(var e;n;)e=n,n=t%n,t=e;return t||1}(r,i))<0?-u:u;n=z(n,Math.floor(l/o)),e=z(e,Math.floor(l/a)),o=a=l}for(var s=[],f=0;f<o;f++)s.push(p(B(t,n[f],e[f])));return s}},opacity:Ct,transform:function(t,n,r,i){if(!(t=function(t,n){if(!t||"object"!==e(t))return null;var r=!1;for(var i in t)t.hasOwnProperty(i)&&(t[i]&&t[i].length?(t[i].forEach((function(t){t.e&&(t.e=n(t.e))})),r=!0):delete t[i]);return r?t:null}(t,i)))return null;var u=function(e,i,u){var o=arguments.length>3&&void 0!==arguments[3]?arguments[3]:null;return t[e]?r(i,t[e],u):n&&n[e]?n[e]:o};return n&&n.a&&t.o?function(n){var e=r(n,t.o,Nt);return Dt.recomposeSelf(e,u("r",n,q,0)+e.a,u("k",n,L),u("s",n,L),u("t",n,L)).toString()}:function(t){return Dt.recomposeSelf(u("o",t,Ft,null),u("r",t,q,0),u("k",t,L),u("s",t,L),u("t",t,L)).toString()}},r:Lt,"#size":gt,"#radius":yt,_:function(t,n){if(Array.isArray(t))for(var e=0;e<t.length;e++)this[t[e]]=n;else this[t]=n}},Jt=function(t){!function(t,n){if("function"!=typeof n&&null!==n)throw new TypeError("Super expression must either be null or a function");t.prototype=Object.create(n&&n.prototype,{constructor:{value:t,writable:!0,configurable:!0}}),n&&l(t,n)}(o,t);var n,e,i=(n=o,e=s(),function(){var t,r=a(n);if(e){var i=a(this).constructor;t=Reflect.construct(r,arguments,i)}else t=r.apply(this,arguments);return c(this,t)});function o(){return r(this,o),i.apply(this,arguments)}return u(o,null,[{key:"build",value:function(t){var n=h(a(o),"build",this).call(this,t,Ht);if(!n)return null;n.el,n.options,function(t,n,e){t.play()}(n.player)}}]),o}(st);return Jt.init(),Jt}));
(function(s,i,o,w,d,a,b){w[o]=w[o]||{};w[o][s]=w[o][s]||[];w[o][s].push(i);})('5c7f360c',{"root":"eEGd2R3mcYF1","version":"2022-05-04","animations":[{"elements":{"eEGd2R3mcYF65":{"transform":{"data":{"o":{"x":211.258,"y":169.200024,"type":"corner"},"t":{"x":-98.149997,"y":-47.067014}},"keys":{"r":[{"t":0,"v":0},{"t":1000,"v":-21.037224},{"t":2000,"v":22.058966},{"t":3000,"v":0.814037}]}}}},"s":"MEDA1ZDliSTQyODQ5NTJkyODE5NDg5OGZBOGUF0MjVhVzUzNTA1MDUwUNGM0Mjg0WDg5OTI4NBTgzOTQ4OThmOGU0MjIVhNTE0YzQyODlVOTQK4NTkyRTgxSDk0Vzg5BOGY4ZTkzNDI1YTUwNAGM0Mjg2ODk4YzhjNDCI1YTUxNGM0MjgxOGMA5NDg1OTI4ZTgxOTQ4FNTQyNWE4NjgxOGM5MYzg1NGM0MkE5MzkwODEU4NTg0NDI1YTUxNGMP0Mk04NjkwOTM0MjVhCNTE1MDUwOWQ/"}],"options":"MPDAxMDg4MmY4MDgxNmVVZN2Y4MTJmNDdLMmYF3OTdjNmU3MUEyZjhhB"},'__SVGATOR_PLAYER__',window,document)
]]></script>
</svg>
