<svg id="running" xmlns="http://www.w3.org/2000/svg" xmlns:xlink="http://www.w3.org/1999/xlink" viewBox="0 0 204.379 334.805" shape-rendering="geometricPrecision" text-rendering="geometricPrecision"><path id="running-u-shadow" d="M2728.892,1555.663c0,3.643,30.382,6.6,67.859,6.6s67.858-2.954,67.858-6.6-30.381-6.6-67.858-6.6-67.859,2.957-67.859,6.6Z" transform="translate(-2660.23-1227.45)" opacity="0.1"/><g id="running-u-arm2" transform="translate(.000006 0.000003)"><path id="running-u-path-1991" d="M2955.3,1180.977c3.622,3.889,8.311,8.789,13.678,13.815c2.751745,2.573552,5.642053,4.994828,8.658,7.253.412.306.685.519,1,.728l.927.63c.611.427,1.245.818,1.873,1.21s1.26.77,1.9,1.133s1.265.724,1.905,1.056c1.268.683,2.534,1.319,3.791,1.886.705593.189457,1.459104.007107,2-.484.564557-.466418,1.054838-1.016045,1.454-1.63.773408-1.192289,1.433297-2.454482,1.971-3.77.542-1.268.993-2.525,1.4-3.738.2-.606.391-1.2.572-1.79l.26-.871.13-.445.2-.627c.513-1.669.988-3.307,1.427-4.9.879-3.179,1.63-6.154,2.273-8.811l10.228,2.957c-.9,2.612-1.959,5.562-3.181,8.753-.614,1.6-1.269,3.25-1.975,4.952q-.588,1.39-1.192,2.822-.641,1.481-1.332,2.958c-1.725256,3.973495-4.025906,7.67145-6.828,10.975-.719509.801821-1.549503,1.49713-2.465,2.065-.930466.629616-2.083957.835973-3.175.568-.515671-.191816-1.01357-.428385-1.488-.707l-1.461-.779c-.486-.27-.97-.5-1.455-.8l-1.451-.9c-3.777711-2.371456-7.386372-5.002103-10.8-7.873-3.147-2.652-6.032-5.425-8.706-8.112-5.313-5.407-9.943-10.364-13.753-14.036-4.54-4.372-.249-7.645,3.615-3.488Z" transform="translate(-2929.63-1053.81)" fill="#ffb888"/><path id="running-u-path-1992" d="M2942.284,1192.538c0,0,.253-.342.629-.981.511602-.881974.971706-1.792832,1.378-2.728.512-1.15,1.042-2.511,1.555-3.97.267-.79.542-1.608.823-2.442.395-1.188.787-2.406,1.168-3.638c3.061-9.87,5.441-20.436,5.707-21.48c1.138-4.623,4.489-7.921,7.51-7.222c2.962.688,5.189,4.2,3.755,10.058-.164.6-3.135,11.267-6.93,21.6-.478,1.291-.96,2.578-1.458,3.84q-.409,1.027-.811,2.034-.436,1.075-.876,2.1c-1.031373,2.458248-2.199877,4.856685-3.5,7.184-1.16371,2.172875-2.598876,4.189031-4.271,6Z" transform="translate(-2879.8-1040.94)" fill="#e4b363"/><path id="running-u-path-1993" d="M2972.194,1236.855c2.383772-1.835548,4.368772-4.137318,5.834-6.765l-8.088-10.918c-.621776,1.333782-1.477649,2.545282-2.527,3.577Z" transform="translate(-2906.57-1071.57)" fill="#bf9247"/><path id="running-u-path-1994" d="M3061.9,1140c-1.107-1.492-1.978,2.756-7.141,7.506-3.281,3.018-8.456,3.957-7.749,5.063c2.1,3.279,4.453,7.407,6.286,9.3c2.954,3.051,13.584,5.979,15.841,5.58c5.652-1,5-11.683,3.627-14.918-1.648-3.891-4.395-3.813-10.864-12.531Z" transform="translate(-3046.58-1036.38)" fill="#ffb888"/><path id="running-u-path-1995" d="M3073.307,1149.153c3.219,4.106-.829,10.12-.4,12.51-3.124-.629-9.1,5.254-15.244-2.628-2.377-3.048,3.032-7.953,6.847-10.327c2.179-1.356,3.489-3.629,4.05-4.138c1.747-1.59,3.632,3.161,4.747,4.583Z" transform="translate(-3053.07-1038.4)" fill="#eda87a"/><path id="running-u-path-1996" d="M3070.255,1144.686c2.259,2.789,3.885,4.7,4.544,5.485c1.007,1.2,2.38,2.908.614,4.619-1.085,1.052-2.46.772-4-.683-2.193277-2.045176-4.161475-4.319114-5.871-6.783-1.486-2.306,1.688-6.196,4.713-2.638Z" transform="translate(-3059.28-1037.95)" fill="#ffb888"/><path id="running-u-path-1997" d="M3064.437,1139.132c1.828,2.68,3.155,4.521,3.691,5.275.821,1.151,2.061,2.751.16,4.276-1.169.939-2.584.672-3.887-.739-1.913233-1.979285-3.601511-4.164255-5.034-6.515-1.142-2.202,2.651-5.515,5.07-2.297Z" transform="translate(-3048.96-1035.54)" fill="#ffb888"/><path id="running-u-path-1998" d="M3076.938,1151.257c1.356933,1.747291,2.801448,3.424771,4.328,5.026.979,1.083,2.275,2.771.574,4.313-.966.876-2.109.573-3.549-.785-2.084554-1.905468-3.966861-4.021011-5.617-6.313-1.386-2.153,1.439-5.563,4.264-2.241Z" transform="translate(-3069.67-1040.89)" fill="#ffb888"/><path id="running-u-path-1999" d="M3083.19,1157.674c1.839,2.271,3.272,3.665,3.809,4.3.82.974,2.046,1.985.671,3.469-.836.9-2.521.522-3.777-.662-1.691996-1.48211-3.215523-3.146152-4.543-4.962-1.207-1.874,1.377-5.043,3.84-2.145Z" transform="translate(-3079.04-1043.82)" fill="#ffb888"/><path id="running-u-path-2000" d="M3063.321,1144.57c-.561.509-1.007,1.288-1.516,1.745-.3.269-.847.911-1.917.059.752,1.152.182,1.555-.092,1.764-1.372,1.043-2.29,1.669-1.544,3.166c1.154,2.315,3.842,2.112,5.022,2.151c2.24.074,3.933-1.57,5.543-3.047-.193283-.448867-.444047-.870729-.746-1.255-1.113-1.422-2.999-6.173-4.75-4.583Z" transform="translate(-3047.84-1038.4)" fill="#eda87a"/><path id="running-u-path-2001" d="M3063.146,1158.218c-.433-4.676-.138-9.365-.927-10.59s-2.587-1.877-4.016-2.387c-1.065-.38-3.645-1.777-5.353-1.74-1.573.034-2.045,2.849-4.795,4.8-2.191,1.557-.364,3.6,2.015,3.023c1.560386-.494816,2.851477-1.604612,3.575-3.073.486741.462522,1.009009.886154,1.562,1.267-.347.98-2.713,5.366-1.161,8.826c3.008,6.703,9.589,5.156,9.1-.126Z" transform="translate(-3036.11-1038.07)" fill="#ffb888"/></g><g id="running-u-body"><g id="running-u-body2"><path id="running-u-path-527" d="M2867.321,1209.876c-4.09-15.062-5.013-16.529-6.692-20.4-6.058-13.964-16.777-26.374-18.9-39.451-1.68-10.342,1.8-12.508,6.068-16.251c4.085-3.584,5.8-3.553,6.805-6.771.557921-2.341199.634468-4.771329.225-7.143c3.853-1.332,8.262-.464,12.451.123.133.248.267.484.4.707c3.273,5.437,11.984,3.611,17.365,6.333c3.96,2,7.28,7.234,5.99,24.549-.487,6.533-1.666,13.479-1.273,20.019.686,11.4,2.5,15.724,9.333,25.618c2.1,3.035,3.828,5.406,5.253,7.47c1.787868,2.467219,3.22458,5.170688,4.269,8.033c2.9,8.179-1.359,14.616-7.126,18.278-11.937,7.578-30.444-.33-31.551-6.518-.3-1.7-.606-3.409-.855-5.433-.358231-3.093965-.947205-6.15683-1.762-9.163Z" transform="translate(-2767.81-1027.29)" fill="#ffb888"/><path id="running-u-path-736" d="M2848.433,1154.792c1.1,5.656,4.913,13.506,6.811,17.087s8.074,14.631,10.418,18.866s5.376,14.208,6.05,16.791c.875577,3.704855,1.483479,7.467902,1.819,11.26.045.8.143,2.809.164,3.216c1.291.737,4.241,1.7,11-.012c7.751-1.962,13.583-7.376,17.438-9.937c2.998856-2.13436,6.487306-3.478426,10.143-3.908c1.3-.137.374-1.593-.7-2.324-.046-.031-.088-.061-.127-.09-.878-.653-.141-.8-.117-2.306.025-1.574.089.744-6.576-8.134s-7.019-25.049-6.865-28s.808-13.418.864-20.323-1.623-11.4-2.931-13.778c-1.39-2.523-4.189-4.152-7.476-4.969-1.794-.446-4.718-.645-7.181-1.112-2.046-.391-3.809-1.116-4.022-.93-1.41,4.239-6.379,11.769-13.24,12.937-2.915.5-5.929-3.511-3.734-7.113-1.534.918-8.862,6.04-11.006,9.645s-1.684,8.242-.732,13.134Z" transform="translate(-2774.71-1030.39)" fill="#e4b363"/><path id="running-u-path-737" d="M2876.337,1146.378c9.553-3.779,17.443,6.278,17.443,6.278s10.037-15.281,27.533-17.814c1.451777-.258017,2.948071.000624,4.229.731-.310321-.815262-.675145-1.608721-1.092-2.375-1.39-2.523-4.19-4.152-7.475-4.969-1.794-.446-4.718-.645-7.181-1.112-2.046-.391-3.809-1.117-4.022-.93-1.41,4.239-6.47,11.49-13.331,12.658-2.916.5-5.838-3.232-3.643-6.833-1.534.918-8.861,6.041-11.006,9.646-.830198,1.445456-1.327284,3.057996-1.455,4.72Z" transform="translate(-2803.33-1030.39)" fill="#bf9247"/><path id="running-u-path-2007" d="M2894.437,1147.147c-.008,6.618,1.52,18.854,3.358,24.858c2.629,8.587,4,15.142,8.906,29.157c3.037,8.677,9.685,26.636,10.1,28.358-.804705.358531-1.636664.652459-2.488.879-1.074-3.981-8.317-24.492-10.865-31.309-2.956-7.908-6.512-20.911-8.218-26.706-1.454-4.937-3.582-17.086-3.3-24.232.111-3.022,2.509-2.899,2.507-1.005Z" transform="translate(-2803.26-1039.08)" fill="#bf9247"/><path id="running-u-path-2008" d="M2911.022,1135.18c.794.92,1.651,1.939,4.779.324s13.363-7.069,12.886-4.7c-1.022,5.1-6.859,14.187-8.091,13.431-1.2-.738-4.95-3.706-6.787-3.571-3.229.238-3.948,5.886-4.9,5.516-.326-.127-1.863-3.045-.415-10.491.568-2.924,2.284-.789,2.528-.509Z" transform="translate(-2824.07-1032.19)" fill="#b28845"/><path id="running-u-path-2009" d="M2922.243,1123.648c.036-.508-1.4-1.183-2.847-2.267s-2.924-2.582-3.368-2.341c.644,1.609.723,3.6-1.726,6.891-3.043,4.1-6.188,4.773-7.327,5.469-.355.217.468,1.12,1.164,1.836c1.958,2.017,3.424,3.4,5.1,5c.338.321,4.309-4.349,5.992-7.208c1.444993-2.256078,2.465743-4.757121,3.012-7.38Z" transform="translate(-2817.06-1027.23)" fill="#e4b363"/><path id="running-u-path-2010" d="M2941.117,1134.357c-1.086-.51-1.283-1.419-1.2-4.341.021-.7.144-1.589.211-2.5.032-.419.042-1.047.033-1.53-.573985.96211-1.015947,1.997056-1.314,3.077-.522,1.68-1.014,2.547-1.2,3.287-1.525,6.031-.262,11.5.226,11.009.575-.576,1.947-4.855,2.6-6.385.59-1.388,1.248-2.333.644-2.617Z" transform="translate(-2852.91-1030.31)" fill="#e4b363"/></g><g id="running-u-tie"><path id="running-u-path-740" d="M2928.281,1147c.253068.919003.809117,1.725592,1.578,2.289.467.267.433-.405,1.5-.435.755-.021,1.186.526,1.56.318c1.23882-.882559,2.0521-2.24298,2.243-3.752-.699566-.893766-1.459333-1.73873-2.274-2.529-1.103559-.091314-2.214619.002992-3.287.279-.394,1.03-.794,2.139-1.32,3.83Z" transform="translate(-2841.9-1037.77)" fill="#313638"/><path id="running-u-path-2011" d="M2829.507,1150.878q.051,1.069.105,2.206.135,1.122.28,2.3c.069.8.275,1.576.426,2.388.084.4.159.816.254,1.225q.174.6.351,1.216c.957914,3.431734,2.54965,6.653871,4.693,9.5c1.14236,1.460011,2.436626,2.794502,3.861,3.981.691.63,1.49,1.142,2.241,1.706l1.2.755.6.374.629.337c1.666872.916014,3.408855,1.688147,5.207,2.308l1.327.426c.432074.155116.873645.282377,1.322.381l1.322.3.656.15.661.089c3.415662.458195,6.877506.453823,10.292-.013c3.35-.376,6.67-.8,9.621-.824.734-.014,1.45.022,2.126.031.339.011.67.01.992.031l.943.088l1.721.164c.533.07,1.022.17,1.473.243c1.088185.166202,2.166207.393225,3.229.68.851899.686102,1.593815,1.498501,2.2,2.409.707492.966945,1.14043,2.107165,1.253,3.3-.697143.603001-1.435979,1.156042-2.211,1.655-1.079652.622547-2.260807,1.049442-3.489,1.261-.139-.036-.5-.152-1.065-.342s-1.337-.34-2.281-.6c-2.595754-.555137-5.245831-.815784-7.9-.777l-1.3.008-1.391.047-2.99.115-1.62.047c-.544.017-1.1.03-1.683.019l-1.743-.013-1.811-.105c-.3-.022-.607-.031-.915-.063l-.929-.117c-.62-.084-1.244-.148-1.868-.255l-1.873-.391c-.311-.071-.628-.123-.936-.211l-.922-.275-1.846-.559-1.787-.706c-1.181762-.463363-2.339549-.985685-3.469-1.565-2.249453-1.15946-4.382259-2.532439-6.369-4.1-1.926035-1.528193-3.667743-3.27527-5.19-5.206-2.647791-3.395784-4.58986-7.286723-5.712-11.444-.228-.9-.409-1.773-.6-2.6-.094343-.400321-.166123-.805627-.215-1.214q-.084-.593-.164-1.154c-.181749-1.292968-.292581-2.594916-.332-3.9-.013-.272-.024-.532-.036-.779q.01-.368.018-.7c.013-.436.029-.812.048-1.126-.00489-.371804.044291-.742345.146-1.1.474807-.645911,1.324447-.892065,2.071-.6.746.209,1.365.656,1.379.999Z" transform="translate(-2738.15-1040.85)" fill="#313638"/><path id="running-u-path-2012" d="M2853.648,1211.493c.58.07,1.16.157,1.732.209l1.7.1c.567.043,1.116.054,1.656.052l1.614.011c.921-.4,1.807-.809,2.571-1.217s1.428-.81,1.961-1.17c1.047-.71,1.572-1.267,1.152-1.456-1.211-.54-1.389-1.273-.687-2.08c1.327842-1.200135,2.949238-2.028082,4.7-2.4-2.5.112-5.221.443-7.963.755-2.615,2.074-3,2.872-2.9,3.407s.652.732-.341,1.434c-.664607.441711-1.369794.819084-2.106,1.127l-1.486.654Z" transform="translate(-2735.19-1064.65)" fill="#a8a8a8"/><path id="running-u-path-2013" d="M2877.821,1209.83l1.34.532l1.382.425c.730683-.077118,1.446025-.261429,2.123-.547.404346-.173783.766044-.433454,1.06-.761.334207-.393124.430528-.935884.252-1.42-.106-.344.645-.769,1.662-1.217c1.039-.542,2.315-1.044,3.433-1.653-.947.042-1.877-.044-2.832-.092-.477498-.030717-.953117-.085788-1.425-.165-.475-.072-.959-.118-1.438-.209-1.909.937-2.267,1.444-2.037,1.945.213.5.946.977.888,1.786-.042.574-.474.951-1.24,1.182-.453703.127456-.919021.209196-1.389.244-.593425.026888-1.188022.010176-1.779-.05Z" transform="translate(-2767.69-1065.17)" fill="#a8a8a8"/></g><path id="running-u-neck" d="M2920.091,1103.794c-.373-2.931-1.075-5.809-1.443-7.659-1.5-7.562-2.234-8.783-.455-11.369c1.467-2.132,7.366-3.916,9.036,3.094c1.534,6.439,3.415,12.531,5.313,16.058-4.189-.589-8.599-1.456-12.451-.124Z" transform="translate(-2833.08-1011.22)" fill="#eaa475"/></g><g id="running-u-head"><path id="running-u-path-2017" d="M2942.838,1043.234c-2.5,11.8-19.239,24.451-29.186,23.371-4.555-.495-13.412-10.2-13.625-20.1-.086-3.99.125-10.192-.036-15.837-.4-14.018-3.882-24.217,8.39-32.286c14.25-9.37,32.881-3.144,37.59,6.991c7.769,16.727.329,21.518-3.133,37.861Z" transform="translate(-2839.94-971.781)" fill="#ffb888"/><path id="running-u-path-2018" d="M2909.482,1088.892c-2.93095-2.817494-5.412763-6.06756-7.359-9.637c2.269,7.284,8.836,13.82,12.443,14.21c9.948,1.08,26.891-11.48,29.392-23.279c1.272094-5.476319,2.865517-10.872991,4.772-16.162-3.274726.543319-5.777865,3.215766-6.106,6.519-.875,6.09-1.649,12.608-4.144,16.344-3.261792,4.702921-7.523624,8.625992-12.48,11.488-5.443,3.073-11.834,5.125-16.518.517Z" transform="translate(-2840.89-998.453)" fill="#ea8462"/><path id="running-u-path-2019" d="M2953.877,1073.311c.742949.19681,1.498811.341165,2.262.432.593.123,1.72.333,1.883.868.139606.83066-.412741,1.619791-1.241,1.773-.807338-.01472-1.610026-.125841-2.391-.331-.853-.138-1.667-.266-2.346-.335c1.418714.535332,2.864731.995307,4.332,1.378c1.569.246,3.1-1.936,2.008-3.148-.837-.93-2.984-.715-4.507-.637Z" transform="translate(-2878.73-1006.96)" fill="#6d3409" fill-rule="evenodd"/><path id="running-u-path-2020" d="M2969.8,1064.545c-.728402-.537315-1.5086-1.00061-2.329-1.383-.847-.429-2.248-.778-2.452-1.83-.139486-1.047985.127441-2.109613.746-2.967.342932-.348193.716804-.664494,1.117-.945c2.407-2.056,3.754-6.077,3.743-10.146.00659-1.764113-.562928-3.482148-1.622-4.893.031-.191-.136,0,0,0c.471306.995103.835033,2.037677,1.085,3.11.133416,1.326103.075151,2.664508-.173,3.974-.267855,2.762696-1.466754,5.352318-3.4,7.344-.417278.312036-.817833.645831-1.2,1-.774.843-1.533,3.06-.737,4.377.437.723,1.611,1.054,2.465,1.374.972.359,1.836.695,2.757.985Z" transform="translate(-2897.41-993.261)" fill="#6d3409" fill-rule="evenodd"/><path id="running-u-path-2021" d="M2939.092,1052.092c.137,1.931,1.038,3.441,2.013,3.372s1.653-1.691,1.517-3.621-1.038-3.441-2.013-3.371-1.654,1.689-1.517,3.62Z" transform="translate(-2855.39-995.994)" fill="#6d3409"/><path id="running-u-path-2022" d="M2972.4,1053.213c.137,1.931,1.038,3.441,2.013,3.372s1.654-1.69,1.517-3.622-1.038-3.44-2.013-3.371-1.651,1.691-1.517,3.621Z" transform="translate(-2907.27-996.49)" fill="#6d3409"/><path id="running-u-path-2023" d="M2944.684,1036.488c-3.263-2.975-7.314-4.8-12.77-3.314-.136.037-1.757.476-1.69.87.081.486,1.535.144,1.948.1c1.974416-.261335,3.973968-.271751,5.951-.031c2.176384.471363,4.276545,1.243441,6.24,2.294.086.046.219.166.321.081Z" transform="translate(-2852.5-988.988)" fill="#6d3409" fill-rule="evenodd"/><path id="running-u-path-2024" d="M2968.532,1037.113c1.426862-.77145,2.969111-1.307033,4.567-1.586c1.924-.313,3.916-.1,5.642-.3-.266-.422-1.013-.564-1.679-.722-1.036019-.312239-2.123999-.414237-3.2-.3-2.423.279-4.685,1.454-5.33,2.908Z" transform="translate(-2907.91-989.657)" fill="#6d3409" fill-rule="evenodd"/><path id="running-u-path-2028" d="M2910.708,983.674c2.69,2.254,10.557,5.443,13,5.957-1.244.481-3.013,2.095-3.083,3.29c1.325146-1.720051,3.27599-2.847141,5.428-3.136-3.268,1.73-4.744,4.832-4.445,9.037.064879,3.019183,1.55513,5.829446,4.018,7.577-2.306-2.834-4.975-9.118-.808-14.794-1.407268,4.111585-1.047375,8.622553.994,12.459c1.544865,2.652154,2.414998,5.64302,2.534,8.71.126544,2.361016-.014689,4.728768-.421,7.058-.386,1.319-.333,1.537,4.022-2.531s5.223-1.7,7.844-4.241s7.281-11.13,4.661-17.946c3.215,2.2,5.432,3.853,6.716,6.895c1.423-5.408.491-14.923-11.366-19.979c4.982-.942,9.295.115,12.588,2.9-1-3.246-5.874-5.407-12.945-5.348c5.137-1.359,7.763-5.378,6.817-9.88-1.369,4.077-3.356,7.755-10.67,9.084c4.208-3.025,6.572-15.083-5.27-20.632c4.8,6.686,6.271,14.3.23,19.2C2929,967.2,2908.846,945.6,2884.6,958.083c6.591-1.647,10.078-2.361,16.014-1.111-7.243.415-26.907,3.051-17.021,28.821-5.418-2.958-11.133.641-12.66,5.1c4.789-3.14,7.576-2.305,11.069-.858-4.6.547-6.926,2.112-8.023,5.359c2.39-2.675,4.02-3.6,8.142-2.641-3.374,1.271-8.95,6.826-1.906,18.856-.265-4.772-.273-8.014,1.938-11.12.028,5.6,1.269,8.387,5.153,11.8-.562-7.331-.76-12.733-.714-15.206-.02949-1.631511.25571-3.253418.84-4.777c2.118678,4.503475,5.422667,8.345685,9.558,11.115-4.115-3.983-6.875-7.583-8.624-14.572c3.438,4.842,11.188,11.737,20.717,13.6-6.988-2.932-14.819-8.384-18.136-15.151c5.667,5.606,12.482,9.213,27.164,6.293-4.325-2.2-7.238-6.219-7.403-9.917Z" transform="translate(-2827.17-954.306)" fill="#ea8462"/><path id="running-u-path-2029" d="M2890.77,1020.127c-.454159-.432674-.873149-.90082-1.253-1.4-.336392-.439601-.613127-.921787-.823-1.434-.171352-.427614-.270045-.880855-.292-1.341-.014575-.344987.019083-.69032.1-1.026.041877-.290975.15755-.566385.336-.8-.026773.281508-.071194.561058-.133.837-.040865.32055-.043551.644817-.008.966.049433.421538.165195.832612.343,1.218.509806,1.000911,1.211449,1.891811,2.065,2.622.939.872,2.067,1.738,3.24,2.672c1.124682.864251,2.190077,1.803028,3.189,2.81.828917.831488,1.518423,1.791123,2.042,2.842.347301.71442.558567,1.487253.623,2.279.048177.287781.03109.582708-.05.863-.077416-.273565-.128976-.553795-.154-.837-.138434-.74745-.39248-1.468768-.753-2.138-.550897-.985841-1.244002-1.88516-2.057-2.669-1.003931-.971372-2.062308-1.884848-3.17-2.736-1.169-.927-2.299-1.812-3.245-2.728Z" transform="translate(-2784.72-980.791)" fill="#fff"/><path id="running-u-path-2030" d="M2903.058,1024.553l-.065-.1c-.007.007-.025.171-.025.171-.021.18-.042.359-.057.537q-.011.133-.017.266c-.008874.169551-.008874.339449,0,.509c0,.053.006.11.014.172s.01.114.023.187l.035.214.044.241.194,1.049-.528-.811-.278-.428c-.094-.148-.187-.3-.28-.459-.047-.079-.093-.16-.137-.242l-.109-.2-.132-.254c-.085-.169-.166-.339-.243-.508-.296523-.65097-.539982-1.324828-.728-2.015-.33888-1.168022-.440878-2.391998-.3-3.6.097969-.813648.384951-1.593089.838-2.276.329-.473.583-.667.6-.647-.128717.259018-.273327.50983-.433.751-.364289.686132-.584143,1.439624-.646,2.214-.081629,1.156955.054041,2.318968.4,3.426.195105.661292.440143,1.306814.733,1.931q.114.243.239.488l.129.243.025.047c0-.008,0,.025.006-.061s.011-.192.02-.286c.016-.189.038-.373.06-.554l.042-.376c.019-.18.032-.361.038-.566l.015-1.267.5,1.106c.041.086.082.183.123.259l.122.23.119.2.046.077.032.051c.169959.265729.354578.521792.553.767.381031.46372.78591.907319,1.213,1.329.814.813,1.57,1.529,2.123,2.206.454583.519992.811938,1.117503,1.055,1.764.106298.229578.150767.482945.129.735-.114835-.214671-.215063-.436841-.3-.665-.298332-.590615-.682875-1.133559-1.141-1.611-.57-.627-1.339-1.3-2.185-2.1-.450868-.422305-.87723-.870035-1.277-1.341-.211349-.256322-.407997-.524419-.589-.803Z" transform="translate(-2799.77-981.78)" fill="#fff"/><path id="running-u-path-2031" d="M2884.478,1011.841c-.187-.088-.4-.174-.6-.262l-.689-.3l1.012-.087.238-.023.212-.031.2-.036.187-.036.212-.042.056-.011c-.033395-.033213-.069156-.063961-.107-.092l-.2-.147c-.769966-.54324-1.617968-.966398-2.515-1.255-.969698-.333224-2.006395-.423193-3.019-.262-.66992.121809-1.300085.404971-1.836.825-.379.3-.557.506-.586.482s.105-.264.462-.622c.221194-.216572.468023-.405304.735-.562.359468-.208553.747606-.363202,1.152-.459c1.069976-.226238,2.180283-.171808,3.223.158.953946.280933,1.857204.711634,2.676,1.276.073.05.144.1.216.154l.108.08.191.151c.134.108.259.217.381.326l.37.328c-.277.027-.6.048-.865.085-.066.011-.134.021-.2.033l-.141.027-.182.037c-.011,0,.045.031.045.031.184.094.366.191.544.29.356.2.7.409,1.029.627.63179.419542,1.233275.88302,1.8,1.387.965551.849868,1.809776,1.828348,2.509,2.908.472426.726306.845411,1.512635,1.109,2.338.120012.295917.180172.612689.177.932-.149693-.275419-.273877-.563955-.371-.862-.329648-.774659-.740618-1.512127-1.226-2.2-.72189-1.017378-1.568116-1.940534-2.519-2.748-.558674-.478936-1.148283-.920558-1.765-1.322-.32-.208-.654-.41-1-.6q-.259-.143-.527-.278l-.219-.107c-.084-.045-.182-.087-.277-.131Z" transform="translate(-2770.58-978.424)" fill="#fff"/><path id="running-u-path-2032" d="M2901.12,1004.761c.323752-.315151.698339-.57344,1.108-.764.256177-.118518.524396-.209043.8-.27.150167-.033139.302071-.057844.455-.074.04,0,.079-.008.119-.011l.062-.005.048-.006c-.004708-.01243-.010393-.024467-.017-.036l-.013-.026c-.008-.016-.027-.061-.027-.061-.052-.122-.1-.246-.151-.372-.1-.253-.187-.514-.283-.778s-.2-.529-.32-.789c-.031-.065-.063-.129-.1-.193l-.052-.1-.078-.133c-.042-.064-.08-.126-.125-.191l-.151-.2-.329-.422.1.02c.25.058.471.1.72.169.062.017.129.041.193.062l.1.032.048.018.029.012c.072.027.142.06.212.093.284104.138102.547354.315509.782.527.477644.442479.845402.990349,1.074,1.6.032.08.061.162.089.243l.042.125c.01-.01.119-.2.119-.2.149-.246.307-.484.474-.711.321587-.446439.701647-.847689,1.13-1.193.40427-.324137.870454-.562333,1.37-.7.233283-.062249.472743-.09847.714-.108h.044.068c.048,0,.1,0,.143,0l.14.007.129.013.485.059.072.022-.433.217c-.071.035-.139.07-.2.1s-.121.067-.174.1l-.114.071-.089.058c-.058.04-.115.079-.17.119-.209522.152879-.408321.319937-.595.5-.301402.293324-.573674.615161-.813.961-.2.286-.333.524-.424.686-.039205.086846-.088548.168749-.147.244.017429-.094435.04877-.185762.093-.271.108563-.250505.234538-.493099.377-.726.223497-.368535.485281-.712441.781-1.026.184356-.195637.382533-.377773.593-.545.056-.044.114-.088.173-.132l.161-.113c.033-.023.06-.041.088-.057-.020372-.009123-.042828-.012578-.065-.01h-.035l-.074.007c-.218919.017991-.435209.059908-.645.125-.448122.144923-.862152.379325-1.217.689-.386706.338109-.726691.726183-1.011,1.154-.151.22-.293.451-.427.692l-.1.182-.093.177-.1.2c-.131.271-.27.542-.4.8l-.015.033-.109-.532-.056-.262c-.02-.084-.036-.177-.058-.254l-.063-.238-.036-.113c-.024-.075-.049-.15-.077-.224-.192243-.547505-.508083-1.043337-.923-1.449-.200518-.189006-.426348-.349207-.671-.476-.061-.03-.121-.06-.184-.087-.033.014,0,.066,0,.066l.055.1c.035.07.069.14.1.21.127.28.227.558.319.828s.176.531.264.779q.066.186.136.363l.018.044.031.073c.021.049.041.1.067.15l.142.309c0,.007-.435,0-.435,0h-.173c-.038,0-.075,0-.112,0-.143039.006737-.285593.021426-.427.044-.261655.041006-.518134.110071-.765.206-.401897.157752-.775189.380376-1.105.659-.2124.179479-.410653.375058-.593.585-.05878.079526-.125821.152601-.2.218.037114-.092991.088386-.179682.152-.257.164463-.229081.350296-.442035.555-.636Z" transform="translate(-2801.55-974.68)" fill="#fff"/><path id="running-u-path-2033" d="M2923.7,994.027c-1.011737.684404-1.827841,1.620442-2.368,2.716-.475375.994995-.637857,2.110752-.466,3.2.162124.95364.517758,1.863995,1.045,2.675.422608.67997.975555,1.269622,1.627,1.735.491469.364666,1.008089.694153,1.546.986.889.484,1.412.7,1.4.735-.520141-.11306-1.021744-.298889-1.49-.552-.566284-.26524-1.109784-.576624-1.625-.931-.324802-.223175-.632034-.4709-.919-.741-.158288-.14937-.307236-.308337-.446-.476-.146-.177-.272-.36-.4-.553-.579998-.844355-.976528-1.800931-1.164-2.808-.09877-.567417-.113595-1.146271-.044-1.718.075939-.606806.244569-1.19836.5-1.754.564738-1.181863,1.430784-2.194147,2.511-2.935c1.143354-.797823,2.445257-1.3398,3.817-1.589.470622-.086769.946827-.139904,1.425-.159q.356-.014.708,0h.107c.015,0-.032-.079-.032-.079l-.11-.184c-.143-.246-.269-.492-.4-.725-.121375-.228178-.257323-.448301-.407-.659-.038-.051-.075-.1-.114-.149l-.03-.036c-.012-.014-.015-.018-.038-.044l-.116-.128-.143-.142-.159-.144-.314-.282.074-.015.087-.015.17-.03.335-.056c.117-.016.237-.03.36-.036l.132-.007h.1c.257804-.002432.515541.009587.772.036.49174.051887.978815.141145,1.457.267.885333.232591,1.743728.557715,2.561.97c1.356549.669916,2.582481,1.576835,3.62,2.678.678984.721746,1.242304,1.544125,1.67,2.438.172204.311591.291811.649463.354,1-.031.012-.173-.331-.5-.922-.476254-.842004-1.064255-1.61569-1.748-2.3-1.684605-1.654601-3.779341-2.830884-6.069-3.408-.456035-.114068-.920014-.193626-1.388-.238-.237972-.022364-.477032-.031045-.716-.026l-.145.005c.018416.040641.042673.078373.072.112.045.055.089.111.13.168.16489.227182.314551.465036.448.712.135.242.259.483.395.713l.1.171.065.1.118.172c.164.226.373.477.549.7l-.7-.065c-.115-.01-.236-.021-.333-.025l-.153-.008h-.083c-.222-.007-.446-.006-.67,0-.453042.018497-.904187.069293-1.35.152-1.297689.23701-2.530023.74767-3.615,1.498Z" transform="translate(-2841.6-969.721)" fill="#fff"/><path id="running-u-path-2034" d="M2939.1,983.987c-.411873-2.488168-.022104-5.042854,1.113-7.295.428666-.854039.943687-1.661922,1.537-2.411.444919-.565103.927341-1.099642,1.444-1.6.419772-.444981.891873-.837503,1.406-1.169.028.032-.461.461-1.259,1.313-.482372.517682-.935094,1.062217-1.356,1.631-.555007.751588-1.035602,1.555371-1.435,2.4-.482766,1.017246-.819425,2.097584-1,3.209-.201325,1.273939-.191189,2.572359.03,3.843.248585,1.405819.707748,2.766113,1.362,4.035.70372,1.366962,1.571454,2.64304,2.584,3.8c1.974588,2.237034,4.327898,4.108646,6.952,5.529c2.138414,1.175644,4.42573,2.05727,6.8,2.621c1.602674.378993,3.239052.597735,4.885.653c1.167.036,1.816,0,1.819.038-.598132.128393-1.209473.184793-1.821.168-1.668397.02459-3.334157-.141147-4.965-.494-2.425042-.52025-4.764242-1.381121-6.948-2.557-2.69213-1.425448-5.10401-3.326426-7.119-5.611-1.041212-1.189135-1.930379-2.503235-2.647-3.912-.67171-1.318343-1.137769-2.731694-1.382-4.191Z" transform="translate(-2876.66-961.925)" fill="#fff"/><path id="running-u-path-2035" d="M2978.249,983.462c-.16704-.97352-.224732-1.962662-.172-2.949.084763-1.664658.442181-3.304117,1.058-4.853.406465-1.044239.960425-2.024866,1.645-2.912.231087-.340863.521736-.63727.858-.875.03.028-.259.352-.692,1-.603843.912128-1.094449,1.894347-1.461,2.925-.549138,1.523178-.859798,3.122014-.921,4.74-.035928.950113.03113,1.901324.2,2.837.089695.491588.214344.976151.373,1.45.081.24.171.478.273.712l.08.177.008-.093.017-.193c.013-.128.026-.256.043-.382l.032-.237.052-.358.112-.715.218-1.421.325,1.419c.026.121.053.22.08.33s.055.212.083.31.055.2.085.3l.066.217q.184.577.4,1.117c.749967,1.836143,1.858976,3.504075,3.262,4.906.582461.577648,1.210858,1.107054,1.879,1.583.256552.154905.497656.334058.72.535-.291851-.082478-.567952-.212925-.817-.386-.720393-.425503-1.393799-.925949-2.009-1.493-.936802-.860288-1.752272-1.843966-2.424-2.924-.406125-.649154-.760552-1.329252-1.06-2.034q-.237-.553-.433-1.15l-.024-.074c-.017641.045887-.028749.094023-.033.143-.014.122-.028.245-.039.367l-.016.184-.017.287c-.012288.280648-.008615.561768.011.842l.063,1-.537-.869c-.119-.192-.242-.4-.361-.634-.061-.116-.116-.232-.17-.347l-.085-.192c-.108-.249-.2-.5-.288-.755-.165541-.501537-.293888-1.014594-.384-1.535Z" transform="translate(-2921.35-962.082)" fill="#fff"/><path id="running-u-path-2036" d="M2941.038,980.582c-1.134349-.822208-2.350044-1.525891-3.628-2.1-1.46017-.666063-2.997699-1.147443-4.577-1.433-.849186-.151473-1.710426-.225112-2.573-.22-.893753.001992-1.783136.12477-2.644.365-.883907.244454-1.710531.661845-2.432,1.228-.364875.290346-.695654.621125-.986.986-.303143.369996-.57729.762829-.82,1.175-.597904,1.013371-.964318,2.146421-1.073,3.318-.091847,1.135737-.00137,2.278854.268,3.386.255433,1.066828.595853,2.111498,1.018,3.124.2.5.413.981.627,1.456l.327.714.607,1.29c-.216-.1-.437-.207-.649-.308s-.439-.221-.654-.342c-.239-.135-.469-.275-.693-.418-.449-.285-.874-.581-1.283-.878s-.8-.6-1.177-.89l-.245-.193-.067-.056-.149-.125c.004264.016337.009609.032372.016.048l.025.061.058.13.016.035.053.106.109.216.221.419c.3.547.6,1.051.906,1.508.517235.787307,1.111856,1.520952,1.775,2.19.421389.422485.880647.805423,1.372,1.144.18128.106861.354718.226497.519.358-.205504-.056635-.400633-.14576-.578-.264-.525905-.305712-1.015954-.669307-1.461-1.084-.702279-.654282-1.332228-1.382126-1.879-2.171-.323-.458-.644-.962-.958-1.513-.078-.138-.156-.278-.234-.421l-.116-.217-.153-.3c-.125-.251-.245-.505-.358-.756l-.174-.383-.089-.2-.045-.1c-.014176-.029209-.026533-.059266-.037-.09l1.721,1.331c.379.288.771.577,1.178.865s.83.573,1.272.847c.22.137.446.271.677.4.027366.015428.056168.028154.086.038l-.049-.1-.327-.7c-.22-.477-.437-.966-.646-1.469-.439753-1.03617-.794587-2.106357-1.061-3.2-.287035-1.160024-.385294-2.358718-.291-3.55.113357-1.248424.502377-2.456128,1.139-3.536.255513-.435286.544731-.849887.865-1.24.314915-.394915.673909-.752566,1.07-1.066.776061-.607644,1.665353-1.054669,2.616-1.315.90631-.248802,1.842163-.373605,2.782-.371.893355-.000323,1.784822.082028,2.663.246c1.616152.304685,3.187057.813423,4.675,1.514c1.296379.602778,2.525801,1.340163,3.668,2.2.945726.705356,1.808554,1.515515,2.572,2.415.579558.6791,1.067706,1.431158,1.452,2.237.242547.50884.419302,1.046499.526,1.6.050109.190347.06769.387794.052.584-.064716-.183147-.11651-.370607-.155-.561-.147846-.530929-.351306-1.044774-.607-1.533-.407734-.770015-.908481-1.487048-1.491-2.135-.771805-.856067-1.634181-1.625902-2.572-2.296Z" transform="translate(-2847.56-964.054)" fill="#fff"/><path id="running-u-path-2037" d="M2992.843,1028.369l.228.057c.074.017.143.027.215.041s.139.021.208.028c.703024.076056,1.411586-.080622,2.017-.446.251848-.153769.489162-.330165.709-.527.157-.138.246-.216.27-.2s-.023.127-.147.307c-.183856.256511-.406129.483168-.659.672-.392825.298934-.848762.504156-1.333.6-.296166.058658-.598711.078492-.9.059-.078,0-.158-.012-.237-.022-.00125.021582.006751.042676.022.058.257151.245802.535573.468338.832.665.372474.246587.772953.448002,1.193.6.199129.071911.402111.132672.608.182l.15.034.075.014.111.02.6.083-.194.373c-.029.061-.06.122-.084.18l-.049.112c-.047367.114588-.087121.232176-.119.352-.059469.220998-.088073.449161-.085.678.015829.388063.093123.771158.229,1.135.11.315.213.563.275.738s.087.273.063.286-.094-.062-.2-.216c-.152308-.223067-.288007-.457031-.406-.7-.194698-.382637-.317082-.797929-.361-1.225-.022335-.267771-.004811-.537374.052-.8.02992-.140839.069343-.279489.118-.415l.019-.052c.017-.057-.012-.056-.012-.056l-.045-.007-.082-.013-.166-.033c-.226613-.047348-.450047-.108801-.669-.184-.463459-.159246-.904692-.377006-1.313-.648-.322999-.214276-.624416-.459427-.9-.732l-.027-.025-.045-.046-.089-.093c-.06-.06-.116-.125-.173-.188s-.11-.126-.16-.187-.1-.123-.146-.182l-.278-.355-.14-.179-.1-.133c.382.137.8.288,1.125.39Z" transform="translate(-2938.95-986.632)" fill="#fff"/><path id="running-u-path-2038" d="M2977.874,1011.434l.031-.141.02-.119c.02678-.176572.043473-.354528.05-.533.011045-.337216-.002658-.674789-.041-1.01-.063976-.557882-.178445-1.108808-.342-1.646-.157319-.475783-.33923-.943078-.545-1.4.316181.401239.558918.855229.717,1.341.207888.538245.363929,1.095103.466,1.663.062699.348756.098803.701772.108,1.056.004625.192914-.002388.385931-.021.578v.056c.010933-.007254.020149-.01681.027-.028l.048-.055c.035-.041.07-.083.1-.127.0665-.085928.127296-.176121.182-.27.11-.19.207-.407.313-.631l.08-.168.132-.272c.112-.225.229-.433.344-.644l.018-.036.038.083.194.423.186.389q.1.192.195.378.2.373.408.727c.278.471.564.916.848,1.333.569.834,1.129,1.553,1.621,2.139.984,1.174,1.7,1.809,1.668,1.839-.675094-.490984-1.293553-1.055446-1.844-1.683-.621113-.659599-1.205335-1.352988-1.75-2.077-.307-.41-.618-.85-.919-1.321-.151-.235-.3-.478-.444-.729q-.108-.188-.213-.383c-.007-.013-.038.049-.038.049l-.082.164c-.107.219-.212.443-.347.664-.066721.109706-.140545.21493-.221.315-.04.05-.082.1-.123.144l-.072.077c-.039.042-.079.082-.118.121-.161.156-.319.292-.469.416l-.447.373-.067.052-.115.091.332-.88c.037598-.103871.068331-.2101.092-.318Z" transform="translate(-2918.63-977.451)" fill="#fff"/><path id="running-u-path-2039" d="M2992.886,1022.067c-.238474.255654-.526713.459838-.847.6-.112226.060781-.23841.09112-.366.088.10201-.067653.208601-.128132.319-.181.280034-.171636.526402-.392926.727-.653.297989-.389181.530074-.824637.687-1.289.095985-.27414.170542-.555318.223-.841.027-.149.049-.3.063-.456l.006-.058v-.03c-.014189.000318-.028289.002333-.042.006-.024.006-.048.009-.073.013-.049.007-.1.014-.145.017-.342392.016412-.685346-.017277-1.018-.1-.079-.017-.156-.037-.233-.057l-.094-.025-.106-.031-.2-.062c-.262-.085-.487-.166-.715-.244l-.146-.057c.335-.083.677-.155.915-.225.061-.018.115-.037.17-.057l.138-.052c.051-.02.1-.042.149-.065.183654-.085374.354609-.195754.508-.328.251441-.229652.452657-.508835.591-.82.125-.264.207-.486.27-.635s.1-.229.113-.224s0,.091-.034.25c-.049925.228889-.113369.454618-.19.676-.116845.353615-.308917.677716-.563.95-.161.164111-.3445.304514-.545.417-.052.03-.106.058-.16.085-.039.034-.028.036-.021.036l.242.045c.292403.056573.591148.073058.888.049.037,0,.073-.01.108-.017l.052-.011c.029114-.007113.057822-.015793.086-.026l.124-.055.14-.1.309-.214c0,.036,0,.064,0,.064v.056c0,.162,0,.317-.013.481-.006.083-.015.164-.025.246l-.023.153c-.027.168-.061.331-.1.489-.078392.301794-.18106.596756-.307.882-.208793.483565-.500518.926906-.862,1.31Z" transform="translate(-2935.86-981.754)" fill="#fff"/><path id="running-u-path-2040" d="M2908.934,1040.034c.258.441.565.966.886,1.562.355134.647254.671362,1.315105.947,2c.181298.454605.326742.9227.435,1.4.026.115.047.23.067.343l.026.17.01.072-.007.089-.007.062c.01552-.01222.027868-.027998.036-.046.008832-.015228.016843-.030917.024-.047l.014-.03c.007-.018.026-.073.026-.073.1-.3.168-.57.219-.794.036949-.239608.092449-.475986.166-.707.029918.243468.024867.489962-.015.732-.026767.280539-.069503.559325-.128.835l-.012.062c-.005797.033824-.013814.067229-.024.1l-.058.219-.07.225c-.024.08-.052.139-.079.213-.11.284-.225.551-.367.877l-.048.1-.042.09-.052.114.066-1.048c0-.039.006-.086.007-.119v-.1-.195c-.007-.108-.008-.228-.021-.33l-.017-.159c-.005-.051-.011-.091-.011-.091l-.025-.159c-.019-.107-.04-.215-.064-.324-.102172-.458325-.235822-.909061-.4-1.349-.267-.719-.576-1.389-.868-1.994s-.571-1.145-.8-1.6c-.274206-.48056-.500303-.987016-.675-1.512.312578.454585.600009.925958.861,1.412Z" transform="translate(-2807.26-991.634)" fill="#fff"/><path id="running-u-path-2041" d="M2901.275,1056.921c.09,4.146-6.127,9.583-9.411,9.654s-4.261-3.154-3.293-7.186c.992-4.134,3.082-7.7,6.29-8.405c4.66-1.029,6.324,1.791,6.414,5.937Z" transform="translate(-2785.68-997.013)" fill="#ffb888"/><path id="running-u-path-2042" d="M2901.827,1058.661c.045,2.08-2.268,5.216-4.565,6.145-1.773.717-.571-2.733-3.085-2.172-2.286.509-2.669,1.079-1.983-1.941.7-3.1,2.766-5.956,5.053-6.484c3.324-.767,4.513,1.346,4.58,4.452Z" transform="translate(-2788.28-998.465)" opacity="0.3" fill="#432918"/><path id="running-u-path-120" d="M5145.339,928.141c.294456-.368909.694138-.639549,1.146-.776.318-.124.645-.229.929-.373.858899.386492,1.736672.729591,2.63,1.028-.570865.118948-1.110042.357522-1.582.7c2.2-.814,4.643-.03,6.985.116-.938888.35035-1.830166.816986-2.653,1.389-1.442913,1.078397-3.210728,1.631919-5.011,1.569-.946917.006598-1.857683-.363176-2.532-1.028-.439505-.828402-.405999-1.827892.088-2.625Z" transform="translate(-5077.59-848.324)" fill="#d35e5e"/><path id="running-u-path-121" d="M5092.8,911.83c-.494266.797474-.527399,1.79756-.087,2.626.67401.664672,1.584408,1.034443,2.531,1.028c1.800402.062713,3.568254-.491174,5.011-1.57.823283-.571863,1.714872-1.038486,2.654-1.389-2.343-.147-4.789-.931-6.985-.116.471852-.342663,1.01107-.581255,1.582-.7-.893356-.298333-1.771133-.641433-2.63-1.028-.283.145-.611.249-.93.373-.451972.13622-.851718.406903-1.146.776Zm.292-1.191c.327-.185.651-.2,1.038-.4-.574968-.288471-1.096461-.672996-1.542-1.137l-.348-.34c-.5-.5-1.4-1.2-1-2.125.61465.048596,1.217414.196164,1.785.437.684528.155137,1.381063.251487,2.082.288-.912811.314502-1.887691.405715-2.843.266-.009632-.001153-.019368-.001153-.029,0h.029c.017.006.026.017.021.044c1.345397,1.618285,3.20337,2.72827,5.266,3.146c2.433176.682057,4.959625.971363,7.484.857c1.212-.081,2.438-.355,3.663-.562c1.261184-.318563,2.560947-.457932,3.861-.414.427.049,1.139.24,1.045.887s-1.156.565-1.934.442c-.376-.059-.686-.129-.789-.132-.980206.033347-1.956735.137282-2.922.311-1.007.135-2.11.093-2.971.262-.37255.124024-.7358.274404-1.087.45-2.459.983-4.378,2.917-7.312,3.265-.148.017-.3.031-.45.04-1.365501.172635-2.742807-.213977-3.819-1.072-.906451-1.174698-.860885-2.825105.109-3.948.185279-.227387.41067-.418885.665-.565Z" transform="translate(-5025.06-832.013)" fill="#6d3409"/><path id="running-u-path-122" d="M5086.45,922.945c1.283-1.54-1.414-2.854-2.932-1.819c1.399.181,2.964.194,2.932,1.819Z" transform="translate(-4996.71-843.33)" fill="#6d3409"/></g><g id="running-u-legs"><g id="running-u-leg2"><g id="running-u-bottom"><path id="running-u-path-2043" d="M0.027,4.462l.224.422c.077.142.177.291.265.436l.542.879L2.135,7.962l.535.886c.175295.308237.368284.606068.578.892l1.274,1.8L9.9,18.624l5.491,7.14l2.656,3.455L19.2,30.755l1.07,1.43l4.211,5.635c5.543,7.41,10.758,14.38,15.54,20.412c3.329,4.2,7.754.6,11.03-1.615c2.893-1.95,6.545-6.535,3.122-10-6.339-6.4-12.82-12.768-19.305-19.242l-9.186-9.218-1.973-1.994-1.967-2.015C20.428,12.79,19.1,11.4,17.782,9.972c-2.631-2.833-5.255-5.787-7.745-8.826L9.1,0.008c-.147-.194-9.67,3.33-9.073,4.454Z" transform="matrix(.999 0.035-.035 0.999 146.55 253.237)" fill="#313638"/><path id="running-u-path-2003" d="M2747.873,1512.6c.723312-.907084,1.57571-1.703217,2.53-2.363.677068-.488962,1.445685-.83654,2.26-1.022c1.205027-.242478,2.451985-.173643,3.623.2c1.6.435,5.279,2.659,4.986,3.242-.036.072-.33.542-.818,1.311-.523.747-1.246,1.792-2.135,3.016-2.225697,2.950909-4.675626,5.725801-7.328,8.3-.745.687-1.464,1.4-2.226,2.056l-2.261,1.907c-1.534,1.168-2.971,2.286-4.312,3.145-.665.436-1.262.875-1.84,1.208l-1.52.907c-.869.527-1.453.854-1.639.938-1.461.749-2.536-1.767-2.715-2.67-.044-.226.359-.692,1.01-1.3.635-.637,1.5-1.451,2.421-2.3.891-.9,1.834-1.861,2.628-2.8.68642-.805543,1.292311-1.676364,1.809-2.6.341-.752,1.347-2.866,2.345-5.161.267-.556.519-1.144.771-1.721s.522-1.127.794-1.645c.4186-.950775.962416-1.841328,1.617-2.648Z" transform="translate(-2559.02-1207.38)" fill="#454d50"/></g><path id="running-u-path-2044" d="M58.553,2.243c-2.611,1.963-5.048,3.857-7.6,5.825s-5.235,4-8.383,6.166c-1.574,1.082-3.269,2.191-5.129,3.334q-1.395.857-2.92,1.737l-.773.441-.394.222-.514.273-2.14,1.106c-2.893,1.471-6,2.937-9.336,4.463s-6.9,3.139-10.323,5.019C8.7,32.111,6.5,33.412,4.406,34.8c-1.056995.68279-2.061764,1.443219-3.006,2.275-.502357.429754-.923383.946299-1.243,1.525-.155539.30934-.194242.664414-.109,1c.11253.279394.244175.550703.394.812.548,1.066.55,8.361,6.347,4.651-.151-.194,7.976-4.97,8.838-5.42c1.75-.874,3.6-1.6,5.461-2.307c5.477-2.042,10.45-3.673,14.716-5.155l1.572-.543.762-.265.928-.34l3.762-1.421q3.66-1.41,6.923-2.789c8.7-3.685,15.408-7.344,20.387-11.434c1.714564-1.40641,2.973339-3.289874,3.617-5.412.725877-2.5422-.061742-5.275768-2.029-7.042-1.933276-2.066664-4.705763-3.135358-7.526-2.901-2.047736.210983-3.999633.974528-5.647,2.209Z" transform="matrix(-.087-.996 0.996-.087 111.393 264.143)" fill="#313638"/></g><path id="running-u-hips" d="M2841.805,1292.219c1.107,6.189,19.8,14.19,31.736,6.613c5.767-3.662,10.12-10.285,7.22-18.464-1.149872-2.962155-2.703567-5.751202-4.617-8.288-10.522,2.064-14.659,10.657-26.314,13.713-2.833493.872267-5.818661,1.139372-8.762.784.263,2.092.426,3.902.737,5.642Z" transform="translate(-2739.82-1094.99)" fill="#313638"/><g id="running-u-leg1"><g id="running-u-bottom2"><path id="running-u-path-2006" d="M2886.459,1478.985c.670094-.81265,1.434082-1.543071,2.276-2.176.588205-.461521,1.271168-.787295,2-.954c1.123893-.223982,2.287182-.144243,3.37.231c1.555.453,5.166,2.635,4.926,3.272-.749264,1.616878-1.623936,3.172629-2.616,4.653-.451812.692416-.940517,1.360046-1.464,2-.566658.724926-1.177837,1.413922-1.83,2.063l-1.033,1.028c-.354.342-.759.636-1.143.96s-.779.644-1.183.954l-1.276.849c-3.2321,2.037633-6.732444,3.614808-10.4,4.686-1.551.43-2.9.752-3.892,1.008-1,.233-1.676.331-1.878.376-1.646.3-2.049-2.366-2-3.259.025-.471,2.033-1.2,4.19-2.334.542-.276,1.1-.529,1.641-.842s1.057-.643,1.545-.959c.855851-.512638,1.626176-1.156094,2.283-1.907c1.12173-1.353346,2.151695-2.780196,3.083-4.271l.474-.738c.168269-.241219.32188-.492339.46-.752.289-.52.583-1.017.88-1.474.284-.473.529-.955.805-1.351.135-.2.272-.388.411-.559.113208-.175454.237109-.343772.371-.504Z" transform="translate(-2780.85-1194.15)" fill="#454d50"/><path id="running-u-path-20432" d="M0.03,5.011l.251.474c.086.159.2.327.3.49l.609.987L2.4,8.942l.6.995c.196884.34556.413578.679451.649,1L5.08,12.96l6.037,7.955l6.166,8.018l2.982,3.88l1.3,1.724l1.2,1.605l4.735,6.33C33.718,50.8,39.575,58.619,44.945,65.4c3.738,4.717,8.708.668,12.387-1.813c3.249-2.19,7.35-7.339,3.507-11.225-7.118-7.189-14.4-14.339-21.681-21.609L28.842,20.4l-2.216-2.239-2.209-2.263c-1.475-1.531-2.966-3.093-4.447-4.7-2.954-3.182-5.9-6.5-8.7-9.912L10.224,0.009c-.17-.218-10.864,3.739-10.194,5.002Z" transform="matrix(1 0.017-.017 1 54.878 226.11)" fill="#313638"/></g><path id="running-u-path-20442" d="M65.757,2.519c-2.932,2.2-5.669,4.331-8.538,6.542s-5.879,4.494-9.414,6.925c-1.768,1.215-3.671,2.46-5.76,3.744q-1.566.962-3.28,1.95l-.868.5-.442.249-.577.307-2.4,1.241c-3.249,1.652-6.736,3.3-10.484,5.012s-7.748,3.522-11.594,5.633c-2.638,1.44-5.1,2.9-7.457,4.461-1.186755.766863-2.314863,1.620883-3.375,2.555-.565872.483342-1.040103,1.064613-1.4,1.716-.174125.346462-.217784.744006-.123,1.12.126215.31379.273898.618511.442.912.615,1.2.618,9.39,7.128,5.223-.17-.218,8.957-5.582,9.926-6.087c1.965-.981,4.041-1.793,6.133-2.591c6.15-2.293,11.736-4.125,16.527-5.789l1.766-.609.855-.3l1.042-.381l4.225-1.6q4.11-1.584,7.775-3.132c9.775-4.138,17.3-8.247,22.895-12.841c1.928685-1.578614,3.345212-3.694355,4.07-6.079.811722-2.852281-.07224-5.917823-2.278-7.9-2.171945-2.323232-5.28752-3.524959-8.457-3.262-2.298043.237827-4.488341,1.095351-6.337,2.481Z" transform="matrix(1-.017 0.017 1 53.698 185.851)" fill="#313638"/></g></g><g id="running-u-arm1" transform="translate(.000007 0.000023)"><path id="running-u-path-989" d="M2808.352,1189.333c1.824767-2.332248,3.405694-4.845379,4.718-7.5.787-1.444,1.415-3.065,2.105-4.708.351-.82.6-1.706.913-2.575s.616-1.755.841-2.685q.373-1.378.754-2.79.3-1.434.6-2.9l.15-.732c.045-.235.114-.512.13-.695l.164-1.214c.1-.812.24-1.616.293-2.434.288992-3.215371.309396-6.449239.061-9.668-.179-1.543-.3-3.058-.6-4.523l-.194-1.093c-.022566-.369498-.132587-.728349-.321-1.047-.246435-.304177-.56707-.539746-.931-.684-.363314-.1601-.742376-.281761-1.131-.363-1.53635-.284883-3.099674-.39758-4.661-.336-1.522.031-2.993.132-4.4.265-2.82.27-5.394.638-7.693,1.012l-4.875.665-4.673.672-1.36-15.445l4.787-.072l5.425-.031c4.321-.021,8.9.023,13.5.374c2.294148.166828,4.578397.449522,6.844.847c2.257501.367823,4.464851.995666,6.578,1.871.534104.234644,1.04501.51889,1.526.849.505104.329535.932898.764493,1.254,1.275.152393.261197.258615.546712.314.844.043.3.069.6.1.9l.191,1.8c.250797,2.439319.361645,4.891002.332,7.343-.044,1.261-.133,2.515-.2,3.759-.04.623-.059,1.242-.115,1.86s-.138,1.233-.208,1.849-.136,1.223-.2,1.832-.124,1.213-.241,1.813q-.3,1.794-.6,3.568c-.084.59-.227,1.169-.357,1.747s-.259,1.151-.387,1.723l-.38,1.7c-.132.559-.3,1.076-.443,1.611l-.892,3.149q-.517,1.536-1.023,3.034c-.31,1.006-.715,1.968-1.09,2.922q-.281.716-.559,1.421c-.181.471-.359.939-.578,1.387-.832,1.807-1.583,3.576-2.479,5.193-1.536562,2.978659-3.253072,5.860993-5.14,8.631-.724537,1.169794-1.883728,2.00421-3.223,2.32-.491926.086802-.998177.038769-1.465-.139-.446455-.166066-.850742-.428648-1.184-.769-.681745-.719611-1.078719-1.662469-1.117-2.653-.04455-1.167387.36392-2.306801,1.14-3.18Z" transform="translate(-2657.79-1032.29)" fill="#ffb888"/><path id="running-u-path-990" d="M2841.76,1144.415c-.412262-.113962-.831937-.199166-1.256-.255-1.115814-.148999-2.240282-.22383-3.366-.224-3.342389.02144-6.680952.230101-10,.625l-7.509.8c-2.709.307-5.278.616-7.535.9l-8.371,1.056c-5.245.595-10.043-2.609-10.48-7.1-.428-4.416,2.258-8.985,8.741-9.721.336-.037,3.5-.242,8.082-.5c2.291-.127,4.936-.263,7.76-.383l4.348-.165l4.85-.141c3.544-.084,7.036-.1,10.231.03c2.837467.088349,5.666811.351179,8.472.787c1.888013.288647,3.749939.727711,5.568,1.313.646.218,1.141.42,1.479.559l.51.234Z" transform="translate(-2684.75-1031.75)" fill="#e4b363"/><path id="running-u-path-2014" d="M2806.264,1132.008c-1.181019-1.126951-2.604891-1.967863-4.162-2.458-1.51961-.539159-3.079022-.958769-4.664-1.255l-11.716,16.9c.799779.06153,1.594551.176453,2.379.344.796895.123037,1.542475.469818,2.15,1Z" transform="translate(-2633.55-1031.33)" fill="#bf9247"/><path id="running-u-path-2015" d="M2842.286,1236.177c-4.857,1.439-9.879,2.111-11.011,3.2s-1.443,3.131-1.682,4.75c-.179,1.207-1.115,4.229-.718,6.029.366,1.658,3.444,1.566,6.088,4.065c2.107,1.992,3.885-.37,2.775-2.766-.850385-1.547058-2.29498-2.680343-4-3.138.387016-.612207.725388-1.253844,1.012-1.919c1.11.162,6.247,1.745,9.581-.624c6.46-4.586,3.438-11.223-2.045-9.597Z" transform="translate(-2699.27-1078.98)" fill="#eda87a"/><path id="running-u-path-2016" d="M2816.782,1251.325c-2.5,2.753,1.262,7.609,4.432,4.09-2.806,3.208,1.135,7.011,3.782,4.435-1.422,2.542,2.4,4.966,4.528,2.326-1.027,2.48,2.213,4.354,4.429,2.224c3.028-2.912,6.4-6.043,8.021-8.379c2.607-3.766,3.474-15.627,2.579-17.931-2.244-5.771-13.411-2.838-16.545-.707-3.775,2.565-3.365,5.272-11.226,13.942Z" transform="translate(-2689.04-1078.45)" fill="#ffb888"/></g>
<script><![CDATA[
!function(t,n){"object"==typeof exports&&"undefined"!=typeof module?module.exports=n():"function"==typeof __SVGATOR_DEFINE__&&__SVGATOR_DEFINE__.amd?__SVGATOR_DEFINE__(n):((t="undefined"!=typeof globalThis?globalThis:t||self).__SVGATOR_PLAYER__=t.__SVGATOR_PLAYER__||{},t.__SVGATOR_PLAYER__["5c7f360c"]=n())}(this,(function(){"use strict";function t(t,n){var e=Object.keys(t);if(Object.getOwnPropertySymbols){var r=Object.getOwnPropertySymbols(t);n&&(r=r.filter((function(n){return Object.getOwnPropertyDescriptor(t,n).enumerable}))),e.push.apply(e,r)}return e}function n(n){for(var e=1;e<arguments.length;e++){var r=null!=arguments[e]?arguments[e]:{};e%2?t(Object(r),!0).forEach((function(t){o(n,t,r[t])})):Object.getOwnPropertyDescriptors?Object.defineProperties(n,Object.getOwnPropertyDescriptors(r)):t(Object(r)).forEach((function(t){Object.defineProperty(n,t,Object.getOwnPropertyDescriptor(r,t))}))}return n}function e(t){return(e="function"==typeof Symbol&&"symbol"==typeof Symbol.iterator?function(t){return typeof t}:function(t){return t&&"function"==typeof Symbol&&t.constructor===Symbol&&t!==Symbol.prototype?"symbol":typeof t})(t)}function r(t,n){if(!(t instanceof n))throw new TypeError("Cannot call a class as a function")}function i(t,n){for(var e=0;e<n.length;e++){var r=n[e];r.enumerable=r.enumerable||!1,r.configurable=!0,"value"in r&&(r.writable=!0),Object.defineProperty(t,r.key,r)}}function u(t,n,e){return n&&i(t.prototype,n),e&&i(t,e),t}function o(t,n,e){return n in t?Object.defineProperty(t,n,{value:e,enumerable:!0,configurable:!0,writable:!0}):t[n]=e,t}function a(t){return(a=Object.setPrototypeOf?Object.getPrototypeOf:function(t){return t.__proto__||Object.getPrototypeOf(t)})(t)}function l(t,n){return(l=Object.setPrototypeOf||function(t,n){return t.__proto__=n,t})(t,n)}function s(){if("undefined"==typeof Reflect||!Reflect.construct)return!1;if(Reflect.construct.sham)return!1;if("function"==typeof Proxy)return!0;try{return Boolean.prototype.valueOf.call(Reflect.construct(Boolean,[],(function(){}))),!0}catch(t){return!1}}function f(t,n,e){return(f=s()?Reflect.construct:function(t,n,e){var r=[null];r.push.apply(r,n);var i=new(Function.bind.apply(t,r));return e&&l(i,e.prototype),i}).apply(null,arguments)}function c(t,n){if(n&&("object"==typeof n||"function"==typeof n))return n;if(void 0!==n)throw new TypeError("Derived constructors may only return object or undefined");return function(t){if(void 0===t)throw new ReferenceError("this hasn't been initialised - super() hasn't been called");return t}(t)}function h(t,n,e){return(h="undefined"!=typeof Reflect&&Reflect.get?Reflect.get:function(t,n,e){var r=function(t,n){for(;!Object.prototype.hasOwnProperty.call(t,n)&&null!==(t=a(t)););return t}(t,n);if(r){var i=Object.getOwnPropertyDescriptor(r,n);return i.get?i.get.call(e):i.value}})(t,n,e||t)}function v(t){return function(t){if(Array.isArray(t))return y(t)}(t)||function(t){if("undefined"!=typeof Symbol&&null!=t[Symbol.iterator]||null!=t["@@iterator"])return Array.from(t)}(t)||function(t,n){if(!t)return;if("string"==typeof t)return y(t,n);var e=Object.prototype.toString.call(t).slice(8,-1);"Object"===e&&t.constructor&&(e=t.constructor.name);if("Map"===e||"Set"===e)return Array.from(t);if("Arguments"===e||/^(?:Ui|I)nt(?:8|16|32)(?:Clamped)?Array$/.test(e))return y(t,n)}(t)||function(){throw new TypeError("Invalid attempt to spread non-iterable instance.\nIn order to be iterable, non-array objects must have a [Symbol.iterator]() method.")}()}function y(t,n){(null==n||n>t.length)&&(n=t.length);for(var e=0,r=new Array(n);e<n;e++)r[e]=t[e];return r}Number.isInteger||(Number.isInteger=function(t){return"number"==typeof t&&isFinite(t)&&Math.floor(t)===t}),Number.EPSILON||(Number.EPSILON=2220446049250313e-31);var g=p(Math.pow(10,-6));function p(t){var n=arguments.length>1&&void 0!==arguments[1]?arguments[1]:6;if(Number.isInteger(t))return t;var e=Math.pow(10,n);return Math.round((+t+Number.EPSILON)*e)/e}function d(t,n){var e=arguments.length>2&&void 0!==arguments[2]?arguments[2]:g;return Math.abs(t-n)<e}var m=Math.PI/180;function b(t){return t}function w(t,n,e){var r=1-e;return 3*e*r*(t*r+n*e)+e*e*e}function A(){var t=arguments.length>0&&void 0!==arguments[0]?arguments[0]:0,n=arguments.length>1&&void 0!==arguments[1]?arguments[1]:0,e=arguments.length>2&&void 0!==arguments[2]?arguments[2]:1,r=arguments.length>3&&void 0!==arguments[3]?arguments[3]:1;return t<0||t>1||e<0||e>1?null:d(t,n)&&d(e,r)?b:function(i){if(i<=0)return t>0?i*n/t:0===n&&e>0?i*r/e:0;if(i>=1)return e<1?1+(i-1)*(r-1)/(e-1):1===e&&t<1?1+(i-1)*(n-1)/(t-1):1;for(var u,o=0,a=1;o<a;){var l=w(t,e,u=(o+a)/2);if(d(i,l))break;l<i?o=u:a=u}return w(n,r,u)}}function _(){return 1}function x(t){return 1===t?1:0}function k(){var t=arguments.length>0&&void 0!==arguments[0]?arguments[0]:1,n=arguments.length>1&&void 0!==arguments[1]?arguments[1]:0;if(1===t){if(0===n)return x;if(1===n)return _}var e=1/t;return function(t){return t>=1?1:(t+=n*e)-t%e}}var S=Math.sin,O=Math.cos,j=Math.acos,E=Math.asin,M=Math.tan,P=Math.atan2,I=Math.PI/180,R=180/Math.PI,F=Math.sqrt,N=function(){function t(){var n=arguments.length>0&&void 0!==arguments[0]?arguments[0]:1,e=arguments.length>1&&void 0!==arguments[1]?arguments[1]:0,i=arguments.length>2&&void 0!==arguments[2]?arguments[2]:0,u=arguments.length>3&&void 0!==arguments[3]?arguments[3]:1,o=arguments.length>4&&void 0!==arguments[4]?arguments[4]:0,a=arguments.length>5&&void 0!==arguments[5]?arguments[5]:0;r(this,t),this.m=[n,e,i,u,o,a],this.i=null,this.w=null,this.s=null}return u(t,[{key:"determinant",get:function(){var t=this.m;return t[0]*t[3]-t[1]*t[2]}},{key:"isIdentity",get:function(){if(null===this.i){var t=this.m;this.i=1===t[0]&&0===t[1]&&0===t[2]&&1===t[3]&&0===t[4]&&0===t[5]}return this.i}},{key:"point",value:function(t,n){var e=this.m;return{x:e[0]*t+e[2]*n+e[4],y:e[1]*t+e[3]*n+e[5]}}},{key:"translateSelf",value:function(){var t=arguments.length>0&&void 0!==arguments[0]?arguments[0]:0,n=arguments.length>1&&void 0!==arguments[1]?arguments[1]:0;if(!t&&!n)return this;var e=this.m;return e[4]+=e[0]*t+e[2]*n,e[5]+=e[1]*t+e[3]*n,this.w=this.s=this.i=null,this}},{key:"rotateSelf",value:function(){var t=arguments.length>0&&void 0!==arguments[0]?arguments[0]:0;if(t%=360){var n=S(t*=I),e=O(t),r=this.m,i=r[0],u=r[1];r[0]=i*e+r[2]*n,r[1]=u*e+r[3]*n,r[2]=r[2]*e-i*n,r[3]=r[3]*e-u*n,this.w=this.s=this.i=null}return this}},{key:"scaleSelf",value:function(){var t=arguments.length>0&&void 0!==arguments[0]?arguments[0]:1,n=arguments.length>1&&void 0!==arguments[1]?arguments[1]:1;if(1!==t||1!==n){var e=this.m;e[0]*=t,e[1]*=t,e[2]*=n,e[3]*=n,this.w=this.s=this.i=null}return this}},{key:"skewSelf",value:function(t,n){if(n%=360,(t%=360)||n){var e=this.m,r=e[0],i=e[1],u=e[2],o=e[3];t&&(t=M(t*I),e[2]+=r*t,e[3]+=i*t),n&&(n=M(n*I),e[0]+=u*n,e[1]+=o*n),this.w=this.s=this.i=null}return this}},{key:"resetSelf",value:function(){var t=arguments.length>0&&void 0!==arguments[0]?arguments[0]:1,n=arguments.length>1&&void 0!==arguments[1]?arguments[1]:0,e=arguments.length>2&&void 0!==arguments[2]?arguments[2]:0,r=arguments.length>3&&void 0!==arguments[3]?arguments[3]:1,i=arguments.length>4&&void 0!==arguments[4]?arguments[4]:0,u=arguments.length>5&&void 0!==arguments[5]?arguments[5]:0,o=this.m;return o[0]=t,o[1]=n,o[2]=e,o[3]=r,o[4]=i,o[5]=u,this.w=this.s=this.i=null,this}},{key:"recomposeSelf",value:function(){var t=arguments.length>0&&void 0!==arguments[0]?arguments[0]:null,n=arguments.length>1&&void 0!==arguments[1]?arguments[1]:null,e=arguments.length>2&&void 0!==arguments[2]?arguments[2]:null,r=arguments.length>3&&void 0!==arguments[3]?arguments[3]:null,i=arguments.length>4&&void 0!==arguments[4]?arguments[4]:null;return this.isIdentity||this.resetSelf(),t&&(t.x||t.y)&&this.translateSelf(t.x,t.y),n&&this.rotateSelf(n),e&&(e.x&&this.skewSelf(e.x,0),e.y&&this.skewSelf(0,e.y)),!r||1===r.x&&1===r.y||this.scaleSelf(r.x,r.y),i&&(i.x||i.y)&&this.translateSelf(i.x,i.y),this}},{key:"decompose",value:function(){var t=arguments.length>0&&void 0!==arguments[0]?arguments[0]:0,n=arguments.length>1&&void 0!==arguments[1]?arguments[1]:0,e=this.m,r=e[0]*e[0]+e[1]*e[1],i=[[e[0],e[1]],[e[2],e[3]]],u=F(r);if(0===u)return{origin:{x:p(e[4]),y:p(e[5])},translate:{x:p(t),y:p(n)},scale:{x:0,y:0},skew:{x:0,y:0},rotate:0};i[0][0]/=u,i[0][1]/=u;var o=e[0]*e[3]-e[1]*e[2]<0;o&&(u=-u);var a=i[0][0]*i[1][0]+i[0][1]*i[1][1];i[1][0]-=i[0][0]*a,i[1][1]-=i[0][1]*a;var l=F(i[1][0]*i[1][0]+i[1][1]*i[1][1]);if(0===l)return{origin:{x:p(e[4]),y:p(e[5])},translate:{x:p(t),y:p(n)},scale:{x:p(u),y:0},skew:{x:0,y:0},rotate:0};i[1][0]/=l,i[1][1]/=l,a/=l;var s=0;return i[1][1]<0?(s=j(i[1][1])*R,i[0][1]<0&&(s=360-s)):s=E(i[0][1])*R,o&&(s=-s),a=P(a,F(i[0][0]*i[0][0]+i[0][1]*i[0][1]))*R,o&&(a=-a),{origin:{x:p(e[4]),y:p(e[5])},translate:{x:p(t),y:p(n)},scale:{x:p(u),y:p(l)},skew:{x:p(a),y:0},rotate:p(s)}}},{key:"clone",value:function(){var t=this.m;return new this.constructor(t[0],t[1],t[2],t[3],t[4],t[5])}},{key:"toString",value:function(){var t=arguments.length>0&&void 0!==arguments[0]?arguments[0]:" ";if(null===this.s){var n=this.m.map((function(t){return p(t)}));1===n[0]&&0===n[1]&&0===n[2]&&1===n[3]?this.s="translate("+n[4]+t+n[5]+")":this.s="matrix("+n.join(t)+")"}return this.s}}],[{key:"create",value:function(t){return t?Array.isArray(t)?f(this,v(t)):t instanceof this?t.clone():(new this).recomposeSelf(t.origin,t.rotate,t.skew,t.scale,t.translate):new this}}]),t}();function T(t,n,e){return t>=.5?e:n}function q(t,n,e){return 0===t||n===e?n:t*(e-n)+n}function B(t,n,e){var r=q(t,n,e);return r<=0?0:r}function D(t,n,e){var r=q(t,n,e);return r<=0?0:r>=1?1:r}function L(t,n,e){return 0===t?n:1===t?e:{x:q(t,n.x,e.x),y:q(t,n.y,e.y)}}function C(t,n,e){var r=function(t,n,e){return Math.round(q(t,n,e))}(t,n,e);return r<=0?0:r>=255?255:r}function V(t,n,e){return 0===t?n:1===t?e:{r:C(t,n.r,e.r),g:C(t,n.g,e.g),b:C(t,n.b,e.b),a:q(t,null==n.a?1:n.a,null==e.a?1:e.a)}}function G(t,n){for(var e=[],r=0;r<t;r++)e.push(n);return e}function z(t,n){if(--n<=0)return t;var e=(t=Object.assign([],t)).length;do{for(var r=0;r<e;r++)t.push(t[r])}while(--n>0);return t}var Y,$=function(){function t(n){r(this,t),this.list=n,this.length=n.length}return u(t,[{key:"setAttribute",value:function(t,n){for(var e=this.list,r=0;r<this.length;r++)e[r].setAttribute(t,n)}},{key:"removeAttribute",value:function(t){for(var n=this.list,e=0;e<this.length;e++)n[e].removeAttribute(t)}},{key:"style",value:function(t,n){for(var e=this.list,r=0;r<this.length;r++)e[r].style[t]=n}}]),t}(),U=/-./g,Q=function(t,n){return n.toUpperCase()};function H(t){return"function"==typeof t?t:T}function J(t){return t?"function"==typeof t?t:Array.isArray(t)?function(t){var n=arguments.length>1&&void 0!==arguments[1]?arguments[1]:b;if(!Array.isArray(t))return n;switch(t.length){case 1:return k(t[0])||n;case 2:return k(t[0],t[1])||n;case 4:return A(t[0],t[1],t[2],t[3])||n}return n}(t,null):function(t,n){var e=arguments.length>2&&void 0!==arguments[2]?arguments[2]:b;switch(t){case"linear":return b;case"steps":return k(n.steps||1,n.jump||0)||e;case"bezier":case"cubic-bezier":return A(n.x1||0,n.y1||0,n.x2||0,n.y2||0)||e}return e}(t.type,t.value,null):null}function Z(t,n,e){var r=arguments.length>3&&void 0!==arguments[3]&&arguments[3],i=n.length-1;if(t<=n[0].t)return r?[0,0,n[0].v]:n[0].v;if(t>=n[i].t)return r?[i,1,n[i].v]:n[i].v;var u,o=n[0],a=null;for(u=1;u<=i;u++){if(!(t>n[u].t)){a=n[u];break}o=n[u]}return null==a?r?[i,1,n[i].v]:n[i].v:o.t===a.t?r?[u,1,a.v]:a.v:(t=(t-o.t)/(a.t-o.t),o.e&&(t=o.e(t)),r?[u,t,e(t,o.v,a.v)]:e(t,o.v,a.v))}function K(t,n){var e=arguments.length>2&&void 0!==arguments[2]?arguments[2]:null;return t&&t.length?"function"!=typeof n?null:("function"!=typeof e&&(e=null),function(r){var i=Z(r,t,n);return null!=i&&e&&(i=e(i)),i}):null}function W(t,n){return t.t-n.t}function X(t,n,r,i,u){var o,a="@"===r[0],l="#"===r[0],s=Y[r],f=T;switch(a?(o=r.substr(1),r=o.replace(U,Q)):l&&(r=r.substr(1)),e(s)){case"function":if(f=s(i,u,Z,J,r,a,n,t),l)return f;break;case"string":f=K(i,H(s));break;case"object":if((f=K(i,H(s.i),s.f))&&"function"==typeof s.u)return s.u(n,f,r,a,t)}return f?function(t,n,e){if(arguments.length>3&&void 0!==arguments[3]&&arguments[3])return t instanceof $?function(r){return t.style(n,e(r))}:function(r){return t.style[n]=e(r)};if(Array.isArray(n)){var r=n.length;return function(i){var u=e(i);if(null==u)for(var o=0;o<r;o++)t[o].removeAttribute(n);else for(var a=0;a<r;a++)t[a].setAttribute(n,u)}}return function(r){var i=e(r);null==i?t.removeAttribute(n):t.setAttribute(n,i)}}(n,r,f,a):null}function tt(t,n,r,i){if(!i||"object"!==e(i))return null;var u=null,o=null;return Array.isArray(i)?o=function(t){if(!t||!t.length)return null;for(var n=0;n<t.length;n++)t[n].e&&(t[n].e=J(t[n].e));return t.sort(W)}(i):(o=i.keys,u=i.data||null),o?X(t,n,r,o,u):null}function nt(t,n,e){if(!e)return null;var r=[];for(var i in e)if(e.hasOwnProperty(i)){var u=tt(t,n,i,e[i]);u&&r.push(u)}return r.length?r:null}function et(t,n){if(!n.settings.duration||n.settings.duration<0)return null;var e,r,i,u,o,a=function(t,n){if(!n)return null;var e=[];if(Array.isArray(n))for(var r=n.length,i=0;i<r;i++){var u=n[i];if(2===u.length){var o=null;if("string"==typeof u[0])o=t.getElementById(u[0]);else if(Array.isArray(u[0])){o=[];for(var a=0;a<u[0].length;a++)if("string"==typeof u[0][a]){var l=t.getElementById(u[0][a]);l&&o.push(l)}o=o.length?1===o.length?o[0]:new $(o):null}if(o){var s=nt(t,o,u[1]);s&&(e=e.concat(s))}}}else for(var f in n)if(n.hasOwnProperty(f)){var c=t.getElementById(f);if(c){var h=nt(t,c,n[f]);h&&(e=e.concat(h))}}return e.length?e:null}(t,n.elements);return a?(e=a,r=n.settings,i=r.duration,u=e.length,o=null,function(t,n){var a=r.iterations||1/0,l=(r.alternate&&a%2==0)^r.direction>0?i:0,s=t%i,f=1+(t-s)/i;n*=r.direction,r.alternate&&f%2==0&&(n=-n);var c=!1;if(f>a)s=l,c=!0,-1===r.fill&&(s=r.direction>0?0:i);else if(n<0&&(s=i-s),s===o)return!1;o=s;for(var h=0;h<u;h++)e[h](s);return c}):null}function rt(t,n){if(Y=n,!t||!t.root||!Array.isArray(t.animations))return null;var e=function(t){for(var n=document.getElementsByTagName("svg"),e=0;e<n.length;e++)if(n[e].id===t.root&&!n[e].svgatorAnimation)return n[e].svgatorAnimation=!0,n[e];return null}(t);if(!e)return null;var r=t.animations.map((function(t){return et(e,t)})).filter((function(t){return!!t}));return r.length?{svg:e,animations:r,animationSettings:t.animationSettings,options:t.options||void 0}:null}function it(t){return+("0x"+(t.replace(/[^0-9a-fA-F]+/g,"")||27))}function ut(t,n,e){return!t||!e||n>t.length?t:t.substring(0,n)+ut(t.substring(n+1),e,e)}function ot(t){var n=arguments.length>1&&void 0!==arguments[1]?arguments[1]:27;return!t||t%n?t%n:ot(t/n,n)}function at(t,n,e){if(t&&t.length){var r=it(e),i=it(n),u=ot(r)+5,o=ut(t,ot(r,5),u);return o=o.replace(/\x7c$/g,"==").replace(/\x2f$/g,"="),o=function(t,n,e){var r=+("0x"+t.substring(0,4));t=t.substring(4);for(var i=n%r+e%27,u=[],o=0;o<t.length;o+=2)if("|"!==t[o]){var a=+("0x"+t[o]+t[o+1])-i;u.push(a)}else{var l=+("0x"+t.substring(o+1,o+1+4))-i;o+=3,u.push(l)}return String.fromCharCode.apply(String,u)}(o=(o=atob(o)).replace(/[\x41-\x5A]/g,""),i,r),o=JSON.parse(o)}}var lt=[{key:"alternate",def:!1},{key:"fill",def:1},{key:"iterations",def:0},{key:"direction",def:1},{key:"speed",def:1},{key:"fps",def:100}],st=function(){function t(n,e){var i=this,u=arguments.length>2&&void 0!==arguments[2]?arguments[2]:null;r(this,t),this._id=0,this._running=!1,this._rollingBack=!1,this._animations=n,this._settings=e,(!u||u<"2022-05-02")&&delete this._settings.speed,lt.forEach((function(t){i._settings[t.key]=i._settings[t.key]||t.def})),this.duration=e.duration,this.offset=e.offset||0,this.rollbackStartOffset=0}return u(t,[{key:"alternate",get:function(){return this._settings.alternate}},{key:"fill",get:function(){return this._settings.fill}},{key:"iterations",get:function(){return this._settings.iterations}},{key:"direction",get:function(){return this._settings.direction}},{key:"speed",get:function(){return this._settings.speed}},{key:"fps",get:function(){return this._settings.fps}},{key:"maxFiniteDuration",get:function(){return this.iterations>0?this.iterations*this.duration:this.duration}},{key:"_apply",value:function(t){for(var n=arguments.length>1&&void 0!==arguments[1]?arguments[1]:{},e=this._animations,r=e.length,i=0,u=0;u<r;u++)n[u]?i++:(n[u]=e[u](t,1),n[u]&&i++);return i}},{key:"_rollback",value:function(t){var n=this,e=1/0,r=null;this.rollbackStartOffset=t,this._rollingBack=!0,this._running=!0;this._id=window.requestAnimationFrame((function i(u){if(n._rollingBack){null==r&&(r=u);var o=Math.round(t-(u-r)*n.speed);if(o>n.duration&&e!==1/0){var a=!!n.alternate&&o/n.duration%2>1,l=o%n.duration;o=(l+=a?n.duration:0)||n.duration}var s=(n.fps?1e3/n.fps:0)*n.speed,f=Math.max(0,o);f<=e-s&&(n.offset=f,e=f,n._apply(f));var c=n.iterations>0&&-1===n.fill&&o>=n.maxFiniteDuration;(o<=0||n.offset<o||c)&&n.stop(),n._id=window.requestAnimationFrame(i)}}))}},{key:"_start",value:function(){var t=this,n=arguments.length>0&&void 0!==arguments[0]?arguments[0]:0,e=-1/0,r=null,i={};this._running=!0;var u=function u(o){null==r&&(r=o);var a=Math.round((o-r)*t.speed+n),l=(t.fps?1e3/t.fps:0)*t.speed;if(a>=e+l&&!t._rollingBack&&(t.offset=a,e=a,t._apply(a,i)===t._animations.length))return void t.pause(!0);t._id=window.requestAnimationFrame(u)};this._id=window.requestAnimationFrame(u)}},{key:"_pause",value:function(){this._id&&window.cancelAnimationFrame(this._id),this._running=!1}},{key:"play",value:function(){if(!this._running)return this._rollingBack?this._rollback(this.offset):this._start(this.offset)}},{key:"stop",value:function(){this._pause(),this.offset=0,this.rollbackStartOffset=0,this._rollingBack=!1,this._apply(0)}},{key:"reachedToEnd",value:function(){return this.iterations>0&&this.offset>=this.iterations*this.duration}},{key:"restart",value:function(){var t=arguments.length>0&&void 0!==arguments[0]&&arguments[0];this.stop(t),this.play(t)}},{key:"pause",value:function(){this._pause()}},{key:"reverse",value:function(){this.direction=-this.direction}}],[{key:"build",value:function(t,n){delete t.animationSettings,t.options=at(t.options,t.root,"5c7f360c"),t.animations.map((function(n){n.settings=at(n.s,t.root,"5c7f360c"),delete n.s,t.animationSettings||(t.animationSettings=n.settings)}));var e=t.version;if(!(t=rt(t,n)))return null;var r=t.options||{},i=new this(t.animations,t.animationSettings,e);return{el:t.svg,options:r,player:i}}},{key:"push",value:function(t){return this.build(t)}},{key:"init",value:function(){var t=this,n=window.__SVGATOR_PLAYER__&&window.__SVGATOR_PLAYER__["5c7f360c"];Array.isArray(n)&&n.splice(0).forEach((function(n){return t.build(n)}))}}]),t}();function ft(t){return p(t)+""}function ct(t){var n=arguments.length>1&&void 0!==arguments[1]?arguments[1]:" ";return t&&t.length?t.map(ft).join(n):""}function ht(t){if(!t)return"transparent";if(null==t.a||t.a>=1){var n=function(t){return 1===(t=parseInt(t).toString(16)).length?"0"+t:t},e=function(t){return t.charAt(0)===t.charAt(1)},r=n(t.r),i=n(t.g),u=n(t.b);return e(r)&&e(i)&&e(u)&&(r=r.charAt(0),i=i.charAt(0),u=u.charAt(0)),"#"+r+i+u}return"rgba("+t.r+","+t.g+","+t.b+","+t.a+")"}function vt(t){return t?"url(#"+t+")":"none"}!function(){for(var t=0,n=["ms","moz","webkit","o"],e=0;e<n.length&&!window.requestAnimationFrame;++e)window.requestAnimationFrame=window[n[e]+"RequestAnimationFrame"],window.cancelAnimationFrame=window[n[e]+"CancelAnimationFrame"]||window[n[e]+"CancelRequestAnimationFrame"];window.requestAnimationFrame||(window.requestAnimationFrame=function(n){var e=Date.now(),r=Math.max(0,16-(e-t)),i=window.setTimeout((function(){n(e+r)}),r);return t=e+r,i},window.cancelAnimationFrame=window.clearTimeout)}();var yt={f:null,i:function(t,n,e){return 0===t?n:1===t?e:{x:B(t,n.x,e.x),y:B(t,n.y,e.y)}},u:function(t,n){return function(e){var r=n(e);t.setAttribute("rx",ft(r.x)),t.setAttribute("ry",ft(r.y))}}},gt={f:null,i:function(t,n,e){return 0===t?n:1===t?e:{width:B(t,n.width,e.width),height:B(t,n.height,e.height)}},u:function(t,n){return function(e){var r=n(e);t.setAttribute("width",ft(r.width)),t.setAttribute("height",ft(r.height))}}};Object.freeze({M:2,L:2,Z:0,H:1,V:1,C:6,Q:4,T:2,S:4,A:7});var pt={},dt=null;function mt(t){var n=function(){if(dt)return dt;if("object"!==("undefined"==typeof document?"undefined":e(document))||!document.createElementNS)return{};var t=document.createElementNS("http://www.w3.org/2000/svg","svg");return t&&t.style?(t.style.position="absolute",t.style.opacity="0.01",t.style.zIndex="-9999",t.style.left="-9999px",t.style.width="1px",t.style.height="1px",dt={svg:t}):{}}().svg;if(!n)return function(t){return null};var r=document.createElementNS(n.namespaceURI,"path");r.setAttributeNS(null,"d",t),r.setAttributeNS(null,"fill","none"),r.setAttributeNS(null,"stroke","none"),n.appendChild(r);var i=r.getTotalLength();return function(t){var n=r.getPointAtLength(i*t);return{x:n.x,y:n.y}}}function bt(t){return pt[t]?pt[t]:pt[t]=mt(t)}function wt(t,n,e,r){if(!t||!r)return!1;var i=["M",t.x,t.y];if(n&&e&&(i.push("C"),i.push(n.x),i.push(n.y),i.push(e.x),i.push(e.y)),n?!e:e){var u=n||e;i.push("Q"),i.push(u.x),i.push(u.y)}return n||e||i.push("L"),i.push(r.x),i.push(r.y),i.join(" ")}function At(t,n,e,r){var i=arguments.length>4&&void 0!==arguments[4]?arguments[4]:1,u=wt(t,n,e,r),o=bt(u);try{return o(i)}catch(t){return null}}function _t(t,n,e){return t+(n-t)*e}function xt(t,n,e){var r=arguments.length>3&&void 0!==arguments[3]&&arguments[3],i={x:_t(t.x,n.x,e),y:_t(t.y,n.y,e)};return r&&(i.a=kt(t,n)),i}function kt(t,n){return Math.atan2(n.y-t.y,n.x-t.x)}function St(t,n,e,r){var i=1-r;return i*i*t+2*i*r*n+r*r*e}function Ot(t,n,e,r){return 2*(1-r)*(n-t)+2*r*(e-n)}function jt(t,n,e,r){var i=arguments.length>4&&void 0!==arguments[4]&&arguments[4],u=At(t,n,null,e,r);return u||(u={x:St(t.x,n.x,e.x,r),y:St(t.y,n.y,e.y,r)}),i&&(u.a=Et(t,n,e,r)),u}function Et(t,n,e,r){return Math.atan2(Ot(t.y,n.y,e.y,r),Ot(t.x,n.x,e.x,r))}function Mt(t,n,e,r,i){var u=i*i;return i*u*(r-t+3*(n-e))+3*u*(t+e-2*n)+3*i*(n-t)+t}function Pt(t,n,e,r,i){var u=1-i;return 3*(u*u*(n-t)+2*u*i*(e-n)+i*i*(r-e))}function It(t,n,e,r,i){var u=arguments.length>5&&void 0!==arguments[5]&&arguments[5],o=At(t,n,e,r,i);return o||(o={x:Mt(t.x,n.x,e.x,r.x,i),y:Mt(t.y,n.y,e.y,r.y,i)}),u&&(o.a=Rt(t,n,e,r,i)),o}function Rt(t,n,e,r,i){return Math.atan2(Pt(t.y,n.y,e.y,r.y,i),Pt(t.x,n.x,e.x,r.x,i))}function Ft(t,n,e){var r=arguments.length>3&&void 0!==arguments[3]&&arguments[3];if(Tt(n)){if(qt(e))return jt(n,e.start,e,t,r)}else if(Tt(e)){if(Bt(n))return jt(n,n.end,e,t,r)}else{if(Bt(n))return qt(e)?It(n,n.end,e.start,e,t,r):jt(n,n.end,e,t,r);if(qt(e))return jt(n,e.start,e,t,r)}return xt(n,e,t,r)}function Nt(t,n,e){var r=Ft(t,n,e,!0);return r.a=function(t){return arguments.length>1&&void 0!==arguments[1]&&arguments[1]?t+Math.PI:t}(r.a)/m,r}function Tt(t){return!t.type||"corner"===t.type}function qt(t){return null!=t.start&&!Tt(t)}function Bt(t){return null!=t.end&&!Tt(t)}var Dt=new N;var Lt={f:ft,i:q},Ct={f:ft,i:D};function Vt(t,n,e){return t.map((function(t){return function(t,n,e){var r=t.v;if(!r||"g"!==r.t||r.s||!r.v||!r.r)return t;var i=e.getElementById(r.r),u=i&&i.querySelectorAll("stop")||[];return r.s=r.v.map((function(t,n){var e=u[n]&&u[n].getAttribute("offset");return{c:t,o:e=p(parseInt(e)/100)}})),delete r.v,t}(t,0,e)}))}var Gt={gt:"gradientTransform",c:{x:"cx",y:"cy"},rd:"r",f:{x:"x1",y:"y1"},to:{x:"x2",y:"y2"}};function zt(t,n,r,i,u,o,a,l){return Vt(t,0,l),n=function(t,n,e){for(var r,i,u,o=t.length-1,a={},l=0;l<=o;l++)(r=t[l]).e&&(r.e=n(r.e)),r.v&&"g"===(i=r.v).t&&i.r&&(u=e.getElementById(i.r))&&(a[i.r]={e:u,s:u.querySelectorAll("stop")});return a}(t,i,l),function(i){var u=r(i,t,Yt);if(!u)return"none";if("c"===u.t)return ht(u.v);if("g"===u.t){if(!n[u.r])return vt(u.r);var o=n[u.r];return function(t,n){for(var e=t.s,r=e.length;r<n.length;r++){var i=e[e.length-1].cloneNode();i.id=Qt(i.id),t.e.appendChild(i),e=t.s=t.e.querySelectorAll("stop")}for(var u=0,o=e.length,a=n.length-1;u<o;u++)e[u].setAttribute("stop-color",ht(n[Math.min(u,a)].c)),e[u].setAttribute("offset",n[Math.min(u,a)].o)}(o,u.s),Object.keys(Gt).forEach((function(t){if(void 0!==u[t])if("object"!==e(Gt[t])){var n,r="gt"===t?(n=u[t],Array.isArray(n)?"matrix("+n.join(" ")+")":""):u[t],i=Gt[t];o.e.setAttribute(i,r)}else Object.keys(Gt[t]).forEach((function(n){if(void 0!==u[t][n]){var e=u[t][n],r=Gt[t][n];o.e.setAttribute(r,e)}}))})),vt(u.r)}return"none"}}function Yt(t,e,r){if(0===t)return e;if(1===t)return r;if(e&&r){var i=e.t;if(i===r.t)switch(e.t){case"c":return{t:i,v:V(t,e.v,r.v)};case"g":if(e.r===r.r){var u={t:i,s:$t(t,e.s,r.s),r:e.r};return e.gt&&r.gt&&(u.gt=function(t,n,e){var r=n.length;if(r!==e.length)return T(t,n,e);for(var i=new Array(r),u=0;u<r;u++)i[u]=q(t,n[u],e[u]);return i}(t,e.gt,r.gt)),e.c?(u.c=L(t,e.c,r.c),u.rd=B(t,e.rd,r.rd)):e.f&&(u.f=L(t,e.f,r.f),u.to=L(t,e.to,r.to)),u}}if("c"===e.t&&"g"===r.t||"c"===r.t&&"g"===e.t){var o="c"===e.t?e:r,a="g"===e.t?n({},e):n({},r),l=a.s.map((function(t){return{c:o.v,o:t.o}}));return a.s="c"===e.t?$t(t,l,a.s):$t(t,a.s,l),a}}return T(t,e,r)}function $t(t,n,e){if(n.length===e.length)return n.map((function(n,r){return Ut(t,n,e[r])}));for(var r=Math.max(n.length,e.length),i=[],u=0;u<r;u++){var o=Ut(t,n[Math.min(u,n.length-1)],e[Math.min(u,e.length-1)]);i.push(o)}return i}function Ut(t,n,e){return{o:D(t,n.o,e.o||0),c:V(t,n.c,e.c||{})}}function Qt(t){return t.replace(/-fill-([0-9]+)$/,(function(t,n){return"-fill-"+(+n+1)}))}var Ht={fill:zt,"fill-opacity":Ct,stroke:zt,"stroke-opacity":Ct,"stroke-width":Lt,"stroke-dashoffset":{f:ft,i:q},"stroke-dasharray":{f:function(t){var n=arguments.length>1&&void 0!==arguments[1]?arguments[1]:" ";return t&&t.length>0&&(t=t.map((function(t){return p(t,4)}))),ct(t,n)},i:function(t,n,e){var r,i,u,o=n.length,a=e.length;if(o!==a)if(0===o)n=G(o=a,0);else if(0===a)a=o,e=G(o,0);else{var l=(u=(r=o)*(i=a)/function(t,n){for(var e;n;)e=n,n=t%n,t=e;return t||1}(r,i))<0?-u:u;n=z(n,Math.floor(l/o)),e=z(e,Math.floor(l/a)),o=a=l}for(var s=[],f=0;f<o;f++)s.push(p(B(t,n[f],e[f])));return s}},opacity:Ct,transform:function(t,n,r,i){if(!(t=function(t,n){if(!t||"object"!==e(t))return null;var r=!1;for(var i in t)t.hasOwnProperty(i)&&(t[i]&&t[i].length?(t[i].forEach((function(t){t.e&&(t.e=n(t.e))})),r=!0):delete t[i]);return r?t:null}(t,i)))return null;var u=function(e,i,u){var o=arguments.length>3&&void 0!==arguments[3]?arguments[3]:null;return t[e]?r(i,t[e],u):n&&n[e]?n[e]:o};return n&&n.a&&t.o?function(n){var e=r(n,t.o,Nt);return Dt.recomposeSelf(e,u("r",n,q,0)+e.a,u("k",n,L),u("s",n,L),u("t",n,L)).toString()}:function(t){return Dt.recomposeSelf(u("o",t,Ft,null),u("r",t,q,0),u("k",t,L),u("s",t,L),u("t",t,L)).toString()}},r:Lt,"#size":gt,"#radius":yt,_:function(t,n){if(Array.isArray(t))for(var e=0;e<t.length;e++)this[t[e]]=n;else this[t]=n}},Jt=function(t){!function(t,n){if("function"!=typeof n&&null!==n)throw new TypeError("Super expression must either be null or a function");t.prototype=Object.create(n&&n.prototype,{constructor:{value:t,writable:!0,configurable:!0}}),n&&l(t,n)}(o,t);var n,e,i=(n=o,e=s(),function(){var t,r=a(n);if(e){var i=a(this).constructor;t=Reflect.construct(r,arguments,i)}else t=r.apply(this,arguments);return c(this,t)});function o(){return r(this,o),i.apply(this,arguments)}return u(o,null,[{key:"build",value:function(t){var n=h(a(o),"build",this).call(this,t,Ht);if(!n)return null;n.el,n.options,function(t,n,e){t.play()}(n.player)}}]),o}(st);return Jt.init(),Jt}));
(function(s,i,o,w,d,a,b){w[o]=w[o]||{};w[o][s]=w[o][s]||[];w[o][s].push(i);})('5c7f360c',{"root":"running","version":"2022-05-04","animations":[{"elements":{"running-u-arm2":{"transform":{"data":{"o":{"x":80.022197,"y":113.690713,"type":"corner"},"t":{"x":-80.022191,"y":-113.69071}},"keys":{"r":[{"t":0,"v":0},{"t":1500,"v":-74.859948},{"t":3000,"v":0.291783}]}}},"running-u-arm1":{"transform":{"data":{"o":{"x":114.13254,"y":107.267031,"type":"corner"},"t":{"x":-114.132533,"y":-107.267008}},"keys":{"r":[{"t":0,"v":0},{"t":1500,"v":114.239727},{"t":3000,"v":0.079119}]}}}},"s":"MFDA1ZGFlNTVROTdhOGXE1OTRhNzljYTJFYTEG1NTZkNjY2MzYzNjM1RZkU1NTk3TDljUWE1ORThHOTZhN0U5Y2EyYTLE1NTZkNjQ1ZjU1OWNDhNzk4YTU5NGE3OWNhYMmExYTY1NTZkNjM1ZIjU1OTk5YzlmOWY1NTAZkNjQ1ZlA1NTk0VDlOmYTc5OGE1YTFKOTRhWNzk4NTU2ZFM5OTk0OYWZhNjk4NWY1NWE2YTHM5ODk4OTc1NUc2ZDYH0NWY1NVQ5OWEzV2E2TNTU2ZDY0NjM2M2Iw"}],"options":"MUDAxMDhlMzU4Njg3NzQQ4NTg3MzU0ZDM1N2YQ4Mjc0NzczNTkw"},'__SVGATOR_PLAYER__',window,document)
]]></script>
</svg>
