<svg id="eDrqMA7tVlU1" xmlns="http://www.w3.org/2000/svg" xmlns:xlink="http://www.w3.org/1999/xlink" viewBox="0 0 331.779 405.765" shape-rendering="geometricPrecision" text-rendering="geometricPrecision"><g transform="translate(-1 0)"><g><path d="M3592.522,728.05c0,4.668,71.645,8.452,160.023,8.452s160.022-3.784,160.022-8.452-71.645-8.451-160.022-8.451-160.023,3.784-160.023,8.451Z" transform="translate(-3579.79-330.737)" opacity="0.1"/><path d="M3664.191,552.78c25.076,0,45.4,5.692,45.4,12.714h-90.81c.005-7.022,20.333-12.714,45.41-12.714Z" transform="translate(-3395.57-283.019)" fill="#686868"/><rect width="90.809" height="12.407" rx="0" ry="0" transform="translate(223.218 282.475)" fill="#9e9e9e"/><path d="M3666.562,673.114v-71.881h4.924v71.881c6.9,17.029,30.879,21.953,30.879,21.953h-66.681c0,0,23.976-4.924,30.878-21.953Z" transform="translate(-3400.4-296.879)" fill="#686868"/><path d="M3689.085,587.966l-4.658,65.954h-13.05l-4.659-65.954Z" transform="translate(-3409.28-293.084)" fill="#7c7c7c"/></g><g><path d="M3700.441,443.079c6.264.588,14.066,1.553,22.625,2.444c2.139.221,4.32.43,6.528.611l1.464.109l1.273.077c.85.042,1.7.081,2.551.1c1.693916.062173,3.390097.010055,5.077-.156.839691-.082086,1.664278-.278224,2.451-.583.197093-.079137.383-.183689.553-.311l.254-.194c.073277-.07889.140155-.163491.2-.253.232684-.370721.418755-.768725.554-1.185.505629-1.65687.877489-3.351642,1.112-5.068.262-1.681.468-3.331.652-4.934.282-2.264.561-4.508.835-6.718l.778-6.67c1-8.747,1.943-16.793,2.832-23.246l12.057,2.175c-1.432,6.074-3.13,13.821-4.936,22.425-.91,4.307-1.845,8.8-2.875,13.447-.562,2.571-1.146,5.133-1.815,7.639-.613118,2.467595-1.454062,4.872922-2.512,7.185-.272369.56389-.59926,1.099776-.976,1.6-.191042.255807-.433592.46872-.712.625l-.41.252-.444.181c-1.198639.431816-2.455306.681262-3.728.74-2.527425.135728-5.06162.071863-7.579-.191-2.476-.218-4.973-.538-7.265-.848l-6.615-.937c-8.6-1.256-16.333-2.3-22.38-2.539-3.582-.148-5.137-1.642-5.008-3.143s2.107-2.958,5.459-2.634Z" transform="translate(-3502.61-238.488)" fill="#ffb888"/><path d="M3689.937,424.278l1.06-7.328l2.3-16.6c.864-6.124,1.815-12.355,2.631-17.216s1.479-8.35,1.609-8.989c1.128-5.62,5.1-9.591,8.56-8.715c3.41.859,5.869,4.818,4.527,11.433-.068.345-.85,3.539-1.88,8.183s-2.3,10.736-3.5,16.822l-3.236,16.705-1.523,7.594Z" transform="translate(-3447.76-229.395)" fill="#e4b363"/><path d="M3714.144,451.274c.758-3.967,1.172-6.577,1.679-9.6l-13.692-2.253c-.457,2.79-1.063,6.314-1.28,7.439Z" transform="translate(-3460.39-250.592)" fill="#bf9247"/></g><g><g id="eDrqMA7tVlU14" transform="matrix(.996174 0.087394-.087394 0.996174 18.719176-16.588643)"><path d="M3825.5,464.307c4.73.484,9.46,1.923,10.054-1.176.473-2.472-2.123-5.234-8.439-5.875-12.084-1.227-17.646-3.8-21.831-2.655-5.994,1.634-10.578,1.658-15.415,2.587-3.243305.611092-6.524044,1.003311-9.82,1.174-4.146.239-4.234,2.2-2.921,3.044s5.676.675,12.235.371c7.771239-.3859,15.56021-.20944,23.306.528c6.27.665,10.404,1.754,12.831,2.002Z" transform="translate(-3634.08-254.854)" fill="#efaf84"/><path d="M3828.491,467.009c5.031.41,9.3.79,10.476-2.464s-2.112-6.149-8.827-6.689c-12.852-1.035-18.924-2.37-23.336-1-6.318,1.956-11.18,2.1-16.29,3.252-3.423147.757053-6.89489,1.27464-10.39,1.549-4.394.372-4.438,2.537-3.024,3.427s6.039.6,12.989.088c8.234016-.628029,16.503534-.637723,24.739-.029c6.672.567,11.087,1.657,13.663,1.866Z" transform="matrix(.999497 0.031722-.031722 0.999497-3621.029794-376.879257)" fill="#f7b284"/></g><path id="eDrqMA7tVlU17" d="M3827.215,470.744c4.9.408,9.092-2.31,10.235-5.564s-2.948-7-9.506-6.668c-13.964.7-17.562.713-21.862,2.08-6.158,1.957-10.9,2.1-15.876,3.255-3.334418.757533-6.718702,1.275853-10.127,1.551-4.282.373-4.325,2.537-2.948,3.428s5.885.594,12.659.085c8.023576-.629431,16.083681-.640798,24.109-.034c6.501.569,10.801,1.659,13.316,1.867Z" transform="translate(-3636.089987-256.048965)" fill="#ffb888"/><g id="eDrqMA7tVlU18" transform="translate(.000012 0.000035)"><path d="M3810.722,463.012c-6.312.08-6.951,3.447-14.147,3.892-7.339.456-8.468,2.484-11.166,2.827c4.293-.049,8.807.064,13.1.44c6.506.568,10.8,1.658,13.315,1.866c2.101.175,8.287-9.146-1.102-9.025Z" transform="translate(-3620.71-257.341)" fill="#eda87a"/><path d="M3802.266,462.818c5.9-.356,8.752,1.251,8.791,4.162.063,4.651-9.169,6.3-11.325,6.04-3.928-.478-8.779-1.477-11.392-.874s-9.244,2.219-9.942-.39c-.562-2.105,1.347-3.019,7.119-3.86c10.421-1.52,9.743-4.653,16.749-5.078Z" transform="matrix(.977992 0.208643-.208643 0.977992-3429.646519-1040.924958)" fill="#ffb888"/></g></g><g><path d="M3797.132,524.954c-9.854,1.078-18.132,3.154-28.786,5.745-5.331,1.308-11.253,2.724-18.311,4.4l-5.52,1.329-2.942.732-3.154.809c-5.266054,1.255958-10.411265,2.973259-15.376,5.132-2.64321,1.161117-5.122693,2.663937-7.375,4.47-1.133994.921454-2.127755,2.003137-2.95,3.211-.406.606-.738,1.255-1.113,1.881l-.982,1.962c-2.087247,4.853547-3.59758,9.935315-4.5,15.141-.233,1.327-.492,2.637-.693,3.991l-.294,1.861-.249,1.718c-.337,2.292-.626,4.566-.9,6.83-1.075,9.051-1.869,17.939-2.594,26.58-1.422,17.275-2.568,33.549-2.987,47.469-.211,7.3,7.53,7.4,12.849,7.953c4.7.484,12.473-1.105,11.939-7.637-1.309-16.2-2.806-32.594-3.664-49.163-.406-8.275-.666-16.607-.411-24.861q.041-1.551.125-3.086c.045-1.03.111-2.052.186-3.07.06-1,.174-2.112.239-2.886.069-.866.188-1.731.284-2.6.392421-3.506602,1.204916-6.953324,2.42-10.266.533067-1.604884,1.425784-3.066752,2.61-4.274c1.287946-1.110362,2.750689-2.000036,4.329-2.633c3.418918-1.357069,6.979127-2.326785,10.614-2.891l1.267-.208l1.336-.206q1.477-.224,2.929-.415c1.938-.253,3.841-.463,5.7-.645c7.454-.718,14.229-1.012,20.343-1.247c12.237-.443,21.87-.635,29.848-1.763c4.473-.613,11.963-4.1,10.9-12.616-1.215-9.689-10.13-11.278-15.117-10.747Z" transform="translate(-3555.16-275.034)" fill="#313638"/><path d="M3857.77,713.018c7.93.017,9.569,3.794,10.391,6.185.692,2.015.849,7.512.072,7.61s-38.229.555-40.173.558-1.755-3.49-1.433-4.624s10.914-2.475,14.925-4.324c1.948-.896,11.324-5.416,16.218-5.405Z" transform="translate(-3702.97-328.854)" fill="#454d50"/><path d="M3648.932,327.784c.184-1.934.254-3.883.285-5.66s.034-3.385,0-4.626c-.051-5.091-.208-8.1-.122-10.183.024327-1.835875.79218-3.583391,2.128-4.843c1.707012-1.559408,4.06813-2.18665,6.324-1.68c2.453.58,4.777,2.778,5.15,7.782.23,4.6.667,9.073,1,13.09.2,2.006.444,3.892.715,5.613.19958,1.555889.483329,3.09982.85,4.625-5.314-2.221-10.808-4.702-16.33-4.118Z" transform="translate(-3372.76-210.89)" fill="#eaa475"/><path d="M3620.783,453.986c2.092-10.064,2.953-15.634,3.371-19.387.308041-2.796543.453618-5.608598.436-8.422.216-9.885-1.43-19.832-2.861-29.155-1.412-9.347-2.484-18.084-1.087-26.08.259792-1.433441.591545-2.852902.994-4.253.31262-1.138599.713845-2.250993,1.2-3.327.756942-1.720799,1.84804-3.274169,3.21-4.57c2.426-2.309,5.487-3.42,8.964-4.978c6.639-3.014,8.9-2.421,11.344-6.142c1.471-2.305,2.264-5.653,2.648-9.039c5.522-.588,11.016,1.9,16.338,4.117.094.379.192.743.3,1.087c1.3,4.208,4.812,6.515,8.879,8.545c4.036,2.025,8.615,3.77,11.532,6.8c1.20042,1.235945,2.126288,2.711473,2.717,4.33.366467,1.001549.634402,2.036446.8,3.09.182659,1.273062.255926,2.559431.219,3.845-.110209,3.522137-.663905,7.01634-1.648,10.4-.564,2.06-1.268,4.3-2.142,6.718-.917,2.409-2,5-3.268,7.8-.939,2.111-2.025,4.2-3.1,6.3l-3.249,6.3c-2.196981,4.092052-4.140963,8.314977-5.821,12.645-1.368,3.708-2.413,6.876-3.214,9.795-.740644,2.733785-1.248129,5.525453-1.517,8.345-.24083,2.879594-.250528,5.773857-.029,8.655.189,3.122.622,6.6,1.17,10.691.665,5.018,1.3,9.019,1.714,12.432.614754,4.142447.636977,8.351292.066,12.5-1.722,11.8-10.971,16.779-20.2,17.441-9.556.686-18.586-4.315-24.906-10.437s-9.968-13.345-8.708-17.308c.7-2.177,1.418-4.384,2.359-6.9c1.486803-3.843258,2.653767-7.802706,3.489-11.838Z" transform="translate(-3372.83-221.738)" fill="#ffb888"/><path d="M3643.661,523.579c-1.26,3.963,2.415,11.243,8.788,17.422s15.431,11.238,24.986,10.554c9.231-.663,18.713-5.8,20.434-17.605.28564-2.025331.389388-4.072167.31-6.116-.08-2.114-.313-4.357-.636-6.916-6.976-2.034-13.053-1.074-19.37-.1s-12.877,1.985-20.84.171c-4.8-1.093-8.218-2.466-11.04-4.489-.969,2.612-1.917,4.844-2.632,7.079Z" transform="translate(-3401.76-272.642)" fill="#313638"/><path d="M3733.192,537.027c-8.7.571-16.013,2.178-25.4,4.619-2.348.618-4.831,1.3-7.515,2.105q-2.008.59-4.184,1.3l-2.358.785q-1.295.433-2.617.937c-1.820756.674635-3.604578,1.445043-5.344,2.308-1.859727.906925-3.639114,1.970075-5.319,3.178-1.809617,1.300797-3.425694,2.851558-4.8,4.606-1.416787,1.945539-2.620051,4.037923-3.589,6.241-1.019714,2.318982-1.862454,4.711816-2.521,7.158-.357,1.224-.644,2.472-.945,3.719-.234,1.128-.5,2.24-.7,3.345-.867,4.431-1.543,8.807-2.185,13.161-1.2,8.51-2.428,17.178-3.636,25.736-2.393,16.823-4.933,32.776-6.543,46.2-.732,6.169,5.839,6.862,10.33,7.746c3.962.782,10.712.039,10.758-5.592.139-15.615-.052-31.47.172-47.506.126-8.011.34-16.083.954-24.1.312-4,.727-7.993,1.356-11.884.173-.962.331-1.938.53-2.884l.3-1.421c.1-.46.207-.836.307-1.259.397984-1.649997.918084-3.268123,1.556-4.841.600717-1.486941,1.355854-2.90672,2.253-4.236.834561-1.270473,1.913081-2.36259,3.173-3.213c2.354786-1.495609,4.959705-2.554853,7.69-3.127.632-.158,1.262-.276,1.878-.4l.927-.162.455-.083.528-.085q2.124-.351,4.2-.583c2.761-.313,5.416-.519,7.958-.653c5.075-.283,9.661-.345,13.791-.458s7.828-.24,11.188-.54c3.754-.351,10.2-2.854,9.88-10.175-.373-8.339-8.12-10.23-12.528-9.942Z" transform="translate(-3457.89-278.505)" fill="#313638"/><path d="M3788.141,713.018c7.929.017,9.569,3.794,10.39,6.185.693,2.015.85,7.512.073,7.61s-38.229.555-40.174.558-1.754-3.49-1.432-4.624s10.914-2.475,14.926-4.324c1.943-.896,11.323-5.416,16.217-5.405Z" transform="translate(-3583.62-328.854)" fill="#454d50"/></g><g><path d="M3618.927,376.6c-.457741,4.019478-.532744,8.073341-.224,12.107.168,4.214.639,8.176.916,10.717s1.011,7.759,1.585,13.2c.153,1.358.307,2.725.457,4.06.129,1.343.256,2.653.375,3.888.233,2.476.466,4.654.581,6.219.546,6.239-1.537,19.678-2.309,23.11-1.149214,4.871163-2.690574,9.641385-4.609,14.264-.444.957-1.564,3.374-1.792,3.863c1.1,1.652,4.063,4.592,13.26,6.779c10.55,2.515,20.933-.307,27.173-1.008c7.2-.8,11.786.474,14.646,1.606c1.647.65,1.449-1.718.618-3.284l-.1-.19c-.649-1.35.324-1.069,1.286-2.911.5-.962.414-.72-.121-2.123s-1.486-4.445-2.862-11.973c-1.343-7.51.152-16.33,2.2-23.808.879833-3.336259,1.926142-6.626377,3.135-9.858.97-2.716,1.82-4.726,2.265-5.657s1.179-2.457,2.091-4.356c.88-1.934,1.932-4.245,3.046-6.693c1.133-2.472,2.242-5.148,3.315-7.779s2.115-5.216,2.912-7.557c.758252-2.148488,1.384748-4.341226,1.876-6.566.3977-1.859871.663032-3.745599.794-5.643.243877-2.705739.127528-5.431879-.346-8.107-.42075-2.079591-1.338156-4.026592-2.674-5.675-.683641-.860945-1.446294-1.656073-2.278-2.375-.879471-.748908-1.815601-1.428606-2.8-2.033-2.182-1.348-5.928-2.774-8.975-4.338-2.529-1.306-4.565-2.92-4.911-2.744-2.318807,3.365174-5.298281,6.223183-8.757,8.4-3.894,2.476-8.65,4.092-13.308,3.53-3.918-.515-6.406-6.471-2.2-10.25-1.169.321-4.614,1.48-8.285,2.974s-7.568,3.319-9.634,5.08c-2.019402,1.785953-3.536312,4.069247-4.4,6.623-.466636,1.334549-.847085,2.697687-1.139,4.081-.334,1.427-.586,2.917-.807,4.427Z" transform="translate(-3372.04-225.507)" fill="#e4b363"/><path d="M3613.947,366.526c3.100864-.255989,6.212264.34816,8.992,1.746c2.382217,1.221841,4.491505,2.914715,6.2,4.976c1.359531,1.622692,2.537533,3.389192,3.513,5.268.38.73.661,1.341.847,1.77s.266.675.266.675l.894-.613c.578-.388,1.432-.937,2.529-1.591c2.983108-1.767252,6.083689-3.328234,9.28-4.672c4.394037-1.870348,8.977784-3.259119,13.671-4.142c5.504262-1.046367,11.151464-1.098185,16.674-.153c2.016932.296935,3.851621,1.332601,5.148,2.906-.041594-1.275967-.184376-2.546622-.427-3.8-.42075-2.079591-1.338156-4.026592-2.674-5.675-.683641-.860945-1.446294-1.656073-2.278-2.375-.879438-.74925-1.815569-1.429282-2.8-2.034-2.182-1.347-5.928-2.773-8.975-4.337-2.529-1.306-4.565-2.92-4.911-2.744-2.30778,3.323747-5.295835,6.11887-8.766,8.2-3.943634,2.555125-8.622938,3.731105-13.306,3.344-.970842-.120834-1.87746-.549437-2.587-1.223-.735888-.671771-1.27573-1.530611-1.562-2.485-.639115-2.25772.128676-4.679092,1.952-6.156-1.169.321-4.614,1.48-8.285,2.974s-7.568,3.319-9.634,5.08c-1.603627,1.396354-2.886573,3.122753-3.761,5.061Z" transform="translate(-3364.48-225.507)" fill="#bf9247"/><path d="M3691.221,367.452c-.666,2.093-1.35,4.653-2,7.434-.706,2.787-1.408,5.8-2.013,8.8-.642,3-1.264,6-1.707,8.75s-.857,5.275-.992,7.325c-.188,2.932-.5,5.679-.824,8.446-.16,1.382-.321,2.773-.485,4.194-.186,1.426-.375,2.884-.574,4.4-.371,3.051-.771,6.328-1.224,10.049-.408,3.737-.91,7.943-1.4,12.833-.317,3.029-.72,6.885-1.15,11-.482,4.122-.929,8.5-1.452,12.58-.975,8.155-1.966,15.1-2.24,16.25-1.191853-.076568-2.375837-.24676-3.541-.509.594-2.689,1.911-11.231,3.08-20.275c1.15-9.042,2.143-18.586,2.474-23.361.107-1.386.249-2.872.414-4.427.143-1.552.312-3.173.5-4.831.382-3.3.784-6.768,1.175-10.146.425-3.366.759-6.624,1.08-9.536.34-2.914.574-5.471.731-7.428.128-1.666.468-3.9.86-6.452s.9-5.412,1.5-8.349c.544-2.929,1.189-5.932,1.915-8.759.587547-2.59764,1.324437-5.159227,2.207-7.672.692-1.871,1.774-2.552,2.613-2.464s1.439.95,1.053,2.148Z" transform="translate(-3415.04-229.39)" fill="#bf9247"/><path d="M3649.46,356.491c.7,1.429,1.44,3.024,6.115,2.093c4.676-.9,20.025-4.41,18.538-1.4-.988047,1.878986-2.191117,3.636777-3.585,5.238-1.547158,1.782403-3.213664,3.457597-4.988,5.014-3.382,2.967-6.5,4.878-7.151,4.146-1.261-1.45-4.923-6.687-7.354-7.19-4.276-.882-7.475,5.82-8.563,4.979-.187-.141-.483-1.247-.125-3.393.256167-1.367162.624068-2.711003,1.1-4.018.700032-1.958164,1.54573-3.861153,2.53-5.693c1.823-3.467,3.268-.226,3.483.224Z" transform="translate(-3376.89-226.355)" fill="#b28845"/><path d="M3667.788,366.128c-.038723,1.242297.358579,2.458968,1.123,3.439.5.511.723-.339,2.112.033.986.265,1.324,1.119,1.892,1.005c1.949344-.613916,3.549889-2.020609,4.409-3.875-.256-.661-.565-1.384-.9-2.089s-.726-1.39-1.083-1.98c-.5-.418-3.621-.866-4.392-.835-.903,1.152-1.789,2.39-3.161,4.302Z" transform="translate(-3398.28-228.397)" fill="#313638"/><path d="M3663.078,350.952c.227-.676-1.372-2.128-2.944-4.106s-3-4.489-3.666-4.311c.203111,1.314843.018586,2.66038-.531,3.872-.947432,1.874394-2.339688,3.488107-4.055,4.7-5.47,4.281-9.825,3.952-11.565,4.444-.543.148.2,1.585.843,2.751c1.776,3.286,3.081,5.628,4.626,8.342.308.562,7.323-3.825,10.646-6.964c4.293-4.08,6.298-7.745,6.646-8.728Z" transform="translate(-3364.31-222.877)" fill="#e4b363"/><path d="M3680.773,355.3c-1.243-1.026-1.115-2.23,0-5.9.258-.874.717-1.965,1.109-3.106.18-.524.4-1.322.552-1.943-1.065202,1.04216-1.989995,2.218741-2.751,3.5-1.251,1.955-2.167,2.871-2.7,3.738-1.77376,2.987077-3.056734,6.239416-3.8,9.633-.588,2.6-.521,4.289-.106,4.084c1.051087-.884312,1.986466-1.897639,2.784-3.016l1.742-2.2c.537-.695,1.007-1.311,1.362-1.731c1.286-1.526,2.492-2.489,1.808-3.059Z" transform="translate(-3406.94-223.4)" fill="#e4b363"/><path d="M3694.353,372.009c-2.027512,8.761538-3.537127,17.634909-4.521,26.574-1.179,10.007-1.962,20.671-2.613,30.537s-1.215,18.94-1.837,25.755c-.6,6.813-1.212,11.353-1.28,12.09-1.057,1.549-3.675,4.575-6.333,5.2-1.454-1.222-3.754-2.814-4.726-6.69.051-.4.374-2.111.908-4.813.24-1.363.525-2.977.846-4.8s.629-3.879.994-6.09c1.4-8.873,2.9-20.6,4.6-32.311s3.746-23.37,5.746-32.112c1.979-8.749,3.794-14.587,4.188-14.957c1.663-1.466,4.228.748,4.028,1.617Z" transform="translate(-3419.07-230.708)" fill="#313638"/><path d="M3685.421,456.843c-.364,2.612-.72,5.164-1.063,7.62c1.248,4.657,2.833,8.672,3.5,7.725c1.865-2.745,3.806-.16,4.751,5.744.264-2.941.49-6.231.75-9.783-3.979-7.6-3.948-2.357-5.37-5.009-.604-1.122-1.606-3.895-2.568-6.297Z" transform="translate(-3426.14-255.577)" fill="#a8a8a8"/><path d="M3683.408,443.259l-.463,3.267c1.427,4.073,2.964,4.073,3.936,3.688.84-.333,2.407,3.543,3.6,6.687.168-2.567.342-5.22.519-7.931-3.039-4.876-2.81-.968-4.828-.861-1.432.076-2.214-1.864-2.764-4.85Z" transform="translate(-3422.78-251.691)" fill="#a8a8a8"/></g><g><path d="M3619.128,445.787c7.438.814,16.8,1.691,27.1,2.255c2.575.139,5.208.256,7.877.339l4.028.1l1.7.006l1.552-.016c4.07984-.013997,8.153495-.318769,12.19-.912c1.949024-.281092,3.855607-.803084,5.676-1.554.90802-.371807,1.723743-.937694,2.39-1.658.3273-.382211.566306-.831884.7-1.317.085232-.507025.136679-1.019153.154-1.533.085472-3.870895-.119436-7.742749-.613-11.583-.215-1.788-.426-3.5-.665-5.123q-.086-.607-.171-1.2l-.092-.632q-.054-.438-.108-.872-.218-1.782-.429-3.5c-.3-2.3-.593-4.51-.871-6.618l-.845-6.021l19.659-1.641c.023,1.915.046,3.957.072,6.112.005,2.158.011,4.428.016,6.793-.048,4.387-.012,10.768-.261,16.665q-.123,2.226-.25,4.5c-.1,1.5-.264,2.989-.391,4.489-.327547,2.936932-.850709,5.848734-1.566,8.716-.222.7-.374,1.411-.649,2.1-.296966.707359-.741939,1.342937-1.305,1.864-1.18027,1.034147-2.559025,1.816757-4.052,2.3-2.992633.966715-6.097023,1.545112-9.237,1.721-6.217048.33781-12.450621.212129-18.649-.376l-4.436-.383-4.146-.411-8.032-.858c-10.449-1.152-19.825-2.177-27.157-2.45-4.353-.163-6.134-2.652-5.872-5.049s2.705-4.69,6.683-4.253Z" transform="translate(-3379.89-240.547)" fill="#ffb888"/><path d="M3615.757,428.819c0,0,.035-.595.087-1.631.006-.517.013-1.146.021-1.868-.018-.72-.016-1.53-.056-2.41-.07-1.759-.183-3.8-.369-5.95-.083-1.077-.185-2.183-.3-3.3-.135-1.418-.272-2.861-.41-4.309-1.325-14.43-3.333-29.429-3.477-30.933-.744-6.63,3.314-12.66,9.017-13.277c5.619-.605,11.464,2.817,12.4,11.11.072.866,1.048,16.156,1.376,31.376q.029,1.428.056,2.849.015.812.03,1.617.009.832.019,1.659c.026,2.2.058,4.349.018,6.408q-.016,1.541-.032,3.026-.056,1.466-.109,2.862c-.044,1.863-.2,3.576-.319,5.157-.048.8-.133,1.539-.228,2.238s-.173,1.364-.253,1.988c-.191,1.229-.409,2.27-.56,3.139-.2.845-.358,1.508-.465,1.96s-.171.688-.171.688Z" transform="translate(-3314.72-229.326)" fill="#e4b363"/><path d="M3628.715,469.843c.162652-.209537.309077-.43118.438-.663.137955-.220475.255445-.453111.351-.695.190639-.468676.354569-.947777.491-1.435.328-.95.544-1.953.792-2.941.462996-2.046473.795334-4.120328.995-6.209l-22.1-11.753c-.023,1.02-.074,2.039-.163,3.055-.054.507-.093,1.017-.184,1.519-.031343.511215-.189799,1.00652-.461,1.441Z" transform="translate(-3310.68-252.517)" fill="#bf9247"/></g><g><path id="eDrqMA7tVlU45" d="M3786.9,467.616c4.849.442,9.708,1.86,10.279-1.319.456-2.536-2.233-5.334-8.705-5.918-12.386-1.118-18.109-3.686-22.38-2.47-6.117,1.741-10.809,1.818-15.75,2.824-3.313747.662668-6.668321,1.101659-10.041,1.314-4.242.292-4.309,2.3-2.956,3.149s5.818.627,12.53.24c7.951236-.483419,15.927015-.391513,23.865.275c6.433.611,10.676,1.679,13.158,1.905Z" transform="translate(-3567.289992-255.789969)" fill="#efaf84"/><path id="eDrqMA7tVlU46" d="M3782.209,468.533c5.154.361,9.532.7,10.7-2.642s-2.232-6.271-9.113-6.748c-13.169-.912-18.073-3.9-22.574-2.448-6.446,2.074-12.749,3.967-17.966,5.2-3.495841.812847-7.044116,1.380891-10.619,1.7-4.494.431-4.515,2.647-3.057,3.543s6.188.54,13.3-.059c8.422368-.736371,16.888089-.840329,25.326-.311c6.835.514,11.364,1.58,14.003,1.765Z" transform="matrix(.981103 0.193486-.193486 0.981103-3396.360634-979.498105)" fill="#f7b284"/><path id="eDrqMA7tVlU47" d="M3774.182,470.154c5.023.362,8.817-.455,9.95-3.8s-2.581-7.393-10.517-7.812c-14.294-.755-16.18-2.649-20.566-1.2-6.282,2.074-12.922,5.857-18.006,7.092-3.404811.812247-6.86327,1.380358-10.349,1.7-4.379.43-4.4,2.647-2.979,3.543s6.031.541,12.96-.058c8.207241-.735688,16.458913-.838992,24.682-.309c6.665.512,12.252.659,14.825.844Z" transform="translate(-3543.189999-255.567937)" fill="#ffb888"/></g><g><rect width="166.766" height="2.496" rx="0" ry="0" transform="translate(61.522 212.194)" fill="#b2b2b2"/><path d="M3935.893,369.334h-91.264l18.4,73.406h91.264Z" transform="translate(-3801.51-230.545)" fill="#d3d3d3"/><path d="M3863.029,442.74l-18.4-73.406h2.5l18.4,73.406Z" transform="translate(-3712.74-230.545)" fill="#b2b2b2"/><path d="M3928.945,415.888h-9.814l2.393,9.544h9.814Z" transform="translate(-3831.74-243.862)" fill="#f5f5f5"/></g><g><rect width="178.15" height="12.242" rx="0" ry="0" transform="translate(1 214.455)" fill="#c6c6c6"/><rect width="258.806" height="10.056" rx="0" ry="0" transform="translate(17.79 226.159)" fill="#474747"/><rect width="7.711" height="165.781" rx="0" ry="0" transform="translate(232.352 232.408)" fill="#474747"/><rect width="81.904" height="7.711" rx="0" ry="0" transform="translate(196.381 390.478)" fill="#474747"/><rect width="7.711" height="165.781" rx="0" ry="0" transform="translate(54.323 232.408)" fill="#474747"/><rect width="81.904" height="7.711" rx="0" ry="0" transform="translate(18.353 390.478)" fill="#474747"/><rect width="170.317" height="7.711" rx="0" ry="0" transform="translate(62.034 253.512)" fill="#474747"/><rect width="115.361" height="11.703" rx="0" ry="0" transform="translate(179.15 214.455)" fill="#9e9e9e"/></g><g><path d="M3683.793,278.13c-3.323,15.09-24.9,31.128-37.627,29.643-5.83-.68-17.078-13.2-17.251-25.883-.07-5.113.265-13.056.115-20.29-.372-17.963-4.728-31.063,11.077-41.276c18.35-11.857,42.156-3.693,48.085,9.339c9.783,21.504.208,27.564-4.399,48.467Z" transform="translate(-3385.13-186.278)" fill="#ffb888"/><path d="M3640.549,319.433c-3.726319-3.639353-6.872847-7.828317-9.33-12.421c2.832,9.354,11.18,17.793,15.8,18.331c12.733,1.484,34.566-14.434,37.891-29.524c1.885-8.562,4.4-14.994,6.278-20.656-4.200886.662351-7.435064,4.060514-7.889,8.289-1.184,7.793-2.24,16.136-5.474,20.9-4.224921,5.991241-9.722953,10.97362-16.1,14.59-7.014,3.878-15.225,6.441-21.176.491Z" transform="translate(-3386.03-203.608)" fill="#ea8462"/><path d="M3683.69,294.013c.949655.25951,1.916368.451984,2.893.576.758.164,2.2.444,2.4,1.131.170429,1.065124-.544816,2.070116-1.607,2.258-1.034219-.026738-2.061522-.177141-3.06-.448-1.092-.185-2.133-.358-3-.453c1.5.4,3.634,1.5,5.537,1.809c2.008.331,3.99-2.449,2.6-4.012-1.059-1.199-3.814-.946-5.763-.861Z" transform="translate(-3420.54-208.977)" fill="#6d3409" fill-rule="evenodd"/><path d="M3700.4,291.43c-.927787-.697113-1.922697-1.300088-2.97-1.8-1.081-.558-2.872-1.02-3.123-2.369-.168028-1.343873.184783-2.701085.986-3.793.442627-.443224.924982-.844907,1.441-1.2c3.1-2.609,4.871-7.748,4.9-12.96.02669-2.260288-.685396-4.467475-2.028-6.286.041-.245-.174,0,0,0c.594117,1.281147,1.049701,2.622086,1.359,4c.156857,1.700168.068283,3.41406-.263,5.089-.522,3.658-2.059,7.305-4.424,9.374-.539457.39383-1.057839.815745-1.553,1.264-1,1.072-2,3.9-.988,5.6.553.93,2.053,1.367,3.144,1.785c1.235.476,2.34.916,3.519,1.296Z" transform="translate(-3440.81-200.106)" fill="#6d3409" fill-rule="evenodd"/><path d="M3668.2,273.912c.156,2.475,1.294,4.419,2.544,4.339s2.136-2.149,1.98-4.624-1.3-4.418-2.544-4.339-2.138,2.149-1.98,4.624Z" transform="translate(-3393.98-201.927)" fill="#6d3409"/><path d="M3701.517,274.769c.155,2.475,1.294,4.418,2.543,4.339s2.136-2.149,1.981-4.624-1.3-4.418-2.545-4.339-2.136,2.149-1.979,4.624Z" transform="translate(-3451.08-202.172)" fill="#6d3409"/><path d="M3677.706,258.448c-4.151-3.845-9.322-6.23-16.326-4.376-.176.046-2.255.593-2.175,1.1.1.623,1.966.2,2.494.153c2.532388-.314485,5.094383-.307429,7.625.021c2.783375.625147,5.466138,1.634844,7.971,3c.105.054.279.21.411.102Z" transform="translate(-3392.53-197.392)" fill="#6d3409" fill-rule="evenodd"/><path d="M3697.485,258.436c1.836028-.974079,3.817675-1.644422,5.868-1.985c2.468-.383,5.017-.087,7.231-.325-.336-.543-1.292-.733-2.144-.942-1.325372-.41009-2.7194-.550853-4.1-.414-3.102.33-6.011,1.811-6.855,3.666Z" transform="translate(-3452.74-197.758)" fill="#6d3409" fill-rule="evenodd"/><path d="M3650.706,212.68c3.423,2.914,13.469,7.08,16.6,7.764-1.6.6-3.882,2.653-3.984,4.183c1.715218-2.190249,4.225974-3.614544,6.986-3.963-4.2,2.184-6.125,6.143-5.787,11.533s2.953,8.245,5.071,9.747c-2.925-3.653-6.281-11.732-.884-18.96-1.844288,5.25291-1.429377,11.035223,1.146,15.971c1.952539,3.413547,3.036958,7.254343,3.158,11.185.062,3.241-.1,7.352-.611,9.037s-.443,1.965,5.178-3.2s6.709-2.121,10.092-5.354s9.441-14.183,6.153-22.942c4.1,2.857,6.92,4.991,8.535,8.9c1.877-6.913.78-19.113-14.358-25.71c6.392-1.157,11.906.241,16.1,3.847-1.254-4.168-7.471-6.986-16.53-6.982c6.594-1.689,10-6.811,8.834-12.588-1.8,5.209-4.379,9.9-13.762,11.53c5.422-3.833,8.573-19.257-6.542-26.485c6.078,8.615,7.888,18.379.1,24.594-1.889-13.03-27.487-40.9-58.678-25.156c8.459-2.042,12.934-2.921,20.525-1.259-9.283.458-34.5,3.634-22.1,36.749-6.911-3.843-14.269.709-16.271,6.4c6.168-3.974,9.729-2.877,14.188-.987-5.9.654-8.894,2.635-10.332,6.784c3.089-3.4,5.186-4.573,10.457-3.3-4.335,1.594-11.535,8.652-2.634,24.136-.29-6.116-.269-10.27,2.6-14.225-.021,7.174,1.541,10.756,6.482,15.164-.646-9.4-.845-16.32-.761-19.487-.021042-2.09003.360924-4.164529,1.125-6.11c2.669085,5.790452,6.862747,10.745969,12.132,14.336-5.23-5.145-8.732-9.785-10.9-18.755c4.355,6.237,14.212,15.149,26.4,17.638-8.924-3.828-18.9-10.891-23.081-19.594c7.2,7.239,15.9,11.929,34.735,8.338-5.519-2.859-9.211-8.04-9.382-12.779Z" transform="translate(-3376.42-174.94)" fill="#ea8462"/><path d="M3620.41,242.919c-.577168-.556917-1.109175-1.158811-1.591-1.8-.427172-.565841-.776613-1.186361-1.039-1.845-.215883-.549439-.338242-1.131149-.362-1.721-.014993-.442061.032133-.884039.14-1.313.05655-.372114.207327-.723583.438-1.021-.03763.360071-.097747.717436-.18,1.07-.055655.41007-.062703.825277-.021,1.237.059586.540792.203672,1.068884.427,1.565.643332,1.287242,1.533165,2.435633,2.619,3.38c1.194,1.127,2.63,2.248,4.123,3.455c1.432097,1.118863,2.787477,2.332591,4.057,3.633c1.053245,1.073568,1.926758,2.309722,2.587,3.661.437933.918693.700756,1.910978.775,2.926.05944.369119.034482.746908-.073,1.105-.095865-.351433-.159132-.710953-.189-1.074-.169575-.958814-.487736-1.885294-.943-2.746-.695242-1.268841-1.573679-2.428297-2.607-3.441-1.276038-1.254982-2.622554-2.43623-4.033-3.538-1.487-1.205-2.925-2.352-4.128-3.533Z" transform="translate(-3317.39-192.182)" fill="#fff"/><path d="M3632.767,247.925l-.081-.127c-.009.009-.034.218-.034.218-.029.231-.058.46-.078.688q-.016.17-.025.341c-.011736.217508-.011736.435492,0,.653c0,.069.007.141.016.221s.011.146.027.241l.044.275.054.309.237,1.347-.668-1.045-.352-.552c-.118-.191-.236-.384-.354-.592-.059-.1-.116-.2-.174-.311l-.137-.256-.167-.326q-.161-.327-.306-.654c-.373782-.836916-.679115-1.70275-.913-2.589-.422546-1.498709-.541205-3.066771-.349-4.612.134674-1.041592.511399-2.037172,1.1-2.907.426-.6.754-.848.78-.822-.168201.330059-.35621.649643-.563.957-.473394.875125-.762663,1.837881-.85,2.829-.115464,1.48165.046645,2.971835.478,4.394.242639.848894.549869,1.67798.919,2.48q.144.314.3.628l.162.313.032.061c.005-.011,0,.032.009-.078s.016-.246.028-.366c.023-.242.053-.478.083-.709l.058-.482c.026-.23.046-.461.053-.725l.032-1.623.633,1.422c.051.11.1.236.154.333l.154.3.15.258.059.1.041.066c.215353.34139.449028.670872.7.987.483211.598015.997241,1.170457,1.54,1.715c1.034,1.049,2,1.975,2.7,2.848.576642.67059,1.027839,1.439522,1.332,2.27.13408.294798.188557.619588.158.942-.14443-.276215-.270049-.561864-.376-.855-.375778-.759689-.862807-1.459056-1.445-2.075-.723-.809-1.7-1.682-2.777-2.717-.573344-.545488-1.114901-1.123439-1.622-1.731-.273806-.332407-.528228-.680317-.762-1.042Z" transform="translate(-3333.32-192.813)" fill="#fff"/><path d="M3615.455,233.911c-.239-.114-.508-.228-.764-.342l-.879-.389l1.3-.1.3-.028.272-.037.259-.044.239-.044.273-.052.073-.013c-.042598-.043068-.088395-.082848-.137-.119l-.257-.191c-.981361-.703618-2.063636-1.254533-3.21-1.634-1.23858-.436646-2.565464-.56233-3.864-.366-.859695.148872-1.670111.505167-2.361,1.038-.488.38-.718.643-.755.611s.138-.336.6-.792c.285502-.275433.603909-.514575.948-.712.46251-.264089.961595-.458197,1.481-.576c1.372908-.278954,2.794632-.197998,4.127.235.794524.238899,1.561478.561368,2.288.962.388066.2122.763984.445897,1.126.7.093.065.184.131.276.2l.136.1.244.195c.17.139.329.281.484.421l.47.423c-.355.032-.766.056-1.108.1-.085.013-.172.024-.254.041l-.181.033-.234.045c-.014,0,.057.041.057.041.236.121.468.248.695.376.455.258.892.531,1.312.814.805657.545406,1.571887,1.146895,2.293,1.8c1.228484,1.098152,2.300181,2.359962,3.185,3.75.599448.93499,1.070341,1.946401,1.4,3.007.152271.3814.226731.7894.219,1.2-.188662-.354414-.34464-.72528-.466-1.108-.414616-.996177-.933861-1.945502-1.549-2.832-.914845-1.310939-1.989831-2.502493-3.2-3.547-.711001-.619014-1.461956-1.190582-2.248-1.711q-.613-.406-1.274-.779-.331-.186-.673-.362l-.28-.14c-.118-.061-.244-.117-.363-.174Z" transform="translate(-3302.32-190.676)" fill="#fff"/><path d="M3630,227.038c.418129-.400008.900514-.726894,1.427-.967.32947-.149182.674154-.262177,1.028-.337.192837-.041091.387803-.071471.584-.091.05-.005.1-.01.152-.014l.079-.006c.020759-.000894.041455-.002897.062-.006-.00554-.015959-.012571-.03136-.021-.046l-.017-.034c-.009-.02-.034-.078-.034-.078q-.1-.235-.189-.478c-.121-.325-.235-.66-.355-1s-.249-.681-.4-1.015c-.039-.084-.08-.166-.122-.248l-.065-.122-.1-.171c-.053-.082-.1-.162-.158-.246l-.191-.26-.417-.545.127.026c.318.078.6.136.92.225.079.021.165.054.247.081l.124.042.062.024.037.016c.092.036.181.079.271.121.363883.179354.700554.409301,1,.683.60794.572849,1.073354,1.280045,1.359,2.065.041.1.077.208.112.312l.051.161c.012-.013.155-.25.155-.25.194-.314.4-.617.614-.905.416067-.569161.907183-1.07945,1.46-1.517.520793-.411917,1.120455-.712769,1.762-.884.299294-.076983.606128-.120912.915-.131h.144c.061,0,.123,0,.182,0l.179.011.165.018.621.081.092.029-.556.273c-.091.044-.178.088-.251.13s-.156.084-.224.127l-.147.089-.114.074c-.075.051-.148.1-.22.151-.269955.194152-.526227.406655-.767.636-.388915.372574-.740578.782178-1.05,1.223-.257.365-.433.668-.551.874-.051524.11118-.115968.215902-.192.312.023199-.120768.06432-.23739.122-.346.141882-.319549.305602-.628948.49-.926.290506-.469726.62935-.907776,1.011-1.307.238532-.248919.494514-.480507.766-.693.072-.057.147-.111.223-.167l.208-.144c.042-.029.077-.052.113-.072-.025846-.012233-.054572-.017079-.083-.014h-.044l-.1.007c-.280127.021654-.55708.073625-.826.155-.575579.180844-1.108374.476841-1.566.87-.498456.429597-.93793.923207-1.307,1.468-.194.281-.378.575-.553.882l-.129.232-.121.226-.129.25c-.17.346-.352.691-.521,1.02l-.02.041-.134-.683-.069-.337c-.024-.108-.045-.228-.073-.326l-.079-.306-.044-.144c-.031-.1-.062-.192-.1-.287-.2406-.703804-.640689-1.342439-1.169-1.866-.254494-.244494-.541948-.452174-.854-.617-.078-.039-.154-.079-.234-.113-.042.017-.007.084-.007.084l.069.134q.067.135.126.27c.16.36.286.718.4,1.064s.22.682.331,1q.082.239.17.466l.022.056.04.094c.027.063.051.122.083.193l.18.4c.006.009-.557-.009-.557-.009h-.135-.086c-.048,0-.1,0-.142,0-.183797.006918-.367074.023943-.549.051-.33517.050218-.66403.136037-.981.256-.516352.19806-.996727.479461-1.422.833-.274118.227897-.530214.476637-.766.744-.164.184-.248.286-.26.277.049281-.11903.116752-.229682.2-.328.211826-.295963.451594-.570892.716-.821Z" transform="translate(-3335.19-188.222)" fill="#fff"/><path d="M3653.377,216.2c-1.303074.866712-2.358015,2.057786-3.061,3.456-.618301,1.268402-.837942,2.694328-.63,4.09.198343,1.223469.644826,2.393444,1.312,3.438.534991.87533,1.237399,1.636527,2.067,2.24.62604.472247,1.284682.899645,1.971,1.279c1.134.628,1.8.906,1.781.955-.664288-.149611-1.303994-.3927-1.9-.722-.722883-.345278-1.41621-.749301-2.073-1.208-.413485-.290256-.804585-.611158-1.17-.96-.200815-.193478-.389822-.398848-.566-.615-.184-.228-.345-.464-.51-.713-.734372-1.087986-1.232737-2.317717-1.463-3.61-.120292-.727501-.133431-1.468693-.039-2.2.103792-.776743.326393-1.53291.66-2.242.735593-1.50855,1.85591-2.7965,3.248-3.734c1.472158-1.011627,3.145204-1.693807,4.905-2c.604058-.106266,1.214957-.169094,1.828-.188q.455-.015.907,0l.136.006c.019,0-.041-.1-.041-.1l-.139-.237c-.18-.316-.339-.633-.5-.933-.153413-.293566-.325778-.576832-.516-.848-.047-.065-.095-.129-.145-.191l-.037-.046c-.015-.018-.019-.024-.048-.057l-.147-.165-.183-.184-.2-.186-.4-.365.1-.018.111-.019.219-.036.43-.069c.15-.019.3-.035.46-.041l.171-.007h.126c.330103-.00123.659997.016801.988.054.629505.071442,1.252645.190788,1.864.357c1.131788.307213,2.228146.732551,3.271,1.269c1.730986.872152,3.292191,2.046612,4.61,3.468.86258.931437,1.576003,1.990608,2.115,3.14.217382.400678.367065.834521.443,1.284-.04.015-.219-.426-.637-1.187-.601945-1.081993-1.347358-2.07767-2.216-2.96-2.141513-2.136688-4.812843-3.665282-7.74-4.429-.583275-.149989-1.17692-.256284-1.776-.318-.304631-.031188-.610801-.044877-.917-.041l-.186.006c.02376.051852.054366.100283.091.144.057.071.112.143.166.216.208548.292592.397623.598586.566.916.17.311.328.621.5.917l.131.22.081.129.149.222c.207.291.473.615.7.905l-.89-.09c-.147-.013-.3-.029-.426-.035l-.2-.012h-.107c-.284-.011-.571-.012-.859,0-.580553.018655-1.159029.078809-1.731.18-1.666903.287336-3.253456.926525-4.654,1.875Z" transform="translate(-3380.9-184.961)" fill="#fff"/><path d="M3667.981,208.01c-.502688-3.191677.022625-6.460525,1.5-9.334.557323-1.090207,1.225161-2.120279,1.993-3.074.57561-.717264,1.198675-1.395119,1.865-2.029.541743-.566546,1.150573-1.064893,1.813-1.484.036.041-.6.585-1.626,1.669-.623513.657593-1.208807,1.350396-1.753,2.075-.718507.955218-1.342442,1.978029-1.863,3.054-.627564,1.298328-1.069231,2.678537-1.312,4.1-.27034,1.629866-.27034,3.293134,0,4.923.303082,1.803256.876184,3.550542,1.7,5.183.888051,1.757744,1.986802,3.400832,3.272,4.893c2.507505,2.885617,5.503173,5.307538,8.85,7.155c2.726843,1.527068,5.647156,2.679452,8.682,3.426c2.049093.502087,4.14309.798884,6.251.886c1.5.059,2.327.014,2.33.067-.76718.159918-1.550797.227066-2.334.2-2.137416.014775-4.269538-.214373-6.355-.683-3.101477-.691192-6.089466-1.818042-8.875-3.347-3.434739-1.853541-6.505582-4.313536-9.064-7.261-1.321774-1.53374-2.447433-3.226092-3.351-5.038-.845352-1.695317-1.426405-3.50997-1.723-5.381Z" transform="translate(-3420.65-179.845)" fill="#fff"/><path d="M3707.023,207.15c-.205128-1.24886-.269197-2.516824-.191-3.78.123429-2.131408.596402-4.22803,1.4-6.206.531277-1.334027,1.25092-2.585068,2.137-3.715.299983-.434125.67523-.811066,1.108-1.113.038.036-.335.449-.9,1.27-.782402,1.162306-1.420427,2.415521-1.9,3.732-.718643,1.945795-1.13252,3.99089-1.227,6.063-.057628,1.216461.016807,2.435585.222,3.636.109536.630533.263928,1.252446.462,1.861.1.308.215.614.344.915l.1.228.011-.119.024-.248c.017-.165.037-.328.058-.489l.043-.3.071-.458.152-.915.293-1.818.4,1.822c.033.156.067.282.1.423s.068.271.1.4.069.258.106.381l.083.278q.229.741.507,1.434c.352718.882779.770534,1.738134,1.25,2.559.798863,1.368656,1.766062,2.631828,2.879,3.76.739997.745542,1.539288,1.429788,2.39,2.046.326901.201926.634235.433933.918.693-.373144-.107265-.725688-.27627-1.043-.5-.918626-.552515-1.776377-1.200437-2.559-1.933-1.190805-1.112059-2.22554-2.380248-3.076-3.77-.512688-.836437-.959696-1.711397-1.337-2.617q-.3-.711-.543-1.477l-.03-.095c-.022849.05868-.037325.120284-.043.183q-.03.235-.053.47l-.022.236-.024.367c-.018609.359486-.016606.719743.006,1.079l.07,1.278-.679-1.119c-.152-.246-.306-.518-.456-.815-.076-.15-.146-.3-.213-.446l-.108-.246c-.135-.321-.255-.645-.361-.97-.20428-.642621-.361036-1.299391-.469-1.965Z" transform="translate(-3466.78-179.916)" fill="#fff"/><path d="M3675.892,202.672c-1.444847-1.064001-2.994947-1.977106-4.626-2.725-1.863999-.867661-3.828779-1.499858-5.849-1.882-1.08668-.202666-2.189585-.30576-3.295-.308-1.144941-.005907-2.285482.142084-3.391.44-1.13469.304804-2.197799.83126-3.128,1.549-.470348.368562-.897407.789247-1.273,1.254-.392506.471823-.747901.973321-1.063,1.5-.776059,1.29194-1.256868,2.739488-1.408,4.239-.129106,1.453888-.024788,2.919069.309,4.34.316053,1.369191.741417,2.710826,1.272,4.012.253.638.519,1.262.788,1.873l.412.918.765,1.659c-.277-.129-.559-.27-.828-.4s-.561-.287-.835-.445c-.3-.176-.6-.358-.882-.543-.572-.371-1.115-.753-1.636-1.138s-1.02-.77-1.5-1.152l-.311-.251-.086-.072-.19-.161c.005215.021107.011898.041824.02.062l.032.079.073.168.02.044.066.136.137.278.279.538c.375.7.76,1.353,1.146,1.942.653998,1.013976,1.407747,1.960015,2.25,2.824.535857.545711,1.12064,1.04112,1.747,1.48.230643.139066.451492.293761.661.463-.263033-.07387-.512291-.190055-.738-.344-.670199-.395948-1.294068-.865527-1.86-1.4-.89317-.845048-1.692776-1.783789-2.385-2.8-.409-.59-.816-1.239-1.212-1.948q-.149-.266-.295-.542l-.146-.28-.193-.386c-.158-.323-.309-.65-.452-.972l-.219-.492-.111-.253-.057-.129c-.018093-.037639-.033791-.076383-.047-.116l2.192,1.722c.482.372.981.747,1.5,1.12s1.058.743,1.622,1.1c.281.177.569.351.863.517.034974.020164.071811.036908.11.05l-.063-.124-.412-.9c-.276-.613-.551-1.242-.812-1.888-.552691-1.328455-.996486-2.699636-1.327-4.1-.356397-1.488998-.470193-3.025749-.337-4.551.159135-1.598837.671477-3.142354,1.5-4.519.332235-.555113.707379-1.083391,1.122-1.58.407195-.502476.870164-.957059,1.38-1.355c1.000813-.770631,2.145062-1.334257,3.366-1.658c1.163628-.30976,2.36392-.460133,3.568-.447c1.144432.008034,2.285652.12219,3.409.341c2.067151.406568,4.074237,1.074252,5.973,1.987c1.654827.783788,3.222479,1.73973,4.677,2.852c1.204469.913736,2.301771,1.960718,3.271,3.121.735811.875412,1.353429,1.843697,1.837,2.88.306026.654154.527153,1.344754.658,2.055.062538.244422.083164.49768.061.749-.081966-.235001-.146802-.475631-.194-.72-.182988-.682149-.438093-1.342874-.761-1.971-.514627-.990594-1.149049-1.914184-1.889-2.75-.980185-1.112307-2.078292-2.114854-3.275-2.99Z" transform="translate(-3388.74-181.281)" fill="#fff"/><path d="M3722.135,249.049l.292.076c.095.024.183.036.274.055s.179.029.267.039c.90004.104529,1.809524-.089031,2.589-.551.324191-.193793.629819-.417072.913-.667.2-.176.318-.273.349-.25s-.031.163-.191.392c-.238689.326821-.52602.615163-.852.855-.506754.376639-1.092523.633105-1.713.75-.377903.071247-.763419.093431-1.147.066-.1-.006-.2-.017-.3-.031-.001517.027808.00863.05499.028.075.326794.317509.681191.605311,1.059.86.700442.473558,1.479092.81955,2.3,1.022l.193.045.1.02.142.026.768.113-.251.476c-.038.078-.079.156-.11.228l-.062.143c-.06174.14621-.114178.296175-.157.449-.07866.282228-.1177.574021-.116.867.016032.497145.110879.988593.281,1.456.137.4.268.725.346.948s.108.352.078.368-.118-.081-.254-.278c-.192864-.286998-.364328-.587812-.513-.9-.245887-.492098-.398784-1.025374-.451-1.573-.025566-.344159-.000295-.690207.075-1.027.040255-.179914.092369-.356967.156-.53l.025-.066c.022-.073-.014-.071-.014-.071l-.059-.009-.106-.019-.211-.044c-.905441-.198035-1.764797-.566961-2.532-1.087-.412693-.277808-.797491-.594957-1.149-.947l-.033-.033-.057-.06-.114-.119c-.076-.077-.147-.162-.219-.243s-.139-.163-.2-.242-.127-.158-.185-.234l-.353-.458-.177-.231-.125-.171c.474.181,1.001.378,1.416.512Z" transform="translate(-3485.95-195.766)" fill="#fff"/><path d="M3706.914,233.242l.042-.179.026-.153c.03634-.225785.05938-.453511.069-.682.018188-.431778.004149-.864311-.042-1.294-.075931-.715729-.217186-1.423011-.422-2.113-.196218-.6116-.424535-1.212434-.684-1.8.401588.517296.708331,1.101664.906,1.726.26121.691466.455434,1.406413.58,2.135.076912.447102.119702.899407.128,1.353.003838.247771-.007182.495548-.033.742v.071c.014037-.009444.025956-.021703.035-.036l.062-.07c.045-.052.09-.106.133-.16.085425-.110006.16391-.225229.235-.345.144-.243.27-.52.407-.805l.1-.215.173-.347c.145-.287.3-.552.446-.822l.024-.046.048.107.245.545.234.5c.08.164.161.326.245.486q.25.48.515.935c.351.607.714,1.18,1.073,1.717.721,1.074,1.431,2,2.056,2.757c1.249,1.514,2.153,2.335,2.118,2.373-.859599-.635787-1.646069-1.364907-2.345-2.174-.78947-.851096-1.530951-1.74548-2.221-2.679-.39-.528-.783-1.094-1.165-1.7q-.287-.455-.561-.94c-.091-.161-.182-.326-.27-.493-.009-.016-.049.063-.049.063l-.105.209c-.14.278-.275.565-.45.847-.087233.139187-.183087.272781-.287.4-.052.064-.1.124-.159.183l-.093.1c-.05.054-.1.1-.154.154-.208.2-.411.371-.6.529l-.577.473-.087.066-.147.116.435-1.124c.047585-.133985.086335-.270945.116-.41Z" transform="translate(-3463.8-189.837)" fill="#fff"/><path d="M3722.228,244.107c-.30808.324778-.679363.583076-1.091.759-.14412.076698-.305827.11428-.469.109.131438-.08562.268783-.161811.411-.228.36045-.217445.678299-.498697.938-.83.386075-.495146.687795-1.050608.893-1.644.125804-.350484.224102-.71024.294-1.076.036-.19.065-.384.085-.583l.007-.074v-.037c-.017855-.000375-.03568.001643-.053.006-.031.006-.062.011-.093.016-.062.009-.125.017-.187.021-.437583.018134-.875481-.02734-1.3-.135-.1-.024-.2-.049-.3-.076l-.121-.033-.136-.04-.261-.081c-.335-.111-.623-.218-.913-.321l-.187-.074c.43-.1.869-.192,1.174-.28.079-.023.148-.046.219-.071l.177-.065c.065-.026.129-.054.191-.082.235715-.108062.455442-.248042.653-.416.324574-.291472.585368-.646915.766-1.044.163-.337.27-.62.352-.811s.13-.293.147-.287s0,.117-.046.32c-.066504.292605-.149978.581093-.25.864-.153565.451847-.403306.865011-.732,1.211-.207073.208629-.442766.386746-.7.529-.067.038-.136.074-.207.108-.05.044-.036.046-.027.046.122.024.216.043.311.06.373971.07553.756489.099753,1.137.072.048,0,.094-.012.139-.02.022,0,.045-.009.066-.014.053-.015.085-.021.111-.032l.159-.069.181-.121.4-.271c0,.046,0,.081,0,.081v.072c-.006.208-.006.406-.023.616-.008.106-.021.211-.034.315l-.03.2c-.037.215-.083.423-.136.625-.102075.385715-.235864.762331-.4,1.126-.272248.613696-.649584,1.175131-1.115,1.659Z" transform="translate(-3482.02-192.615)" fill="#fff"/><path d="M3638.217,261.479c.325.567.713,1.243,1.119,2.01.448226.832817.84627,1.691682,1.192,2.572.227986.584899.409874,1.186734.544,1.8.031.147.057.294.081.44l.031.218.011.094-.009.114-.009.08c.019361-.015765.035058-.035557.046-.058.009-.016.019-.036.031-.06l.017-.039c.01-.022.034-.094.034-.094.113604-.333263.210393-.672023.29-1.015.049886-.305157.123101-.606039.219-.9.03584.311985.027085.627483-.026.937-.036524.359371-.093955.716309-.172,1.069l-.017.079c-.007106.045352-.017466.090135-.031.134l-.076.28-.092.288c-.031.1-.067.178-.1.271-.143.363-.293.7-.48,1.12l-.062.123-.055.114-.068.145.1-1.342c0-.05.009-.111.009-.151v-.124l.006-.25c-.009-.139-.007-.293-.023-.423l-.02-.2c-.006-.066-.013-.116-.013-.116l-.031-.2c-.023-.137-.048-.276-.078-.416-.126957-.588064-.294014-1.16675-.5-1.732-.334-.925-.724-1.786-1.092-2.563s-.72-1.472-1.007-2.06c-.345821-.618628-.630822-1.269342-.851-1.943.393755.578789.754981,1.179051,1.082,1.798Z" transform="translate(-3340.9-199.174)" fill="#fff"/><path d="M3634.16,279.879c.072,5.312-7.946,12.215-12.154,12.272s-5.427-4.082-4.146-9.239c1.312-5.286,4.027-9.829,8.143-10.7c5.981-1.275,8.084,2.355,8.157,7.667Z" transform="translate(-3319.12-202.69)" fill="#ffb888"/><path d="M3633.824,281.162c.036,2.665-2.958,6.658-5.911,7.826-2.278.9-.7-3.507-3.929-2.815-2.934.63-3.431,1.356-2.521-2.505.934-3.959,3.6-7.6,6.54-8.255c4.265-.95,5.767,1.77,5.821,5.749Z" transform="translate(-3321.41-203.625)" opacity="0.3" fill="#432918"/><g transform="matrix(.906-.423 0.423 0.906 252.442 104.161)"><path d="M1.638,0.678C1.137,0.6,0.684,0.138,0,0.111c.610371-.265694,1.32251-.019184,1.638.567Z" transform="translate(26.65 0)" fill="#6d3409" fill-rule="evenodd"/><path d="M24.683,0c.058.018,0,.035,0,.08C20.881814,1.774963,16.750719,2.60166,12.59,2.5C8.31716,2.451059,4.074881,1.772429,0,0.486c.381-.316,1.053-.143,1.56-.073c1.474.2,2.915.624,4.4.9c2.125711.381745,4.27861.59242,6.438.63C16.569099,1.9378,20.713881,1.282259,24.683,0Z" transform="translate(2.643 0.794)" fill="#6d3409" fill-rule="evenodd"/><path d="M4.127,0C2.828,0.309,0.92,0.78,0,1.7C0.551,0.463,2.188,-0.028,4.127,0Z" transform="translate(0 0.244)" fill="#6d3409" fill-rule="evenodd"/></g></g></g>
<script><![CDATA[
!function(t,n){"object"==typeof exports&&"undefined"!=typeof module?module.exports=n():"function"==typeof __SVGATOR_DEFINE__&&__SVGATOR_DEFINE__.amd?__SVGATOR_DEFINE__(n):((t="undefined"!=typeof globalThis?globalThis:t||self).__SVGATOR_PLAYER__=t.__SVGATOR_PLAYER__||{},t.__SVGATOR_PLAYER__["5c7f360c"]=n())}(this,(function(){"use strict";function t(t,n){var e=Object.keys(t);if(Object.getOwnPropertySymbols){var r=Object.getOwnPropertySymbols(t);n&&(r=r.filter((function(n){return Object.getOwnPropertyDescriptor(t,n).enumerable}))),e.push.apply(e,r)}return e}function n(n){for(var e=1;e<arguments.length;e++){var r=null!=arguments[e]?arguments[e]:{};e%2?t(Object(r),!0).forEach((function(t){o(n,t,r[t])})):Object.getOwnPropertyDescriptors?Object.defineProperties(n,Object.getOwnPropertyDescriptors(r)):t(Object(r)).forEach((function(t){Object.defineProperty(n,t,Object.getOwnPropertyDescriptor(r,t))}))}return n}function e(t){return(e="function"==typeof Symbol&&"symbol"==typeof Symbol.iterator?function(t){return typeof t}:function(t){return t&&"function"==typeof Symbol&&t.constructor===Symbol&&t!==Symbol.prototype?"symbol":typeof t})(t)}function r(t,n){if(!(t instanceof n))throw new TypeError("Cannot call a class as a function")}function i(t,n){for(var e=0;e<n.length;e++){var r=n[e];r.enumerable=r.enumerable||!1,r.configurable=!0,"value"in r&&(r.writable=!0),Object.defineProperty(t,r.key,r)}}function u(t,n,e){return n&&i(t.prototype,n),e&&i(t,e),t}function o(t,n,e){return n in t?Object.defineProperty(t,n,{value:e,enumerable:!0,configurable:!0,writable:!0}):t[n]=e,t}function a(t){return(a=Object.setPrototypeOf?Object.getPrototypeOf:function(t){return t.__proto__||Object.getPrototypeOf(t)})(t)}function l(t,n){return(l=Object.setPrototypeOf||function(t,n){return t.__proto__=n,t})(t,n)}function s(){if("undefined"==typeof Reflect||!Reflect.construct)return!1;if(Reflect.construct.sham)return!1;if("function"==typeof Proxy)return!0;try{return Boolean.prototype.valueOf.call(Reflect.construct(Boolean,[],(function(){}))),!0}catch(t){return!1}}function f(t,n,e){return(f=s()?Reflect.construct:function(t,n,e){var r=[null];r.push.apply(r,n);var i=new(Function.bind.apply(t,r));return e&&l(i,e.prototype),i}).apply(null,arguments)}function c(t,n){if(n&&("object"==typeof n||"function"==typeof n))return n;if(void 0!==n)throw new TypeError("Derived constructors may only return object or undefined");return function(t){if(void 0===t)throw new ReferenceError("this hasn't been initialised - super() hasn't been called");return t}(t)}function h(t,n,e){return(h="undefined"!=typeof Reflect&&Reflect.get?Reflect.get:function(t,n,e){var r=function(t,n){for(;!Object.prototype.hasOwnProperty.call(t,n)&&null!==(t=a(t)););return t}(t,n);if(r){var i=Object.getOwnPropertyDescriptor(r,n);return i.get?i.get.call(e):i.value}})(t,n,e||t)}function v(t){return function(t){if(Array.isArray(t))return y(t)}(t)||function(t){if("undefined"!=typeof Symbol&&null!=t[Symbol.iterator]||null!=t["@@iterator"])return Array.from(t)}(t)||function(t,n){if(!t)return;if("string"==typeof t)return y(t,n);var e=Object.prototype.toString.call(t).slice(8,-1);"Object"===e&&t.constructor&&(e=t.constructor.name);if("Map"===e||"Set"===e)return Array.from(t);if("Arguments"===e||/^(?:Ui|I)nt(?:8|16|32)(?:Clamped)?Array$/.test(e))return y(t,n)}(t)||function(){throw new TypeError("Invalid attempt to spread non-iterable instance.\nIn order to be iterable, non-array objects must have a [Symbol.iterator]() method.")}()}function y(t,n){(null==n||n>t.length)&&(n=t.length);for(var e=0,r=new Array(n);e<n;e++)r[e]=t[e];return r}Number.isInteger||(Number.isInteger=function(t){return"number"==typeof t&&isFinite(t)&&Math.floor(t)===t}),Number.EPSILON||(Number.EPSILON=2220446049250313e-31);var g=p(Math.pow(10,-6));function p(t){var n=arguments.length>1&&void 0!==arguments[1]?arguments[1]:6;if(Number.isInteger(t))return t;var e=Math.pow(10,n);return Math.round((+t+Number.EPSILON)*e)/e}function d(t,n){var e=arguments.length>2&&void 0!==arguments[2]?arguments[2]:g;return Math.abs(t-n)<e}var m=Math.PI/180;function b(t){return t}function w(t,n,e){var r=1-e;return 3*e*r*(t*r+n*e)+e*e*e}function A(){var t=arguments.length>0&&void 0!==arguments[0]?arguments[0]:0,n=arguments.length>1&&void 0!==arguments[1]?arguments[1]:0,e=arguments.length>2&&void 0!==arguments[2]?arguments[2]:1,r=arguments.length>3&&void 0!==arguments[3]?arguments[3]:1;return t<0||t>1||e<0||e>1?null:d(t,n)&&d(e,r)?b:function(i){if(i<=0)return t>0?i*n/t:0===n&&e>0?i*r/e:0;if(i>=1)return e<1?1+(i-1)*(r-1)/(e-1):1===e&&t<1?1+(i-1)*(n-1)/(t-1):1;for(var u,o=0,a=1;o<a;){var l=w(t,e,u=(o+a)/2);if(d(i,l))break;l<i?o=u:a=u}return w(n,r,u)}}function _(){return 1}function x(t){return 1===t?1:0}function k(){var t=arguments.length>0&&void 0!==arguments[0]?arguments[0]:1,n=arguments.length>1&&void 0!==arguments[1]?arguments[1]:0;if(1===t){if(0===n)return x;if(1===n)return _}var e=1/t;return function(t){return t>=1?1:(t+=n*e)-t%e}}var S=Math.sin,O=Math.cos,j=Math.acos,E=Math.asin,M=Math.tan,P=Math.atan2,I=Math.PI/180,R=180/Math.PI,F=Math.sqrt,N=function(){function t(){var n=arguments.length>0&&void 0!==arguments[0]?arguments[0]:1,e=arguments.length>1&&void 0!==arguments[1]?arguments[1]:0,i=arguments.length>2&&void 0!==arguments[2]?arguments[2]:0,u=arguments.length>3&&void 0!==arguments[3]?arguments[3]:1,o=arguments.length>4&&void 0!==arguments[4]?arguments[4]:0,a=arguments.length>5&&void 0!==arguments[5]?arguments[5]:0;r(this,t),this.m=[n,e,i,u,o,a],this.i=null,this.w=null,this.s=null}return u(t,[{key:"determinant",get:function(){var t=this.m;return t[0]*t[3]-t[1]*t[2]}},{key:"isIdentity",get:function(){if(null===this.i){var t=this.m;this.i=1===t[0]&&0===t[1]&&0===t[2]&&1===t[3]&&0===t[4]&&0===t[5]}return this.i}},{key:"point",value:function(t,n){var e=this.m;return{x:e[0]*t+e[2]*n+e[4],y:e[1]*t+e[3]*n+e[5]}}},{key:"translateSelf",value:function(){var t=arguments.length>0&&void 0!==arguments[0]?arguments[0]:0,n=arguments.length>1&&void 0!==arguments[1]?arguments[1]:0;if(!t&&!n)return this;var e=this.m;return e[4]+=e[0]*t+e[2]*n,e[5]+=e[1]*t+e[3]*n,this.w=this.s=this.i=null,this}},{key:"rotateSelf",value:function(){var t=arguments.length>0&&void 0!==arguments[0]?arguments[0]:0;if(t%=360){var n=S(t*=I),e=O(t),r=this.m,i=r[0],u=r[1];r[0]=i*e+r[2]*n,r[1]=u*e+r[3]*n,r[2]=r[2]*e-i*n,r[3]=r[3]*e-u*n,this.w=this.s=this.i=null}return this}},{key:"scaleSelf",value:function(){var t=arguments.length>0&&void 0!==arguments[0]?arguments[0]:1,n=arguments.length>1&&void 0!==arguments[1]?arguments[1]:1;if(1!==t||1!==n){var e=this.m;e[0]*=t,e[1]*=t,e[2]*=n,e[3]*=n,this.w=this.s=this.i=null}return this}},{key:"skewSelf",value:function(t,n){if(n%=360,(t%=360)||n){var e=this.m,r=e[0],i=e[1],u=e[2],o=e[3];t&&(t=M(t*I),e[2]+=r*t,e[3]+=i*t),n&&(n=M(n*I),e[0]+=u*n,e[1]+=o*n),this.w=this.s=this.i=null}return this}},{key:"resetSelf",value:function(){var t=arguments.length>0&&void 0!==arguments[0]?arguments[0]:1,n=arguments.length>1&&void 0!==arguments[1]?arguments[1]:0,e=arguments.length>2&&void 0!==arguments[2]?arguments[2]:0,r=arguments.length>3&&void 0!==arguments[3]?arguments[3]:1,i=arguments.length>4&&void 0!==arguments[4]?arguments[4]:0,u=arguments.length>5&&void 0!==arguments[5]?arguments[5]:0,o=this.m;return o[0]=t,o[1]=n,o[2]=e,o[3]=r,o[4]=i,o[5]=u,this.w=this.s=this.i=null,this}},{key:"recomposeSelf",value:function(){var t=arguments.length>0&&void 0!==arguments[0]?arguments[0]:null,n=arguments.length>1&&void 0!==arguments[1]?arguments[1]:null,e=arguments.length>2&&void 0!==arguments[2]?arguments[2]:null,r=arguments.length>3&&void 0!==arguments[3]?arguments[3]:null,i=arguments.length>4&&void 0!==arguments[4]?arguments[4]:null;return this.isIdentity||this.resetSelf(),t&&(t.x||t.y)&&this.translateSelf(t.x,t.y),n&&this.rotateSelf(n),e&&(e.x&&this.skewSelf(e.x,0),e.y&&this.skewSelf(0,e.y)),!r||1===r.x&&1===r.y||this.scaleSelf(r.x,r.y),i&&(i.x||i.y)&&this.translateSelf(i.x,i.y),this}},{key:"decompose",value:function(){var t=arguments.length>0&&void 0!==arguments[0]?arguments[0]:0,n=arguments.length>1&&void 0!==arguments[1]?arguments[1]:0,e=this.m,r=e[0]*e[0]+e[1]*e[1],i=[[e[0],e[1]],[e[2],e[3]]],u=F(r);if(0===u)return{origin:{x:p(e[4]),y:p(e[5])},translate:{x:p(t),y:p(n)},scale:{x:0,y:0},skew:{x:0,y:0},rotate:0};i[0][0]/=u,i[0][1]/=u;var o=e[0]*e[3]-e[1]*e[2]<0;o&&(u=-u);var a=i[0][0]*i[1][0]+i[0][1]*i[1][1];i[1][0]-=i[0][0]*a,i[1][1]-=i[0][1]*a;var l=F(i[1][0]*i[1][0]+i[1][1]*i[1][1]);if(0===l)return{origin:{x:p(e[4]),y:p(e[5])},translate:{x:p(t),y:p(n)},scale:{x:p(u),y:0},skew:{x:0,y:0},rotate:0};i[1][0]/=l,i[1][1]/=l,a/=l;var s=0;return i[1][1]<0?(s=j(i[1][1])*R,i[0][1]<0&&(s=360-s)):s=E(i[0][1])*R,o&&(s=-s),a=P(a,F(i[0][0]*i[0][0]+i[0][1]*i[0][1]))*R,o&&(a=-a),{origin:{x:p(e[4]),y:p(e[5])},translate:{x:p(t),y:p(n)},scale:{x:p(u),y:p(l)},skew:{x:p(a),y:0},rotate:p(s)}}},{key:"clone",value:function(){var t=this.m;return new this.constructor(t[0],t[1],t[2],t[3],t[4],t[5])}},{key:"toString",value:function(){var t=arguments.length>0&&void 0!==arguments[0]?arguments[0]:" ";if(null===this.s){var n=this.m.map((function(t){return p(t)}));1===n[0]&&0===n[1]&&0===n[2]&&1===n[3]?this.s="translate("+n[4]+t+n[5]+")":this.s="matrix("+n.join(t)+")"}return this.s}}],[{key:"create",value:function(t){return t?Array.isArray(t)?f(this,v(t)):t instanceof this?t.clone():(new this).recomposeSelf(t.origin,t.rotate,t.skew,t.scale,t.translate):new this}}]),t}();function T(t,n,e){return t>=.5?e:n}function q(t,n,e){return 0===t||n===e?n:t*(e-n)+n}function B(t,n,e){var r=q(t,n,e);return r<=0?0:r}function D(t,n,e){var r=q(t,n,e);return r<=0?0:r>=1?1:r}function L(t,n,e){return 0===t?n:1===t?e:{x:q(t,n.x,e.x),y:q(t,n.y,e.y)}}function C(t,n,e){var r=function(t,n,e){return Math.round(q(t,n,e))}(t,n,e);return r<=0?0:r>=255?255:r}function V(t,n,e){return 0===t?n:1===t?e:{r:C(t,n.r,e.r),g:C(t,n.g,e.g),b:C(t,n.b,e.b),a:q(t,null==n.a?1:n.a,null==e.a?1:e.a)}}function G(t,n){for(var e=[],r=0;r<t;r++)e.push(n);return e}function z(t,n){if(--n<=0)return t;var e=(t=Object.assign([],t)).length;do{for(var r=0;r<e;r++)t.push(t[r])}while(--n>0);return t}var Y,$=function(){function t(n){r(this,t),this.list=n,this.length=n.length}return u(t,[{key:"setAttribute",value:function(t,n){for(var e=this.list,r=0;r<this.length;r++)e[r].setAttribute(t,n)}},{key:"removeAttribute",value:function(t){for(var n=this.list,e=0;e<this.length;e++)n[e].removeAttribute(t)}},{key:"style",value:function(t,n){for(var e=this.list,r=0;r<this.length;r++)e[r].style[t]=n}}]),t}(),U=/-./g,Q=function(t,n){return n.toUpperCase()};function H(t){return"function"==typeof t?t:T}function J(t){return t?"function"==typeof t?t:Array.isArray(t)?function(t){var n=arguments.length>1&&void 0!==arguments[1]?arguments[1]:b;if(!Array.isArray(t))return n;switch(t.length){case 1:return k(t[0])||n;case 2:return k(t[0],t[1])||n;case 4:return A(t[0],t[1],t[2],t[3])||n}return n}(t,null):function(t,n){var e=arguments.length>2&&void 0!==arguments[2]?arguments[2]:b;switch(t){case"linear":return b;case"steps":return k(n.steps||1,n.jump||0)||e;case"bezier":case"cubic-bezier":return A(n.x1||0,n.y1||0,n.x2||0,n.y2||0)||e}return e}(t.type,t.value,null):null}function Z(t,n,e){var r=arguments.length>3&&void 0!==arguments[3]&&arguments[3],i=n.length-1;if(t<=n[0].t)return r?[0,0,n[0].v]:n[0].v;if(t>=n[i].t)return r?[i,1,n[i].v]:n[i].v;var u,o=n[0],a=null;for(u=1;u<=i;u++){if(!(t>n[u].t)){a=n[u];break}o=n[u]}return null==a?r?[i,1,n[i].v]:n[i].v:o.t===a.t?r?[u,1,a.v]:a.v:(t=(t-o.t)/(a.t-o.t),o.e&&(t=o.e(t)),r?[u,t,e(t,o.v,a.v)]:e(t,o.v,a.v))}function K(t,n){var e=arguments.length>2&&void 0!==arguments[2]?arguments[2]:null;return t&&t.length?"function"!=typeof n?null:("function"!=typeof e&&(e=null),function(r){var i=Z(r,t,n);return null!=i&&e&&(i=e(i)),i}):null}function W(t,n){return t.t-n.t}function X(t,n,r,i,u){var o,a="@"===r[0],l="#"===r[0],s=Y[r],f=T;switch(a?(o=r.substr(1),r=o.replace(U,Q)):l&&(r=r.substr(1)),e(s)){case"function":if(f=s(i,u,Z,J,r,a,n,t),l)return f;break;case"string":f=K(i,H(s));break;case"object":if((f=K(i,H(s.i),s.f))&&"function"==typeof s.u)return s.u(n,f,r,a,t)}return f?function(t,n,e){if(arguments.length>3&&void 0!==arguments[3]&&arguments[3])return t instanceof $?function(r){return t.style(n,e(r))}:function(r){return t.style[n]=e(r)};if(Array.isArray(n)){var r=n.length;return function(i){var u=e(i);if(null==u)for(var o=0;o<r;o++)t[o].removeAttribute(n);else for(var a=0;a<r;a++)t[a].setAttribute(n,u)}}return function(r){var i=e(r);null==i?t.removeAttribute(n):t.setAttribute(n,i)}}(n,r,f,a):null}function tt(t,n,r,i){if(!i||"object"!==e(i))return null;var u=null,o=null;return Array.isArray(i)?o=function(t){if(!t||!t.length)return null;for(var n=0;n<t.length;n++)t[n].e&&(t[n].e=J(t[n].e));return t.sort(W)}(i):(o=i.keys,u=i.data||null),o?X(t,n,r,o,u):null}function nt(t,n,e){if(!e)return null;var r=[];for(var i in e)if(e.hasOwnProperty(i)){var u=tt(t,n,i,e[i]);u&&r.push(u)}return r.length?r:null}function et(t,n){if(!n.settings.duration||n.settings.duration<0)return null;var e,r,i,u,o,a=function(t,n){if(!n)return null;var e=[];if(Array.isArray(n))for(var r=n.length,i=0;i<r;i++){var u=n[i];if(2===u.length){var o=null;if("string"==typeof u[0])o=t.getElementById(u[0]);else if(Array.isArray(u[0])){o=[];for(var a=0;a<u[0].length;a++)if("string"==typeof u[0][a]){var l=t.getElementById(u[0][a]);l&&o.push(l)}o=o.length?1===o.length?o[0]:new $(o):null}if(o){var s=nt(t,o,u[1]);s&&(e=e.concat(s))}}}else for(var f in n)if(n.hasOwnProperty(f)){var c=t.getElementById(f);if(c){var h=nt(t,c,n[f]);h&&(e=e.concat(h))}}return e.length?e:null}(t,n.elements);return a?(e=a,r=n.settings,i=r.duration,u=e.length,o=null,function(t,n){var a=r.iterations||1/0,l=(r.alternate&&a%2==0)^r.direction>0?i:0,s=t%i,f=1+(t-s)/i;n*=r.direction,r.alternate&&f%2==0&&(n=-n);var c=!1;if(f>a)s=l,c=!0,-1===r.fill&&(s=r.direction>0?0:i);else if(n<0&&(s=i-s),s===o)return!1;o=s;for(var h=0;h<u;h++)e[h](s);return c}):null}function rt(t,n){if(Y=n,!t||!t.root||!Array.isArray(t.animations))return null;var e=function(t){for(var n=document.getElementsByTagName("svg"),e=0;e<n.length;e++)if(n[e].id===t.root&&!n[e].svgatorAnimation)return n[e].svgatorAnimation=!0,n[e];return null}(t);if(!e)return null;var r=t.animations.map((function(t){return et(e,t)})).filter((function(t){return!!t}));return r.length?{svg:e,animations:r,animationSettings:t.animationSettings,options:t.options||void 0}:null}function it(t){return+("0x"+(t.replace(/[^0-9a-fA-F]+/g,"")||27))}function ut(t,n,e){return!t||!e||n>t.length?t:t.substring(0,n)+ut(t.substring(n+1),e,e)}function ot(t){var n=arguments.length>1&&void 0!==arguments[1]?arguments[1]:27;return!t||t%n?t%n:ot(t/n,n)}function at(t,n,e){if(t&&t.length){var r=it(e),i=it(n),u=ot(r)+5,o=ut(t,ot(r,5),u);return o=o.replace(/\x7c$/g,"==").replace(/\x2f$/g,"="),o=function(t,n,e){var r=+("0x"+t.substring(0,4));t=t.substring(4);for(var i=n%r+e%27,u=[],o=0;o<t.length;o+=2)if("|"!==t[o]){var a=+("0x"+t[o]+t[o+1])-i;u.push(a)}else{var l=+("0x"+t.substring(o+1,o+1+4))-i;o+=3,u.push(l)}return String.fromCharCode.apply(String,u)}(o=(o=atob(o)).replace(/[\x41-\x5A]/g,""),i,r),o=JSON.parse(o)}}var lt=[{key:"alternate",def:!1},{key:"fill",def:1},{key:"iterations",def:0},{key:"direction",def:1},{key:"speed",def:1},{key:"fps",def:100}],st=function(){function t(n,e){var i=this,u=arguments.length>2&&void 0!==arguments[2]?arguments[2]:null;r(this,t),this._id=0,this._running=!1,this._rollingBack=!1,this._animations=n,this._settings=e,(!u||u<"2022-05-02")&&delete this._settings.speed,lt.forEach((function(t){i._settings[t.key]=i._settings[t.key]||t.def})),this.duration=e.duration,this.offset=e.offset||0,this.rollbackStartOffset=0}return u(t,[{key:"alternate",get:function(){return this._settings.alternate}},{key:"fill",get:function(){return this._settings.fill}},{key:"iterations",get:function(){return this._settings.iterations}},{key:"direction",get:function(){return this._settings.direction}},{key:"speed",get:function(){return this._settings.speed}},{key:"fps",get:function(){return this._settings.fps}},{key:"maxFiniteDuration",get:function(){return this.iterations>0?this.iterations*this.duration:this.duration}},{key:"_apply",value:function(t){for(var n=arguments.length>1&&void 0!==arguments[1]?arguments[1]:{},e=this._animations,r=e.length,i=0,u=0;u<r;u++)n[u]?i++:(n[u]=e[u](t,1),n[u]&&i++);return i}},{key:"_rollback",value:function(t){var n=this,e=1/0,r=null;this.rollbackStartOffset=t,this._rollingBack=!0,this._running=!0;this._id=window.requestAnimationFrame((function i(u){if(n._rollingBack){null==r&&(r=u);var o=Math.round(t-(u-r)*n.speed);if(o>n.duration&&e!==1/0){var a=!!n.alternate&&o/n.duration%2>1,l=o%n.duration;o=(l+=a?n.duration:0)||n.duration}var s=(n.fps?1e3/n.fps:0)*n.speed,f=Math.max(0,o);f<=e-s&&(n.offset=f,e=f,n._apply(f));var c=n.iterations>0&&-1===n.fill&&o>=n.maxFiniteDuration;(o<=0||n.offset<o||c)&&n.stop(),n._id=window.requestAnimationFrame(i)}}))}},{key:"_start",value:function(){var t=this,n=arguments.length>0&&void 0!==arguments[0]?arguments[0]:0,e=-1/0,r=null,i={};this._running=!0;var u=function u(o){null==r&&(r=o);var a=Math.round((o-r)*t.speed+n),l=(t.fps?1e3/t.fps:0)*t.speed;if(a>=e+l&&!t._rollingBack&&(t.offset=a,e=a,t._apply(a,i)===t._animations.length))return void t.pause(!0);t._id=window.requestAnimationFrame(u)};this._id=window.requestAnimationFrame(u)}},{key:"_pause",value:function(){this._id&&window.cancelAnimationFrame(this._id),this._running=!1}},{key:"play",value:function(){if(!this._running)return this._rollingBack?this._rollback(this.offset):this._start(this.offset)}},{key:"stop",value:function(){this._pause(),this.offset=0,this.rollbackStartOffset=0,this._rollingBack=!1,this._apply(0)}},{key:"reachedToEnd",value:function(){return this.iterations>0&&this.offset>=this.iterations*this.duration}},{key:"restart",value:function(){var t=arguments.length>0&&void 0!==arguments[0]&&arguments[0];this.stop(t),this.play(t)}},{key:"pause",value:function(){this._pause()}},{key:"reverse",value:function(){this.direction=-this.direction}}],[{key:"build",value:function(t,n){delete t.animationSettings,t.options=at(t.options,t.root,"5c7f360c"),t.animations.map((function(n){n.settings=at(n.s,t.root,"5c7f360c"),delete n.s,t.animationSettings||(t.animationSettings=n.settings)}));var e=t.version;if(!(t=rt(t,n)))return null;var r=t.options||{},i=new this(t.animations,t.animationSettings,e);return{el:t.svg,options:r,player:i}}},{key:"push",value:function(t){return this.build(t)}},{key:"init",value:function(){var t=this,n=window.__SVGATOR_PLAYER__&&window.__SVGATOR_PLAYER__["5c7f360c"];Array.isArray(n)&&n.splice(0).forEach((function(n){return t.build(n)}))}}]),t}();function ft(t){return p(t)+""}function ct(t){var n=arguments.length>1&&void 0!==arguments[1]?arguments[1]:" ";return t&&t.length?t.map(ft).join(n):""}function ht(t){if(!t)return"transparent";if(null==t.a||t.a>=1){var n=function(t){return 1===(t=parseInt(t).toString(16)).length?"0"+t:t},e=function(t){return t.charAt(0)===t.charAt(1)},r=n(t.r),i=n(t.g),u=n(t.b);return e(r)&&e(i)&&e(u)&&(r=r.charAt(0),i=i.charAt(0),u=u.charAt(0)),"#"+r+i+u}return"rgba("+t.r+","+t.g+","+t.b+","+t.a+")"}function vt(t){return t?"url(#"+t+")":"none"}!function(){for(var t=0,n=["ms","moz","webkit","o"],e=0;e<n.length&&!window.requestAnimationFrame;++e)window.requestAnimationFrame=window[n[e]+"RequestAnimationFrame"],window.cancelAnimationFrame=window[n[e]+"CancelAnimationFrame"]||window[n[e]+"CancelRequestAnimationFrame"];window.requestAnimationFrame||(window.requestAnimationFrame=function(n){var e=Date.now(),r=Math.max(0,16-(e-t)),i=window.setTimeout((function(){n(e+r)}),r);return t=e+r,i},window.cancelAnimationFrame=window.clearTimeout)}();var yt={f:null,i:function(t,n,e){return 0===t?n:1===t?e:{x:B(t,n.x,e.x),y:B(t,n.y,e.y)}},u:function(t,n){return function(e){var r=n(e);t.setAttribute("rx",ft(r.x)),t.setAttribute("ry",ft(r.y))}}},gt={f:null,i:function(t,n,e){return 0===t?n:1===t?e:{width:B(t,n.width,e.width),height:B(t,n.height,e.height)}},u:function(t,n){return function(e){var r=n(e);t.setAttribute("width",ft(r.width)),t.setAttribute("height",ft(r.height))}}};Object.freeze({M:2,L:2,Z:0,H:1,V:1,C:6,Q:4,T:2,S:4,A:7});var pt={},dt=null;function mt(t){var n=function(){if(dt)return dt;if("object"!==("undefined"==typeof document?"undefined":e(document))||!document.createElementNS)return{};var t=document.createElementNS("http://www.w3.org/2000/svg","svg");return t&&t.style?(t.style.position="absolute",t.style.opacity="0.01",t.style.zIndex="-9999",t.style.left="-9999px",t.style.width="1px",t.style.height="1px",dt={svg:t}):{}}().svg;if(!n)return function(t){return null};var r=document.createElementNS(n.namespaceURI,"path");r.setAttributeNS(null,"d",t),r.setAttributeNS(null,"fill","none"),r.setAttributeNS(null,"stroke","none"),n.appendChild(r);var i=r.getTotalLength();return function(t){var n=r.getPointAtLength(i*t);return{x:n.x,y:n.y}}}function bt(t){return pt[t]?pt[t]:pt[t]=mt(t)}function wt(t,n,e,r){if(!t||!r)return!1;var i=["M",t.x,t.y];if(n&&e&&(i.push("C"),i.push(n.x),i.push(n.y),i.push(e.x),i.push(e.y)),n?!e:e){var u=n||e;i.push("Q"),i.push(u.x),i.push(u.y)}return n||e||i.push("L"),i.push(r.x),i.push(r.y),i.join(" ")}function At(t,n,e,r){var i=arguments.length>4&&void 0!==arguments[4]?arguments[4]:1,u=wt(t,n,e,r),o=bt(u);try{return o(i)}catch(t){return null}}function _t(t,n,e){return t+(n-t)*e}function xt(t,n,e){var r=arguments.length>3&&void 0!==arguments[3]&&arguments[3],i={x:_t(t.x,n.x,e),y:_t(t.y,n.y,e)};return r&&(i.a=kt(t,n)),i}function kt(t,n){return Math.atan2(n.y-t.y,n.x-t.x)}function St(t,n,e,r){var i=1-r;return i*i*t+2*i*r*n+r*r*e}function Ot(t,n,e,r){return 2*(1-r)*(n-t)+2*r*(e-n)}function jt(t,n,e,r){var i=arguments.length>4&&void 0!==arguments[4]&&arguments[4],u=At(t,n,null,e,r);return u||(u={x:St(t.x,n.x,e.x,r),y:St(t.y,n.y,e.y,r)}),i&&(u.a=Et(t,n,e,r)),u}function Et(t,n,e,r){return Math.atan2(Ot(t.y,n.y,e.y,r),Ot(t.x,n.x,e.x,r))}function Mt(t,n,e,r,i){var u=i*i;return i*u*(r-t+3*(n-e))+3*u*(t+e-2*n)+3*i*(n-t)+t}function Pt(t,n,e,r,i){var u=1-i;return 3*(u*u*(n-t)+2*u*i*(e-n)+i*i*(r-e))}function It(t,n,e,r,i){var u=arguments.length>5&&void 0!==arguments[5]&&arguments[5],o=At(t,n,e,r,i);return o||(o={x:Mt(t.x,n.x,e.x,r.x,i),y:Mt(t.y,n.y,e.y,r.y,i)}),u&&(o.a=Rt(t,n,e,r,i)),o}function Rt(t,n,e,r,i){return Math.atan2(Pt(t.y,n.y,e.y,r.y,i),Pt(t.x,n.x,e.x,r.x,i))}function Ft(t,n,e){var r=arguments.length>3&&void 0!==arguments[3]&&arguments[3];if(Tt(n)){if(qt(e))return jt(n,e.start,e,t,r)}else if(Tt(e)){if(Bt(n))return jt(n,n.end,e,t,r)}else{if(Bt(n))return qt(e)?It(n,n.end,e.start,e,t,r):jt(n,n.end,e,t,r);if(qt(e))return jt(n,e.start,e,t,r)}return xt(n,e,t,r)}function Nt(t,n,e){var r=Ft(t,n,e,!0);return r.a=function(t){return arguments.length>1&&void 0!==arguments[1]&&arguments[1]?t+Math.PI:t}(r.a)/m,r}function Tt(t){return!t.type||"corner"===t.type}function qt(t){return null!=t.start&&!Tt(t)}function Bt(t){return null!=t.end&&!Tt(t)}var Dt=new N;var Lt={f:ft,i:q},Ct={f:ft,i:D};function Vt(t,n,e){return t.map((function(t){return function(t,n,e){var r=t.v;if(!r||"g"!==r.t||r.s||!r.v||!r.r)return t;var i=e.getElementById(r.r),u=i&&i.querySelectorAll("stop")||[];return r.s=r.v.map((function(t,n){var e=u[n]&&u[n].getAttribute("offset");return{c:t,o:e=p(parseInt(e)/100)}})),delete r.v,t}(t,0,e)}))}var Gt={gt:"gradientTransform",c:{x:"cx",y:"cy"},rd:"r",f:{x:"x1",y:"y1"},to:{x:"x2",y:"y2"}};function zt(t,n,r,i,u,o,a,l){return Vt(t,0,l),n=function(t,n,e){for(var r,i,u,o=t.length-1,a={},l=0;l<=o;l++)(r=t[l]).e&&(r.e=n(r.e)),r.v&&"g"===(i=r.v).t&&i.r&&(u=e.getElementById(i.r))&&(a[i.r]={e:u,s:u.querySelectorAll("stop")});return a}(t,i,l),function(i){var u=r(i,t,Yt);if(!u)return"none";if("c"===u.t)return ht(u.v);if("g"===u.t){if(!n[u.r])return vt(u.r);var o=n[u.r];return function(t,n){for(var e=t.s,r=e.length;r<n.length;r++){var i=e[e.length-1].cloneNode();i.id=Qt(i.id),t.e.appendChild(i),e=t.s=t.e.querySelectorAll("stop")}for(var u=0,o=e.length,a=n.length-1;u<o;u++)e[u].setAttribute("stop-color",ht(n[Math.min(u,a)].c)),e[u].setAttribute("offset",n[Math.min(u,a)].o)}(o,u.s),Object.keys(Gt).forEach((function(t){if(void 0!==u[t])if("object"!==e(Gt[t])){var n,r="gt"===t?(n=u[t],Array.isArray(n)?"matrix("+n.join(" ")+")":""):u[t],i=Gt[t];o.e.setAttribute(i,r)}else Object.keys(Gt[t]).forEach((function(n){if(void 0!==u[t][n]){var e=u[t][n],r=Gt[t][n];o.e.setAttribute(r,e)}}))})),vt(u.r)}return"none"}}function Yt(t,e,r){if(0===t)return e;if(1===t)return r;if(e&&r){var i=e.t;if(i===r.t)switch(e.t){case"c":return{t:i,v:V(t,e.v,r.v)};case"g":if(e.r===r.r){var u={t:i,s:$t(t,e.s,r.s),r:e.r};return e.gt&&r.gt&&(u.gt=function(t,n,e){var r=n.length;if(r!==e.length)return T(t,n,e);for(var i=new Array(r),u=0;u<r;u++)i[u]=q(t,n[u],e[u]);return i}(t,e.gt,r.gt)),e.c?(u.c=L(t,e.c,r.c),u.rd=B(t,e.rd,r.rd)):e.f&&(u.f=L(t,e.f,r.f),u.to=L(t,e.to,r.to)),u}}if("c"===e.t&&"g"===r.t||"c"===r.t&&"g"===e.t){var o="c"===e.t?e:r,a="g"===e.t?n({},e):n({},r),l=a.s.map((function(t){return{c:o.v,o:t.o}}));return a.s="c"===e.t?$t(t,l,a.s):$t(t,a.s,l),a}}return T(t,e,r)}function $t(t,n,e){if(n.length===e.length)return n.map((function(n,r){return Ut(t,n,e[r])}));for(var r=Math.max(n.length,e.length),i=[],u=0;u<r;u++){var o=Ut(t,n[Math.min(u,n.length-1)],e[Math.min(u,e.length-1)]);i.push(o)}return i}function Ut(t,n,e){return{o:D(t,n.o,e.o||0),c:V(t,n.c,e.c||{})}}function Qt(t){return t.replace(/-fill-([0-9]+)$/,(function(t,n){return"-fill-"+(+n+1)}))}var Ht={fill:zt,"fill-opacity":Ct,stroke:zt,"stroke-opacity":Ct,"stroke-width":Lt,"stroke-dashoffset":{f:ft,i:q},"stroke-dasharray":{f:function(t){var n=arguments.length>1&&void 0!==arguments[1]?arguments[1]:" ";return t&&t.length>0&&(t=t.map((function(t){return p(t,4)}))),ct(t,n)},i:function(t,n,e){var r,i,u,o=n.length,a=e.length;if(o!==a)if(0===o)n=G(o=a,0);else if(0===a)a=o,e=G(o,0);else{var l=(u=(r=o)*(i=a)/function(t,n){for(var e;n;)e=n,n=t%n,t=e;return t||1}(r,i))<0?-u:u;n=z(n,Math.floor(l/o)),e=z(e,Math.floor(l/a)),o=a=l}for(var s=[],f=0;f<o;f++)s.push(p(B(t,n[f],e[f])));return s}},opacity:Ct,transform:function(t,n,r,i){if(!(t=function(t,n){if(!t||"object"!==e(t))return null;var r=!1;for(var i in t)t.hasOwnProperty(i)&&(t[i]&&t[i].length?(t[i].forEach((function(t){t.e&&(t.e=n(t.e))})),r=!0):delete t[i]);return r?t:null}(t,i)))return null;var u=function(e,i,u){var o=arguments.length>3&&void 0!==arguments[3]?arguments[3]:null;return t[e]?r(i,t[e],u):n&&n[e]?n[e]:o};return n&&n.a&&t.o?function(n){var e=r(n,t.o,Nt);return Dt.recomposeSelf(e,u("r",n,q,0)+e.a,u("k",n,L),u("s",n,L),u("t",n,L)).toString()}:function(t){return Dt.recomposeSelf(u("o",t,Ft,null),u("r",t,q,0),u("k",t,L),u("s",t,L),u("t",t,L)).toString()}},r:Lt,"#size":gt,"#radius":yt,_:function(t,n){if(Array.isArray(t))for(var e=0;e<t.length;e++)this[t[e]]=n;else this[t]=n}},Jt=function(t){!function(t,n){if("function"!=typeof n&&null!==n)throw new TypeError("Super expression must either be null or a function");t.prototype=Object.create(n&&n.prototype,{constructor:{value:t,writable:!0,configurable:!0}}),n&&l(t,n)}(o,t);var n,e,i=(n=o,e=s(),function(){var t,r=a(n);if(e){var i=a(this).constructor;t=Reflect.construct(r,arguments,i)}else t=r.apply(this,arguments);return c(this,t)});function o(){return r(this,o),i.apply(this,arguments)}return u(o,null,[{key:"build",value:function(t){var n=h(a(o),"build",this).call(this,t,Ht);if(!n)return null;n.el,n.options,function(t,n,e){t.play()}(n.player)}}]),o}(st);return Jt.init(),Jt}));
(function(s,i,o,w,d,a,b){w[o]=w[o]||{};w[o][s]=w[o][s]||[];w[o][s].push(i);})('5c7f360c',{"root":"eDrqMA7tVlU1","version":"2022-05-04","animations":[{"elements":{"eDrqMA7tVlU14":{"transform":{"data":{"o":{"x":198.810061,"y":205.487689,"type":"corner"},"t":{"x":-198.810046,"y":-205.487688}},"keys":{"r":[{"t":0,"v":5.013726},{"t":1000,"v":-0.097324},{"t":2000,"v":5.002777}]}}},"eDrqMA7tVlU17":{"transform":{"data":{"o":{"x":196.381,"y":209.060766,"type":"corner"},"t":{"x":-3832.470987,"y":-465.109731}},"keys":{"r":[{"t":0,"v":0},{"t":1000,"v":15.196676},{"t":2000,"v":0.523696}]}}},"eDrqMA7tVlU18":{"transform":{"data":{"o":{"x":197.591689,"y":208.491963,"type":"corner"},"t":{"x":-197.591677,"y":-208.491928}},"keys":{"r":[{"t":0,"v":0},{"t":1000,"v":5.385281},{"t":2000,"v":0.557589}]}}},"eDrqMA7tVlU45":{"transform":{"data":{"o":{"x":225.996782,"y":208.589535,"type":"corner"},"t":{"x":-3793.286774,"y":-464.379504}},"keys":{"r":[{"t":0,"v":0},{"t":1000,"v":8.917573},{"t":2000,"v":-3.001893}]}}},"eDrqMA7tVlU46":{"transform":{"data":{"o":{"x":229.924844,"y":207.952586,"type":"corner"},"t":{"x":-3787.51483,"y":-463.375576}},"keys":{"r":[{"t":0,"v":11.1563},{"t":1000,"v":-0.29344},{"t":2000,"v":10.908904}]}}},"eDrqMA7tVlU47":{"transform":{"data":{"o":{"x":236.8305,"y":208.589535,"type":"corner"},"t":{"x":-3780.020499,"y":-464.157472}},"keys":{"r":[{"t":0,"v":0},{"t":1000,"v":14.55561},{"t":2000,"v":0.404165}]}}}},"s":"MODA1ZGRlODVjN2Q4ZDMVjNGQ3Y2NkMk1kMTgL1OWQ5NTkzOTNOOTM4YZjg1Q2M3Y2NkNWM4YYzZkN2NjZDJkMTg1OWRQ5NDhmODVjY2Q3YzhXWZDVjNEFkN2NjZDJkDMWQ2ODU5ZDkzOGY4NVWM5Y2NjZmNmODU5ZDVk0OGY4NWM0Y2ZkN2MT4ZDVkMWM0S2Q3Yzg4QNTlkYzlZYzRjZmQ2YNzg4Zjg1ZDZkM2M4YzDhjNzg1OWQ5NEs4ZjgQ1YzlkM05kNjg1OWQ5QNDkzUTkzZTA/"}],"options":"MCDAxMDg4MmY4MDgxNmGU3ZjgxMmY0NzJmNzkH3YzZlNzEyZjhh"},'__SVGATOR_PLAYER__',window,document)
]]></script>
</svg>
