<svg id="waving" xmlns="http://www.w3.org/2000/svg" xmlns:xlink="http://www.w3.org/1999/xlink" viewBox="0 0 200 342.455" shape-rendering="geometricPrecision" text-rendering="geometricPrecision"><g id="waving-s-g1" transform="translate(19.675913 0.304667)"><g id="waving-s-g2" transform="translate(.000001 0)"><g id="waving-u-group-410" transform="translate(5.065169 3.489)"><g id="waving-u-group-75" transform="translate(16.385 32.909)"><path id="waving-u-path-259" d="M1305.005,155.768c.529194,5.931292,1.611567,11.800146,3.233,17.53c1.895858,6.928834,4.692023,13.579181,8.317,19.781c1,1.531,1.9,3.119,3.006,4.554.539.725,1.034,1.48,1.6,2.173l1.693,2.065.419.513.449.485.893.964c.594.638,1.164,1.29,1.8,1.868l1.837,1.766l1.9,1.626c2.390087,2.004638,4.930924,3.82234,7.6,5.437c1.224.792,2.491,1.434,3.656,2.1.593.318,1.191.6,1.761.891s1.12.578,1.681.818l-4.657,8.851c-1.153-.671-2.351-1.453-3.617-2.255l-1.9-1.314c-.323-.227-.656-.445-.98-.686l-.975-.741c-2.825122-2.110368-5.490383-4.426679-7.974-6.93l-1.958-2.03c-.633-.708-1.251-1.441-1.884-2.169-.311-.369-.64-.724-.939-1.107l-.892-1.16-.9-1.165c-.3-.389-.606-.775-.875-1.19l-1.674-2.457c-.289-.4-.549-.829-.8-1.26l-.77-1.282c-1.072-1.686-1.949-3.489-2.888-5.248-3.349641-6.907827-5.897236-14.176508-7.593-21.664-1.624-6.954-2.6-13.291-3.268-18.242-.228798-1.106015-.121892-2.25517.307-3.3.28235-.634796.893672-1.06045,1.587-1.105.70639.026985,1.357881.388182,1.755.973.629358.845204.99468,1.857668,1.05,2.91Z" transform="translate(-1300.21-151.88)" fill="#ffb888"/></g><g id="waving-u-group-76" transform="translate(32.915 82.564)"><path id="waving-u-path-260" d="M1276.609,247.829l.247.316.751.849c.66.72,1.538,1.811,2.753,2.973c2.901681,2.950558,6.099175,5.594808,9.542,7.891c5.52568,3.582077,11.449544,6.508772,17.652,8.721c1.862418.671506,3.511615,1.828396,4.777,3.351c1.072393,1.153921,1.489207,2.771523,1.108,4.3-.885,2.7-4.363,4.564-9.806,2.527-.276-.117-2.885-1.162-6.532-2.989-4.401743-2.189643-8.604305-4.758693-12.56-7.678-2.082582-1.549792-4.081083-3.209479-5.987-4.972-.468-.4-.9-.836-1.318-1.26l-1.231-1.234c-.818-.783-1.5-1.606-2.165-2.336-1.342-1.443-2.316-2.761-3.033-3.651l-.819-1.041-.269-.383Z" transform="translate(-1269.72-247.829)" fill="#e4b363"/></g><path id="waving-u-path-222" d="M1333.98,249.779l1.158,1.551c.383.519.769,1.036,1.2,1.522.84.981,1.645,1.994,2.519,2.945l8.393-7.609c-.736-.8-1.408-1.657-2.12-2.479-.362-.406-.685-.845-1.008-1.285l-.979-1.311Z" transform="translate(-1303.69-162.99)" fill="#bf9247"/><g id="waving-u-hand" transform="matrix(.761512-.64846 0.64846 0.761512-22.637085 19.36788)"><path id="waving-u-path-223" d="M1387.943,124.613c-.393.571-.758,1.145-1.109,1.716-2.4,2.62-5.662,4.8-8.516,3.035-1.836-1.135-6.669-7.486-8.718-14.432-.441-1.495-1.444-2.741-3.031-5.444-2.745-4.673-3.618-6.547-4.268-7.669-2.191-3.774,1.057-4.055,3.022-1.082c1.523,2.3,2.37,3.567,3.889,6.16.814,1.392,1.942,2.909,2.283,2.783.231-.085-.292-2.831-.726-4.488-1.35-5.173-1.969-9.03-2.653-11.475-.743-2.654,2.247-4.6,3.431.238.904187,3.74782,2.022013,7.440852,3.348,11.061c1.191,2.986,1.818,2.514,2.279,1.778.336889-1.073802.508517-2.192592.509-3.318.4-6.232.466-9.424.59-12.194.195-4.373,3.718-3.634,3.693.17-.039,5.392.016,10.4.14,13.273.089,2.045.694,1.96,1.326,1.738.343-.12.559-1.081,1.064-2.959c1.585-5.9,2.163-8.383,2.95-10.9.857-2.755,4.15-2.574,3.24,1.524-1.3,5.844-2.4,10.559-2.842,14.035s-1.023,5.867.014,7.125c2.356,2.859,2.002,6.346.085,9.325Z" transform="translate(-1361.57-88.291)" fill="#ffb888"/><path id="waving-u-path-416" d="M1378.493,134.894c1.520229,1.795879,2.035091,4.236026,1.37,6.493-.115838.259151-.203346.530055-.261.808-.961,2.3-5.207,3.347-8.785-.584-2.017-2.912-10.06-7.682-5.029-8.844c5.817-1.344,5.237-2.484,8.485-2.2c2.064.182,3.139-.172,4.05-1.634-.401,2.85-.746,4.849.17,5.961Z" transform="translate(-1352.2-107.9)" fill="#eda87a"/><path id="waving-u-path-224" d="M1364.5,136.173c-1.649.929-4.4,4.693-5.416,6.863-1.4,2.992-7.063,10.378-11.657,7.536-1.022-.632-1.16-3.375.61-7.624c1.747-4.191,5.13-7.082,9.1-6.343c1.159389.181482,2.328459-.262574,3.075-1.168c1.552-2.022,5.17-4.16,6.987-2.681c1.45,1.184-.899,2.402-2.699,3.417Z" transform="translate(-1330.67-109.507)" fill="#ffb888"/></g><path id="waving-u-path-225" d="M1233.864,445.549c.183,7.29,1.287,13.405,2.594,21.174.644,3.887,1.377,8.18,2.039,13.251.7,5.064,1.328,10.9,1.9,17.863c2.24,27.974.405,59.874,1.092,82.843.153,5.279,5.746,5.024,9.607,5.195c3.415.15,8.949-1.325,8.292-6.016-3.659-26.032-7.887-52.852-8.889-80.956-.975-27.361,1.065-43.483.45-54.934-.157-3.207-2.133-8.732-8.306-8.666-7.086.077-8.848,6.55-8.779,10.246Z" transform="translate(-1164.08-255.718)" fill="#313638"/><g id="waving-u-group-78" transform="translate(66.177 72.752)"><g id="waving-u-group-221" transform="translate(20.669 0)"><path id="waving-u-path-568" d="M1229.161,246.957c.52-2.694.733-5.437.944-7.176.866-7.106.571-8.4,2.889-10.164c1.911-1.456,7.633-1.323,7.078,5.346-.51,6.125-.614,12.045.039,15.706-3.526-1.73-7.165-3.769-10.95-3.712Z" transform="translate(-1229.16-228.869)" fill="#eaa475"/></g><g id="waving-u-group-222" transform="translate(0 18.087)"><path id="waving-u-path-569" d="M1203.632,346.864c.751-14.475.361-16.036,0-19.936-1.3-14.075-7.168-28.129-5.257-40.282c1.512-9.612,5.211-10.515,10.059-12.582c4.642-1.98,6.145-1.456,7.965-4.006c1.170217-1.904309,1.941156-4.026604,2.266-6.238c3.785-.06,7.424,1.982,10.951,3.713.046.258.1.505.149.74c1.313,5.745,9.529,6.655,13.489,10.615c2.914,2.915,4.329,8.49-1.821,23.4-2.321,5.624-5.372,11.412-6.919,17.3-2.7,10.259-2.349,14.6.819,25.307.972,3.285,1.813,5.878,2.473,8.113.863419,2.694222,1.348387,5.495325,1.441,8.323.191,8.056-5.43,12.5-11.579,14.065-12.726,3.231-26.768-9.1-25.953-14.884.223-1.584.452-3.184.818-5.042.580889-2.837171.948252-5.7139,1.099-8.606Z" transform="translate(-1197.99-263.819)" fill="#ffb888"/></g></g><g id="waving-u-group-79" transform="translate(69.728 179.534)"><path id="waving-u-path-570" d="M1210.308,443.192c-.815,5.781,13.363,18.252,26.089,15.022c6.149-1.562,11.907-6.146,11.716-14.2-.15772-2.946749-.721717-5.85759-1.676-8.65-9.882-1.224-16.02,5.16-27.188,4.483-2.752553-.050412-5.463796-.678652-7.958-1.844-.373,1.919-.753,3.563-.983,5.189Z" transform="translate(-1210.28-435.205)" fill="#313638"/></g><g id="waving-u-leg-r" transform="translate(91.38 182.336)"><path id="waving-u-path-597" d="M1145.877,452.264c.623316,3.459456,1.460251,6.876995,2.506,10.233.98,3.332,2.174,6.677,3.459,10.433c2.57,7.512,5.681,16.6,9.256,30.181c7.185,27.279,11.516,59.082,16.43,81.564c1.128,5.166,6.592,3.885,10.436,3.346c3.4-.477,8.592-2.954,7.07-7.47-8.447-25.043-17.774-50.63-23.766-78.186-2.909-13.4-4.5-24.185-5.636-33q-.431-3.307-.815-6.256c-.234-1.972-.464-3.832-.7-5.59s-.48-3.417-.743-4.986c-.246-1.57-.5-3.052-.79-4.457-.409694-1.957456-1.357988-3.76157-2.738-5.209-1.760602-1.823415-4.329547-2.623053-6.814-2.121-2.863797.320813-5.333751,2.157044-6.466,4.807-.85064,2.129066-1.089284,4.453505-.689,6.711Z" transform="translate(-1145.69-440.618)" fill="#313638"/></g><g id="waving-u-lothing_2_1_" transform="translate(65.695 93.63)"><g id="waving-u-group-312" transform="translate(0 4.518)"><path id="waving-u-path-834" d="M1197.526,294.875c-.668,5.309.426,13.339,1.063,17.049s2.889,15.247,3.732,19.663.631,14.093.478,16.567c-.300116,3.522503-.85321,7.018858-1.655,10.462-.193.722-.687,2.521-.787,2.885.926,1.024,3.25,2.728,9.713,3.175c7.407.512,14.12-2.577,18.263-3.721c3.263918-1.015091,6.731032-1.191181,10.081-.512c1.185.256.79-1.3.057-2.253-.031-.041-.06-.079-.086-.116-.586-.831.107-.746.564-2.069.478-1.382-.137.683-3.448-9.08s1.058-24.135,2.048-26.695s4.6-11.607,6.646-17.683s1.868-10.529,1.4-13.006c-.5-2.628-2.495-4.876-5.157-6.549-1.454-.913-3.976-1.934-6.015-3.06-1.692-.937-3.038-2.088-3.28-1.984-2.472,3.332-9.035,8.538-15.427,7.582-2.716-.407-4.215-4.814-1.236-7.357-1.619.366-9.568,2.765-12.5,5.325s-3.88,6.785-4.454,11.377Z" transform="translate(-1197.32-277.942)" fill="#e4b363"/></g><g id="waving-u-group-313" transform="translate(2.012 4.518)"><path id="waving-u-path-835" d="M1197.366,287.243c9.524-.569,13.574,10.589,13.574,10.589s13.28-10.579,29.451-7.749c1.355551.192943,2.600851.854155,3.52,1.869-.037771-.809282-.12998-1.615104-.276-2.412-.5-2.628-2.5-4.876-5.158-6.549-1.454-.913-3.976-1.934-6.015-3.06-1.692-.937-3.038-2.088-3.28-1.984-2.472,3.332-9.035,8.265-15.427,7.309-2.716-.407-4.215-4.542-1.236-7.084-1.619.366-9.568,2.765-12.5,5.325-1.152301,1.035484-2.05871,2.315321-2.653,3.746Z" transform="translate(-1197.37-277.942)" fill="#bf9247"/></g><path id="waving-u-path-836" d="M1258.887,291.133c-1.923,5.838-4.117,17.077-4.233,22.906-.166,8.337-.853,14.52-.582,28.306.168,8.535.836,26.306.7,27.945-.81359.083143-1.632498.101534-2.449.055.205-3.823-.249-24.018-.523-30.771-.319-7.834.307-20.336.479-25.944.147-4.777,1.785-16.112,4.1-22.338.978-2.633,3.058-1.829,2.508-.159Z" transform="translate(-1238.54-279.044)" fill="#c3964d"/><path id="waving-u-path-837" d="M1228.775,280.294c.434,1.042.9,2.189,4.124,1.669s13.837-2.369,12.73-.413c-2.38,4.206-10.16,10.533-11.027,9.508-.847-1-3.295-4.7-4.955-5.115-2.919-.725-5.188,4.051-5.923,3.448-.251-.206-.762-3.226,2.671-9.377c1.35-2.414,2.246-.041,2.38.28Z" transform="translate(-1210.7-273.905)" fill="#c3964d"/><g id="waving-u-group-314" transform="translate(15.774 8.733)"><path id="waving-u-path-838" d="M1248.1,289.084c-.042465.884304.214747,1.757061.73,2.477.334.371.5-.233,1.446.049.673.2.894.808,1.285.732c1.348248-.420404,2.459451-1.385138,3.065-2.661-.358804-.991199-.784792-1.956773-1.275-2.89-.947287-.399937-1.954918-.638239-2.981-.705-.638.793-1.313,1.657-2.27,2.998Z" transform="translate(-1248.1-286.086)" fill="#313638"/></g><path id="waving-u-path-839" d="M1237.313,275.08c.179-.438-.891-1.449-1.855-2.825s-1.833-3.125-2.295-3.04c.1,1.607-.4,3.382-3.518,5.581-3.871,2.734-6.841,2.42-8.047,2.7-.376.089.089,1.124.495,1.957c1.144,2.346,2.036,3.994,3.056,5.888.2.381,5.06-2.59,7.374-4.625c1.92587-1.571998,3.549066-3.481879,4.79-5.636Z" transform="translate(-1201.24-269.211)" fill="#e4b363"/><path id="waving-u-path-840" d="M1257.322,276.909c-.81-.764-.721-1.624.2-4.177.219-.609.586-1.361.91-2.145.149-.361.34-.912.472-1.341-.784887.68257-1.474402,1.467607-2.05,2.334-.948,1.332-1.632,1.955-2.011,2.553-3.092,4.88-3.56,10.069-2.987,9.778.674-.342,3.124-3.72,4.141-4.881.922-1.053,1.776-1.696,1.325-2.121Z" transform="translate(-1238.44-269.228)" fill="#e4b363"/></g><g id="waving-u-group-80" transform="translate(75.605 106.106)"><path id="waving-u-path-841" d="M1262.72,294.815c-1.373212,6.327795-2.306115,12.743173-2.792,19.2-.594,7.226-.786,14.913-.657,21.99.241,14.159,1.565,25.843,1.66,26.872-.5,1.217-1.759,3.728-3.507,4.7-1.955722-.669502-3.574921-2.072497-4.516-3.913-.394709-11.906574-.109245-23.825973.855-35.7.624897-7.859635,1.696966-15.677296,3.211-23.415l.462-2.284.478-2.06c.313-1.295.562-2.435.841-3.375.240727-1.082365.59086-2.137456,1.045-3.149c1.184-1.07,3.057.507,2.92,1.134Z" transform="translate(-1252.73-293.32)" fill="#313638"/><path id="waving-u-path-842" d="M1258.1,380.851c-.1,1.928-.145,3.81-.211,5.625c1.271,3.294,2.817,6.021,3.193,5.272c1.094-2.155,2.669-.448,4,3.57-.153-2.081-.308-4.422-.435-6.951-3.48-5.076-3.026-1.357-4.261-3.14-.514-.762-1.452-2.689-2.286-4.376Z" transform="translate(-1257.76-335.552)" fill="#a8a8a8"/><path id="waving-u-path-843" d="M1259.327,367.083l-.157,2.4c1.237,2.878,2.378,2.772,3.042,2.439.587-.288,1.947,2.4,3.025,4.549-.063-1.838-.1-3.738-.139-5.682-2.446-3.318-2.075-.54-3.524-.341-1.027.134-1.687-1.226-2.247-3.365Z" transform="translate(-1258.57-328.909)" fill="#a8a8a8"/></g><g id="waving-u-arm-r" transform="translate(101.296 104.606)"><g id="waving-u-group-408" transform="translate(6.805 12.87)"><path id="waving-u-path-1028" d="M1161.833,384.233c-4.171-7.92-11.286-19.794-18.689-31.6s-15.128-23.525-20.339-31.258l10.278-6.082c4.159,8.257,10.306,20.993,16.488,33.6s12.494,25.038,17.2,32.6c2.795,4.497-2.716,6.961-4.938,2.74Z" transform="translate(-1122.81-315.29)" fill="#ffb888"/></g><g id="waving-u-group-409"><path id="waving-u-path-1029" d="M1185.59,332.152c0,0-4.508-7.472-9.219-15.058-2.348-3.8-4.763-7.611-6.643-10.577l-3.494-5.451c-2.149-3.389-1.51-7.738,1.415-9.589c2.9-1.834,6.98-1.51,9.692,2.777.142.221,1.326,2.371,3.029,5.468c1.685,3.1,3.87,7.158,5.989,11.2c4.257,8.083,8.329,16.094,8.329,16.094Z" transform="translate(-1164.96-290.421)" fill="#e4b363"/></g><path id="waving-u-path-1030" d="M1175.085,357.84l-3.226-5.709-11.766,6.674l3.2,5.668Z" transform="translate(-1142.84-320.195)" fill="#bf9247"/></g><path id="waving-u-path-228" d="M1114.012,492.27c.254545.020773.510548.015412.764-.016-.057351.106028-.120445.208847-.189.308-.730406.701252-1.554194,1.298229-2.448,1.774-2.436,1.583-2.781,2.622-2.6,3.655.231,1.323,2.18-.6,5.541-1.825c1.8-.657,2.685-1.315,4.287-5.146-.054-.644-.124-1.288-.2-1.929-.008-.076-.019-.151-.028-.226q-.056-.453-.117-.9c-.015-.106-.028-.212-.042-.317q-.077-.555-.156-1.106c-.032-.221-.064-.44-.1-.661q-.052-.356-.1-.71c-.057-.394-.113-.786-.167-1.176-.014-.086-.032-.17-.051-.253l-.008-.035c0-.02-.011-.039-.016-.058-.013-.052-.026-.1-.041-.153-.007-.022-.013-.044-.019-.066l-.015-.047c-.014-.045-.03-.089-.044-.133-.009-.025-.018-.051-.027-.077s-.008-.024-.012-.035-.011-.028-.017-.042c-.016-.043-.034-.087-.052-.129l-.01-.026-.02-.043-.036-.079c-.014-.03-.027-.06-.042-.09s-.026-.052-.039-.078l-.035-.069c-.012-.023-.025-.046-.037-.069s-.031-.057-.047-.086l-.034-.061-.04-.067-.049-.082-.044-.069-.054-.083-.059-.089-.036-.052-.051-.074-.016-.022-.067-.091-.057-.078-.036-.047-.057-.073-.064-.081-.052-.065-.037-.045-.07-.083-.073-.087c-.035-.041-.071-.083-.107-.124l-.039-.046-.034-.039-.086-.1-.1-.115-.109-.12-.081-.088-.141-.152-.028-.029-.263-.282c-.089439.419716-.445047.730109-.873.762-.783.166-6.184.812-7.444,2.321-1.17,1.4-.262,2.634,1.4,2.244c1.480399-.230316,2.978107-.330698,4.476-.3.577-.058,1.62-.352,2.819-.589.016.219.032.437.05.649-1.319,2.131-2,2.9-2.346,3.03-.363.14-3.132.327-4.79.661s-2.869,1.35-2.949,2.735s4.467.42,7.664.674Z" transform="translate(-958.006-277.324)" fill="#eda87a"/><path id="waving-u-path-229" d="M1101.182,470.383c2.353.407,4.5-3.3,4.874-5.872.174-1.211,1.615-3.55,2.548-3.09c1.785.882,4.535,3.82,6.945,8.764c1.416,3.447.753,4.351.325,6.488s-.783,2.181-1.286,4.112-.175,4.377,1.09,4.734c1.169.331,1.878-1.948,3.55-6.872s1.98-5.455,2.212-7.19c.184119-.476729.336452-.965131.456-1.462c1.006-1.461.922-3.553,1.487-5.683.400236-1.163503.420894-2.424007.059-3.6.384782-.917631.326148-1.961245-.159-2.83-.9-1.753-1.923-3.8-2.563-5.065-3.846-7.612-7.855-8.968-9.87-8.893-.071,0-.142.008-.211.014-4.681.168-7.626,9.883-7.376,13.247.181,2.437-.387,7.162-1.39,8.811-1.094,1.804-2.573,4.061-.691,4.387Zm14.861.853l-.492-1.047q.249.511.492,1.046Z" transform="translate(-959.206-259.876)" fill="#ffb888"/><path id="waving-u-path-230" d="M1236.573,184.042c-3.091,10.766-19.426,21.386-28.57,19.732-4.187-.757-11.754-10.328-11.3-19.509.182-3.7.786-9.434,1.007-14.674.548-13.012-2.006-22.688,9.892-29.356c13.815-7.743,30.665-.753,34.361,8.944c6.097,16.003-1.108,19.951-5.39,34.863Z" transform="translate(-1129.71-111.754)" fill="#ffb888"/><path id="waving-u-path-231" d="M1206.966,229.893c-2.529942-2.802337-4.615483-5.97584-6.184-9.41c1.623,6.9,7.278,13.381,10.593,13.98c9.144,1.653,25.663-8.868,28.755-19.634c1.537862-4.989427,3.368368-9.883908,5.482-14.658-3.068981.288704-5.562931,2.599829-6.084,5.638-1.211,5.584-2.355,11.571-4.911,14.868-3.330817,4.142801-7.537012,7.497307-12.317,9.823-5.243,2.488-11.3,3.968-15.334-.607Z" transform="translate(-1133.13-142.271)" fill="#ea8462"/><path id="waving-u-path-232" d="M1254,215.325c.675335.230786,1.366031.413902,2.067.548.541.153,1.571.422,1.687.927.075374.778477-.4878,1.47343-1.265,1.561-.746919-.066453-1.483175-.222231-2.193-.464-.781-.183-1.527-.356-2.151-.464c1.279208.589188,2.588706,1.11025,3.923,1.561c1.437.331,3-1.59,2.067-2.784-.718-.916-2.722-.858-4.135-.885Z" transform="translate(-1172.51-149.582)" fill="#6d3409" fill-rule="evenodd"/><path id="waving-u-path-233" d="M1267.419,204.537c-.639506-.545668-1.331947-1.026056-2.067-1.434-.757-.453-2.031-.868-2.151-1.856-.060585-.980157.256456-1.946307.886-2.7.341496-.299663.709698-.567446,1.1-.8c2.365-1.747,3.876-5.383,4.133-9.153.121931-1.63399-.292728-3.263133-1.181-4.64.04-.175-.126-.008,0,0c.370871.952756.639055,1.942354.8,2.952.036361,1.237191-.105424,2.473181-.421,3.67-.428367,2.540992-1.70724,4.861088-3.627,6.58-.408278.260306-.802495.542033-1.181.844-.772.73-1.622,2.734-.97,4.007.357.7,1.423,1.083,2.193,1.435.867.397,1.649.766,2.486,1.095Z" transform="translate(-1188.8-134.408)" fill="#6d3409" fill-rule="evenodd"/><path id="waving-u-path-234" d="M1237.707,195.019c0,1.8.735,3.255,1.643,3.255s1.643-1.458,1.643-3.255-.736-3.935-1.643-3.935-1.643,2.137-1.643,3.935Z" transform="translate(-1147.62-138.215)" fill="#6d3409"/><path id="waving-u-path-236" d="M1237.091,177.016c-2.274-3.738-5.652-6.626-11.377-6.8-.143,0-1.842-.06-1.9.33-.066.48,1.443.578,1.855.659c1.985805.324046,3.924089.89166,5.771,1.69c1.959664,1.066024,3.762701,2.397605,5.358,3.957.076.063.17.214.293.164Z" transform="translate(-1136.53-127.815)" fill="#6d3409" fill-rule="evenodd"/><path id="waving-u-path-237" d="M1265.756,177.468c1.372326-.621569,2.836293-1.016689,4.335-1.17c1.8-.164,3.633.165,5.246.094-.219-.408-.9-.588-1.509-.778-.940049-.357074-1.942075-.522322-2.947-.486-2.258.095-4.431,1.036-5.125,2.34Z" transform="translate(-1196.48-130.184)" fill="#6d3409" fill-rule="evenodd"/><path id="waving-u-path-238" d="M1246.023,246.316c.341938-.272879.701373-.523081,1.076-.749c1.226495-.750603,2.661625-1.087477,4.094-.961-.571776.311651-1.10822.684144-1.6,1.111-.319683.281147-.611378.592602-.871.93.422-.25.856-.516,1.309-.779c1.961481-1.315065,4.295517-1.960836,6.654-1.841.668881.016822,1.329464.152257,1.951.4-.775695.664074-1.608986,1.257752-2.49,1.774-2.50844,1.46921-5.407005,2.134082-8.305,1.905-1.01899-.051742-2.021388-.279083-2.963-.672.314052-.436154.701477-.814444,1.145-1.118Z" transform="translate(-1168.98-163.415)" fill="#d35e5e"/><path id="waving-u-path-239" d="M1245.387,237.738c1.226495-.750603,2.661625-1.087477,4.094-.961-.571792.311624-1.108239.68412-1.6,1.111-.030643.155677-.099354.301344-.2.424.206712-.105801.420566-.197024.64-.273c1.961511-1.314999,4.295525-1.960763,6.654-1.841.668876.016864,1.329451.152297,1.951.4-.775741.664015-1.609027,1.25769-2.49,1.774-2.50844,1.46921-5.407005,2.134082-8.305,1.905-1.01932-.051687-2.022056-.279028-2.964-.672.312797-.43496.698484-.812527,1.14-1.116.343165-.273715.703942-.524588,1.08-.751Zm-3.791-5.485c-.049-.622-.234-1.308-.281-1.808.156.059.293.135.449.193.041973.393427.152295.776509.326,1.132c0-.358-.033-.687-.064-1.016c3.958607,1.450059,8.210988,1.913431,12.389,1.35c1.209837-.149559,2.399829-.430208,3.549-.837-.424.77-.885,1.5-1.266,2.318-.414.122-.814.258-1.245.362.131-.386.252-.782.351-1.2-.308511.417086-.589763.853661-.842,1.307-.145.026-.291.051-.437.073-4.398549.557977-8.866049-.089767-12.925-1.874Zm-.112-.077c-.418-.149-.754-.378-1.16-.539-.012946-.619073-.133406-1.231184-.356-1.809.373.119.652.33,1.01.463.122.679.364,1.231.506,1.885Zm-4.239-4.408c.381.718,1.355,1.179,2.088,1.677.237726.899087.378858,1.82097.421,2.75c1.069049.594399,2.198434,1.073105,3.369,1.428.8,1.228,1.073,4.429-.581,4.957-.557602.124966-1.141471-.020723-1.575-.393-.137-.114-.265-.334-.411-.306c1.2,2.119,3.86,3.237,7,3.123c5.066-.183,9.018-2.185,11.339-5.291c1.241738-1.883551,1.930155-4.077685,1.987-6.333-1.844044.651343-3.720155,1.208069-5.621,1.668-4.297906.730264-8.709227.397587-12.849-.969-1.811561-.552086-3.547013-1.328437-5.166-2.311Z" transform="translate(-1167.27-155.586)" fill="#6d3409"/><path id="waving-u-path-240" d="M1262.381,247.322c-.319648.281183-.61134.592634-.871.93.422-.25.857-.516,1.309-.779-.21944.075961-.433295.167184-.64.273.101365-.122451.170771-.268135.202-.424Z" transform="translate(-1181.76-165.02)" fill="#6d3409"/><path id="waving-u-path-241" d="M1276.242,234.1c-.417-.149-.754-.378-1.16-.539-.012764-.619093-.133229-1.231235-.356-1.809.373.119.652.33,1.01.463.117.676.364,1.227.506,1.885Z" transform="translate(-1202.03-157.507)" fill="#fff" fill-rule="evenodd"/><path id="waving-u-path-242" d="M1255.981,234.6c1.209827-.149614,2.399813-.430261,3.549-.837-.424.77-.885,1.5-1.266,2.318-.414.122-.814.258-1.245.362.131-.386.252-.782.351-1.2-.30837.417183-.589616.853749-.842,1.307-.145.026-.291.051-.437.074-4.400608.558771-8.870336-.089341-12.931-1.875-.049-.622-.234-1.308-.281-1.808.156.059.293.135.449.193.041973.393427.152295.776509.326,1.132c0-.358-.032-.687-.064-1.016c3.959207,1.450464,8.212334,1.913842,12.391,1.35Z" transform="translate(-1168.83-158.081)" fill="#fff" fill-rule="evenodd"/><path id="waving-u-path-243" d="M1203.824,124.071c2.344,2.264,9.422,5.735,11.652,6.372-1.184.364-2.929,1.742-3.073,2.844c1.340416-1.506432,3.221523-2.422546,5.234-2.549-3.14,1.389-4.711,4.165-4.711,8.08-.138011,2.800928,1.058146,5.501834,3.225,7.282-1.95-2.776-4.01-8.773.223-13.757-1.574217,3.716153-1.538011,7.918522.1,11.607c1.257527,2.55808,1.867072,5.386023,1.775,8.235-.037254,2.195274-.323417,4.379236-.853,6.51-.444,1.2-.409,1.4,3.892-2.08s4.95-1.229,7.544-3.414s7.476-9.831,5.5-16.317c2.833,2.253,4.779,3.926,5.769,6.828c1.673-4.916,1.434-13.791-9.217-19.253c4.677-.546,8.6.717,11.47,3.516-.717-3.073-5.087-5.394-11.641-5.8c4.847-.922,7.544-4.472,6.964-8.705-1.536,3.687-3.619,6.964-10.48,7.715c4.1-2.527,7.078-13.541-3.527-19.458c4.005,6.509,4.87,13.655-1.047,17.8-.774-9.513-18.025-30.837-41.306-20.869c6.213-1.092,9.49-1.525,14.907.023-6.737-.091-25.125,1.059-17.66,25.58-4.825-3.095-10.355-.137-12.062,3.892c4.643-2.594,7.169-1.638,10.31-.068-4.3.2-6.554,1.5-7.783,4.438c2.389-2.321,3.959-3.072,7.715-1.912-3.209.956-8.739,5.735-3,17.342.068-4.438.273-7.441,2.526-10.173-.342,5.189.625,7.852,4,11.265-.039-6.827.131-11.845.336-14.132.080334-1.513339.451428-2.997035,1.093-4.37c1.6669,4.311145,4.475585,8.0874,8.125,10.924-3.55-3.96-5.872-7.476-7.032-14.064c2.868,4.711,9.593,11.606,18.3,13.962-6.281-3.174-13.177-8.739-15.8-15.225c4.881,5.564,10.958,9.354,24.749,7.613-3.873-2.332-6.308-6.246-6.217-9.682Z" transform="translate(-1112.13-92.038)" fill="#ea8462"/><path id="waving-u-path-244" d="M1188.276,165.587c-.392303-.429556-.749766-.889678-1.069-1.376-.28282-.428945-.507134-.893714-.667-1.382-.131335-.407429-.193198-.834048-.183-1.262.009023-.320344.063224-.637809.161-.943.165-.5.338-.731.363-.718-.043502.258843-.103288.514684-.179.766-.139988.683599-.082409,1.392928.166,2.045.406716.960492.998263,1.831672,1.741,2.564.812.869,1.8,1.746,2.825,2.687.985135.87438,1.910543,1.813819,2.77,2.812.711438.824791,1.285449,1.758741,1.7,2.766.274925.684537.419735,1.414354.427,2.152.027795.2708-.006402.544374-.1.8-.0527-.258831-.08182-.521909-.087-.786-.079171-.701477-.267088-1.386347-.557-2.03-.445239-.94916-1.027821-1.827583-1.729-2.607-.866416-.965709-1.786893-1.881512-2.757-2.743-1.02-.941-2.009-1.832-2.825-2.745Z" transform="translate(-1076.39-122.843)" fill="#fff"/><path id="waving-u-path-245" d="M1200.457,169.543l-.053-.1c-.006.006-.034.157-.034.157-.031.166-.062.33-.088.494-.012.082-.025.164-.034.245-.018747.156668-.029095.314226-.031.472c0,.05,0,.1,0,.16s0,.106.009.175l.019.2.025.226.111.985-.436-.786-.229-.415c-.076-.143-.154-.289-.229-.444-.038-.076-.075-.154-.111-.233l-.088-.191-.1-.244q-.1-.244-.192-.487c-.232616-.622215-.414216-1.262328-.543-1.914-.237321-1.103331-.25194-2.242944-.043-3.352.14408-.747569.461213-1.451014.926-2.054.335-.416.584-.579.6-.559-.136575.231333-.28719.454083-.451.667-.382731.611401-.635951,1.294825-.744,2.008-.151389,1.066434-.10187,2.151782.146,3.2.137041.625147.321577,1.238928.552,1.836q.09.233.19.467l.1.233.021.046c0-.007,0,.023.009-.056s.023-.177.037-.264c.028-.174.061-.343.092-.509l.064-.346c.03-.165.054-.332.072-.522l.1-1.173.393,1.057c.033.083.064.175.1.248l.1.221.1.194.038.074.026.049c.140305.257214.294534.506584.462.747.322205.454469.668013.891736,1.036,1.31.7.806,1.353,1.519,1.821,2.183.386679.510414.678329,1.086262.861,1.7.083321.219551.107797.457071.071.689-.091872-.206181-.169715-.41833-.233-.635-.237376-.566992-.557894-1.095459-.951-1.568-.486-.618-1.155-1.294-1.886-2.092-.389667-.420765-.754931-.863489-1.094-1.326-.184875-.247753-.355485-.505838-.511-.773Z" transform="translate(-1091.35-123.797)" fill="#fff"/><path id="waving-u-path-246" d="M1180.8,158.4c-.168-.094-.357-.187-.537-.283l-.618-.321.943-.014.222-.006.2-.014.188-.021.175-.021.2-.025.053-.006c-.028727-.032882-.059809-.06363-.093-.092l-.178-.15c-.677491-.553811-1.43512-1.001577-2.247-1.328-.876395-.371782-1.830621-.522865-2.779-.44-.628624.068936-1.23099.289976-1.755.644-.181673.149104-.373466.285431-.574.408-.02-.017.115-.237.469-.545.218842-.186765.460019-.345646.718-.473.347544-.169706.718188-.287301,1.1-.349c1.005946-.139266,2.030811-.015938,2.975.358.563956.209273,1.104275.477422,1.612.8.270705.171514.531767.357796.782.558.064.051.127.1.19.157l.094.081.167.152c.117.108.226.218.331.327l.321.328c-.258.007-.557.005-.806.022-.062.006-.125.01-.186.018l-.132.016-.171.022c-.011,0,.039.032.039.032.165.1.327.2.486.3q.476.311.911.648c.558008.428913,1.084989.896747,1.577,1.4.839083.850252,1.557154,1.811942,2.134,2.858.390123.70355.684079,1.456266.874,2.238.091037.282147.125031.579588.1.875-.120427-.264717-.216491-.539854-.287-.822-.254343-.739442-.586541-1.449763-.991-2.119-.60189-.989856-1.325164-1.900584-2.153-2.711-.486051-.480135-1.003168-.927769-1.548-1.34q-.424-.322-.886-.622c-.154-.1-.311-.2-.47-.292l-.2-.114c-.082-.045-.17-.091-.25-.134Z" transform="translate(-1061.25-120.619)" fill="#fff"/><path id="waving-u-path-247" d="M1196.007,149.731c.320498-.270288.684259-.484623,1.076-.634.245102-.093674.499564-.160726.759-.2.141496-.020764.284061-.033451.427-.038.037,0,.074,0,.111,0h.058.045c-.003657-.012046-.008341-.023755-.014-.035l-.01-.025c-.006-.015-.021-.058-.021-.058-.04-.116-.078-.234-.115-.355-.073-.241-.14-.489-.211-.739s-.149-.5-.245-.752c-.024-.062-.05-.124-.077-.185l-.041-.091-.064-.129c-.034-.062-.066-.122-.1-.185l-.126-.2-.277-.413.091.025c.227.07.43.126.656.2.056.02.116.047.174.07l.088.036.043.02.026.013c.065.03.127.065.19.1.254455.146395.487065.327837.691.539.413663.442212.718111.975083.889,1.556.025.076.046.154.067.23l.031.12c.009-.009.124-.174.124-.174.154-.218.316-.428.485-.627.327208-.39279.705965-.739591,1.126-1.031.395685-.273953.843168-.464176,1.315-.559.220035-.042212.444061-.059987.668-.053h.041.064c.044,0,.089,0,.132.01l.129.016.119.02.445.087.065.025-.415.172c-.068.028-.133.056-.188.083s-.116.054-.168.082l-.11.058-.086.048c-.056.033-.112.066-.166.1-.204146.12816-.39927.270159-.584.425-.298651.251715-.571953.532051-.816.837-.2.253-.343.463-.438.607-.042295.078095-.09365.150931-.153.217.02069-.086274.054411-.168889.1-.245.117692-.224953.251368-.441175.4-.647.231245-.327012.496382-.628685.791-.9.184104-.168953.379926-.324675.586-.466.054-.038.111-.074.169-.111l.157-.094c.032-.019.058-.034.085-.047-.018205-.00938-.038538-.01386-.059-.013h-.1c-.202078.003041-.403239.027851-.6.074-.424668.104885-.82369.294701-1.173.558-.379861.287357-.720132.623594-1.012,1-.154.194-.3.4-.44.613l-.1.162-.1.158-.1.174c-.139.242-.286.484-.423.714l-.016.029-.066-.5-.035-.247c-.013-.079-.022-.167-.038-.239l-.043-.224-.026-.107c-.018-.071-.036-.142-.057-.212-.142355-.51888-.402424-.997954-.76-1.4-.173355-.188106-.371905-.35132-.59-.485-.055-.032-.109-.064-.164-.092-.032.011-.008.061-.008.061l.043.1c.028.067.055.134.079.2.1.267.174.532.242.788s.128.5.194.739c.033.118.067.233.1.345l.013.042.024.07c.017.047.031.091.051.143l.112.295c0,.007-.4-.033-.4-.033l-.1-.008h-.062-.1c-.133453-.003389-.266991.000617-.4.012-.245008.021103-.487054.068373-.722.141-.382629.119938-.743057.301672-1.067.538-.208411.151496-.404979.318646-.588.5-.059715.069972-.126766.133334-.2.189.040262-.083642.093222-.160551.157-.228.160826-.202962.340273-.390444.536-.56Z" transform="translate(-1089.51-115.985)" fill="#fff"/><path id="waving-u-path-248" d="M1218.75,137.018c-.981976.56806-1.799382,1.381676-2.372,2.361-.504748.889488-.728226,1.911005-.641,2.93.087572.894121.357096,1.760883.792,2.547.346854.657542.82026,1.240039,1.393,1.714.431168.370137.887975.709317,1.367,1.015.791.507,1.262.737,1.245.772-.474548-.138415-.927057-.343458-1.344-.609-.507512-.282684-.99082-.606785-1.445-.969-.285249-.228323-.55269-.478046-.8-.747-.136853-.149034-.264427-.30633-.382-.471-.123-.173-.228-.351-.336-.539-.481827-.820403-.786373-1.732677-.894-2.678-.113156-1.103226.114016-2.214659.651-3.185.600877-1.057724,1.469668-1.938586,2.519-2.554c1.111559-.663702,2.353056-1.080149,3.64-1.221.441823-.049544.886636-.067257,1.331-.053q.33.009.656.044l.1.011c.014,0-.025-.074-.025-.074l-.09-.178c-.116-.238-.216-.473-.32-.7-.097117-.219489-.208695-.43229-.334-.637-.031-.05-.062-.1-.1-.145l-.025-.035c-.01-.014-.012-.018-.032-.043l-.1-.126-.124-.141-.138-.143-.271-.282.07-.009.082-.009.159-.016.315-.031c.109-.007.221-.011.335-.009h.123.092c.239042.01419.47709.041901.713.083.452009.080604.897278.195264,1.332.343.804832.274016,1.578727.631637,2.309,1.067c1.212428.709966,2.288318,1.630755,3.177,2.719.581639.712747,1.049506,1.51119,1.387,2.367.138982.300104.227504.62108.262.95-.03.009-.139-.318-.407-.888-.386111-.810046-.879913-1.564202-1.468-2.242-1.452049-1.644102-3.316002-2.87155-5.4-3.556-.414984-.135444-.839495-.239734-1.27-.312-.218819-.036103-.439505-.059807-.661-.071h-.135c.014312.038986.034185.075699.059.109.038.054.075.108.11.164.1374.221143.260325.450958.368.688.108.233.208.464.319.686l.084.165.053.1.1.167c.137.22.315.467.462.687l-.64-.105c-.106-.017-.218-.035-.307-.045l-.141-.018-.077-.008q-.308-.032-.622-.041c-.421034-.012559-.842429.004818-1.261.052-1.216103.134773-2.389687.526422-3.443,1.149Z" transform="translate(-1128.06-109.77)" fill="#fff"/><path id="waving-u-path-249" d="M1235.412,124c-.218131-2.331876.311041-4.672701,1.511-6.684.452975-.763248.983085-1.477992,1.582-2.133.449182-.492744.930931-.954783,1.442-1.383.417658-.38518.880746-.717971,1.379-.991.024.032-.457.4-1.252,1.134-.480998.447349-.936072.921787-1.363,1.421-.563343.658126-1.061353,1.369474-1.487,2.124-.513688.910662-.896134,1.889334-1.136,2.907-.270201,1.166906-.34622,2.370369-.225,3.562.139314,1.318636.476428,2.608771,1,3.827.56232,1.312321,1.282642,2.551139,2.145,3.689c1.682513,2.201934,3.739582,4.09043,6.077,5.579c1.903197,1.228967,3.963427,2.195677,6.125,2.874c1.459653.456314,2.961024.766503,4.482.926c1.079.11,1.682.115,1.682.154-.563178.080057-1.133937.092144-1.7.036-1.546851-.086938-3.078746-.34997-4.566-.784-2.212193-.641115-4.32247-1.592221-6.268-2.825-2.40038-1.49727-4.510031-3.41652-6.227-5.665-.888213-1.170444-1.627231-2.44693-2.2-3.8-.533796-1.263971-.871357-2.602074-1.001-3.968Z" transform="translate(-1162.78-100.119)" fill="#fff"/><path id="waving-u-path-250" d="M1273.464,122.705c-.091199-.912731-.079794-1.83281.034-2.743.18835-1.536504.627516-3.031696,1.3-4.426.445253-.940687,1.022768-1.812852,1.715-2.59.236498-.300655.525081-.556383.852-.755.026.028-.263.309-.706.878-.619228.805193-1.138363,1.682618-1.546,2.613-.608537,1.375174-1.00116,2.83604-1.164,4.331-.09699.877238-.098667,1.762401-.005,2.64.05072.461361.134265.91852.25,1.368.059.227.128.454.206.678l.062.17.014-.086.028-.178q.03-.178.065-.351l.045-.218.072-.328.151-.655.3-1.3.207,1.336c.017.114.036.208.053.311s.036.2.056.293.038.19.06.28l.047.205c.088.364.188.719.3,1.061.811028,2.485886,2.315396,4.688315,4.336,6.348.227031.161033.438608.342814.632.543-.265232-.095177-.512654-.234098-.732-.411-.63981-.441342-1.231104-.949171-1.764-1.515-.810928-.858722-1.501564-1.823526-2.053-2.868-.333192-.628222-.616723-1.281549-.848-1.954-.122-.352-.23-.717-.326-1.093l-.017-.07c-.016.007-.04.13-.04.13q-.033.168-.061.338l-.026.17-.035.264c-.030072.259246-.045098.520016-.045.781l-.008.928-.44-.84c-.1-.185-.2-.389-.293-.611-.048-.111-.092-.222-.135-.332l-.066-.183c-.083-.238-.155-.478-.216-.718-.121427-.47336-.207992-.954983-.259-1.441Z" transform="translate(-1205.92-99.822)" fill="#fff"/><path id="waving-u-path-251" d="M1234.487,124.106c-.996968-.835531-2.076944-1.566684-3.223-2.182-1.309005-.712789-2.701737-1.259669-4.146-1.628-.776677-.196132-1.569632-.320983-2.369-.373-.827957-.056858-1.659801-.001693-2.473.164-.834684.168529-1.627652.500943-2.333.978-.357042.245124-.685138.529943-.978.849-.305203.322961-.585033.668987-.837,1.035-.620116.898479-1.033987,1.922911-1.212,3-.1597,1.045984-.150922,2.11079.026,3.154.166689,1.005092.413475,1.995247.738,2.961.154.473.318.936.485,1.39l.256.683.478,1.235c-.194-.106-.391-.22-.581-.328s-.393-.233-.584-.36c-.212-.141-.416-.286-.614-.433-.4-.294-.772-.6-1.132-.9s-.7-.6-1.032-.9l-.214-.2-.059-.056-.13-.125c.00273.015542.006404.030904.011.046l.02.058.045.125.012.033.042.1.087.206.177.4c.239.527.488,1.013.741,1.457.427091.763312.929602,1.481902,1.5,2.145.364025.419191.765705.804134,1.2,1.15.160935.110488.313667.232473.457.365-.186771-.065843-.361688-.161405-.518-.283-.467039-.317683-.89705-.686647-1.282-1.1-.608524-.652087-1.144958-1.367891-1.6-2.135-.269-.445-.533-.934-.788-1.464q-.1-.2-.189-.406l-.093-.209-.122-.288c-.1-.241-.194-.484-.283-.725l-.135-.365-.069-.188-.035-.1c-.01131-.027985-.020665-.056721-.028-.086l1.507,1.346c.332.291.676.585,1.034.879s.732.586,1.123.868c.2.141.4.28.6.413.024269.016144.050058.029877.077.041l-.04-.092-.257-.669c-.173-.456-.342-.924-.5-1.4-.339661-.987291-.598186-2.000654-.773-3.03-.190158-1.093524-.202315-2.210596-.036-3.308.186452-1.148725.625693-2.241705,1.286-3.2.266228-.38613.561767-.751207.884-1.092.317626-.344658.67322-.65228,1.06-.917.759-.511709,1.612233-.867279,2.51-1.046.855387-.171081,1.730041-.225243,2.6-.161.827597.057381,1.648101.191286,2.451.4c1.476965.388345,2.898661.962601,4.231,1.709c1.161461.642488,2.252126,1.405351,3.254,2.276.829639.715621,1.57571,1.522747,2.224,2.406.492978.66679.896415,1.395331,1.2,2.167.191368.487351.319739.997138.382,1.517.033939.179814.03732.364062.01.545-.048684-.173843-.084777-.350969-.108-.53-.101661-.501585-.256191-.990984-.461-1.46-.327111-.740199-.743898-1.437419-1.241-2.076-.659792-.840232-1.408474-1.606683-2.233-2.286Z" transform="translate(-1132.74-103.315)" fill="#fff"/><path id="waving-u-path-252" d="M1289.778,167.886l.208.068c.068.021.131.035.2.052s.127.028.191.04c.647014.117079,1.314574.018351,1.9-.281.243477-.125313.474801-.272945.691-.441.155-.118.242-.183.263-.165s-.03.116-.157.275c-.1875.225583-.408385.421176-.655.58-.384025.249198-.819662.40786-1.274.464-.276502.035966-.556498.035966-.833,0-.073-.009-.146-.022-.219-.036-.002353.019911.003822.039889.017.055.221966.244773.465257.469324.727.671.485187.374212,1.032571.659922,1.617.844l.137.041.069.019.1.026.551.116-.2.333c-.032.055-.064.109-.09.16l-.052.1c-.051379.103045-.096137.20926-.134.318-.070065.200857-.111472.410586-.123.623-.011344.360359.034904.72022.137,1.066.08.3.16.536.206.7s.063.259.04.269-.083-.064-.172-.213c-.126562-.215826-.236867-.440782-.33-.673-.155485-.367342-.241603-.7603-.254-1.159-.003119-.249906.030576-.49891.1-.739.037168-.128594.082938-.254545.137-.377l.021-.047c.019-.052-.007-.052-.007-.052l-.042-.009-.075-.019-.151-.041c-.206887-.05912-.409938-.130923-.608-.215-.419024-.178009-.813558-.408882-1.174-.687-.285627-.219906-.549502-.466703-.788-.737l-.022-.025-.038-.046-.077-.091c-.052-.06-.1-.124-.147-.186s-.093-.124-.135-.184-.086-.12-.123-.178l-.234-.347-.118-.175-.082-.129c.336.146.708.316,1.002.432Z" transform="translate(-1226.36-126.342)" fill="#fff"/><path id="waving-u-path-253" d="M1273.876,151.127l.038-.128.026-.109c.036651-.161928.063698-.32588.081-.491.032781-.311526.042141-.625073.028-.938-.022515-.520886-.092133-1.038665-.208-1.547-.114754-.451111-.252602-.896031-.413-1.333.266354.392425.461345.828787.576,1.289.15738.512151.265208,1.038232.322,1.571.035634.327049.045998.656358.031.985-.008289.179312-.027323.357966-.057.535l-.007.051c.010024-.006391.018829-.014518.026-.024l.048-.048c.036-.036.07-.072.1-.11.066612-.075713.128401-.155537.185-.239.115-.169.219-.364.331-.564l.085-.151.141-.243c.118-.2.24-.386.36-.574l.02-.033.03.079.153.405.147.373c.05.122.1.243.155.363q.159.358.33.7c.226.455.462.886.7,1.291.473.809.944,1.513,1.361,2.088.834,1.153,1.452,1.787,1.425,1.813-.593894-.499029-1.130517-1.062484-1.6-1.68-.532134-.65183-1.027887-1.332532-1.485-2.039-.258-.4-.516-.827-.765-1.283q-.187-.342-.363-.7-.089-.182-.172-.369c-.006-.012-.038.043-.038.043l-.086.146c-.114.2-.226.4-.365.593-.069332.097071-.14482.189595-.226.277-.04.043-.082.085-.123.125l-.072.067c-.039.036-.079.07-.118.1-.159.134-.314.249-.461.355l-.439.317-.066.044-.112.077.365-.794c.043598-.094129.08101-.191001.112-.29Z" transform="translate(-1204.99-116.415)" fill="#fff"/><path id="waving-u-path-254" d="M1288.557,161.493c-.237312.221118-.517402.391282-.823.5-.107686.048874-.226242.068863-.344.058.099009-.056036.201944-.10483.308-.146.270637-.14045.513297-.329224.716-.557.30193-.34071.545539-.72893.721-1.149.106593-.247547.193854-.502977.261-.764.035-.136.065-.276.089-.418l.009-.053v-.027c-.012615-.001622-.025385-.001622-.038,0l-.069.008c-.046,0-.091.006-.136.006-.317976-.006523-.633299-.059413-.936-.157-.072-.021-.143-.044-.212-.068l-.086-.029-.1-.035-.185-.071c-.237-.1-.44-.186-.646-.273l-.131-.062c.315-.054.637-.1.862-.149.058-.013.109-.027.162-.041l.13-.039c.049-.016.1-.033.142-.051.175744-.067145.341322-.158348.492-.271.247297-.196275.451537-.441363.6-.72.134-.237.224-.437.291-.571s.108-.205.12-.2-.006.085-.048.229c-.060844.208929-.134312.413973-.22.614-.131488.319886-.330726.607483-.584.843-.15987.141533-.338983.259707-.532.351-.05.024-.1.047-.155.069-.038.03-.028.031-.021.032.087.023.154.041.222.057.267512.070476.543391.10412.82.1.035,0,.068,0,.1-.008l.049-.007c.027291-.004605.054327-.010613.081-.018l.119-.043.136-.079.3-.178c0,.033-.006.059-.006.059v.052c-.014.15-.023.293-.044.445-.01.076-.025.151-.039.226l-.031.14c-.036.154-.079.3-.127.446-.091785.275626-.206174.543202-.342.8-.22298.430748-.519042.819519-.875,1.149Z" transform="translate(-1222.14-121.061)" fill="#fff"/><path id="waving-u-path-255" d="M1207.033,185.281c.209.425.46.932.718,1.5.286013.623027.534784,1.262485.745,1.915.138372.432521.24269.875205.312,1.324.017.108.028.216.039.322l.012.159v.068l-.012.082-.01.057c.01472-.010609.026995-.024248.036-.04.008-.011.016-.025.026-.042l.014-.027c.008-.016.028-.066.028-.066.09731-.235911.182751-.476546.256-.721.049753-.219558.116624-.434883.2-.644.011562.227465-.009315.455418-.062.677-.042793.258137-.100557.513568-.173.765l-.016.056c-.007171.034007-.016864.067433-.029.1l-.068.2-.079.2c-.027.073-.057.126-.087.191-.12.256-.244.5-.4.789l-.05.086-.045.08-.055.1.13-.967c0-.035.011-.079.014-.109l.008-.09.016-.181c0-.1.008-.212,0-.307v-.149c0-.048,0-.085,0-.085l-.013-.149c-.011-.1-.022-.2-.038-.3-.066449-.431711-.162339-.858372-.287-1.277-.2-.684-.443-1.325-.673-1.9s-.453-1.1-.635-1.536c-.222119-.463326-.398294-.947306-.526-1.445.259518.441404.494541.896759.704,1.364Z" transform="translate(-1099.8-134.428)" fill="#fff"/><path id="waving-u-path-235" d="M1271.014,193.782c0,1.8.736,3.255,1.643,3.255s1.643-1.457,1.643-3.255-.734-3.309-1.642-3.309-1.644,1.511-1.644,3.309Z" transform="translate(-1198.16-137.618)" fill="#6d3409"/><path id="waving-u-path-256" d="M1199.888,203.309c-.189,3.846-6.305,8.475-9.352,8.325s-3.74-3.2-2.578-6.872c1.19-3.765,3.36-6.928,6.378-7.373c4.385-.648,5.741,2.074,5.552,5.92Z" transform="translate(-1080.51-140.882)" fill="#ffb888"/><path id="waving-u-path-257" d="M1200.6,204.979c-.095,1.93-2.443,4.682-4.632,5.393-1.69.548-.35-2.569-2.715-2.215-2.151.322-2.544.824-1.709-1.927.855-2.822,2.953-5.336,5.106-5.675c3.126-.493,4.089,1.545,3.95,4.424Z" transform="translate(-1083.13-142.42)" opacity="0.3" fill="#432918"/><path id="waving-u-shadow" d="M1079.5,725.725c0,3.383,29.726,6.126,66.395,6.126s66.394-2.743,66.394-6.126-29.725-6.126-66.394-6.126-66.395,2.743-66.395,6.126Z" transform="translate(-1037.03-392.885)" opacity="0.1"/><path id="waving-u-path-226" d="M1260.54,713.113c5.748.018,6.933,2.757,7.527,4.49.5,1.461.61,5.446.047,5.516s-27.711.375-29.121.375-1.269-2.531-1.035-3.352s7.912-1.786,10.822-3.124c1.41-.647,8.212-3.918,11.76-3.905Z" transform="translate(-1175.17-389.756)" fill="#454d50"/><path id="waving-u-path-227" d="M1151.772,723.643c2.239,0,1.756-3.359.907-4.151-1.312-1.221-6.285-4.826-10.1-4.837-6.026-.017-7.681,2.682-9.984,4.986-1.313,1.313-.429,4.006,1,4.006Z" transform="translate(-1005.29-390.5)" fill="#454d50"/></g></g></g>
<script><![CDATA[
!function(t,n){"object"==typeof exports&&"undefined"!=typeof module?module.exports=n():"function"==typeof define&&define.amd?define(n):((t="undefined"!=typeof globalThis?globalThis:t||self).__SVGATOR_PLAYER__=t.__SVGATOR_PLAYER__||{},t.__SVGATOR_PLAYER__["5c7f360c"]=n())}(this,(function(){"use strict";function t(t,n){var e=Object.keys(t);if(Object.getOwnPropertySymbols){var r=Object.getOwnPropertySymbols(t);n&&(r=r.filter((function(n){return Object.getOwnPropertyDescriptor(t,n).enumerable}))),e.push.apply(e,r)}return e}function n(n){for(var e=1;e<arguments.length;e++){var r=null!=arguments[e]?arguments[e]:{};e%2?t(Object(r),!0).forEach((function(t){o(n,t,r[t])})):Object.getOwnPropertyDescriptors?Object.defineProperties(n,Object.getOwnPropertyDescriptors(r)):t(Object(r)).forEach((function(t){Object.defineProperty(n,t,Object.getOwnPropertyDescriptor(r,t))}))}return n}function e(t){return(e="function"==typeof Symbol&&"symbol"==typeof Symbol.iterator?function(t){return typeof t}:function(t){return t&&"function"==typeof Symbol&&t.constructor===Symbol&&t!==Symbol.prototype?"symbol":typeof t})(t)}function r(t,n){if(!(t instanceof n))throw new TypeError("Cannot call a class as a function")}function i(t,n){for(var e=0;e<n.length;e++){var r=n[e];r.enumerable=r.enumerable||!1,r.configurable=!0,"value"in r&&(r.writable=!0),Object.defineProperty(t,r.key,r)}}function u(t,n,e){return n&&i(t.prototype,n),e&&i(t,e),t}function o(t,n,e){return n in t?Object.defineProperty(t,n,{value:e,enumerable:!0,configurable:!0,writable:!0}):t[n]=e,t}function a(t){return(a=Object.setPrototypeOf?Object.getPrototypeOf:function(t){return t.__proto__||Object.getPrototypeOf(t)})(t)}function l(t,n){return(l=Object.setPrototypeOf||function(t,n){return t.__proto__=n,t})(t,n)}function s(){if("undefined"==typeof Reflect||!Reflect.construct)return!1;if(Reflect.construct.sham)return!1;if("function"==typeof Proxy)return!0;try{return Boolean.prototype.valueOf.call(Reflect.construct(Boolean,[],(function(){}))),!0}catch(t){return!1}}function f(t,n,e){return(f=s()?Reflect.construct:function(t,n,e){var r=[null];r.push.apply(r,n);var i=new(Function.bind.apply(t,r));return e&&l(i,e.prototype),i}).apply(null,arguments)}function c(t,n){if(n&&("object"==typeof n||"function"==typeof n))return n;if(void 0!==n)throw new TypeError("Derived constructors may only return object or undefined");return function(t){if(void 0===t)throw new ReferenceError("this hasn't been initialised - super() hasn't been called");return t}(t)}function h(t,n,e){return(h="undefined"!=typeof Reflect&&Reflect.get?Reflect.get:function(t,n,e){var r=function(t,n){for(;!Object.prototype.hasOwnProperty.call(t,n)&&null!==(t=a(t)););return t}(t,n);if(r){var i=Object.getOwnPropertyDescriptor(r,n);return i.get?i.get.call(e):i.value}})(t,n,e||t)}function v(t){return function(t){if(Array.isArray(t))return y(t)}(t)||function(t){if("undefined"!=typeof Symbol&&null!=t[Symbol.iterator]||null!=t["@@iterator"])return Array.from(t)}(t)||function(t,n){if(!t)return;if("string"==typeof t)return y(t,n);var e=Object.prototype.toString.call(t).slice(8,-1);"Object"===e&&t.constructor&&(e=t.constructor.name);if("Map"===e||"Set"===e)return Array.from(t);if("Arguments"===e||/^(?:Ui|I)nt(?:8|16|32)(?:Clamped)?Array$/.test(e))return y(t,n)}(t)||function(){throw new TypeError("Invalid attempt to spread non-iterable instance.\nIn order to be iterable, non-array objects must have a [Symbol.iterator]() method.")}()}function y(t,n){(null==n||n>t.length)&&(n=t.length);for(var e=0,r=new Array(n);e<n;e++)r[e]=t[e];return r}Number.isInteger||(Number.isInteger=function(t){return"number"==typeof t&&isFinite(t)&&Math.floor(t)===t}),Number.EPSILON||(Number.EPSILON=2220446049250313e-31);var g=d(Math.pow(10,-6));function d(t){var n=arguments.length>1&&void 0!==arguments[1]?arguments[1]:6;if(Number.isInteger(t))return t;var e=Math.pow(10,n);return Math.round((+t+Number.EPSILON)*e)/e}function p(t,n){var e=arguments.length>2&&void 0!==arguments[2]?arguments[2]:g;return Math.abs(t-n)<e}var m=Math.PI/180;function b(t){return t}function w(t,n,e){var r=1-e;return 3*e*r*(t*r+n*e)+e*e*e}function x(){var t=arguments.length>0&&void 0!==arguments[0]?arguments[0]:0,n=arguments.length>1&&void 0!==arguments[1]?arguments[1]:0,e=arguments.length>2&&void 0!==arguments[2]?arguments[2]:1,r=arguments.length>3&&void 0!==arguments[3]?arguments[3]:1;return t<0||t>1||e<0||e>1?null:p(t,n)&&p(e,r)?b:function(i){if(i<=0)return t>0?i*n/t:0===n&&e>0?i*r/e:0;if(i>=1)return e<1?1+(i-1)*(r-1)/(e-1):1===e&&t<1?1+(i-1)*(n-1)/(t-1):1;for(var u,o=0,a=1;o<a;){var l=w(t,e,u=(o+a)/2);if(p(i,l))break;l<i?o=u:a=u}return w(n,r,u)}}function A(){return 1}function k(t){return 1===t?1:0}function _(){var t=arguments.length>0&&void 0!==arguments[0]?arguments[0]:1,n=arguments.length>1&&void 0!==arguments[1]?arguments[1]:0;if(1===t){if(0===n)return k;if(1===n)return A}var e=1/t;return function(t){return t>=1?1:(t+=n*e)-t%e}}var S=Math.sin,O=Math.cos,j=Math.acos,M=Math.asin,P=Math.tan,E=Math.atan2,I=Math.PI/180,R=180/Math.PI,F=Math.sqrt,N=function(){function t(){var n=arguments.length>0&&void 0!==arguments[0]?arguments[0]:1,e=arguments.length>1&&void 0!==arguments[1]?arguments[1]:0,i=arguments.length>2&&void 0!==arguments[2]?arguments[2]:0,u=arguments.length>3&&void 0!==arguments[3]?arguments[3]:1,o=arguments.length>4&&void 0!==arguments[4]?arguments[4]:0,a=arguments.length>5&&void 0!==arguments[5]?arguments[5]:0;r(this,t),this.m=[n,e,i,u,o,a],this.i=null,this.w=null,this.s=null}return u(t,[{key:"determinant",get:function(){var t=this.m;return t[0]*t[3]-t[1]*t[2]}},{key:"isIdentity",get:function(){if(null===this.i){var t=this.m;this.i=1===t[0]&&0===t[1]&&0===t[2]&&1===t[3]&&0===t[4]&&0===t[5]}return this.i}},{key:"point",value:function(t,n){var e=this.m;return{x:e[0]*t+e[2]*n+e[4],y:e[1]*t+e[3]*n+e[5]}}},{key:"translateSelf",value:function(){var t=arguments.length>0&&void 0!==arguments[0]?arguments[0]:0,n=arguments.length>1&&void 0!==arguments[1]?arguments[1]:0;if(!t&&!n)return this;var e=this.m;return e[4]+=e[0]*t+e[2]*n,e[5]+=e[1]*t+e[3]*n,this.w=this.s=this.i=null,this}},{key:"rotateSelf",value:function(){var t=arguments.length>0&&void 0!==arguments[0]?arguments[0]:0;if(t%=360){var n=S(t*=I),e=O(t),r=this.m,i=r[0],u=r[1];r[0]=i*e+r[2]*n,r[1]=u*e+r[3]*n,r[2]=r[2]*e-i*n,r[3]=r[3]*e-u*n,this.w=this.s=this.i=null}return this}},{key:"scaleSelf",value:function(){var t=arguments.length>0&&void 0!==arguments[0]?arguments[0]:1,n=arguments.length>1&&void 0!==arguments[1]?arguments[1]:1;if(1!==t||1!==n){var e=this.m;e[0]*=t,e[1]*=t,e[2]*=n,e[3]*=n,this.w=this.s=this.i=null}return this}},{key:"skewSelf",value:function(t,n){if(n%=360,(t%=360)||n){var e=this.m,r=e[0],i=e[1],u=e[2],o=e[3];t&&(t=P(t*I),e[2]+=r*t,e[3]+=i*t),n&&(n=P(n*I),e[0]+=u*n,e[1]+=o*n),this.w=this.s=this.i=null}return this}},{key:"resetSelf",value:function(){var t=arguments.length>0&&void 0!==arguments[0]?arguments[0]:1,n=arguments.length>1&&void 0!==arguments[1]?arguments[1]:0,e=arguments.length>2&&void 0!==arguments[2]?arguments[2]:0,r=arguments.length>3&&void 0!==arguments[3]?arguments[3]:1,i=arguments.length>4&&void 0!==arguments[4]?arguments[4]:0,u=arguments.length>5&&void 0!==arguments[5]?arguments[5]:0,o=this.m;return o[0]=t,o[1]=n,o[2]=e,o[3]=r,o[4]=i,o[5]=u,this.w=this.s=this.i=null,this}},{key:"recomposeSelf",value:function(){var t=arguments.length>0&&void 0!==arguments[0]?arguments[0]:null,n=arguments.length>1&&void 0!==arguments[1]?arguments[1]:null,e=arguments.length>2&&void 0!==arguments[2]?arguments[2]:null,r=arguments.length>3&&void 0!==arguments[3]?arguments[3]:null,i=arguments.length>4&&void 0!==arguments[4]?arguments[4]:null;return this.isIdentity||this.resetSelf(),t&&(t.x||t.y)&&this.translateSelf(t.x,t.y),n&&this.rotateSelf(n),e&&(e.x&&this.skewSelf(e.x,0),e.y&&this.skewSelf(0,e.y)),!r||1===r.x&&1===r.y||this.scaleSelf(r.x,r.y),i&&(i.x||i.y)&&this.translateSelf(i.x,i.y),this}},{key:"decompose",value:function(){var t=arguments.length>0&&void 0!==arguments[0]?arguments[0]:0,n=arguments.length>1&&void 0!==arguments[1]?arguments[1]:0,e=this.m,r=e[0]*e[0]+e[1]*e[1],i=[[e[0],e[1]],[e[2],e[3]]],u=F(r);if(0===u)return{origin:{x:d(e[4]),y:d(e[5])},translate:{x:d(t),y:d(n)},scale:{x:0,y:0},skew:{x:0,y:0},rotate:0};i[0][0]/=u,i[0][1]/=u;var o=e[0]*e[3]-e[1]*e[2]<0;o&&(u=-u);var a=i[0][0]*i[1][0]+i[0][1]*i[1][1];i[1][0]-=i[0][0]*a,i[1][1]-=i[0][1]*a;var l=F(i[1][0]*i[1][0]+i[1][1]*i[1][1]);if(0===l)return{origin:{x:d(e[4]),y:d(e[5])},translate:{x:d(t),y:d(n)},scale:{x:d(u),y:0},skew:{x:0,y:0},rotate:0};i[1][0]/=l,i[1][1]/=l,a/=l;var s=0;return i[1][1]<0?(s=j(i[1][1])*R,i[0][1]<0&&(s=360-s)):s=M(i[0][1])*R,o&&(s=-s),a=E(a,F(i[0][0]*i[0][0]+i[0][1]*i[0][1]))*R,o&&(a=-a),{origin:{x:d(e[4]),y:d(e[5])},translate:{x:d(t),y:d(n)},scale:{x:d(u),y:d(l)},skew:{x:d(a),y:0},rotate:d(s)}}},{key:"clone",value:function(){var t=this.m;return new this.constructor(t[0],t[1],t[2],t[3],t[4],t[5])}},{key:"toString",value:function(){var t=arguments.length>0&&void 0!==arguments[0]?arguments[0]:" ";if(null===this.s){var n=this.m.map((function(t){return d(t)}));1===n[0]&&0===n[1]&&0===n[2]&&1===n[3]?this.s="translate("+n[4]+t+n[5]+")":this.s="matrix("+n.join(t)+")"}return this.s}}],[{key:"create",value:function(t){return t?Array.isArray(t)?f(this,v(t)):t instanceof this?t.clone():(new this).recomposeSelf(t.origin,t.rotate,t.skew,t.scale,t.translate):new this}}]),t}();function T(t,n,e){return t>=.5?e:n}function q(t,n,e){return 0===t||n===e?n:t*(e-n)+n}function B(t,n,e){var r=q(t,n,e);return r<=0?0:r}function L(t,n,e){var r=q(t,n,e);return r<=0?0:r>=1?1:r}function C(t,n,e){return 0===t?n:1===t?e:{x:q(t,n.x,e.x),y:q(t,n.y,e.y)}}function D(t,n,e){var r=function(t,n,e){return Math.round(q(t,n,e))}(t,n,e);return r<=0?0:r>=255?255:r}function z(t,n,e){return 0===t?n:1===t?e:{r:D(t,n.r,e.r),g:D(t,n.g,e.g),b:D(t,n.b,e.b),a:q(t,null==n.a?1:n.a,null==e.a?1:e.a)}}function V(t,n){for(var e=[],r=0;r<t;r++)e.push(n);return e}function G(t,n){if(--n<=0)return t;var e=(t=Object.assign([],t)).length;do{for(var r=0;r<e;r++)t.push(t[r])}while(--n>0);return t}var Y,$=function(){function t(n){r(this,t),this.list=n,this.length=n.length}return u(t,[{key:"setAttribute",value:function(t,n){for(var e=this.list,r=0;r<this.length;r++)e[r].setAttribute(t,n)}},{key:"removeAttribute",value:function(t){for(var n=this.list,e=0;e<this.length;e++)n[e].removeAttribute(t)}},{key:"style",value:function(t,n){for(var e=this.list,r=0;r<this.length;r++)e[r].style[t]=n}}]),t}(),U=/-./g,Q=function(t,n){return n.toUpperCase()};function H(t){return"function"==typeof t?t:T}function J(t){return t?"function"==typeof t?t:Array.isArray(t)?function(t){var n=arguments.length>1&&void 0!==arguments[1]?arguments[1]:b;if(!Array.isArray(t))return n;switch(t.length){case 1:return _(t[0])||n;case 2:return _(t[0],t[1])||n;case 4:return x(t[0],t[1],t[2],t[3])||n}return n}(t,null):function(t,n){var e=arguments.length>2&&void 0!==arguments[2]?arguments[2]:b;switch(t){case"linear":return b;case"steps":return _(n.steps||1,n.jump||0)||e;case"bezier":case"cubic-bezier":return x(n.x1||0,n.y1||0,n.x2||0,n.y2||0)||e}return e}(t.type,t.value,null):null}function Z(t,n,e){var r=arguments.length>3&&void 0!==arguments[3]&&arguments[3],i=n.length-1;if(t<=n[0].t)return r?[0,0,n[0].v]:n[0].v;if(t>=n[i].t)return r?[i,1,n[i].v]:n[i].v;var u,o=n[0],a=null;for(u=1;u<=i;u++){if(!(t>n[u].t)){a=n[u];break}o=n[u]}return null==a?r?[i,1,n[i].v]:n[i].v:o.t===a.t?r?[u,1,a.v]:a.v:(t=(t-o.t)/(a.t-o.t),o.e&&(t=o.e(t)),r?[u,t,e(t,o.v,a.v)]:e(t,o.v,a.v))}function K(t,n){var e=arguments.length>2&&void 0!==arguments[2]?arguments[2]:null;return t&&t.length?"function"!=typeof n?null:("function"!=typeof e&&(e=null),function(r){var i=Z(r,t,n);return null!=i&&e&&(i=e(i)),i}):null}function W(t,n){return t.t-n.t}function X(t,n,r,i,u){var o,a="@"===r[0],l="#"===r[0],s=Y[r],f=T;switch(a?(o=r.substr(1),r=o.replace(U,Q)):l&&(r=r.substr(1)),e(s)){case"function":if(f=s(i,u,Z,J,r,a,n,t),l)return f;break;case"string":f=K(i,H(s));break;case"object":if((f=K(i,H(s.i),s.f))&&"function"==typeof s.u)return s.u(n,f,r,a,t)}return f?function(t,n,e){if(arguments.length>3&&void 0!==arguments[3]&&arguments[3])return t instanceof $?function(r){return t.style(n,e(r))}:function(r){return t.style[n]=e(r)};if(Array.isArray(n)){var r=n.length;return function(i){var u=e(i);if(null==u)for(var o=0;o<r;o++)t[o].removeAttribute(n);else for(var a=0;a<r;a++)t[a].setAttribute(n,u)}}return function(r){var i=e(r);null==i?t.removeAttribute(n):t.setAttribute(n,i)}}(n,r,f,a):null}function tt(t,n,r,i){if(!i||"object"!==e(i))return null;var u=null,o=null;return Array.isArray(i)?o=function(t){if(!t||!t.length)return null;for(var n=0;n<t.length;n++)t[n].e&&(t[n].e=J(t[n].e));return t.sort(W)}(i):(o=i.keys,u=i.data||null),o?X(t,n,r,o,u):null}function nt(t,n,e){if(!e)return null;var r=[];for(var i in e)if(e.hasOwnProperty(i)){var u=tt(t,n,i,e[i]);u&&r.push(u)}return r.length?r:null}function et(t,n){if(!n.settings.duration||n.settings.duration<0)return null;var e,r,i,u,o,a=function(t,n){if(!n)return null;var e=[];if(Array.isArray(n))for(var r=n.length,i=0;i<r;i++){var u=n[i];if(2===u.length){var o=null;if("string"==typeof u[0])o=t.getElementById(u[0]);else if(Array.isArray(u[0])){o=[];for(var a=0;a<u[0].length;a++)if("string"==typeof u[0][a]){var l=t.getElementById(u[0][a]);l&&o.push(l)}o=o.length?1===o.length?o[0]:new $(o):null}if(o){var s=nt(t,o,u[1]);s&&(e=e.concat(s))}}}else for(var f in n)if(n.hasOwnProperty(f)){var c=t.getElementById(f);if(c){var h=nt(t,c,n[f]);h&&(e=e.concat(h))}}return e.length?e:null}(t,n.elements);return a?(e=a,r=n.settings,i=r.duration,u=e.length,o=null,function(t,n){var a=r.iterations||1/0,l=(r.alternate&&a%2==0)^r.direction>0?i:0,s=t%i,f=1+(t-s)/i;n*=r.direction,r.alternate&&f%2==0&&(n=-n);var c=!1;if(f>a)s=l,c=!0,-1===r.fill&&(s=r.direction>0?0:i);else if(n<0&&(s=i-s),s===o)return!1;o=s;for(var h=0;h<u;h++)e[h](s);return c}):null}function rt(t,n){if(Y=n,!t||!t.root||!Array.isArray(t.animations))return null;var e=function(t){for(var n=document.getElementsByTagName("svg"),e=0;e<n.length;e++)if(n[e].id===t.root&&!n[e].svgatorAnimation)return n[e].svgatorAnimation=!0,n[e];return null}(t);if(!e)return null;var r=t.animations.map((function(t){return et(e,t)})).filter((function(t){return!!t}));return r.length?{svg:e,animations:r,animationSettings:t.animationSettings,options:t.options||void 0}:null}function it(t){return+("0x"+(t.replace(/[^0-9a-fA-F]+/g,"")||27))}function ut(t,n,e){return!t||!e||n>t.length?t:t.substring(0,n)+ut(t.substring(n+1),e,e)}function ot(t){var n=arguments.length>1&&void 0!==arguments[1]?arguments[1]:27;return!t||t%n?t%n:ot(t/n,n)}function at(t,n,e){if(t&&t.length){var r=it(e),i=it(n),u=ot(r)+5,o=ut(t,ot(r,5),u);return o=o.replace(/\x7c$/g,"==").replace(/\x2f$/g,"="),o=function(t,n,e){var r=+("0x"+t.substring(0,4));t=t.substring(4);for(var i=n%r+e%27,u=[],o=0;o<t.length;o+=2)if("|"!==t[o]){var a=+("0x"+t[o]+t[o+1])-i;u.push(a)}else{var l=+("0x"+t.substring(o+1,o+1+4))-i;o+=3,u.push(l)}return String.fromCharCode.apply(String,u)}(o=(o=atob(o)).replace(/[\x41-\x5A]/g,""),i,r),o=JSON.parse(o)}}var lt=[{key:"alternate",def:!1},{key:"fill",def:1},{key:"iterations",def:0},{key:"direction",def:1},{key:"speed",def:1},{key:"fps",def:100}],st=function(){function t(n,e){var i=this,u=arguments.length>2&&void 0!==arguments[2]?arguments[2]:null;r(this,t),this._id=0,this._running=!1,this._rollingBack=!1,this._animations=n,this._settings=e,(!u||u<"2022-05-02")&&delete this._settings.speed,lt.forEach((function(t){i._settings[t.key]=i._settings[t.key]||t.def})),this.duration=e.duration,this.offset=e.offset||0,this.rollbackStartOffset=0}return u(t,[{key:"alternate",get:function(){return this._settings.alternate}},{key:"fill",get:function(){return this._settings.fill}},{key:"iterations",get:function(){return this._settings.iterations}},{key:"direction",get:function(){return this._settings.direction}},{key:"speed",get:function(){return this._settings.speed}},{key:"fps",get:function(){return this._settings.fps}},{key:"maxFiniteDuration",get:function(){return this.iterations>0?this.iterations*this.duration:this.duration}},{key:"_apply",value:function(t){for(var n=arguments.length>1&&void 0!==arguments[1]?arguments[1]:{},e=this._animations,r=e.length,i=0,u=0;u<r;u++)n[u]?i++:(n[u]=e[u](t,1),n[u]&&i++);return i}},{key:"_rollback",value:function(t){var n=this,e=1/0,r=null;this.rollbackStartOffset=t,this._rollingBack=!0,this._running=!0;this._id=window.requestAnimationFrame((function i(u){if(n._rollingBack){null==r&&(r=u);var o=Math.round(t-(u-r)*n.speed);if(o>n.duration&&e!==1/0){var a=!!n.alternate&&o/n.duration%2>1,l=o%n.duration;o=(l+=a?n.duration:0)||n.duration}var s=(n.fps?1e3/n.fps:0)*n.speed,f=Math.max(0,o);f<=e-s&&(n.offset=f,e=f,n._apply(f));var c=n.iterations>0&&-1===n.fill&&o>=n.maxFiniteDuration;(o<=0||n.offset<o||c)&&n.stop(),n._id=window.requestAnimationFrame(i)}}))}},{key:"_start",value:function(){var t=this,n=arguments.length>0&&void 0!==arguments[0]?arguments[0]:0,e=-1/0,r=null,i={};this._running=!0;var u=function u(o){null==r&&(r=o);var a=Math.round((o-r)*t.speed+n),l=(t.fps?1e3/t.fps:0)*t.speed;if(a>=e+l&&!t._rollingBack&&(t.offset=a,e=a,t._apply(a,i)===t._animations.length))return void t.pause(!0);t._id=window.requestAnimationFrame(u)};this._id=window.requestAnimationFrame(u)}},{key:"_pause",value:function(){this._id&&window.cancelAnimationFrame(this._id),this._running=!1}},{key:"play",value:function(){if(!this._running)return this._rollingBack?this._rollback(this.offset):this._start(this.offset)}},{key:"stop",value:function(){this._pause(),this.offset=0,this.rollbackStartOffset=0,this._rollingBack=!1,this._apply(0)}},{key:"reachedToEnd",value:function(){return this.iterations>0&&this.offset>=this.iterations*this.duration}},{key:"restart",value:function(){var t=arguments.length>0&&void 0!==arguments[0]&&arguments[0];this.stop(t),this.play(t)}},{key:"pause",value:function(){this._pause()}},{key:"reverse",value:function(){this.direction=-this.direction}}],[{key:"build",value:function(t,n){delete t.animationSettings,t.options=at(t.options,t.root,"5c7f360c"),t.animations.map((function(n){n.settings=at(n.s,t.root,"5c7f360c"),delete n.s,t.animationSettings||(t.animationSettings=n.settings)}));var e=t.version;if(!(t=rt(t,n)))return null;var r=t.options||{},i=new this(t.animations,t.animationSettings,e);return{el:t.svg,options:r,player:i}}},{key:"push",value:function(t){return this.build(t)}},{key:"init",value:function(){var t=this,n=window.__SVGATOR_PLAYER__&&window.__SVGATOR_PLAYER__["5c7f360c"];Array.isArray(n)&&n.splice(0).forEach((function(n){return t.build(n)}))}}]),t}();function ft(t){return d(t)+""}function ct(t){var n=arguments.length>1&&void 0!==arguments[1]?arguments[1]:" ";return t&&t.length?t.map(ft).join(n):""}function ht(t){if(!t)return"transparent";if(null==t.a||t.a>=1){var n=function(t){return 1===(t=parseInt(t).toString(16)).length?"0"+t:t},e=function(t){return t.charAt(0)===t.charAt(1)},r=n(t.r),i=n(t.g),u=n(t.b);return e(r)&&e(i)&&e(u)&&(r=r.charAt(0),i=i.charAt(0),u=u.charAt(0)),"#"+r+i+u}return"rgba("+t.r+","+t.g+","+t.b+","+t.a+")"}function vt(t){return t?"url(#"+t+")":"none"}!function(){for(var t=0,n=["ms","moz","webkit","o"],e=0;e<n.length&&!window.requestAnimationFrame;++e)window.requestAnimationFrame=window[n[e]+"RequestAnimationFrame"],window.cancelAnimationFrame=window[n[e]+"CancelAnimationFrame"]||window[n[e]+"CancelRequestAnimationFrame"];window.requestAnimationFrame||(window.requestAnimationFrame=function(n){var e=Date.now(),r=Math.max(0,16-(e-t)),i=window.setTimeout((function(){n(e+r)}),r);return t=e+r,i},window.cancelAnimationFrame=window.clearTimeout)}();var yt={f:null,i:function(t,n,e){return 0===t?n:1===t?e:{x:B(t,n.x,e.x),y:B(t,n.y,e.y)}},u:function(t,n){return function(e){var r=n(e);t.setAttribute("rx",ft(r.x)),t.setAttribute("ry",ft(r.y))}}},gt={f:null,i:function(t,n,e){return 0===t?n:1===t?e:{width:B(t,n.width,e.width),height:B(t,n.height,e.height)}},u:function(t,n){return function(e){var r=n(e);t.setAttribute("width",ft(r.width)),t.setAttribute("height",ft(r.height))}}};Object.freeze({M:2,L:2,Z:0,H:1,V:1,C:6,Q:4,T:2,S:4,A:7});var dt={},pt=null;function mt(t){var n=function(){if(pt)return pt;if("object"!==("undefined"==typeof document?"undefined":e(document))||!document.createElementNS)return{};var t=document.createElementNS("http://www.w3.org/2000/svg","svg");return t&&t.style?(t.style.position="absolute",t.style.opacity="0.01",t.style.zIndex="-9999",t.style.left="-9999px",t.style.width="1px",t.style.height="1px",pt={svg:t}):{}}().svg;if(!n)return function(t){return null};var r=document.createElementNS(n.namespaceURI,"path");r.setAttributeNS(null,"d",t),r.setAttributeNS(null,"fill","none"),r.setAttributeNS(null,"stroke","none"),n.appendChild(r);var i=r.getTotalLength();return function(t){var n=r.getPointAtLength(i*t);return{x:n.x,y:n.y}}}function bt(t){return dt[t]?dt[t]:dt[t]=mt(t)}function wt(t,n,e,r){if(!t||!r)return!1;var i=["M",t.x,t.y];if(n&&e&&(i.push("C"),i.push(n.x),i.push(n.y),i.push(e.x),i.push(e.y)),n?!e:e){var u=n||e;i.push("Q"),i.push(u.x),i.push(u.y)}return n||e||i.push("L"),i.push(r.x),i.push(r.y),i.join(" ")}function xt(t,n,e,r){var i=arguments.length>4&&void 0!==arguments[4]?arguments[4]:1,u=wt(t,n,e,r),o=bt(u);try{return o(i)}catch(t){return null}}function At(t,n,e){return t+(n-t)*e}function kt(t,n,e){var r=arguments.length>3&&void 0!==arguments[3]&&arguments[3],i={x:At(t.x,n.x,e),y:At(t.y,n.y,e)};return r&&(i.a=_t(t,n)),i}function _t(t,n){return Math.atan2(n.y-t.y,n.x-t.x)}function St(t,n,e,r){var i=1-r;return i*i*t+2*i*r*n+r*r*e}function Ot(t,n,e,r){return 2*(1-r)*(n-t)+2*r*(e-n)}function jt(t,n,e,r){var i=arguments.length>4&&void 0!==arguments[4]&&arguments[4],u=xt(t,n,null,e,r);return u||(u={x:St(t.x,n.x,e.x,r),y:St(t.y,n.y,e.y,r)}),i&&(u.a=Mt(t,n,e,r)),u}function Mt(t,n,e,r){return Math.atan2(Ot(t.y,n.y,e.y,r),Ot(t.x,n.x,e.x,r))}function Pt(t,n,e,r,i){var u=i*i;return i*u*(r-t+3*(n-e))+3*u*(t+e-2*n)+3*i*(n-t)+t}function Et(t,n,e,r,i){var u=1-i;return 3*(u*u*(n-t)+2*u*i*(e-n)+i*i*(r-e))}function It(t,n,e,r,i){var u=arguments.length>5&&void 0!==arguments[5]&&arguments[5],o=xt(t,n,e,r,i);return o||(o={x:Pt(t.x,n.x,e.x,r.x,i),y:Pt(t.y,n.y,e.y,r.y,i)}),u&&(o.a=Rt(t,n,e,r,i)),o}function Rt(t,n,e,r,i){return Math.atan2(Et(t.y,n.y,e.y,r.y,i),Et(t.x,n.x,e.x,r.x,i))}function Ft(t,n,e){var r=arguments.length>3&&void 0!==arguments[3]&&arguments[3];if(Tt(n)){if(qt(e))return jt(n,e.start,e,t,r)}else if(Tt(e)){if(Bt(n))return jt(n,n.end,e,t,r)}else{if(Bt(n))return qt(e)?It(n,n.end,e.start,e,t,r):jt(n,n.end,e,t,r);if(qt(e))return jt(n,e.start,e,t,r)}return kt(n,e,t,r)}function Nt(t,n,e){var r=Ft(t,n,e,!0);return r.a=function(t){return arguments.length>1&&void 0!==arguments[1]&&arguments[1]?t+Math.PI:t}(r.a)/m,r}function Tt(t){return!t.type||"corner"===t.type}function qt(t){return null!=t.start&&!Tt(t)}function Bt(t){return null!=t.end&&!Tt(t)}var Lt=new N;var Ct={f:ft,i:q},Dt={f:ft,i:L};function zt(t,n,e){return t.map((function(t){return function(t,n,e){var r=t.v;if(!r||"g"!==r.t||r.s||!r.v||!r.r)return t;var i=e.getElementById(r.r),u=i&&i.querySelectorAll("stop")||[];return r.s=r.v.map((function(t,n){var e=u[n]&&u[n].getAttribute("offset");return{c:t,o:e=d(parseInt(e)/100)}})),delete r.v,t}(t,0,e)}))}var Vt={gt:"gradientTransform",c:{x:"cx",y:"cy"},rd:"r",f:{x:"x1",y:"y1"},to:{x:"x2",y:"y2"}};function Gt(t,n,r,i,u,o,a,l){return zt(t,0,l),n=function(t,n,e){for(var r,i,u,o=t.length-1,a={},l=0;l<=o;l++)(r=t[l]).e&&(r.e=n(r.e)),r.v&&"g"===(i=r.v).t&&i.r&&(u=e.getElementById(i.r))&&(a[i.r]={e:u,s:u.querySelectorAll("stop")});return a}(t,i,l),function(i){var u=r(i,t,Yt);if(!u)return"none";if("c"===u.t)return ht(u.v);if("g"===u.t){if(!n[u.r])return vt(u.r);var o=n[u.r];return function(t,n){for(var e=t.s,r=e.length;r<n.length;r++){var i=e[e.length-1].cloneNode();i.id=Qt(i.id),t.e.appendChild(i),e=t.s=t.e.querySelectorAll("stop")}for(var u=0,o=e.length,a=n.length-1;u<o;u++)e[u].setAttribute("stop-color",ht(n[Math.min(u,a)].c)),e[u].setAttribute("offset",n[Math.min(u,a)].o)}(o,u.s),Object.keys(Vt).forEach((function(t){if(void 0!==u[t])if("object"!==e(Vt[t])){var n,r="gt"===t?(n=u[t],Array.isArray(n)?"matrix("+n.join(" ")+")":""):u[t],i=Vt[t];o.e.setAttribute(i,r)}else Object.keys(Vt[t]).forEach((function(n){if(void 0!==u[t][n]){var e=u[t][n],r=Vt[t][n];o.e.setAttribute(r,e)}}))})),vt(u.r)}return"none"}}function Yt(t,e,r){if(0===t)return e;if(1===t)return r;if(e&&r){var i=e.t;if(i===r.t)switch(e.t){case"c":return{t:i,v:z(t,e.v,r.v)};case"g":if(e.r===r.r){var u={t:i,s:$t(t,e.s,r.s),r:e.r};return e.gt&&r.gt&&(u.gt=function(t,n,e){var r=n.length;if(r!==e.length)return T(t,n,e);for(var i=new Array(r),u=0;u<r;u++)i[u]=q(t,n[u],e[u]);return i}(t,e.gt,r.gt)),e.c?(u.c=C(t,e.c,r.c),u.rd=B(t,e.rd,r.rd)):e.f&&(u.f=C(t,e.f,r.f),u.to=C(t,e.to,r.to)),u}}if("c"===e.t&&"g"===r.t||"c"===r.t&&"g"===e.t){var o="c"===e.t?e:r,a="g"===e.t?n({},e):n({},r),l=a.s.map((function(t){return{c:o.v,o:t.o}}));return a.s="c"===e.t?$t(t,l,a.s):$t(t,a.s,l),a}}return T(t,e,r)}function $t(t,n,e){if(n.length===e.length)return n.map((function(n,r){return Ut(t,n,e[r])}));for(var r=Math.max(n.length,e.length),i=[],u=0;u<r;u++){var o=Ut(t,n[Math.min(u,n.length-1)],e[Math.min(u,e.length-1)]);i.push(o)}return i}function Ut(t,n,e){return{o:L(t,n.o,e.o||0),c:z(t,n.c,e.c||{})}}function Qt(t){return t.replace(/-fill-([0-9]+)$/,(function(t,n){return"-fill-"+(+n+1)}))}var Ht={fill:Gt,"fill-opacity":Dt,stroke:Gt,"stroke-opacity":Dt,"stroke-width":Ct,"stroke-dashoffset":{f:ft,i:q},"stroke-dasharray":{f:function(t){var n=arguments.length>1&&void 0!==arguments[1]?arguments[1]:" ";return t&&t.length>0&&(t=t.map((function(t){return d(t,4)}))),ct(t,n)},i:function(t,n,e){var r,i,u,o=n.length,a=e.length;if(o!==a)if(0===o)n=V(o=a,0);else if(0===a)a=o,e=V(o,0);else{var l=(u=(r=o)*(i=a)/function(t,n){for(var e;n;)e=n,n=t%n,t=e;return t||1}(r,i))<0?-u:u;n=G(n,Math.floor(l/o)),e=G(e,Math.floor(l/a)),o=a=l}for(var s=[],f=0;f<o;f++)s.push(d(B(t,n[f],e[f])));return s}},opacity:Dt,transform:function(t,n,r,i){if(!(t=function(t,n){if(!t||"object"!==e(t))return null;var r=!1;for(var i in t)t.hasOwnProperty(i)&&(t[i]&&t[i].length?(t[i].forEach((function(t){t.e&&(t.e=n(t.e))})),r=!0):delete t[i]);return r?t:null}(t,i)))return null;var u=function(e,i,u){var o=arguments.length>3&&void 0!==arguments[3]?arguments[3]:null;return t[e]?r(i,t[e],u):n&&n[e]?n[e]:o};return n&&n.a&&t.o?function(n){var e=r(n,t.o,Nt);return Lt.recomposeSelf(e,u("r",n,q,0)+e.a,u("k",n,C),u("s",n,C),u("t",n,C)).toString()}:function(t){return Lt.recomposeSelf(u("o",t,Ft,null),u("r",t,q,0),u("k",t,C),u("s",t,C),u("t",t,C)).toString()}},r:Ct,"#size":gt,"#radius":yt,_:function(t,n){if(Array.isArray(t))for(var e=0;e<t.length;e++)this[t[e]]=n;else this[t]=n}},Jt=function(t){!function(t,n){if("function"!=typeof n&&null!==n)throw new TypeError("Super expression must either be null or a function");t.prototype=Object.create(n&&n.prototype,{constructor:{value:t,writable:!0,configurable:!0}}),n&&l(t,n)}(o,t);var n,e,i=(n=o,e=s(),function(){var t,r=a(n);if(e){var i=a(this).constructor;t=Reflect.construct(r,arguments,i)}else t=r.apply(this,arguments);return c(this,t)});function o(){return r(this,o),i.apply(this,arguments)}return u(o,null,[{key:"build",value:function(t){var n=h(a(o),"build",this).call(this,t,Ht);if(!n)return null;n.el,n.options,function(t,n,e){t.play()}(n.player)}}]),o}(st);return Jt.init(),Jt}));
(function(s,i,o,w,a,b){w[o]=w[o]||{};w[o][s]=w[o][s]||[];w[o][s].push(i);})('5c7f360c',{"root":"waving","version":"2022-05-04","animations":[{"elements":{"waving-u-hand":{"transform":{"data":{"o":{"x":17.484674,"y":40.403547,"type":"corner"},"s":{"x":1.0002,"y":1.0002},"t":{"x":-16.905651,"y":-42.019437}},"keys":{"r":[{"t":0,"v":-40.415801},{"t":300,"v":-12.140018},{"t":600,"v":7.939253},{"t":900,"v":21.426783},{"t":1200,"v":-7.599359},{"t":1500,"v":-26.692425},{"t":1800,"v":-40.10211},{"t":2000,"v":-25.496626},{"t":2200,"v":-13.518344},{"t":2400,"v":2.439736},{"t":2600,"v":23.664738},{"t":2900,"v":29.427853},{"t":3000,"v":9.239127}]}}}},"s":"MBDA1ZDkxMzg3YThiODSg3NzhhN2Y4NTg0MzhMKNTA0OTQ2NDY0NjQyUMzg3YTdmODg3Yjc5OBGE3Zjg1ODQzODUwNDDc0MjM4N2Y4YTdiODgP3N0c4YTdmODU4NFQ4ROTM4NTA0NjQyMzhBNU2M3ZkQ4MjgyUzM4NTYA0NzQyMzg3NzgyOGEU3Yjg4Tjg0Ujc3OGE3CYjM4NTA3Yzc3ODI4OMTdiNDJDMzg4OTg2N2HI3YjdhMzg1MDQ3UzQXyMzhIN2M4Njg5VjM4SNTA0NzQ2NDY5Mw|"}],"options":"MYDAxMDkxMzg4OThhRzBc3ODg4YTM4NTAzODgDyODU3NzdhMzhPOTM/U"},'__SVGATOR_PLAYER__',window)
]]></script>
</svg>
